<?xml version="1.0" encoding="UTF-8"?>
<!--Generator: Apple Native CoreSVG 149-->
<!DOCTYPE svg
PUBLIC "-//W3C//DTD SVG 1.1//EN"
       "http://www.w3.org/Graphics/SVG/1.1/DTD/svg11.dtd">
<svg version="1.1" xmlns="http://www.w3.org/2000/svg" xmlns:xlink="http://www.w3.org/1999/xlink" width="3300" height="2200">
 <!--glyph: "", point size: 100.0, font version: "17.0d9e1", template writer version: "59"-->
 <g id="Notes">
  <rect height="2200" id="artboard" style="fill:white;opacity:1" width="3300" x="0" y="0"/>
  <line style="fill:none;stroke:black;opacity:1;stroke-width:0.5;" x1="263" x2="3036" y1="292" y2="292"/>
  <text style="stroke:none;fill:black;font-family:sans-serif;font-size:13;font-weight:bold;" transform="matrix(1 0 0 1 263 322)">Weight/Scale Variations</text>
  <text style="stroke:none;fill:black;font-family:sans-serif;font-size:13;text-anchor:middle;" transform="matrix(1 0 0 1 559.711 322)">Ultralight</text>
  <text style="stroke:none;fill:black;font-family:sans-serif;font-size:13;text-anchor:middle;" transform="matrix(1 0 0 1 856.422 322)">Thin</text>
  <text style="stroke:none;fill:black;font-family:sans-serif;font-size:13;text-anchor:middle;" transform="matrix(1 0 0 1 1153.13 322)">Light</text>
  <text style="stroke:none;fill:black;font-family:sans-serif;font-size:13;text-anchor:middle;" transform="matrix(1 0 0 1 1449.84 322)">Regular</text>
  <text style="stroke:none;fill:black;font-family:sans-serif;font-size:13;text-anchor:middle;" transform="matrix(1 0 0 1 1746.56 322)">Medium</text>
  <text style="stroke:none;fill:black;font-family:sans-serif;font-size:13;text-anchor:middle;" transform="matrix(1 0 0 1 2043.27 322)">Semibold</text>
  <text style="stroke:none;fill:black;font-family:sans-serif;font-size:13;text-anchor:middle;" transform="matrix(1 0 0 1 2339.98 322)">Bold</text>
  <text style="stroke:none;fill:black;font-family:sans-serif;font-size:13;text-anchor:middle;" transform="matrix(1 0 0 1 2636.69 322)">Heavy</text>
  <text style="stroke:none;fill:black;font-family:sans-serif;font-size:13;text-anchor:middle;" transform="matrix(1 0 0 1 2933.4 322)">Black</text>
  <line style="fill:none;stroke:black;opacity:1;stroke-width:0.5;" x1="263" x2="3036" y1="1903" y2="1903"/>
  <g transform="matrix(1 0 0 1 263 1933)">
   <path d="M9.24805 0.830078Q10.8691 0.830078 12.2949 0.214844Q13.7207-0.400391 14.8096-1.49414Q15.8984-2.58789 16.5186-4.01367Q17.1387-5.43945 17.1387-7.05078Q17.1387-8.66211 16.5186-10.0879Q15.8984-11.5137 14.8047-12.6074Q13.7109-13.7012 12.2852-14.3164Q10.8594-14.9316 9.23828-14.9316Q7.62695-14.9316 6.20117-14.3164Q4.77539-13.7012 3.69141-12.6074Q2.60742-11.5137 1.9873-10.0879Q1.36719-8.66211 1.36719-7.05078Q1.36719-5.43945 1.9873-4.01367Q2.60742-2.58789 3.69629-1.49414Q4.78516-0.400391 6.21094 0.214844Q7.63672 0.830078 9.24805 0.830078ZM9.24805-0.654297Q7.91992-0.654297 6.7627-1.14746Q5.60547-1.64062 4.73145-2.51953Q3.85742-3.39844 3.36426-4.56055Q2.87109-5.72266 2.87109-7.05078Q2.87109-8.37891 3.35938-9.54102Q3.84766-10.7031 4.72168-11.582Q5.5957-12.4609 6.75293-12.9541Q7.91016-13.4473 9.23828-13.4473Q10.5762-13.4473 11.7334-12.9541Q12.8906-12.4609 13.7695-11.582Q14.6484-10.7031 15.1465-9.54102Q15.6445-8.37891 15.6445-7.05078Q15.6445-5.72266 15.1514-4.56055Q14.6582-3.39844 13.7842-2.51953Q12.9102-1.64062 11.748-1.14746Q10.5859-0.654297 9.24805-0.654297ZM5.83984-7.04102Q5.83984-6.71875 6.04492-6.51855Q6.25-6.31836 6.5918-6.31836L8.50586-6.31836L8.50586-4.39453Q8.50586-4.0625 8.70605-3.85742Q8.90625-3.65234 9.22852-3.65234Q9.56055-3.65234 9.76562-3.85742Q9.9707-4.0625 9.9707-4.39453L9.9707-6.31836L11.8945-6.31836Q12.2266-6.31836 12.4316-6.51855Q12.6367-6.71875 12.6367-7.04102Q12.6367-7.37305 12.4316-7.57812Q12.2266-7.7832 11.8945-7.7832L9.9707-7.7832L9.9707-9.69727Q9.9707-10.0391 9.76562-10.2441Q9.56055-10.4492 9.22852-10.4492Q8.90625-10.4492 8.70605-10.2441Q8.50586-10.0391 8.50586-9.69727L8.50586-7.7832L6.5918-7.7832Q6.25-7.7832 6.04492-7.57812Q5.83984-7.37305 5.83984-7.04102Z"/>
  </g>
  <g transform="matrix(1 0 0 1 281.867 1933)">
   <path d="M11.709 2.91016Q13.75 2.91016 15.5518 2.12891Q17.3535 1.34766 18.7305-0.0292969Q20.1074-1.40625 20.8887-3.20801Q21.6699-5.00977 21.6699-7.05078Q21.6699-9.0918 20.8887-10.8936Q20.1074-12.6953 18.7305-14.0723Q17.3535-15.4492 15.5469-16.2305Q13.7402-17.0117 11.6992-17.0117Q9.6582-17.0117 7.85645-16.2305Q6.05469-15.4492 4.68262-14.0723Q3.31055-12.6953 2.5293-10.8936Q1.74805-9.0918 1.74805-7.05078Q1.74805-5.00977 2.5293-3.20801Q3.31055-1.40625 4.6875-0.0292969Q6.06445 1.34766 7.86621 2.12891Q9.66797 2.91016 11.709 2.91016ZM11.709 1.25Q9.98047 1.25 8.47656 0.605469Q6.97266-0.0390625 5.83496-1.17676Q4.69727-2.31445 4.05762-3.81836Q3.41797-5.32227 3.41797-7.05078Q3.41797-8.7793 4.05762-10.2832Q4.69727-11.7871 5.83008-12.9297Q6.96289-14.0723 8.4668-14.7119Q9.9707-15.3516 11.6992-15.3516Q13.4277-15.3516 14.9316-14.7119Q16.4355-14.0723 17.5781-12.9297Q18.7207-11.7871 19.3652-10.2832Q20.0098-8.7793 20.0098-7.05078Q20.0098-5.32227 19.3701-3.81836Q18.7305-2.31445 17.5928-1.17676Q16.4551-0.0390625 14.9463 0.605469Q13.4375 1.25 11.709 1.25ZM7.39258-7.04102Q7.39258-6.68945 7.62695-6.46484Q7.86133-6.24023 8.23242-6.24023L10.8789-6.24023L10.8789-3.57422Q10.8789-3.21289 11.1035-2.9834Q11.3281-2.75391 11.6797-2.75391Q12.0508-2.75391 12.2852-2.9834Q12.5195-3.21289 12.5195-3.57422L12.5195-6.24023L15.1758-6.24023Q15.5371-6.24023 15.7715-6.46484Q16.0059-6.68945 16.0059-7.04102Q16.0059-7.41211 15.7715-7.6416Q15.5371-7.87109 15.1758-7.87109L12.5195-7.87109L12.5195-10.5176Q12.5195-10.8984 12.2852-11.1279Q12.0508-11.3574 11.6797-11.3574Q11.3281-11.3574 11.1035-11.1279Q10.8789-10.8984 10.8789-10.5176L10.8789-7.87109L8.23242-7.87109Q7.85156-7.87109 7.62207-7.6416Q7.39258-7.41211 7.39258-7.04102Z"/>
  </g>
  <g transform="matrix(1 0 0 1 305.646 1933)">
   <path d="M14.9707 5.66406Q17.0605 5.66406 18.96 5.01465Q20.8594 4.36523 22.4512 3.19336Q24.043 2.02148 25.2197 0.429688Q26.3965-1.16211 27.0459-3.06641Q27.6953-4.9707 27.6953-7.05078Q27.6953-9.14062 27.0459-11.04Q26.3965-12.9395 25.2197-14.5312Q24.043-16.123 22.4512-17.2998Q20.8594-18.4766 18.9551-19.126Q17.0508-19.7754 14.9609-19.7754Q12.8711-19.7754 10.9717-19.126Q9.07227-18.4766 7.48535-17.2998Q5.89844-16.123 4.72168-14.5312Q3.54492-12.9395 2.90039-11.04Q2.25586-9.14062 2.25586-7.05078Q2.25586-4.9707 2.90527-3.06641Q3.55469-1.16211 4.72656 0.429688Q5.89844 2.02148 7.49023 3.19336Q9.08203 4.36523 10.9814 5.01465Q12.8809 5.66406 14.9707 5.66406ZM14.9707 3.84766Q13.1641 3.84766 11.5283 3.2959Q9.89258 2.74414 8.53516 1.74805Q7.17773 0.751953 6.17676-0.610352Q5.17578-1.97266 4.62891-3.6084Q4.08203-5.24414 4.08203-7.05078Q4.08203-8.86719 4.62891-10.5029Q5.17578-12.1387 6.17188-13.501Q7.16797-14.8633 8.52539-15.8594Q9.88281-16.8555 11.5186-17.4023Q13.1543-17.9492 14.9609-17.9492Q16.7773-17.9492 18.4131-17.4023Q20.0488-16.8555 21.4111-15.8594Q22.7734-14.8633 23.7695-13.501Q24.7656-12.1387 25.3174-10.5029Q25.8691-8.86719 25.8691-7.05078Q25.8789-5.24414 25.332-3.6084Q24.7852-1.97266 23.7842-0.610352Q22.7832 0.751953 21.4209 1.74805Q20.0586 2.74414 18.4229 3.2959Q16.7871 3.84766 14.9707 3.84766ZM9.45312-7.04102Q9.45312-6.66016 9.71191-6.41113Q9.9707-6.16211 10.3711-6.16211L14.0625-6.16211L14.0625-2.46094Q14.0625-2.06055 14.3115-1.80664Q14.5605-1.55273 14.9414-1.55273Q15.3516-1.55273 15.6055-1.80664Q15.8594-2.06055 15.8594-2.46094L15.8594-6.16211L19.5605-6.16211Q19.9609-6.16211 20.2148-6.41113Q20.4688-6.66016 20.4688-7.04102Q20.4688-7.45117 20.2148-7.70508Q19.9609-7.95898 19.5605-7.95898L15.8594-7.95898L15.8594-11.6504Q15.8594-12.0605 15.6055-12.3145Q15.3516-12.5684 14.9414-12.5684Q14.5605-12.5684 14.3115-12.3096Q14.0625-12.0508 14.0625-11.6504L14.0625-7.95898L10.3711-7.95898Q9.96094-7.95898 9.70703-7.70508Q9.45312-7.45117 9.45312-7.04102Z"/>
  </g>
  <text style="stroke:none;fill:black;font-family:sans-serif;font-size:13;font-weight:bold;" transform="matrix(1 0 0 1 263 1953)">Design Variations</text>
  <text style="stroke:none;fill:black;font-family:sans-serif;font-size:13;" transform="matrix(1 0 0 1 263 1971)">Symbols are supported in up to nine weights and three scales.</text>
  <text style="stroke:none;fill:black;font-family:sans-serif;font-size:13;" transform="matrix(1 0 0 1 263 1989)">For optimal layout with text and other symbols, vertically align</text>
  <text style="stroke:none;fill:black;font-family:sans-serif;font-size:13;" transform="matrix(1 0 0 1 263 2007)">symbols with the adjacent text.</text>
  <line style="fill:none;stroke:#00AEEF;stroke-width:0.5;opacity:1.0;" x1="776" x2="776" y1="1919" y2="1933"/>
  <g transform="matrix(1 0 0 1 776 1933)">
   <path d="M3.31055 0.15625Q3.70117 0.15625 3.91602-0.00976562Q4.13086-0.175781 4.26758-0.585938L5.52734-4.0332L11.2891-4.0332L12.5488-0.585938Q12.6855-0.175781 12.9004-0.00976562Q13.1152 0.15625 13.4961 0.15625Q13.8867 0.15625 14.1162-0.0585938Q14.3457-0.273438 14.3457-0.644531Q14.3457-0.869141 14.2383-1.17188L9.6582-13.3691Q9.48242-13.8184 9.17969-14.043Q8.87695-14.2676 8.4082-14.2676Q7.5-14.2676 7.17773-13.3789L2.59766-1.16211Q2.49023-0.859375 2.49023-0.634766Q2.49023-0.263672 2.70996-0.0537109Q2.92969 0.15625 3.31055 0.15625ZM6.00586-5.51758L8.37891-12.0898L8.42773-12.0898L10.8008-5.51758Z"/>
  </g>
  <line style="fill:none;stroke:#00AEEF;stroke-width:0.5;opacity:1.0;" x1="793.197" x2="793.197" y1="1919" y2="1933"/>
  <text style="stroke:none;fill:black;font-family:sans-serif;font-size:13;font-weight:bold;" transform="matrix(1 0 0 1 776 1953)">Margins</text>
  <text style="stroke:none;fill:black;font-family:sans-serif;font-size:13;" transform="matrix(1 0 0 1 776 1971)">Leading and trailing margins on the left and right side of each symbol</text>
  <text style="stroke:none;fill:black;font-family:sans-serif;font-size:13;" transform="matrix(1 0 0 1 776 1989)">can be adjusted by modifying the x-location of the margin guidelines.</text>
  <text style="stroke:none;fill:black;font-family:sans-serif;font-size:13;" transform="matrix(1 0 0 1 776 2007)">Modifications are automatically applied proportionally to all</text>
  <text style="stroke:none;fill:black;font-family:sans-serif;font-size:13;" transform="matrix(1 0 0 1 776 2025)">scales and weights.</text>
  <g transform="matrix(1 0 0 1 1289 1933)">
   <path d="M2.8418 1.86523L4.54102 3.57422Q5.18555 4.22852 5.90332 4.17969Q6.62109 4.13086 7.31445 3.35938L18.0078-8.42773L17.041-9.4043L6.42578 2.27539Q6.16211 2.57812 5.89355 2.61719Q5.625 2.65625 5.27344 2.30469L4.10156 1.14258Q3.75 0.791016 3.79395 0.522461Q3.83789 0.253906 4.14062-0.0195312L15.6152-10.8203L14.6387-11.7871L3.04688-0.898438Q2.30469-0.214844 2.25098 0.498047Q2.19727 1.21094 2.8418 1.86523ZM9.25781-16.3281Q8.94531-16.0254 8.90625-15.6348Q8.86719-15.2441 9.04297-14.9512Q9.21875-14.6777 9.55566-14.541Q9.89258-14.4043 10.3809-14.5215Q11.4746-14.7754 12.5977-14.7314Q13.7207-14.6875 14.7949-13.9844L14.209-12.5293Q13.9551-11.9043 14.0674-11.4404Q14.1797-10.9766 14.5801-10.5664L16.875-8.25195Q17.2363-7.88086 17.5781-7.82227Q17.9199-7.76367 18.3398-7.8418L19.4043-8.03711L20.0684-7.36328L20.0293-6.80664Q20-6.43555 20.1221-6.12305Q20.2441-5.81055 20.6055-5.44922L21.3672-4.70703Q21.7285-4.3457 22.1533-4.33105Q22.5781-4.31641 22.9297-4.66797L25.8398-7.58789Q26.1914-7.93945 26.1816-8.35449Q26.1719-8.76953 25.8105-9.13086L25.0391-9.89258Q24.6875-10.2539 24.3799-10.3857Q24.0723-10.5176 23.7109-10.4883L23.1348-10.4395L22.4902-11.0742L22.7344-12.1973Q22.832-12.6172 22.6953-12.9834Q22.5586-13.3496 22.1191-13.7891L19.9219-15.9766Q18.6719-17.2168 17.2607-17.8369Q15.8496-18.457 14.4189-18.4814Q12.9883-18.5059 11.665-17.959Q10.3418-17.4121 9.25781-16.3281ZM10.752-15.957Q11.6602-16.6211 12.7002-16.9043Q13.7402-17.1875 14.8047-17.085Q15.8691-16.9824 16.8701-16.5137Q17.8711-16.0449 18.7012-15.2051L21.1328-12.793Q21.3086-12.6172 21.3525-12.4512Q21.3965-12.2852 21.3379-12.0312L21.0156-10.5469L22.5195-9.0625L23.5059-9.12109Q23.6914-9.13086 23.7891-9.09668Q23.8867-9.0625 24.0332-8.91602L24.6094-8.33984L22.168-5.89844L21.5918-6.47461Q21.4453-6.62109 21.4062-6.71875Q21.3672-6.81641 21.377-7.01172L21.4453-7.98828L19.9512-9.47266L18.4277-9.21875Q18.1836-9.16992 18.042-9.2041Q17.9004-9.23828 17.7148-9.41406L15.7129-11.416Q15.5176-11.5918 15.4932-11.7529Q15.4688-11.9141 15.5859-12.1875L16.4648-14.2773Q15.293-15.3711 13.8281-15.791Q12.3633-16.2109 10.8398-15.7617Q10.7227-15.7324 10.6885-15.8057Q10.6543-15.8789 10.752-15.957Z"/>
  </g>
  <text style="stroke:none;fill:black;font-family:sans-serif;font-size:13;font-weight:bold;" transform="matrix(1 0 0 1 1289 1953)">Exporting</text>
  <text style="stroke:none;fill:black;font-family:sans-serif;font-size:13;" transform="matrix(1 0 0 1 1289 1971)">Symbols should be outlined when exporting to ensure the</text>
  <text style="stroke:none;fill:black;font-family:sans-serif;font-size:13;" transform="matrix(1 0 0 1 1289 1989)">design is preserved when submitting to Xcode.</text>
  <text id="template-version" style="stroke:none;fill:black;font-family:sans-serif;font-size:13;text-anchor:end;" transform="matrix(1 0 0 1 3036 1933)">Template v.3.0</text>
  <text style="stroke:none;fill:black;font-family:sans-serif;font-size:13;text-anchor:end;" transform="matrix(1 0 0 1 3036 1951)">Requires Xcode 13 or greater</text>
  <text id="descriptive-name" style="stroke:none;fill:black;font-family:sans-serif;font-size:13;text-anchor:end;" transform="matrix(1 0 0 1 3036 1969)">Generated from irrigation.file</text>
  <text style="stroke:none;fill:black;font-family:sans-serif;font-size:13;text-anchor:end;" transform="matrix(1 0 0 1 3036 1987)">Typeset at 100 points</text>
  <text style="stroke:none;fill:black;font-family:sans-serif;font-size:13;" transform="matrix(1 0 0 1 263 726)">Small</text>
  <text style="stroke:none;fill:black;font-family:sans-serif;font-size:13;" transform="matrix(1 0 0 1 263 1156)">Medium</text>
  <text style="stroke:none;fill:black;font-family:sans-serif;font-size:13;" transform="matrix(1 0 0 1 263 1586)">Large</text>
 </g>
 <g id="Guides">
  <g id="H-reference" style="fill:#27AAE1;stroke:none;" transform="matrix(1 0 0 1 339 696)">
   <path d="M0.993347 0L3.6377 0L29.3282-67.1326L30.0301-67.1326L30.0301-70.459L28.1227-70.459ZM11.6882-24.4797L46.9818-24.4797L46.2311-26.7288L12.4382-26.7288ZM55.1193 0L57.7637 0L30.6381-70.459L29.4327-70.459L29.4327-67.1326Z"/>
  </g>
  <line id="Baseline-S" style="fill:none;stroke:#27AAE1;opacity:1;stroke-width:0.5;" x1="263" x2="3036" y1="696" y2="696"/>
  <line id="Capline-S" style="fill:none;stroke:#27AAE1;opacity:1;stroke-width:0.5;" x1="263" x2="3036" y1="625.541" y2="625.541"/>
  <g id="H-reference" style="fill:#27AAE1;stroke:none;" transform="matrix(1 0 0 1 339 1126)">
   <path d="M0.993347 0L3.6377 0L29.3282-67.1326L30.0301-67.1326L30.0301-70.459L28.1227-70.459ZM11.6882-24.4797L46.9818-24.4797L46.2311-26.7288L12.4382-26.7288ZM55.1193 0L57.7637 0L30.6381-70.459L29.4327-70.459L29.4327-67.1326Z"/>
  </g>
  <line id="Baseline-M" style="fill:none;stroke:#27AAE1;opacity:1;stroke-width:0.5;" x1="263" x2="3036" y1="1126" y2="1126"/>
  <line id="Capline-M" style="fill:none;stroke:#27AAE1;opacity:1;stroke-width:0.5;" x1="263" x2="3036" y1="1055.54" y2="1055.54"/>
  <g id="H-reference" style="fill:#27AAE1;stroke:none;" transform="matrix(1 0 0 1 339 1556)">
   <path d="M0.993347 0L3.6377 0L29.3282-67.1326L30.0301-67.1326L30.0301-70.459L28.1227-70.459ZM11.6882-24.4797L46.9818-24.4797L46.2311-26.7288L12.4382-26.7288ZM55.1193 0L57.7637 0L30.6381-70.459L29.4327-70.459L29.4327-67.1326Z"/>
  </g>
  <line id="Baseline-L" style="fill:none;stroke:#27AAE1;opacity:1;stroke-width:0.5;" x1="263" x2="3036" y1="1556" y2="1556"/>
  <line id="Capline-L" style="fill:none;stroke:#27AAE1;opacity:1;stroke-width:0.5;" x1="263" x2="3036" y1="1485.54" y2="1485.54"/>
  <line id="left-margin-Regular-M" style="fill:none;stroke:#00AEEF;stroke-width:0.5;opacity:1.0;" x1="1380.87" x2="1380.87" y1="1030.73" y2="1150.14"/>
  <line id="right-margin-Regular-M" style="fill:none;stroke:#00AEEF;stroke-width:0.5;opacity:1.0;" x1="1518.82" x2="1518.82" y1="1030.73" y2="1150.14"/>
 </g>
 <g id="Symbols">
  <g id="Black-L" transform="matrix(1 0 0 1 2837.68 1556)">
   <path d="M123.669-2.9688C122.352-2.9688 120.869-3.6276 120.211-4.9452C119.058-6.9216 119.716-9.2274 121.693-10.3803L157.927-31.2972C159.903-32.4501 162.209-31.7913 163.362-29.8149C164.515-27.8385 163.856-25.5327 161.88-24.3798L125.646-3.4629C124.989-3.1335 124.331-2.9688 123.669-2.9688ZM110.331-16.9683C109.672-16.9683 109.014-17.133 108.355-17.4624C106.378-18.6153 105.72-21.0858 106.872-22.8975L127.789-59.1315C128.942-61.1079 131.413-61.7667 133.224-60.6138C135.201-59.4609 135.86-56.9904 134.707-55.1787L113.79-18.9447C113.128-17.6271 111.811-16.9683 110.331-16.9683ZM91.8821-22.4034C89.741-22.4034 87.9293-24.2151 87.9293-26.3562L87.9293-68.19C87.9293-70.3311 89.741-72.1428 91.8821-72.1428C94.0232-72.1428 95.8349-70.3311 95.8349-68.19L95.8349-26.3562C95.8376-24.2151 94.0259-22.4034 91.8821-22.4034ZM73.1063-17.9565C71.7887-17.9565 70.3064-18.6153 69.6476-19.9329L48.7307-56.1669C47.5778-58.1433 48.2366-60.4491 50.213-61.602C52.1894-62.7549 54.4952-62.0961 55.6481-60.1197L76.565-23.8857C77.7179-21.9093 77.0591-19.6035 75.0827-18.4506C74.4266-18.1212 73.7678-17.9565 73.1063-17.9565ZM59.1068-4.6158C58.448-4.6158 57.7892-4.7805 57.1304-5.1099L20.8964-26.1915C18.92-27.3444 18.2612-29.8149 19.4141-31.6266C20.567-33.603 23.0375-34.2618 24.8492-33.1089L61.0832-12.192C63.0596-11.0391 63.7184-8.5686 62.5655-6.7569C61.9067-5.4393 60.4271-4.6158 59.1068-4.6158Z"/>
  </g>
  <g id="Heavy-L" transform="matrix(1 0 0 1 2542.66 1556)">
   <path d="M121.909-2.9688C120.592-2.9688 119.109-3.6276 118.451-4.9452C117.298-6.9216 117.957-9.2274 119.933-10.3803L156.167-31.2972C158.143-32.4501 160.449-31.7913 161.602-29.8149C162.755-27.8385 162.096-25.5327 160.12-24.3798L123.886-3.4629C123.239-3.1335 122.58-2.9688 121.909-2.9688ZM108.581-16.9683C107.922-16.9683 107.263-17.133 106.605-17.4624C104.628-18.6153 103.969-21.0858 105.122-22.8975L126.039-59.1315C127.192-61.1079 129.663-61.7667 131.474-60.6138C133.451-59.4609 134.109-56.9904 132.957-55.1787L112.04-18.9447C111.369-17.6271 110.051-16.9683 108.581-16.9683ZM90.1222-22.4034C87.9811-22.4034 86.1694-24.2151 86.1694-26.3562L86.1694-68.19C86.1694-70.3311 87.9811-72.1428 90.1222-72.1428C92.2633-72.1428 94.075-70.3311 94.075-68.19L94.075-26.3562C94.0874-24.2151 92.2757-22.4034 90.1222-22.4034ZM71.3464-17.9565C70.0288-17.9565 68.5465-18.6153 67.8877-19.9329L46.9708-56.1669C45.8179-58.1433 46.4767-60.4491 48.4531-61.602C50.4295-62.7549 52.7353-62.0961 53.8882-60.1197L74.8051-23.8857C75.958-21.9093 75.2992-19.6035 73.3228-18.4506C72.6764-18.1212 72.0176-17.9565 71.3464-17.9565ZM57.3469-4.6158C56.6881-4.6158 56.0293-4.7805 55.3705-5.1099L19.1365-26.1915C17.1601-27.3444 16.5013-29.8149 17.6542-31.6266C18.8071-33.603 21.2776-34.2618 23.0893-33.1089L59.3233-12.192C61.2997-11.0391 61.9585-8.5686 60.8056-6.7569C60.1468-5.4393 58.6769-4.6158 57.3469-4.6158Z"/>
  </g>
  <g id="Bold-L" transform="matrix(1 0 0 1 2248.02 1556)">
   <path d="M119.76-2.9688C118.443-2.9688 116.96-3.6276 116.302-4.9452C115.149-6.9216 115.807-9.2274 117.784-10.3803L154.018-31.2972C155.994-32.4501 158.3-31.7913 159.453-29.8149C160.606-27.8385 159.947-25.5327 157.971-24.3798L121.737-3.4629C121.107-3.1335 120.448-2.9688 119.76-2.9688ZM106.449-16.9683C105.79-16.9683 105.131-17.133 104.472-17.4624C102.496-18.6153 101.837-21.0858 102.99-22.8975L123.907-59.1315C125.06-61.1079 127.53-61.7667 129.342-60.6138C131.318-59.4609 131.977-56.9904 130.824-55.1787L109.907-18.9447C109.219-17.6271 107.902-16.9683 106.449-16.9683ZM87.9732-22.4034C85.8321-22.4034 84.0204-24.2151 84.0204-26.3562L84.0204-68.19C84.0204-70.3311 85.8321-72.1428 87.9732-72.1428C90.1143-72.1428 91.926-70.3311 91.926-68.19L91.926-26.3562C91.9551-24.2151 90.1434-22.4034 87.9732-22.4034ZM69.1974-17.9565C67.8798-17.9565 66.3975-18.6153 65.7387-19.9329L44.8218-56.1669C43.6689-58.1433 44.3277-60.4491 46.3041-61.602C48.2805-62.7549 50.5863-62.0961 51.7392-60.1197L72.6561-23.8857C73.809-21.9093 73.1502-19.6035 71.1738-18.4506C70.5441-18.1212 69.8853-17.9565 69.1974-17.9565ZM55.1979-4.6158C54.5391-4.6158 53.8803-4.7805 53.2215-5.1099L16.9875-26.1915C15.0111-27.3444 14.3523-29.8149 15.5052-31.6266C16.6581-33.603 19.1286-34.2618 20.9403-33.1089L57.1743-12.192C59.1507-11.0391 59.8095-8.5686 58.6566-6.7569C57.9978-5.4393 56.5446-4.6158 55.1979-4.6158Z"/>
  </g>
  <g id="Semibold-L" transform="matrix(1 0 0 1 1952.75 1556)">
   <path d="M118.279-2.9688C116.961-2.9688 115.479-3.6276 114.82-4.9452C113.667-6.9216 114.326-9.2274 116.302-10.3803L152.536-31.2972C154.513-32.4501 156.818-31.7913 157.971-29.8149C159.124-27.8385 158.465-25.5327 156.489-24.3798L120.255-3.4629C119.637-3.1335 118.978-2.9688 118.279-2.9688ZM104.979-16.9683C104.32-16.9683 103.661-17.133 103.002-17.4624C101.026-18.6153 100.367-21.0858 101.52-22.8975L122.437-59.1315C123.59-61.1079 126.06-61.7667 127.872-60.6138C129.848-59.4609 130.507-56.9904 129.354-55.1787L108.437-18.9447C107.738-17.6271 106.42-16.9683 104.979-16.9683ZM86.4916-22.4034C84.3505-22.4034 82.5388-24.2151 82.5388-26.3562L82.5388-68.19C82.5388-70.3311 84.3505-72.1428 86.4916-72.1428C88.6327-72.1428 90.4444-70.3311 90.4444-68.19L90.4444-26.3562C90.4851-24.2151 88.6734-22.4034 86.4916-22.4034ZM67.7158-17.9565C66.3982-17.9565 64.9159-18.6153 64.2571-19.9329L43.3402-56.1669C42.1873-58.1433 42.8461-60.4491 44.8225-61.602C46.7989-62.7549 49.1047-62.0961 50.2576-60.1197L71.1745-23.8857C72.3274-21.9093 71.6686-19.6035 69.6922-18.4506C69.0741-18.1212 68.4153-17.9565 67.7158-17.9565ZM53.7163-4.6158C53.0575-4.6158 52.3987-4.7805 51.7399-5.1099L15.5059-26.1915C13.5295-27.3444 12.8707-29.8149 14.0236-31.6266C15.1765-33.603 17.647-34.2618 19.4587-33.1089L55.6927-12.192C57.6691-11.0391 58.3279-8.5686 57.175-6.7569C56.5162-5.4393 55.0746-4.6158 53.7163-4.6158Z"/>
  </g>
  <g id="Medium-L" transform="matrix(1 0 0 1 1657.12 1556)">
   <path d="M117.155-2.9688C115.838-2.9688 114.355-3.6276 113.697-4.9452C112.544-6.9216 113.203-9.2274 115.179-10.3803L151.413-31.2972C153.389-32.4501 155.695-31.7913 156.848-29.8149C158.001-27.8385 157.342-25.5327 155.366-24.3798L119.132-3.4629C118.522-3.1335 117.864-2.9688 117.155-2.9688ZM103.864-16.9683C103.205-16.9683 102.546-17.133 101.888-17.4624C99.9113-18.6153 99.2525-21.0858 100.405-22.8975L121.322-59.1315C122.475-61.1079 124.946-61.7667 126.757-60.6138C128.734-59.4609 129.393-56.9904 128.24-55.1787L107.323-18.9447C106.615-17.6271 105.297-16.9683 103.864-16.9683ZM85.3682-22.4034C83.2271-22.4034 81.4154-24.2151 81.4154-26.3562L81.4154-68.19C81.4154-70.3311 83.2271-72.1428 85.3682-72.1428C87.5093-72.1428 89.321-70.3311 89.321-68.19L89.321-26.3562C89.3705-24.2151 87.5588-22.4034 85.3682-22.4034ZM66.5924-17.9565C65.2748-17.9565 63.7925-18.6153 63.1337-19.9329L42.2168-56.1669C41.0639-58.1433 41.7227-60.4491 43.6991-61.602C45.6755-62.7549 47.9813-62.0961 49.1342-60.1197L70.0511-23.8857C71.204-21.9093 70.5452-19.6035 68.5688-18.4506C67.9595-18.1212 67.3007-17.9565 66.5924-17.9565ZM52.5929-4.6158C51.9341-4.6158 51.2753-4.7805 50.6165-5.1099L14.3825-26.1915C12.4061-27.3444 11.7473-29.8149 12.9002-31.6266C14.0531-33.603 16.5236-34.2618 18.3353-33.1089L54.5693-12.192C56.5457-11.0391 57.2045-8.5686 56.0516-6.7569C55.3928-5.4393 53.96-4.6158 52.5929-4.6158Z"/>
  </g>
  <g id="Regular-L" transform="matrix(1 0 0 1 1361.82 1556)">
   <path d="M115.69-2.9688C114.372-2.9688 112.89-3.6276 112.231-4.9452C111.078-6.9216 111.737-9.2274 113.714-10.3803L149.948-31.2972C151.924-32.4501 154.23-31.7913 155.383-29.8149C156.536-27.8385 155.877-25.5327 153.9-24.3798L117.666-3.4629C117.069-3.1335 116.41-2.9688 115.69-2.9688ZM102.41-16.9683C101.751-16.9683 101.093-17.133 100.434-17.4624C98.4574-18.6153 97.7986-21.0858 98.9515-22.8975L119.868-59.1315C121.021-61.1079 123.492-61.7667 125.304-60.6138C127.28-59.4609 127.939-56.9904 126.786-55.1787L105.869-18.9447C105.149-17.6271 103.832-16.9683 102.41-16.9683ZM83.9029-22.4034C81.7618-22.4034 79.9501-24.2151 79.9501-26.3562L79.9501-68.19C79.9501-70.3311 81.7618-72.1428 83.9029-72.1428C86.044-72.1428 87.8557-70.3311 87.8557-68.19L87.8557-26.3562C87.9166-24.2151 86.1049-22.4034 83.9029-22.4034ZM65.1271-17.9565C63.8095-17.9565 62.3272-18.6153 61.6684-19.9329L40.7515-56.1669C39.5986-58.1433 40.2574-60.4491 42.2338-61.602C44.2102-62.7549 46.516-62.0961 47.6689-60.1197L68.5858-23.8857C69.7387-21.9093 69.0799-19.6035 67.1035-18.4506C66.5056-18.1212 65.8468-17.9565 65.1271-17.9565ZM51.1276-4.6158C50.4688-4.6158 49.81-4.7805 49.1512-5.1099L12.9172-26.1915C10.9408-27.3444 10.282-29.8149 11.4349-31.6266C12.5878-33.603 15.0583-34.2618 16.87-33.1089L53.104-12.192C55.0804-11.0391 55.7392-8.5686 54.5863-6.7569C53.9275-5.4393 52.5061-4.6158 51.1276-4.6158Z"/>
  </g>
  <g id="Light-L" transform="matrix(1 0 0 1 1066.48 1556)">
   <path d="M114.404-2.9688C113.086-2.9688 111.604-3.6276 110.945-4.9452C109.792-6.9216 110.451-9.2274 112.428-10.3803L148.662-31.2972C150.638-32.4501 152.944-31.7913 154.097-29.8149C155.25-27.8385 154.591-25.5327 152.614-24.3798L116.38-3.4629C115.824-3.1335 115.166-2.9688 114.404-2.9688ZM101.166-16.9683C100.507-16.9683 99.8486-17.133 99.1898-17.4624C97.2134-18.6153 96.5546-21.0858 97.7075-22.8975L118.624-59.1315C119.777-61.1079 122.248-61.7667 124.059-60.6138C126.036-59.4609 126.695-56.9904 125.542-55.1787L104.625-18.9447C103.863-17.6271 102.546-16.9683 101.166-16.9683ZM82.6168-22.4034C80.4757-22.4034 78.664-24.2151 78.664-26.3562L78.664-68.19C78.664-70.3311 80.4757-72.1428 82.6168-72.1428C84.7579-72.1428 86.5696-70.3311 86.5696-68.19L86.5696-26.3562C86.6726-24.2151 84.8609-22.4034 82.6168-22.4034ZM63.841-17.9565C62.5234-17.9565 61.0411-18.6153 60.3823-19.9329L39.4654-56.1669C38.3125-58.1433 38.9713-60.4491 40.9477-61.602C42.9241-62.7549 45.2299-62.0961 46.3828-60.1197L67.2997-23.8857C68.4526-21.9093 67.7938-19.6035 65.8174-18.4506C65.2616-18.1212 64.6028-17.9565 63.841-17.9565ZM49.8415-4.6158C49.1827-4.6158 48.5239-4.7805 47.8651-5.1099L11.6311-26.1915C9.65474-27.3444 8.99594-29.8149 10.1488-31.6266C11.3017-33.603 13.7722-34.2618 15.5839-33.1089L51.8179-12.192C53.7943-11.0391 54.4531-8.5686 53.3002-6.7569C52.6414-5.4393 51.2621-4.6158 49.8415-4.6158Z"/>
  </g>
  <g id="Thin-L" transform="matrix(1 0 0 1 771.575 1556)">
   <path d="M112.703-2.9688C111.385-2.9688 109.903-3.6276 109.244-4.9452C108.091-6.9216 108.75-9.2274 110.727-10.3803L146.961-31.2972C148.937-32.4501 151.243-31.7913 152.396-29.8149C153.549-27.8385 152.89-25.5327 150.913-24.3798L114.679-3.4629C114.179-3.1335 113.52-2.9688 112.703-2.9688ZM99.5208-16.9683C98.862-16.9683 98.2032-17.133 97.5444-17.4624C95.568-18.6153 94.9092-21.0858 96.0621-22.8975L116.979-59.1315C118.132-61.1079 120.602-61.7667 122.414-60.6138C124.391-59.4609 125.049-56.9904 123.896-55.1787L102.98-18.9447C102.162-17.6271 100.845-16.9683 99.5208-16.9683ZM80.9159-22.4034C78.7748-22.4034 76.9631-24.2151 76.9631-26.3562L76.9631-68.19C76.9631-70.3311 78.7748-72.1428 80.9159-72.1428C83.057-72.1428 84.8687-70.3311 84.8687-68.19L84.8687-26.3562C85.0272-24.2151 83.2155-22.4034 80.9159-22.4034ZM62.1401-17.9565C60.8225-17.9565 59.3402-18.6153 58.6814-19.9329L37.7645-56.1669C36.6116-58.1433 37.2704-60.4491 39.2468-61.602C41.2232-62.7549 43.529-62.0961 44.6819-60.1197L65.5988-23.8857C66.7517-21.9093 66.0929-19.6035 64.1165-18.4506C63.6162-18.1212 62.9574-17.9565 62.1401-17.9565ZM48.1406-4.6158C47.4818-4.6158 46.823-4.7805 46.1642-5.1099L9.93019-26.1915C7.95379-27.3444 7.29499-29.8149 8.44789-31.6266C9.60079-33.603 12.0713-34.2618 13.883-33.1089L50.117-12.192C52.0934-11.0391 52.7522-8.5686 51.5993-6.7569C50.9405-5.4393 49.6167-4.6158 48.1406-4.6158Z"/>
  </g>
  <g id="Ultralight-L" transform="matrix(1 0 0 1 475.789 1556)">
   <path d="M111.832-2.9688C110.514-2.9688 109.032-3.6276 108.373-4.9452C107.22-6.9216 107.879-9.2274 109.855-10.3803L146.089-31.2972C148.066-32.4501 150.372-31.7913 151.524-29.8149C152.677-27.8385 152.019-25.5327 150.042-24.3798L113.808-3.4629C113.336-3.1335 112.678-2.9688 111.832-2.9688ZM98.6781-16.9683C98.0193-16.9683 97.3605-17.133 96.7017-17.4624C94.7253-18.6153 94.0665-21.0858 95.2194-22.8975L116.136-59.1315C117.289-61.1079 119.76-61.7667 121.571-60.6138C123.548-59.4609 124.207-56.9904 123.054-55.1787L102.137-18.9447C101.291-17.6271 99.9734-16.9683 98.6781-16.9683ZM80.0447-22.4034C77.9036-22.4034 76.0919-24.2151 76.0919-26.3562L76.0919-68.19C76.0919-70.3311 77.9036-72.1428 80.0447-72.1428C82.1858-72.1428 83.9975-70.3311 83.9975-68.19L83.9975-26.3562C84.1845-24.2151 82.3728-22.4034 80.0447-22.4034ZM61.2689-17.9565C59.9513-17.9565 58.469-18.6153 57.8102-19.9329L36.8933-56.1669C35.7404-58.1433 36.3992-60.4491 38.3756-61.602C40.352-62.7549 42.6578-62.0961 43.8107-60.1197L64.7276-23.8857C65.8805-21.9093 65.2217-19.6035 63.2453-18.4506C62.7735-18.1212 62.1147-17.9565 61.2689-17.9565ZM47.2694-4.6158C46.6106-4.6158 45.9518-4.7805 45.293-5.1099L9.05897-26.1915C7.08257-27.3444 6.42377-29.8149 7.57667-31.6266C8.72957-33.603 11.2001-34.2618 13.0118-33.1089L49.2458-12.192C51.2222-11.0391 51.881-8.5686 50.7281-6.7569C50.0693-5.4393 48.774-4.6158 47.2694-4.6158Z"/>
  </g>
  <g id="Black-M" transform="matrix(1 0 0 1 2857.98 1126)">
   <path d="M97.15-10.2404C96.1292-10.2404 94.9808-10.7508 94.4704-11.7716C93.5772-13.3028 94.0876-15.0892 95.6188-15.9824L123.691-32.1876C125.222-33.0808 127.008-32.5704 127.902-31.0392C128.795-29.508 128.284-27.7216 126.753-26.8284L98.6812-10.6232C98.1702-10.368 97.6598-10.2404 97.15-10.2404ZM86.8138-21.0864C86.3034-21.0864 85.793-21.214 85.2826-21.4692C83.7514-22.3624 83.241-24.2764 84.1342-25.68L100.339-53.752C101.233-55.2832 103.147-55.7936 104.55-54.9004C106.081-54.0072 106.592-52.0932 105.699-50.6896L89.4934-22.6176C88.9836-21.5968 87.9628-21.0864 86.8138-21.0864ZM72.5232-25.2972C70.8644-25.2972 69.4608-26.7008 69.4608-28.3596L69.4608-60.77C69.4608-62.4288 70.8644-63.8324 72.5232-63.8324C74.182-63.8324 75.5856-62.4288 75.5856-60.77L75.5856-28.3596C75.585-26.7008 74.1814-25.2972 72.5232-25.2972ZM57.9768-21.852C56.956-21.852 55.8076-22.3624 55.2972-23.3832L39.092-51.4552C38.1988-52.9864 38.7092-54.7728 40.2404-55.666C41.7716-56.5592 43.558-56.0488 44.4512-54.5176L60.6564-26.4456C61.5496-24.9144 61.0392-23.128 59.508-22.2348C58.997-21.9796 58.4866-21.852 57.9768-21.852ZM47.1308-11.5164C46.6204-11.5164 46.11-11.644 45.5996-11.8992L17.5276-28.232C15.9964-29.1252 15.486-31.0392 16.3792-32.4428C17.2724-33.974 19.1864-34.4844 20.59-33.5912L48.662-17.386C50.1932-16.4928 50.7036-14.5788 49.8104-13.1752C49.3-12.1544 48.151-11.5164 47.1308-11.5164Z"/>
  </g>
  <g id="Heavy-M" transform="matrix(1 0 0 1 2562.79 1126)">
   <path d="M95.5482-10.2404C94.5274-10.2404 93.379-10.7508 92.8686-11.7716C91.9754-13.3028 92.4858-15.0892 94.017-15.9824L122.089-32.1876C123.62-33.0808 125.407-32.5704 126.3-31.0392C127.193-29.508 126.683-27.7216 125.151-26.8284L97.0794-10.6232C96.574-10.368 96.0636-10.2404 95.5482-10.2404ZM85.2176-21.0864C84.7072-21.0864 84.1968-21.214 83.6864-21.4692C82.1552-22.3624 81.6448-24.2764 82.538-25.68L98.7432-53.752C99.6364-55.2832 101.55-55.7936 102.954-54.9004C104.485-54.0072 104.996-52.0932 104.102-50.6896L87.8972-22.6176C87.3818-21.5968 86.361-21.0864 85.2176-21.0864ZM70.9214-25.2972C69.2626-25.2972 67.859-26.7008 67.859-28.3596L67.859-60.77C67.859-62.4288 69.2626-63.8324 70.9214-63.8324C72.5802-63.8324 73.9838-62.4288 73.9838-60.77L73.9838-28.3596C73.9888-26.7008 72.5852-25.2972 70.9214-25.2972ZM56.375-21.852C55.3542-21.852 54.2058-22.3624 53.6954-23.3832L37.4902-51.4552C36.597-52.9864 37.1074-54.7728 38.6386-55.666C40.1698-56.5592 41.9562-56.0488 42.8494-54.5176L59.0546-26.4456C59.9478-24.9144 59.4374-23.128 57.9062-22.2348C57.4008-21.9796 56.8904-21.852 56.375-21.852ZM45.529-11.5164C45.0186-11.5164 44.5082-11.644 43.9978-11.8992L15.9258-28.232C14.3946-29.1252 13.8842-31.0392 14.7774-32.4428C15.6706-33.974 17.5846-34.4844 18.9882-33.5912L47.0602-17.386C48.5914-16.4928 49.1018-14.5788 48.2086-13.1752C47.6982-12.1544 46.5548-11.5164 45.529-11.5164Z"/>
  </g>
  <g id="Bold-M" transform="matrix(1 0 0 1 2267.78 1126)">
   <path d="M93.7564-10.2404C92.7356-10.2404 91.5872-10.7508 91.0768-11.7716C90.1836-13.3028 90.694-15.0892 92.2252-15.9824L120.297-32.1876C121.828-33.0808 123.615-32.5704 124.508-31.0392C125.401-29.508 124.891-27.7216 123.36-26.8284L95.2876-10.6232C94.7885-10.368 94.2781-10.2404 93.7564-10.2404ZM83.4321-21.0864C82.9217-21.0864 82.4113-21.214 81.9009-21.4692C80.3697-22.3624 79.8593-24.2764 80.7525-25.68L96.9577-53.752C97.8509-55.2832 99.7649-55.7936 101.169-54.9004C102.7-54.0072 103.21-52.0932 102.317-50.6896L86.1117-22.6176C85.59-21.5968 84.5692-21.0864 83.4321-21.0864ZM69.1296-25.2972C67.4708-25.2972 66.0672-26.7008 66.0672-28.3596L66.0672-60.77C66.0672-62.4288 67.4708-63.8324 69.1296-63.8324C70.7884-63.8324 72.192-62.4288 72.192-60.77L72.192-28.3596C72.2033-26.7008 70.7997-25.2972 69.1296-25.2972ZM54.5832-21.852C53.5624-21.852 52.414-22.3624 51.9036-23.3832L35.6984-51.4552C34.8052-52.9864 35.3156-54.7728 36.8468-55.666C38.378-56.5592 40.1644-56.0488 41.0576-54.5176L57.2628-26.4456C58.156-24.9144 57.6456-23.128 56.1144-22.2348C55.6153-21.9796 55.1049-21.852 54.5832-21.852ZM43.7372-11.5164C43.2268-11.5164 42.7164-11.644 42.206-11.8992L14.134-28.232C12.6028-29.1252 12.0924-31.0392 12.9856-32.4428C13.8788-33.974 15.7928-34.4844 17.1964-33.5912L45.2684-17.386C46.7996-16.4928 47.31-14.5788 46.4168-13.1752C45.9064-12.1544 44.7693-11.5164 43.7372-11.5164Z"/>
  </g>
  <g id="Semibold-M" transform="matrix(1 0 0 1 1972.25 1126)">
   <path d="M92.5211-10.2404C91.5003-10.2404 90.3519-10.7508 89.8415-11.7716C88.9483-13.3028 89.4587-15.0892 90.9899-15.9824L119.062-32.1876C120.593-33.0808 122.38-32.5704 123.273-31.0392C124.166-29.508 123.656-27.7216 122.124-26.8284L94.0523-10.6232C93.5576-10.368 93.0472-10.2404 92.5211-10.2404ZM82.2012-21.0864C81.6908-21.0864 81.1804-21.214 80.67-21.4692C79.1388-22.3624 78.6284-24.2764 79.5216-25.68L95.7268-53.752C96.62-55.2832 98.534-55.7936 99.9376-54.9004C101.469-54.0072 101.979-52.0932 101.086-50.6896L84.8808-22.6176C84.3547-21.5968 83.3339-21.0864 82.2012-21.0864ZM67.8943-25.2972C66.2355-25.2972 64.8319-26.7008 64.8319-28.3596L64.8319-60.77C64.8319-62.4288 66.2355-63.8324 67.8943-63.8324C69.5531-63.8324 70.9567-62.4288 70.9567-60.77L70.9567-28.3596C70.9724-26.7008 69.5688-25.2972 67.8943-25.2972ZM53.3479-21.852C52.3271-21.852 51.1787-22.3624 50.6683-23.3832L34.4631-51.4552C33.5699-52.9864 34.0803-54.7728 35.6115-55.666C37.1427-56.5592 38.9291-56.0488 39.8223-54.5176L56.0275-26.4456C56.9207-24.9144 56.4103-23.128 54.8791-22.2348C54.3844-21.9796 53.874-21.852 53.3479-21.852ZM42.5019-11.5164C41.9915-11.5164 41.4811-11.644 40.9707-11.8992L12.8987-28.232C11.3675-29.1252 10.8571-31.0392 11.7503-32.4428C12.6435-33.974 14.5575-34.4844 15.9611-33.5912L44.0331-17.386C45.5643-16.4928 46.0747-14.5788 45.1815-13.1752C44.6711-12.1544 43.5384-11.5164 42.5019-11.5164Z"/>
  </g>
  <g id="Medium-M" transform="matrix(1 0 0 1 1676.42 1126)">
   <path d="M91.5845-10.2404C90.5637-10.2404 89.4153-10.7508 88.9049-11.7716C88.0117-13.3028 88.5221-15.0892 90.0533-15.9824L118.125-32.1876C119.656-33.0808 121.443-32.5704 122.336-31.0392C123.229-29.508 122.719-27.7216 121.188-26.8284L93.1157-10.6232C92.6242-10.368 92.1138-10.2404 91.5845-10.2404ZM81.2678-21.0864C80.7574-21.0864 80.247-21.214 79.7366-21.4692C78.2054-22.3624 77.695-24.2764 78.5882-25.68L94.7934-53.752C95.6866-55.2832 97.6006-55.7936 99.0042-54.9004C100.535-54.0072 101.046-52.0932 100.153-50.6896L83.9474-22.6176C83.4181-21.5968 82.3973-21.0864 81.2678-21.0864ZM66.9577-25.2972C65.2989-25.2972 63.8953-26.7008 63.8953-28.3596L63.8953-60.77C63.8953-62.4288 65.2989-63.8324 66.9577-63.8324C68.6165-63.8324 70.0201-62.4288 70.0201-60.77L70.0201-28.3596C70.039-26.7008 68.6354-25.2972 66.9577-25.2972ZM52.4113-21.852C51.3905-21.852 50.2421-22.3624 49.7317-23.3832L33.5265-51.4552C32.6333-52.9864 33.1437-54.7728 34.6749-55.666C36.2061-56.5592 37.9925-56.0488 38.8857-54.5176L55.0909-26.4456C55.9841-24.9144 55.4737-23.128 53.9425-22.2348C53.451-21.9796 52.9406-21.852 52.4113-21.852ZM41.5653-11.5164C41.0549-11.5164 40.5445-11.644 40.0341-11.8992L11.9621-28.232C10.4309-29.1252 9.92049-31.0392 10.8137-32.4428C11.7069-33.974 13.6209-34.4844 15.0245-33.5912L43.0965-17.386C44.6277-16.4928 45.1381-14.5788 44.2449-13.1752C43.7345-12.1544 42.605-11.5164 41.5653-11.5164Z"/>
  </g>
  <g id="Regular-M" transform="matrix(1 0 0 1 1380.87 1126)">
   <path d="M90.3628-10.2404C89.342-10.2404 88.1936-10.7508 87.6832-11.7716C86.79-13.3028 87.3004-15.0892 88.8316-15.9824L116.904-32.1876C118.435-33.0808 120.221-32.5704 121.114-31.0392C122.008-29.508 121.497-27.7216 119.966-26.8284L91.894-10.6232C91.4068-10.368 90.8964-10.2404 90.3628-10.2404ZM80.0504-21.0864C79.54-21.0864 79.0296-21.214 78.5192-21.4692C76.988-22.3624 76.4776-24.2764 77.3708-25.68L93.576-53.752C94.4692-55.2832 96.3832-55.7936 97.7868-54.9004C99.318-54.0072 99.8284-52.0932 98.9352-50.6896L82.73-22.6176C82.1964-21.5968 81.1756-21.0864 80.0504-21.0864ZM65.736-25.2972C64.0772-25.2972 62.6736-26.7008 62.6736-28.3596L62.6736-60.77C62.6736-62.4288 64.0772-63.8324 65.736-63.8324C67.3948-63.8324 68.7984-62.4288 68.7984-60.77L68.7984-28.3596C68.8216-26.7008 67.418-25.2972 65.736-25.2972ZM51.1896-21.852C50.1688-21.852 49.0204-22.3624 48.51-23.3832L32.3048-51.4552C31.4116-52.9864 31.922-54.7728 33.4532-55.666C34.9844-56.5592 36.7708-56.0488 37.664-54.5176L53.8692-26.4456C54.7624-24.9144 54.252-23.128 52.7208-22.2348C52.2336-21.9796 51.7232-21.852 51.1896-21.852ZM40.3436-11.5164C39.8332-11.5164 39.3228-11.644 38.8124-11.8992L10.7404-28.232C9.2092-29.1252 8.6988-31.0392 9.592-32.4428C10.4852-33.974 12.3992-34.4844 13.8028-33.5912L41.8748-17.386C43.406-16.4928 43.9164-14.5788 43.0232-13.1752C42.5128-12.1544 41.3876-11.5164 40.3436-11.5164Z"/>
  </g>
  <g id="Light-M" transform="matrix(1 0 0 1 1085.39 1126)">
   <path d="M89.2098-10.2404C88.189-10.2404 87.0406-10.7508 86.5302-11.7716C85.637-13.3028 86.1474-15.0892 87.6786-15.9824L115.751-32.1876C117.282-33.0808 119.068-32.5704 119.961-31.0392C120.855-29.508 120.344-27.7216 118.813-26.8284L90.741-10.6232C90.2915-10.368 89.7811-10.2404 89.2098-10.2404ZM78.9351-21.0864C78.4247-21.0864 77.9143-21.214 77.4039-21.4692C75.8727-22.3624 75.3623-24.2764 76.2555-25.68L92.4607-53.752C93.3539-55.2832 95.2679-55.7936 96.6715-54.9004C98.2027-54.0072 98.7131-52.0932 97.8199-50.6896L81.6147-22.6176C81.0434-21.5968 80.0226-21.0864 78.9351-21.0864ZM64.583-25.2972C62.9242-25.2972 61.5206-26.7008 61.5206-28.3596L61.5206-60.77C61.5206-62.4288 62.9242-63.8324 64.583-63.8324C66.2418-63.8324 67.6454-62.4288 67.6454-60.77L67.6454-28.3596C67.7063-26.7008 66.3027-25.2972 64.583-25.2972ZM50.0366-21.852C49.0158-21.852 47.8674-22.3624 47.357-23.3832L31.1518-51.4552C30.2586-52.9864 30.769-54.7728 32.3002-55.666C33.8314-56.5592 35.6178-56.0488 36.511-54.5176L52.7162-26.4456C53.6094-24.9144 53.099-23.128 51.5678-22.2348C51.1183-21.9796 50.6079-21.852 50.0366-21.852ZM39.1906-11.5164C38.6802-11.5164 38.1698-11.644 37.6594-11.8992L9.58735-28.232C8.05615-29.1252 7.54575-31.0392 8.43895-32.4428C9.33215-33.974 11.2462-34.4844 12.6498-33.5912L40.7218-17.386C42.253-16.4928 42.7634-14.5788 41.8702-13.1752C41.3598-12.1544 40.2723-11.5164 39.1906-11.5164Z"/>
  </g>
  <g id="Thin-M" transform="matrix(1 0 0 1 790.295 1126)">
   <path d="M87.6848-10.2404C86.664-10.2404 85.5156-10.7508 85.0052-11.7716C84.112-13.3028 84.6224-15.0892 86.1536-15.9824L114.226-32.1876C115.757-33.0808 117.543-32.5704 118.436-31.0392C119.33-29.508 118.819-27.7216 117.288-26.8284L89.216-10.6232C88.8163-10.368 88.3059-10.2404 87.6848-10.2404ZM77.4599-21.0864C76.9495-21.0864 76.4391-21.214 75.9287-21.4692C74.3975-22.3624 73.8871-24.2764 74.7803-25.68L90.9855-53.752C91.8787-55.2832 93.7927-55.7936 95.1963-54.9004C96.7275-54.0072 97.2379-52.0932 96.3447-50.6896L80.1395-22.6176C79.5184-21.5968 78.4976-21.0864 77.4599-21.0864ZM63.058-25.2972C61.3992-25.2972 59.9956-26.7008 59.9956-28.3596L59.9956-60.77C59.9956-62.4288 61.3992-63.8324 63.058-63.8324C64.7168-63.8324 66.1204-62.4288 66.1204-60.77L66.1204-28.3596C66.2311-26.7008 64.8275-25.2972 63.058-25.2972ZM48.5116-21.852C47.4908-21.852 46.3424-22.3624 45.832-23.3832L29.6268-51.4552C28.7336-52.9864 29.244-54.7728 30.7752-55.666C32.3064-56.5592 34.0928-56.0488 34.986-54.5176L51.1912-26.4456C52.0844-24.9144 51.574-23.128 50.0428-22.2348C49.6431-21.9796 49.1327-21.852 48.5116-21.852ZM37.6656-11.5164C37.1552-11.5164 36.6448-11.644 36.1344-11.8992L8.06236-28.232C6.53116-29.1252 6.02076-31.0392 6.91396-32.4428C7.80716-33.974 9.72116-34.4844 11.1248-33.5912L39.1968-17.386C40.728-16.4928 41.2384-14.5788 40.3452-13.1752C39.8348-12.1544 38.7971-11.5164 37.6656-11.5164Z"/>
  </g>
  <g id="Ultralight-M" transform="matrix(1 0 0 1 494.414 1126)">
   <path d="M86.9037-10.2404C85.8829-10.2404 84.7345-10.7508 84.2241-11.7716C83.3309-13.3028 83.8413-15.0892 85.3725-15.9824L113.444-32.1876C114.976-33.0808 116.762-32.5704 117.655-31.0392C118.548-29.508 118.038-27.7216 116.507-26.8284L88.4349-10.6232C88.0607-10.368 87.5503-10.2404 86.9037-10.2404ZM76.7043-21.0864C76.1939-21.0864 75.6835-21.214 75.1731-21.4692C73.6419-22.3624 73.1315-24.2764 74.0247-25.68L90.2299-53.752C91.1231-55.2832 93.0371-55.7936 94.4407-54.9004C95.9719-54.0072 96.4823-52.0932 95.5891-50.6896L79.3839-22.6176C78.7373-21.5968 77.7165-21.0864 76.7043-21.0864ZM62.2769-25.2972C60.6181-25.2972 59.2145-26.7008 59.2145-28.3596L59.2145-60.77C59.2145-62.4288 60.6181-63.8324 62.2769-63.8324C63.9357-63.8324 65.3393-62.4288 65.3393-60.77L65.3393-28.3596C65.4755-26.7008 64.0719-25.2972 62.2769-25.2972ZM47.7305-21.852C46.7097-21.852 45.5613-22.3624 45.0509-23.3832L28.8457-51.4552C27.9525-52.9864 28.4629-54.7728 29.9941-55.666C31.5253-56.5592 33.3117-56.0488 34.2049-54.5176L50.4101-26.4456C51.3033-24.9144 50.7929-23.128 49.2617-22.2348C48.8875-21.9796 48.3771-21.852 47.7305-21.852ZM36.8845-11.5164C36.3741-11.5164 35.8637-11.644 35.3533-11.8992L7.28126-28.232C5.75006-29.1252 5.23966-31.0392 6.13286-32.4428C7.02606-33.974 8.94006-34.4844 10.3437-33.5912L38.4157-17.386C39.9469-16.4928 40.4573-14.5788 39.5641-13.1752C39.0537-12.1544 38.0415-11.5164 36.8845-11.5164Z"/>
  </g>
  <g id="Black-S" transform="matrix(1 0 0 1 2873.91 696)">
   <path d="M76.5544-15.65C75.7544-15.65 74.8544-16.05 74.4544-16.85C73.7544-18.05 74.1544-19.45 75.3544-20.15L97.3544-32.85C98.5544-33.55 99.9544-33.15 100.654-31.95C101.354-30.75 100.954-29.35 99.7544-28.65L77.7544-15.95C77.3544-15.75 76.9544-15.65 76.5544-15.65ZM68.4544-24.15C68.0544-24.15 67.6544-24.25 67.2544-24.45C66.0544-25.15 65.6544-26.65 66.3544-27.75L79.0544-49.75C79.7544-50.95 81.2544-51.35 82.3544-50.65C83.5544-49.95 83.9544-48.45 83.2544-47.35L70.5544-25.35C70.1544-24.55 69.3544-24.15 68.4544-24.15ZM57.2544-27.45C55.9544-27.45 54.8544-28.55 54.8544-29.85L54.8544-55.25C54.8544-56.55 55.9544-57.65 57.2544-57.65C58.5544-57.65 59.6544-56.55 59.6544-55.25L59.6544-29.85C59.6544-28.55 58.5544-27.45 57.2544-27.45ZM45.8544-24.75C45.0544-24.75 44.1544-25.15 43.7544-25.95L31.0544-47.95C30.3544-49.15 30.7544-50.55 31.9544-51.25C33.1544-51.95 34.5544-51.55 35.2544-50.35L47.9544-28.35C48.6544-27.15 48.2544-25.75 47.0544-25.05C46.6544-24.85 46.2544-24.75 45.8544-24.75ZM37.3544-16.65C36.9544-16.65 36.5544-16.75 36.1544-16.95L14.1544-29.75C12.9544-30.45 12.5544-31.95 13.2544-33.05C13.9544-34.25 15.4544-34.65 16.5544-33.95L38.5544-21.25C39.7544-20.55 40.1544-19.05 39.4544-17.95C39.0544-17.15 38.1544-16.65 37.3544-16.65Z"/>
  </g>
  <g id="Heavy-S" transform="matrix(1 0 0 1 2578.34 696)">
   <path d="M75.3319-15.65C74.5319-15.65 73.6319-16.05 73.2319-16.85C72.5319-18.05 72.9319-19.45 74.1319-20.15L96.1319-32.85C97.3319-33.55 98.7319-33.15 99.4319-31.95C100.132-30.75 99.7319-29.35 98.5319-28.65L76.5319-15.95C76.1319-15.75 75.7319-15.65 75.3319-15.65ZM67.2319-24.15C66.8319-24.15 66.4319-24.25 66.0319-24.45C64.8319-25.15 64.4319-26.65 65.1319-27.75L77.8319-49.75C78.5319-50.95 80.0319-51.35 81.1319-50.65C82.3319-49.95 82.7319-48.45 82.0319-47.35L69.3319-25.35C68.9319-24.55 68.1319-24.15 67.2319-24.15ZM56.0319-27.45C54.7319-27.45 53.6319-28.55 53.6319-29.85L53.6319-55.25C53.6319-56.55 54.7319-57.65 56.0319-57.65C57.3319-57.65 58.4319-56.55 58.4319-55.25L58.4319-29.85C58.4319-28.55 57.3319-27.45 56.0319-27.45ZM44.6319-24.75C43.8319-24.75 42.9319-25.15 42.5319-25.95L29.8319-47.95C29.1319-49.15 29.5319-50.55 30.7319-51.25C31.9319-51.95 33.3319-51.55 34.0319-50.35L46.7319-28.35C47.4319-27.15 47.0319-25.75 45.8319-25.05C45.4319-24.85 45.0319-24.75 44.6319-24.75ZM36.1319-16.65C35.7319-16.65 35.3319-16.75 34.9319-16.95L12.9319-29.75C11.7319-30.45 11.3319-31.95 12.0319-33.05C12.7319-34.25 14.2319-34.65 15.3319-33.95L37.3319-21.25C38.5319-20.55 38.9319-19.05 38.2319-17.95C37.8319-17.15 36.9319-16.65 36.1319-16.65Z"/>
  </g>
  <g id="Bold-S" transform="matrix(1 0 0 1 2282.91 696)">
   <path d="M73.9644-15.65C73.1644-15.65 72.2644-16.05 71.8644-16.85C71.1644-18.05 71.5644-19.45 72.7644-20.15L94.7644-32.85C95.9644-33.55 97.3644-33.15 98.0644-31.95C98.7644-30.75 98.3644-29.35 97.1644-28.65L75.1644-15.95C74.7644-15.75 74.3644-15.65 73.9644-15.65ZM65.8644-24.15C65.4644-24.15 65.0644-24.25 64.6644-24.45C63.4644-25.15 63.0644-26.65 63.7644-27.75L76.4644-49.75C77.1644-50.95 78.6644-51.35 79.7644-50.65C80.9644-49.95 81.3644-48.45 80.6644-47.35L67.9644-25.35C67.5644-24.55 66.7644-24.15 65.8644-24.15ZM54.6644-27.45C53.3644-27.45 52.2644-28.55 52.2644-29.85L52.2644-55.25C52.2644-56.55 53.3644-57.65 54.6644-57.65C55.9644-57.65 57.0644-56.55 57.0644-55.25L57.0644-29.85C57.0644-28.55 55.9644-27.45 54.6644-27.45ZM43.2644-24.75C42.4644-24.75 41.5644-25.15 41.1644-25.95L28.4644-47.95C27.7644-49.15 28.1644-50.55 29.3644-51.25C30.5644-51.95 31.9644-51.55 32.6644-50.35L45.3644-28.35C46.0644-27.15 45.6644-25.75 44.4644-25.05C44.0644-24.85 43.6644-24.75 43.2644-24.75ZM34.7644-16.65C34.3644-16.65 33.9644-16.75 33.5644-16.95L11.5644-29.75C10.3644-30.45 9.96444-31.95 10.6644-33.05C11.3644-34.25 12.8644-34.65 13.9644-33.95L35.9644-21.25C37.1644-20.55 37.5644-19.05 36.8644-17.95C36.4644-17.15 35.5644-16.65 34.7644-16.65Z"/>
  </g>
  <g id="Semibold-S" transform="matrix(1 0 0 1 1987.08 696)">
   <path d="M73.0217-15.65C72.2217-15.65 71.3217-16.05 70.9217-16.85C70.2217-18.05 70.6217-19.45 71.8217-20.15L93.8217-32.85C95.0217-33.55 96.4217-33.15 97.1217-31.95C97.8217-30.75 97.4217-29.35 96.2217-28.65L74.2217-15.95C73.8217-15.75 73.4217-15.65 73.0217-15.65ZM64.9217-24.15C64.5217-24.15 64.1217-24.25 63.7217-24.45C62.5217-25.15 62.1217-26.65 62.8217-27.75L75.5217-49.75C76.2217-50.95 77.7217-51.35 78.8217-50.65C80.0217-49.95 80.4217-48.45 79.7217-47.35L67.0217-25.35C66.6217-24.55 65.8217-24.15 64.9217-24.15ZM53.7217-27.45C52.4217-27.45 51.3217-28.55 51.3217-29.85L51.3217-55.25C51.3217-56.55 52.4217-57.65 53.7217-57.65C55.0217-57.65 56.1217-56.55 56.1217-55.25L56.1217-29.85C56.1217-28.55 55.0217-27.45 53.7217-27.45ZM42.3217-24.75C41.5217-24.75 40.6217-25.15 40.2217-25.95L27.5217-47.95C26.8217-49.15 27.2217-50.55 28.4217-51.25C29.6217-51.95 31.0217-51.55 31.7217-50.35L44.4217-28.35C45.1217-27.15 44.7217-25.75 43.5217-25.05C43.1217-24.85 42.7217-24.75 42.3217-24.75ZM33.8217-16.65C33.4217-16.65 33.0217-16.75 32.6217-16.95L10.6217-29.75C9.42168-30.45 9.02168-31.95 9.72168-33.05C10.4217-34.25 11.9217-34.65 13.0217-33.95L35.0217-21.25C36.2217-20.55 36.6217-19.05 35.9217-17.95C35.5217-17.15 34.6217-16.65 33.8217-16.65Z"/>
  </g>
  <g id="Medium-S" transform="matrix(1 0 0 1 1691.04 696)">
   <path d="M72.3068-15.65C71.5068-15.65 70.6068-16.05 70.2068-16.85C69.5068-18.05 69.9068-19.45 71.1068-20.15L93.1068-32.85C94.3068-33.55 95.7068-33.15 96.4068-31.95C97.1068-30.75 96.7068-29.35 95.5068-28.65L73.5068-15.95C73.1068-15.75 72.7068-15.65 72.3068-15.65ZM64.2068-24.15C63.8068-24.15 63.4068-24.25 63.0068-24.45C61.8068-25.15 61.4068-26.65 62.1068-27.75L74.8068-49.75C75.5068-50.95 77.0068-51.35 78.1068-50.65C79.3068-49.95 79.7068-48.45 79.0068-47.35L66.3068-25.35C65.9068-24.55 65.1068-24.15 64.2068-24.15ZM53.0068-27.45C51.7068-27.45 50.6068-28.55 50.6068-29.85L50.6068-55.25C50.6068-56.55 51.7068-57.65 53.0068-57.65C54.3068-57.65 55.4068-56.55 55.4068-55.25L55.4068-29.85C55.4068-28.55 54.3068-27.45 53.0068-27.45ZM41.6068-24.75C40.8068-24.75 39.9068-25.15 39.5068-25.95L26.8068-47.95C26.1068-49.15 26.5068-50.55 27.7068-51.25C28.9068-51.95 30.3068-51.55 31.0068-50.35L43.7068-28.35C44.4068-27.15 44.0068-25.75 42.8068-25.05C42.4068-24.85 42.0068-24.75 41.6068-24.75ZM33.1068-16.65C32.7068-16.65 32.3068-16.75 31.9068-16.95L9.90684-29.75C8.70684-30.45 8.30684-31.95 9.00684-33.05C9.70684-34.25 11.2068-34.65 12.3068-33.95L34.3068-21.25C35.5068-20.55 35.9068-19.05 35.2068-17.95C34.8068-17.15 33.9068-16.65 33.1068-16.65Z"/>
  </g>
  <g id="Regular-S" transform="matrix(1 0 0 1 1395.2 696)">
   <path d="M71.3744-15.65C70.5744-15.65 69.6744-16.05 69.2744-16.85C68.5744-18.05 68.9744-19.45 70.1744-20.15L92.1744-32.85C93.3744-33.55 94.7744-33.15 95.4744-31.95C96.1744-30.75 95.7744-29.35 94.5744-28.65L72.5744-15.95C72.1744-15.75 71.7744-15.65 71.3744-15.65ZM63.2744-24.15C62.8744-24.15 62.4744-24.25 62.0744-24.45C60.8744-25.15 60.4744-26.65 61.1744-27.75L73.8744-49.75C74.5744-50.95 76.0744-51.35 77.1744-50.65C78.3744-49.95 78.7744-48.45 78.0744-47.35L65.3744-25.35C64.9744-24.55 64.1744-24.15 63.2744-24.15ZM52.0744-27.45C50.7744-27.45 49.6744-28.55 49.6744-29.85L49.6744-55.25C49.6744-56.55 50.7744-57.65 52.0744-57.65C53.3744-57.65 54.4744-56.55 54.4744-55.25L54.4744-29.85C54.4744-28.55 53.3744-27.45 52.0744-27.45ZM40.6744-24.75C39.8744-24.75 38.9744-25.15 38.5744-25.95L25.8744-47.95C25.1744-49.15 25.5744-50.55 26.7744-51.25C27.9744-51.95 29.3744-51.55 30.0744-50.35L42.7744-28.35C43.4744-27.15 43.0744-25.75 41.8744-25.05C41.4744-24.85 41.0744-24.75 40.6744-24.75ZM32.1744-16.65C31.7744-16.65 31.3744-16.75 30.9744-16.95L8.97444-29.75C7.77444-30.45 7.37444-31.95 8.07444-33.05C8.77444-34.25 10.2744-34.65 11.3744-33.95L33.3744-21.25C34.5744-20.55 34.9744-19.05 34.2744-17.95C33.8744-17.15 32.9744-16.65 32.1744-16.65Z"/>
  </g>
  <g id="Light-S" transform="matrix(1 0 0 1 1099.57 696)">
   <path d="M70.3544-15.65C69.5544-15.65 68.6544-16.05 68.2544-16.85C67.5544-18.05 67.9544-19.45 69.1544-20.15L91.1544-32.85C92.3544-33.55 93.7544-33.15 94.4544-31.95C95.1544-30.75 94.7544-29.35 93.5544-28.65L71.5544-15.95C71.1878-15.75 70.7878-15.65 70.3544-15.65ZM62.2878-24.15C61.8878-24.15 61.4878-24.25 61.0878-24.45C59.8878-25.15 59.4878-26.65 60.1878-27.75L72.8878-49.75C73.5878-50.95 75.0878-51.35 76.1878-50.65C77.3878-49.95 77.7878-48.45 77.0878-47.35L64.3878-25.35C63.9544-24.55 63.1544-24.15 62.2878-24.15ZM51.0544-27.45C49.7544-27.45 48.6544-28.55 48.6544-29.85L48.6544-55.25C48.6544-56.55 49.7544-57.65 51.0544-57.65C52.3544-57.65 53.4544-56.55 53.4544-55.25L53.4544-29.85C53.4878-28.55 52.3878-27.45 51.0544-27.45ZM39.6544-24.75C38.8544-24.75 37.9544-25.15 37.5544-25.95L24.8544-47.95C24.1544-49.15 24.5544-50.55 25.7544-51.25C26.9544-51.95 28.3544-51.55 29.0544-50.35L41.7544-28.35C42.4544-27.15 42.0544-25.75 40.8544-25.05C40.4878-24.85 40.0878-24.75 39.6544-24.75ZM31.1544-16.65C30.7544-16.65 30.3544-16.75 29.9544-16.95L7.95444-29.75C6.75444-30.45 6.35444-31.95 7.05444-33.05C7.75444-34.25 9.25444-34.65 10.3544-33.95L32.3544-21.25C33.5544-20.55 33.9544-19.05 33.2544-17.95C32.8544-17.15 31.9878-16.65 31.1544-16.65Z"/>
  </g>
  <g id="Thin-S" transform="matrix(1 0 0 1 804.294 696)">
   <path d="M69.0054-15.65C68.2054-15.65 67.3054-16.05 66.9054-16.85C66.2054-18.05 66.6054-19.45 67.8054-20.15L89.8054-32.85C91.0054-33.55 92.4054-33.15 93.1054-31.95C93.8054-30.75 93.4054-29.35 92.2054-28.65L70.2054-15.95C69.8828-15.75 69.4828-15.65 69.0054-15.65ZM60.9828-24.15C60.5828-24.15 60.1828-24.25 59.7828-24.45C58.5828-25.15 58.1828-26.65 58.8828-27.75L71.5828-49.75C72.2828-50.95 73.7828-51.35 74.8828-50.65C76.0828-49.95 76.4828-48.45 75.7828-47.35L63.0828-25.35C62.6054-24.55 61.8054-24.15 60.9828-24.15ZM49.7054-27.45C48.4054-27.45 47.3054-28.55 47.3054-29.85L47.3054-55.25C47.3054-56.55 48.4054-57.65 49.7054-57.65C51.0054-57.65 52.1054-56.55 52.1054-55.25L52.1054-29.85C52.1828-28.55 51.0828-27.45 49.7054-27.45ZM38.3054-24.75C37.5054-24.75 36.6054-25.15 36.2054-25.95L23.5054-47.95C22.8054-49.15 23.2054-50.55 24.4054-51.25C25.6054-51.95 27.0054-51.55 27.7054-50.35L40.4054-28.35C41.1054-27.15 40.7054-25.75 39.5054-25.05C39.1828-24.85 38.7828-24.75 38.3054-24.75ZM29.8054-16.65C29.4054-16.65 29.0054-16.75 28.6054-16.95L6.60541-29.75C5.40541-30.45 5.00541-31.95 5.70541-33.05C6.40541-34.25 7.90541-34.65 9.00541-33.95L31.0054-21.25C32.2054-20.55 32.6054-19.05 31.9054-17.95C31.5054-17.15 30.6828-16.65 29.8054-16.65Z"/>
  </g>
  <g id="Ultralight-S" transform="matrix(1 0 0 1 508.317 696)">
   <path d="M68.3144-15.65C67.5144-15.65 66.6144-16.05 66.2144-16.85C65.5144-18.05 65.9144-19.45 67.1144-20.15L89.1144-32.85C90.3144-33.55 91.7144-33.15 92.4144-31.95C93.1144-30.75 92.7144-29.35 91.5144-28.65L69.5144-15.95C69.2144-15.75 68.8144-15.65 68.3144-15.65ZM60.3144-24.15C59.9144-24.15 59.5144-24.25 59.1144-24.45C57.9144-25.15 57.5144-26.65 58.2144-27.75L70.9144-49.75C71.6144-50.95 73.1144-51.35 74.2144-50.65C75.4144-49.95 75.8144-48.45 75.1144-47.35L62.4144-25.35C61.9144-24.55 61.1144-24.15 60.3144-24.15ZM49.0144-27.45C47.7144-27.45 46.6144-28.55 46.6144-29.85L46.6144-55.25C46.6144-56.55 47.7144-57.65 49.0144-57.65C50.3144-57.65 51.4144-56.55 51.4144-55.25L51.4144-29.85C51.5144-28.55 50.4144-27.45 49.0144-27.45ZM37.6144-24.75C36.8144-24.75 35.9144-25.15 35.5144-25.95L22.8144-47.95C22.1144-49.15 22.5144-50.55 23.7144-51.25C24.9144-51.95 26.3144-51.55 27.0144-50.35L39.7144-28.35C40.4144-27.15 40.0144-25.75 38.8144-25.05C38.5144-24.85 38.1144-24.75 37.6144-24.75ZM29.1144-16.65C28.7144-16.65 28.3144-16.75 27.9144-16.95L5.91444-29.75C4.71444-30.45 4.31444-31.95 5.01444-33.05C5.71444-34.25 7.21444-34.65 8.31444-33.95L30.3144-21.25C31.5144-20.55 31.9144-19.05 31.2144-17.95C30.8144-17.15 30.0144-16.65 29.1144-16.65Z"/>
  </g>
 </g>
</svg>
