<?xml version="1.0" encoding="UTF-8"?>
<!--Generator: Apple Native CoreSVG 149-->
<!DOCTYPE svg
PUBLIC "-//W3C//DTD SVG 1.1//EN"
       "http://www.w3.org/Graphics/SVG/1.1/DTD/svg11.dtd">
<svg version="1.1" xmlns="http://www.w3.org/2000/svg" xmlns:xlink="http://www.w3.org/1999/xlink" width="3300" height="2200">
 <!--glyph: "", point size: 100.0, font version: "17.0d9e1", template writer version: "59"-->
 <style>.multicolor-0:secondaryLabelColor {fill:#8A8A8E;opacity:1.0}
.multicolor-1:systemYellowColor {fill:#FFCC00;opacity:1.0}

.SFSymbolsPreview8A8A8E {fill:#8A8A8E;opacity:1.0}
.SFSymbolsPreviewFFCC00 {fill:#FFCC00;opacity:1.0}
</style>
 <g id="Notes">
  <rect height="2200" id="artboard" style="fill:white;opacity:1" width="3300" x="0" y="0"/>
  <line style="fill:none;stroke:black;opacity:1;stroke-width:0.5;" x1="263" x2="3036" y1="292" y2="292"/>
  <text style="stroke:none;fill:black;font-family:sans-serif;font-size:13;font-weight:bold;" transform="matrix(1 0 0 1 263 322)">Weight/Scale Variations</text>
  <text style="stroke:none;fill:black;font-family:sans-serif;font-size:13;text-anchor:middle;" transform="matrix(1 0 0 1 559.711 322)">Ultralight</text>
  <text style="stroke:none;fill:black;font-family:sans-serif;font-size:13;text-anchor:middle;" transform="matrix(1 0 0 1 856.422 322)">Thin</text>
  <text style="stroke:none;fill:black;font-family:sans-serif;font-size:13;text-anchor:middle;" transform="matrix(1 0 0 1 1153.13 322)">Light</text>
  <text style="stroke:none;fill:black;font-family:sans-serif;font-size:13;text-anchor:middle;" transform="matrix(1 0 0 1 1449.84 322)">Regular</text>
  <text style="stroke:none;fill:black;font-family:sans-serif;font-size:13;text-anchor:middle;" transform="matrix(1 0 0 1 1746.56 322)">Medium</text>
  <text style="stroke:none;fill:black;font-family:sans-serif;font-size:13;text-anchor:middle;" transform="matrix(1 0 0 1 2043.27 322)">Semibold</text>
  <text style="stroke:none;fill:black;font-family:sans-serif;font-size:13;text-anchor:middle;" transform="matrix(1 0 0 1 2339.98 322)">Bold</text>
  <text style="stroke:none;fill:black;font-family:sans-serif;font-size:13;text-anchor:middle;" transform="matrix(1 0 0 1 2636.69 322)">Heavy</text>
  <text style="stroke:none;fill:black;font-family:sans-serif;font-size:13;text-anchor:middle;" transform="matrix(1 0 0 1 2933.4 322)">Black</text>
  <line style="fill:none;stroke:black;opacity:1;stroke-width:0.5;" x1="263" x2="3036" y1="1903" y2="1903"/>
  <g transform="matrix(1 0 0 1 263 1933)">
   <path d="M9.24805 0.830078Q10.8691 0.830078 12.2949 0.214844Q13.7207-0.400391 14.8096-1.49414Q15.8984-2.58789 16.5186-4.01367Q17.1387-5.43945 17.1387-7.05078Q17.1387-8.66211 16.5186-10.0879Q15.8984-11.5137 14.8047-12.6074Q13.7109-13.7012 12.2852-14.3164Q10.8594-14.9316 9.23828-14.9316Q7.62695-14.9316 6.20117-14.3164Q4.77539-13.7012 3.69141-12.6074Q2.60742-11.5137 1.9873-10.0879Q1.36719-8.66211 1.36719-7.05078Q1.36719-5.43945 1.9873-4.01367Q2.60742-2.58789 3.69629-1.49414Q4.78516-0.400391 6.21094 0.214844Q7.63672 0.830078 9.24805 0.830078ZM9.24805-0.654297Q7.91992-0.654297 6.7627-1.14746Q5.60547-1.64062 4.73145-2.51953Q3.85742-3.39844 3.36426-4.56055Q2.87109-5.72266 2.87109-7.05078Q2.87109-8.37891 3.35938-9.54102Q3.84766-10.7031 4.72168-11.582Q5.5957-12.4609 6.75293-12.9541Q7.91016-13.4473 9.23828-13.4473Q10.5762-13.4473 11.7334-12.9541Q12.8906-12.4609 13.7695-11.582Q14.6484-10.7031 15.1465-9.54102Q15.6445-8.37891 15.6445-7.05078Q15.6445-5.72266 15.1514-4.56055Q14.6582-3.39844 13.7842-2.51953Q12.9102-1.64062 11.748-1.14746Q10.5859-0.654297 9.24805-0.654297ZM5.83984-7.04102Q5.83984-6.71875 6.04492-6.51855Q6.25-6.31836 6.5918-6.31836L8.50586-6.31836L8.50586-4.39453Q8.50586-4.0625 8.70605-3.85742Q8.90625-3.65234 9.22852-3.65234Q9.56055-3.65234 9.76562-3.85742Q9.9707-4.0625 9.9707-4.39453L9.9707-6.31836L11.8945-6.31836Q12.2266-6.31836 12.4316-6.51855Q12.6367-6.71875 12.6367-7.04102Q12.6367-7.37305 12.4316-7.57812Q12.2266-7.7832 11.8945-7.7832L9.9707-7.7832L9.9707-9.69727Q9.9707-10.0391 9.76562-10.2441Q9.56055-10.4492 9.22852-10.4492Q8.90625-10.4492 8.70605-10.2441Q8.50586-10.0391 8.50586-9.69727L8.50586-7.7832L6.5918-7.7832Q6.25-7.7832 6.04492-7.57812Q5.83984-7.37305 5.83984-7.04102Z"/>
  </g>
  <g transform="matrix(1 0 0 1 281.867 1933)">
   <path d="M11.709 2.91016Q13.75 2.91016 15.5518 2.12891Q17.3535 1.34766 18.7305-0.0292969Q20.1074-1.40625 20.8887-3.20801Q21.6699-5.00977 21.6699-7.05078Q21.6699-9.0918 20.8887-10.8936Q20.1074-12.6953 18.7305-14.0723Q17.3535-15.4492 15.5469-16.2305Q13.7402-17.0117 11.6992-17.0117Q9.6582-17.0117 7.85645-16.2305Q6.05469-15.4492 4.68262-14.0723Q3.31055-12.6953 2.5293-10.8936Q1.74805-9.0918 1.74805-7.05078Q1.74805-5.00977 2.5293-3.20801Q3.31055-1.40625 4.6875-0.0292969Q6.06445 1.34766 7.86621 2.12891Q9.66797 2.91016 11.709 2.91016ZM11.709 1.25Q9.98047 1.25 8.47656 0.605469Q6.97266-0.0390625 5.83496-1.17676Q4.69727-2.31445 4.05762-3.81836Q3.41797-5.32227 3.41797-7.05078Q3.41797-8.7793 4.05762-10.2832Q4.69727-11.7871 5.83008-12.9297Q6.96289-14.0723 8.4668-14.7119Q9.9707-15.3516 11.6992-15.3516Q13.4277-15.3516 14.9316-14.7119Q16.4355-14.0723 17.5781-12.9297Q18.7207-11.7871 19.3652-10.2832Q20.0098-8.7793 20.0098-7.05078Q20.0098-5.32227 19.3701-3.81836Q18.7305-2.31445 17.5928-1.17676Q16.4551-0.0390625 14.9463 0.605469Q13.4375 1.25 11.709 1.25ZM7.39258-7.04102Q7.39258-6.68945 7.62695-6.46484Q7.86133-6.24023 8.23242-6.24023L10.8789-6.24023L10.8789-3.57422Q10.8789-3.21289 11.1035-2.9834Q11.3281-2.75391 11.6797-2.75391Q12.0508-2.75391 12.2852-2.9834Q12.5195-3.21289 12.5195-3.57422L12.5195-6.24023L15.1758-6.24023Q15.5371-6.24023 15.7715-6.46484Q16.0059-6.68945 16.0059-7.04102Q16.0059-7.41211 15.7715-7.6416Q15.5371-7.87109 15.1758-7.87109L12.5195-7.87109L12.5195-10.5176Q12.5195-10.8984 12.2852-11.1279Q12.0508-11.3574 11.6797-11.3574Q11.3281-11.3574 11.1035-11.1279Q10.8789-10.8984 10.8789-10.5176L10.8789-7.87109L8.23242-7.87109Q7.85156-7.87109 7.62207-7.6416Q7.39258-7.41211 7.39258-7.04102Z"/>
  </g>
  <g transform="matrix(1 0 0 1 305.646 1933)">
   <path d="M14.9707 5.66406Q17.0605 5.66406 18.96 5.01465Q20.8594 4.36523 22.4512 3.19336Q24.043 2.02148 25.2197 0.429688Q26.3965-1.16211 27.0459-3.06641Q27.6953-4.9707 27.6953-7.05078Q27.6953-9.14062 27.0459-11.04Q26.3965-12.9395 25.2197-14.5312Q24.043-16.123 22.4512-17.2998Q20.8594-18.4766 18.9551-19.126Q17.0508-19.7754 14.9609-19.7754Q12.8711-19.7754 10.9717-19.126Q9.07227-18.4766 7.48535-17.2998Q5.89844-16.123 4.72168-14.5312Q3.54492-12.9395 2.90039-11.04Q2.25586-9.14062 2.25586-7.05078Q2.25586-4.9707 2.90527-3.06641Q3.55469-1.16211 4.72656 0.429688Q5.89844 2.02148 7.49023 3.19336Q9.08203 4.36523 10.9814 5.01465Q12.8809 5.66406 14.9707 5.66406ZM14.9707 3.84766Q13.1641 3.84766 11.5283 3.2959Q9.89258 2.74414 8.53516 1.74805Q7.17773 0.751953 6.17676-0.610352Q5.17578-1.97266 4.62891-3.6084Q4.08203-5.24414 4.08203-7.05078Q4.08203-8.86719 4.62891-10.5029Q5.17578-12.1387 6.17188-13.501Q7.16797-14.8633 8.52539-15.8594Q9.88281-16.8555 11.5186-17.4023Q13.1543-17.9492 14.9609-17.9492Q16.7773-17.9492 18.4131-17.4023Q20.0488-16.8555 21.4111-15.8594Q22.7734-14.8633 23.7695-13.501Q24.7656-12.1387 25.3174-10.5029Q25.8691-8.86719 25.8691-7.05078Q25.8789-5.24414 25.332-3.6084Q24.7852-1.97266 23.7842-0.610352Q22.7832 0.751953 21.4209 1.74805Q20.0586 2.74414 18.4229 3.2959Q16.7871 3.84766 14.9707 3.84766ZM9.45312-7.04102Q9.45312-6.66016 9.71191-6.41113Q9.9707-6.16211 10.3711-6.16211L14.0625-6.16211L14.0625-2.46094Q14.0625-2.06055 14.3115-1.80664Q14.5605-1.55273 14.9414-1.55273Q15.3516-1.55273 15.6055-1.80664Q15.8594-2.06055 15.8594-2.46094L15.8594-6.16211L19.5605-6.16211Q19.9609-6.16211 20.2148-6.41113Q20.4688-6.66016 20.4688-7.04102Q20.4688-7.45117 20.2148-7.70508Q19.9609-7.95898 19.5605-7.95898L15.8594-7.95898L15.8594-11.6504Q15.8594-12.0605 15.6055-12.3145Q15.3516-12.5684 14.9414-12.5684Q14.5605-12.5684 14.3115-12.3096Q14.0625-12.0508 14.0625-11.6504L14.0625-7.95898L10.3711-7.95898Q9.96094-7.95898 9.70703-7.70508Q9.45312-7.45117 9.45312-7.04102Z"/>
  </g>
  <text style="stroke:none;fill:black;font-family:sans-serif;font-size:13;font-weight:bold;" transform="matrix(1 0 0 1 263 1953)">Design Variations</text>
  <text style="stroke:none;fill:black;font-family:sans-serif;font-size:13;" transform="matrix(1 0 0 1 263 1971)">Symbols are supported in up to nine weights and three scales.</text>
  <text style="stroke:none;fill:black;font-family:sans-serif;font-size:13;" transform="matrix(1 0 0 1 263 1989)">For optimal layout with text and other symbols, vertically align</text>
  <text style="stroke:none;fill:black;font-family:sans-serif;font-size:13;" transform="matrix(1 0 0 1 263 2007)">symbols with the adjacent text.</text>
  <line style="fill:none;stroke:#00AEEF;stroke-width:0.5;opacity:1.0;" x1="776" x2="776" y1="1919" y2="1933"/>
  <g transform="matrix(1 0 0 1 776 1933)">
   <path d="M3.31055 0.15625Q3.70117 0.15625 3.91602-0.00976562Q4.13086-0.175781 4.26758-0.585938L5.52734-4.0332L11.2891-4.0332L12.5488-0.585938Q12.6855-0.175781 12.9004-0.00976562Q13.1152 0.15625 13.4961 0.15625Q13.8867 0.15625 14.1162-0.0585938Q14.3457-0.273438 14.3457-0.644531Q14.3457-0.869141 14.2383-1.17188L9.6582-13.3691Q9.48242-13.8184 9.17969-14.043Q8.87695-14.2676 8.4082-14.2676Q7.5-14.2676 7.17773-13.3789L2.59766-1.16211Q2.49023-0.859375 2.49023-0.634766Q2.49023-0.263672 2.70996-0.0537109Q2.92969 0.15625 3.31055 0.15625ZM6.00586-5.51758L8.37891-12.0898L8.42773-12.0898L10.8008-5.51758Z"/>
  </g>
  <line style="fill:none;stroke:#00AEEF;stroke-width:0.5;opacity:1.0;" x1="793.197" x2="793.197" y1="1919" y2="1933"/>
  <text style="stroke:none;fill:black;font-family:sans-serif;font-size:13;font-weight:bold;" transform="matrix(1 0 0 1 776 1953)">Margins</text>
  <text style="stroke:none;fill:black;font-family:sans-serif;font-size:13;" transform="matrix(1 0 0 1 776 1971)">Leading and trailing margins on the left and right side of each symbol</text>
  <text style="stroke:none;fill:black;font-family:sans-serif;font-size:13;" transform="matrix(1 0 0 1 776 1989)">can be adjusted by modifying the x-location of the margin guidelines.</text>
  <text style="stroke:none;fill:black;font-family:sans-serif;font-size:13;" transform="matrix(1 0 0 1 776 2007)">Modifications are automatically applied proportionally to all</text>
  <text style="stroke:none;fill:black;font-family:sans-serif;font-size:13;" transform="matrix(1 0 0 1 776 2025)">scales and weights.</text>
  <g transform="matrix(1 0 0 1 1289 1933)">
   <path d="M2.8418 1.86523L4.54102 3.57422Q5.18555 4.22852 5.90332 4.17969Q6.62109 4.13086 7.31445 3.35938L18.0078-8.42773L17.041-9.4043L6.42578 2.27539Q6.16211 2.57812 5.89355 2.61719Q5.625 2.65625 5.27344 2.30469L4.10156 1.14258Q3.75 0.791016 3.79395 0.522461Q3.83789 0.253906 4.14062-0.0195312L15.6152-10.8203L14.6387-11.7871L3.04688-0.898438Q2.30469-0.214844 2.25098 0.498047Q2.19727 1.21094 2.8418 1.86523ZM9.25781-16.3281Q8.94531-16.0254 8.90625-15.6348Q8.86719-15.2441 9.04297-14.9512Q9.21875-14.6777 9.55566-14.541Q9.89258-14.4043 10.3809-14.5215Q11.4746-14.7754 12.5977-14.7314Q13.7207-14.6875 14.7949-13.9844L14.209-12.5293Q13.9551-11.9043 14.0674-11.4404Q14.1797-10.9766 14.5801-10.5664L16.875-8.25195Q17.2363-7.88086 17.5781-7.82227Q17.9199-7.76367 18.3398-7.8418L19.4043-8.03711L20.0684-7.36328L20.0293-6.80664Q20-6.43555 20.1221-6.12305Q20.2441-5.81055 20.6055-5.44922L21.3672-4.70703Q21.7285-4.3457 22.1533-4.33105Q22.5781-4.31641 22.9297-4.66797L25.8398-7.58789Q26.1914-7.93945 26.1816-8.35449Q26.1719-8.76953 25.8105-9.13086L25.0391-9.89258Q24.6875-10.2539 24.3799-10.3857Q24.0723-10.5176 23.7109-10.4883L23.1348-10.4395L22.4902-11.0742L22.7344-12.1973Q22.832-12.6172 22.6953-12.9834Q22.5586-13.3496 22.1191-13.7891L19.9219-15.9766Q18.6719-17.2168 17.2607-17.8369Q15.8496-18.457 14.4189-18.4814Q12.9883-18.5059 11.665-17.959Q10.3418-17.4121 9.25781-16.3281ZM10.752-15.957Q11.6602-16.6211 12.7002-16.9043Q13.7402-17.1875 14.8047-17.085Q15.8691-16.9824 16.8701-16.5137Q17.8711-16.0449 18.7012-15.2051L21.1328-12.793Q21.3086-12.6172 21.3525-12.4512Q21.3965-12.2852 21.3379-12.0312L21.0156-10.5469L22.5195-9.0625L23.5059-9.12109Q23.6914-9.13086 23.7891-9.09668Q23.8867-9.0625 24.0332-8.91602L24.6094-8.33984L22.168-5.89844L21.5918-6.47461Q21.4453-6.62109 21.4062-6.71875Q21.3672-6.81641 21.377-7.01172L21.4453-7.98828L19.9512-9.47266L18.4277-9.21875Q18.1836-9.16992 18.042-9.2041Q17.9004-9.23828 17.7148-9.41406L15.7129-11.416Q15.5176-11.5918 15.4932-11.7529Q15.4688-11.9141 15.5859-12.1875L16.4648-14.2773Q15.293-15.3711 13.8281-15.791Q12.3633-16.2109 10.8398-15.7617Q10.7227-15.7324 10.6885-15.8057Q10.6543-15.8789 10.752-15.957Z"/>
  </g>
  <text style="stroke:none;fill:black;font-family:sans-serif;font-size:13;font-weight:bold;" transform="matrix(1 0 0 1 1289 1953)">Exporting</text>
  <text style="stroke:none;fill:black;font-family:sans-serif;font-size:13;" transform="matrix(1 0 0 1 1289 1971)">Symbols should be outlined when exporting to ensure the</text>
  <text style="stroke:none;fill:black;font-family:sans-serif;font-size:13;" transform="matrix(1 0 0 1 1289 1989)">design is preserved when submitting to Xcode.</text>
  <text id="template-version" style="stroke:none;fill:black;font-family:sans-serif;font-size:13;text-anchor:end;" transform="matrix(1 0 0 1 3036 1933)">Template v.3.0</text>
  <text style="stroke:none;fill:black;font-family:sans-serif;font-size:13;text-anchor:end;" transform="matrix(1 0 0 1 3036 1951)">Requires Xcode 13 or greater</text>
  <text id="descriptive-name" style="stroke:none;fill:black;font-family:sans-serif;font-size:13;text-anchor:end;" transform="matrix(1 0 0 1 3036 1969)">Generated from light.bulb</text>
  <text style="stroke:none;fill:black;font-family:sans-serif;font-size:13;text-anchor:end;" transform="matrix(1 0 0 1 3036 1987)">Typeset at 100 points</text>
  <text style="stroke:none;fill:black;font-family:sans-serif;font-size:13;" transform="matrix(1 0 0 1 263 726)">Small</text>
  <text style="stroke:none;fill:black;font-family:sans-serif;font-size:13;" transform="matrix(1 0 0 1 263 1156)">Medium</text>
  <text style="stroke:none;fill:black;font-family:sans-serif;font-size:13;" transform="matrix(1 0 0 1 263 1586)">Large</text>
 </g>
 <g id="Guides">
  <g id="H-reference" style="fill:#27AAE1;stroke:none;" transform="matrix(1 0 0 1 339 696)">
   <path d="M0.993347 0L3.6377 0L29.3282-67.1326L30.0301-67.1326L30.0301-70.459L28.1227-70.459ZM11.6882-24.4797L46.9818-24.4797L46.2311-26.7288L12.4382-26.7288ZM55.1193 0L57.7637 0L30.6381-70.459L29.4327-70.459L29.4327-67.1326Z"/>
  </g>
  <line id="Baseline-S" style="fill:none;stroke:#27AAE1;opacity:1;stroke-width:0.5;" x1="263" x2="3036" y1="696" y2="696"/>
  <line id="Capline-S" style="fill:none;stroke:#27AAE1;opacity:1;stroke-width:0.5;" x1="263" x2="3036" y1="625.541" y2="625.541"/>
  <g id="H-reference" style="fill:#27AAE1;stroke:none;" transform="matrix(1 0 0 1 339 1126)">
   <path d="M0.993347 0L3.6377 0L29.3282-67.1326L30.0301-67.1326L30.0301-70.459L28.1227-70.459ZM11.6882-24.4797L46.9818-24.4797L46.2311-26.7288L12.4382-26.7288ZM55.1193 0L57.7637 0L30.6381-70.459L29.4327-70.459L29.4327-67.1326Z"/>
  </g>
  <line id="Baseline-M" style="fill:none;stroke:#27AAE1;opacity:1;stroke-width:0.5;" x1="263" x2="3036" y1="1126" y2="1126"/>
  <line id="Capline-M" style="fill:none;stroke:#27AAE1;opacity:1;stroke-width:0.5;" x1="263" x2="3036" y1="1055.54" y2="1055.54"/>
  <g id="H-reference" style="fill:#27AAE1;stroke:none;" transform="matrix(1 0 0 1 339 1556)">
   <path d="M0.993347 0L3.6377 0L29.3282-67.1326L30.0301-67.1326L30.0301-70.459L28.1227-70.459ZM11.6882-24.4797L46.9818-24.4797L46.2311-26.7288L12.4382-26.7288ZM55.1193 0L57.7637 0L30.6381-70.459L29.4327-70.459L29.4327-67.1326Z"/>
  </g>
  <line id="Baseline-L" style="fill:none;stroke:#27AAE1;opacity:1;stroke-width:0.5;" x1="263" x2="3036" y1="1556" y2="1556"/>
  <line id="Capline-L" style="fill:none;stroke:#27AAE1;opacity:1;stroke-width:0.5;" x1="263" x2="3036" y1="1485.54" y2="1485.54"/>
  <line id="left-margin-Regular-M" style="fill:none;stroke:#00AEEF;stroke-width:0.5;opacity:1.0;" x1="1393.19" x2="1393.19" y1="1030.73" y2="1150.14"/>
  <line id="right-margin-Regular-M" style="fill:none;stroke:#00AEEF;stroke-width:0.5;opacity:1.0;" x1="1506.5" x2="1506.5" y1="1030.73" y2="1150.14"/>
 </g>
 <g id="Symbols">
  <g id="Black-L" transform="matrix(1 0 0 1 2854.12 1556)">
   <path class="multicolor-0:secondaryLabelColor SFSymbolsPreview8A8A8E" d="M105.816 50.7492L57.1953 50.7492C55.2189 50.7492 53.5719 49.1022 53.5719 47.1258L53.5719 39.094C53.5719 37.1176 55.2189 35.4706 57.1953 35.4706L105.816 35.4706C107.792 35.4706 109.439 37.1176 109.439 39.094L109.439 47.1258C109.439 49.1022 107.792 50.7492 105.816 50.7492ZM109.439 28.5741L109.439 21.6025C109.439 19.7908 107.957 18.4732 106.31 18.4732L56.8633 18.4732C55.0516 18.4732 53.734 19.9555 53.734 21.6025L53.734 28.6938C53.734 30.5055 55.2163 31.8231 56.8633 31.8231L106.307 31.8231C107.957 31.8655 109.439 30.3858 109.439 28.5741ZM81.4246 69.795C89.1661 69.795 95.598 64.5932 97.6436 57.3856C98.0927 55.8314 96.8652 54.3942 95.311 54.3942L67.5806 54.3942C66.0238 54.3942 64.8761 55.9484 65.248 57.3856C67.2512 64.5932 73.7229 69.795 81.4246 69.795Z"/>
   <path class="multicolor-1:systemYellowColor SFSymbolsPreviewFFCC00" d="M58.2822 18.4732C56.2339-2.1268 42.2279-15.8512 29.6538-30.1442C15.483-46.1985 7.94597-63.9744 10.7727-85.6796C14.7046-115.413 36.1254-138.226 66.3107-144.536C96.9875-150.965 128.934-137.777 144.213-112.589C159.776-86.7848 156.787-56.7244 136.022-32.3545C122.954-16.9564 108.496-2.4562 104.564 18.5183C89.1237 18.6379 73.7255 18.4732 58.2822 18.4732Z"/>
  </g>
  <g id="Heavy-L" transform="matrix(1 0 0 1 2558.95 1556)">
   <path class="multicolor-0:secondaryLabelColor SFSymbolsPreview8A8A8E" d="M103.201 49.0514L56.4433 49.0514C54.4669 49.0514 52.8199 47.4044 52.8199 45.428L52.8199 37.8975C52.8199 35.9211 54.4669 34.2741 56.4433 34.2741L103.201 34.2741C105.177 34.2741 106.824 35.9211 106.824 37.8975L106.824 45.428C106.824 47.4044 105.177 49.0514 103.201 49.0514ZM106.824 27.51L106.824 20.9734C106.824 19.1617 105.342 17.8441 103.695 17.8441L56.1016 17.8441C54.2899 17.8441 52.9723 19.3264 52.9723 20.9734L52.9723 27.6014C52.9723 29.4131 54.4546 30.7307 56.1016 30.7307L103.683 30.7307C105.342 30.7916 106.824 29.3217 106.824 27.51ZM79.746 67.4636C87.2413 67.4636 93.4561 62.4321 95.4259 55.4795C95.8467 53.9915 94.6757 52.5825 93.1877 52.5825L66.3653 52.5825C64.865 52.5825 63.7368 54.0705 64.1271 55.4795C66.0359 62.4321 72.2993 67.4636 79.746 67.4636Z"/>
   <path class="multicolor-1:systemYellowColor SFSymbolsPreviewFFCC00" d="M57.3697 17.8441C55.3875-2.05609 41.8545-15.3454 29.7057-29.1469C16.008-44.662 8.72599-61.8422 11.4583-82.8096C15.2578-111.541 35.9691-133.588 65.1334-139.699C94.7794-145.901 125.657-133.167 140.435-108.821C155.468-83.8769 152.583-54.8287 132.519-31.2813C119.876-16.4126 105.91-2.38549 102.11 17.9174C87.1804 18.0088 72.3117 17.8441 57.3697 17.8441Z"/>
  </g>
  <g id="Bold-L" transform="matrix(1 0 0 1 2264.12 1556)">
   <path class="multicolor-0:secondaryLabelColor SFSymbolsPreview8A8A8E" d="M100.096 46.7529L55.5934 46.7529C53.617 46.7529 51.97 45.1059 51.97 43.1295L51.97 36.2068C51.97 34.2304 53.617 32.5834 55.5934 32.5834L100.096 32.5834C102.073 32.5834 103.72 34.2304 103.72 36.2068L103.72 43.1295C103.72 45.1059 102.073 46.7529 100.096 46.7529ZM103.72 25.9791L103.72 19.9705C103.72 18.1588 102.237 16.8412 100.59 16.8412L55.2349 16.8412C53.4232 16.8412 52.1056 18.3235 52.1056 19.9705L52.1056 26.039C52.1056 27.8507 53.5879 29.1683 55.2349 29.1683L100.561 29.1683C102.237 29.244 103.72 27.7908 103.72 25.9791ZM77.7771 64.3973C84.9675 64.3973 90.9276 59.574 92.8007 52.9244C93.1899 51.5163 92.0821 50.1389 90.674 50.1389L64.9559 50.1389C63.5187 50.1389 62.4241 51.547 62.8292 52.9244C64.6265 59.574 70.6333 64.3973 77.7771 64.3973Z"/>
   <path class="multicolor-1:systemYellowColor SFSymbolsPreviewFFCC00" d="M56.3283 16.8412C54.4261-2.21131 41.4694-14.9727 29.8318-28.1831C16.7103-43.042 9.73129-59.5028 12.3521-79.5742C15.9917-107.09 35.8386-128.209 63.7723-134.08C92.171-140.011 121.753-127.82 135.923-104.498C150.317-80.593 147.56-52.7774 128.343-30.2208C116.211-15.9915 102.836-2.54071 99.1967 16.9461C84.8917 17.0059 70.6624 16.8412 56.3283 16.8412Z"/>
  </g>
  <g id="Semibold-L" transform="matrix(1 0 0 1 1968.7 1556)">
   <path class="multicolor-0:secondaryLabelColor SFSymbolsPreview8A8A8E" d="M97.9559 45.1682L55.0075 45.1682C53.0311 45.1682 51.3841 43.5212 51.3841 41.5448L51.3841 35.0412C51.3841 33.0648 53.0311 31.4178 55.0075 31.4178L97.9559 31.4178C99.9323 31.4178 101.579 33.0648 101.579 35.0412L101.579 41.5448C101.579 43.5212 99.9323 45.1682 97.9559 45.1682ZM101.579 24.9238L101.579 19.2791C101.579 17.4674 100.097 16.1498 98.45 16.1498L54.6374 16.1498C52.8257 16.1498 51.5081 17.6321 51.5081 19.2791L51.5081 24.9618C51.5081 26.7735 52.9904 28.0911 54.6374 28.0911L98.4093 28.0911C100.097 28.1771 101.579 26.7355 101.579 24.9238ZM76.4197 62.2834C83.3999 62.2834 89.1845 57.6037 90.9909 51.1629C91.3583 49.8099 90.2941 48.4542 88.9411 48.4542L63.9842 48.4542C62.5906 48.4542 61.5191 49.8072 61.9344 51.1629C63.6548 57.6037 69.4848 62.2834 76.4197 62.2834Z"/>
   <path class="multicolor-1:systemYellowColor SFSymbolsPreviewFFCC00" d="M55.6104 16.1498C53.7633-2.31832 41.2039-14.7157 29.9187-27.5186C17.1945-41.9251 10.4243-57.89 12.9682-77.3437C16.4977-104.021 35.7486-124.501 62.834-130.207C90.3728-135.951 119.062-124.133 132.812-101.518C146.765-78.3292 144.097-51.3632 125.465-29.4897C113.685-15.7013 100.718-2.64772 97.1883 16.2765C83.3139 16.3145 69.5255 16.1498 55.6104 16.1498Z"/>
  </g>
  <g id="Medium-L" transform="matrix(1 0 0 1 1672.97 1556)">
   <path class="multicolor-0:secondaryLabelColor SFSymbolsPreview8A8A8E" d="M96.3329 43.9667L54.5632 43.9667C52.5868 43.9667 50.9398 42.3197 50.9398 40.3433L50.9398 34.1575C50.9398 32.1811 52.5868 30.5341 54.5632 30.5341L96.3329 30.5341C98.3093 30.5341 99.9563 32.1811 99.9563 34.1575L99.9563 40.3433C99.9563 42.3197 98.3093 43.9667 96.3329 43.9667ZM99.9563 24.1236L99.9563 18.7549C99.9563 16.9432 98.474 15.6256 96.827 15.6256L54.1844 15.6256C52.3727 15.6256 51.0551 17.1079 51.0551 18.7549L51.0551 24.1451C51.0551 25.9568 52.5374 27.2744 54.1844 27.2744L96.7775 27.2744C98.474 27.3681 99.9563 25.9353 99.9563 24.1236ZM75.3905 60.6805C82.2112 60.6805 87.8628 56.1097 89.6186 49.8272C89.9696 48.516 88.9383 47.1769 87.6271 47.1769L63.2475 47.1769C61.8868 47.1769 60.8329 48.4881 61.256 49.8272C62.9181 56.1097 68.6139 60.6805 75.3905 60.6805Z"/>
   <path class="multicolor-1:systemYellowColor SFSymbolsPreviewFFCC00" d="M55.0661 15.6256C53.2608-2.39945 41.0026-14.5209 29.9846-27.0148C17.5617-41.0783 10.9498-56.6671 13.4355-75.6524C16.8813-101.694 35.6804-121.689 62.1225-127.27C89.0093-132.872 117.021-121.338 130.454-99.258C144.073-76.6126 141.472-50.291 123.282-28.9353C111.77-15.4811 99.1113-2.72885 95.6654 15.7687C82.1175 15.7903 68.6634 15.6256 55.0661 15.6256Z"/>
  </g>
  <g id="Regular-L" transform="matrix(1 0 0 1 1377.54 1556)">
   <path class="multicolor-0:secondaryLabelColor SFSymbolsPreview8A8A8E" d="M94.216 42.3995L53.9837 42.3995C52.0073 42.3995 50.3603 40.7525 50.3603 38.7761L50.3603 33.0047C50.3603 31.0283 52.0073 29.3813 53.9837 29.3813L94.216 29.3813C96.1924 29.3813 97.8394 31.0283 97.8394 33.0047L97.8394 38.7761C97.8394 40.7525 96.1924 42.3995 94.216 42.3995ZM97.8394 23.0798L97.8394 18.0711C97.8394 16.2594 96.3571 14.9418 94.7101 14.9418L53.5934 14.9418C51.7817 14.9418 50.4641 16.4241 50.4641 18.0711L50.4641 23.0798C50.4641 24.8915 51.9464 26.2091 53.5934 26.2091L94.6492 26.2091C96.3571 26.3129 97.8394 24.8915 97.8394 23.0798ZM74.048 58.5898C80.6609 58.5898 86.1388 54.161 87.8287 48.0851C88.1581 46.8284 87.1699 45.5108 85.9132 45.5108L62.2865 45.5108C60.9689 45.5108 59.9378 46.7675 60.371 48.0851C61.9571 54.161 67.478 58.5898 74.048 58.5898Z"/>
   <path class="multicolor-1:systemYellowColor SFSymbolsPreviewFFCC00" d="M54.356 14.9418C52.6052-2.50529 40.74-14.2668 30.0705-26.3576C18.0405-39.9737 11.6353-55.072 14.0449-73.4464C17.3817-98.6592 35.5914-118.022 61.1945-123.439C87.2308-128.856 114.359-117.692 127.377-96.3105C140.56-74.3737 138.047-48.8924 120.435-28.2122C109.271-15.194 97.0159-2.83469 93.679 15.1065C80.5571 15.1065 67.5389 14.9418 54.356 14.9418Z"/>
  </g>
  <g id="Light-L" transform="matrix(1 0 0 1 1081.95 1556)">
   <path class="multicolor-0:secondaryLabelColor SFSymbolsPreview8A8A8E" d="M92.9349 39.5518L53.9215 39.5518C51.9451 39.5518 50.2981 37.9048 50.2981 35.9284L50.2981 30.4933C50.2981 28.5169 51.9451 26.8699 53.9215 26.8699L92.9349 26.8699C94.9113 26.8699 96.5583 28.5169 96.5583 30.4933L96.5583 35.9284C96.5583 37.9048 94.9113 39.5518 92.9349 39.5518ZM96.5583 20.6525L96.5583 15.9379C96.5583 14.1262 95.076 12.8086 93.429 12.8086L53.4891 12.8086C51.6774 12.8086 50.3598 14.2909 50.3598 15.9379L50.3598 20.6525C50.3598 22.4642 51.8421 23.7818 53.4891 23.7818L93.3261 23.7818C95.076 23.8435 96.5583 22.4642 96.5583 20.6525ZM73.3973 55.3219C79.8 55.3219 85.194 51.0191 86.7998 45.0693C87.1292 43.8546 86.141 42.537 84.9263 42.537L61.93 42.537C60.6124 42.537 59.6654 43.7517 60.0566 45.0693C61.6006 51.0191 66.9534 55.3219 73.3973 55.3219Z"/>
   <path class="multicolor-1:systemYellowColor SFSymbolsPreviewFFCC00" d="M54.2097 12.8086C52.5009-4.17614 40.9719-15.6434 30.5546-27.4401C18.8609-40.6779 12.5817-55.398 14.9492-73.268C18.2021-97.8083 35.9074-116.667 60.8801-121.958C86.2439-127.249 112.658-116.337 125.34-95.5437C138.186-74.1532 135.757-49.3864 118.608-29.2106C107.696-16.5287 95.7348-4.50554 92.482 12.9733C79.7383 12.9733 67.0563 12.8086 54.2097 12.8086Z"/>
  </g>
  <g id="Thin-L" transform="matrix(1 0 0 1 786.708 1556)">
   <path class="multicolor-0:secondaryLabelColor SFSymbolsPreview8A8A8E" d="M91.2405 35.7856L53.8391 35.7856C51.8627 35.7856 50.2157 34.1386 50.2157 32.1622L50.2157 27.1717C50.2157 25.1953 51.8627 23.5483 53.8391 23.5483L91.2405 23.5483C93.2169 23.5483 94.8639 25.1953 94.8639 27.1717L94.8639 32.1622C94.8639 34.1386 93.2169 35.7856 91.2405 35.7856ZM94.8639 17.4421L94.8639 13.1166C94.8639 11.3049 93.3816 9.98731 91.7346 9.98731L53.3512 9.98731C51.5395 9.98731 50.2219 11.4696 50.2219 13.1166L50.2219 17.4421C50.2219 19.2538 51.7042 20.5714 53.3512 20.5714L91.5761 20.5714C93.3816 20.5775 94.8639 19.2538 94.8639 17.4421ZM72.5367 50.9998C78.6615 50.9998 83.9443 46.8637 85.4389 41.0807C85.7683 39.9216 84.7801 38.604 83.621 38.604L61.4585 38.604C60.1409 38.604 59.3051 39.7631 59.6407 41.0807C61.1291 46.8637 66.2596 50.9998 72.5367 50.9998Z"/>
   <path class="multicolor-1:systemYellowColor SFSymbolsPreviewFFCC00" d="M54.0162 9.98731C52.363-6.38597 41.2786-17.4641 31.1949-28.8717C19.9458-41.6092 13.8334-55.829 16.1454-73.032C19.287-96.6829 36.3253-114.874 60.4642-119.998C84.9386-125.123 110.407-114.545 122.645-94.5295C135.047-73.8617 132.729-50.0398 116.191-30.531C105.613-18.2938 94.0404-6.71537 90.8987 10.152C78.6553 10.152 66.4181 9.98731 54.0162 9.98731Z"/>
  </g>
  <g id="Ultralight-L" transform="matrix(1 0 0 1 490.752 1556)">
   <path class="multicolor-0:secondaryLabelColor SFSymbolsPreview8A8A8E" d="M90.3726 33.8565L53.7969 33.8565C51.8205 33.8565 50.1735 32.2095 50.1735 30.2331L50.1735 25.4704C50.1735 23.494 51.8205 21.847 53.7969 21.847L90.3726 21.847C92.349 21.847 93.996 23.494 93.996 25.4704L93.996 30.2331C93.996 32.2095 92.349 33.8565 90.3726 33.8565ZM93.996 15.7977L93.996 11.6716C93.996 9.85986 92.5137 8.54226 90.8667 8.54226L53.2805 8.54226C51.4688 8.54226 50.1512 10.0246 50.1512 11.6716L50.1512 15.7977C50.1512 17.6094 51.6335 18.927 53.2805 18.927L90.6798 18.927C92.5137 18.9047 93.996 17.6094 93.996 15.7977ZM72.0959 48.786C78.0784 48.786 83.3042 44.7354 84.7419 39.0377C85.0713 37.9071 84.0831 36.5895 82.9525 36.5895L61.2171 36.5895C59.8995 36.5895 59.1205 37.7201 59.4277 39.0377C60.8877 44.7354 65.9042 48.786 72.0959 48.786Z"/>
   <path class="multicolor-1:systemYellowColor SFSymbolsPreviewFFCC00" d="M53.917 8.54226C52.2923-7.51783 41.4357-18.3967 31.5228-29.605C20.5015-42.0862 14.4745-56.0498 16.758-72.9111C19.8427-96.1065 36.5393-113.956 60.2512-118.995C84.2701-124.034 109.255-113.627 121.264-94.01C133.439-73.7123 131.177-50.3745 114.953-31.2074C104.546-19.1979 93.1725-7.84723 90.0878 8.70696C78.1007 8.70696 66.0912 8.54226 53.917 8.54226Z"/>
  </g>
  <g id="Black-M" transform="matrix(1 0 0 1 2870.81 1126)">
   <path class="multicolor-0:secondaryLabelColor SFSymbolsPreview8A8A8E" d="M84.0538 32.4505L44.9494 32.4505C43.4182 32.4505 42.1422 31.1745 42.1422 29.6433L42.1422 23.0355C42.1422 21.5043 43.4182 20.2283 44.9494 20.2283L84.0538 20.2283C85.585 20.2283 86.861 21.5043 86.861 23.0355L86.861 29.6433C86.861 31.1745 85.585 32.4505 84.0538 32.4505ZM86.861 14.7829L86.861 9.04763C86.861 7.64403 85.7126 6.62323 84.4366 6.62323L44.6948 6.62323C43.2912 6.62323 42.2704 7.77163 42.2704 9.04763L42.2704 14.8999C42.2704 16.3035 43.4188 17.3243 44.6948 17.3243L84.4372 17.3243C85.7126 17.3356 86.861 16.1865 86.861 14.7829ZM64.4375 47.6937C70.6183 47.6937 75.7765 43.5343 77.4152 37.7482C77.7874 36.4929 76.7879 35.3552 75.5326 35.3552L53.3537 35.3552C52.099 35.3552 51.2045 36.6105 51.471 37.7482C53.0985 43.5343 58.2685 47.6937 64.4375 47.6937Z"/>
   <path class="multicolor-1:systemYellowColor SFSymbolsPreviewFFCC00" d="M45.9181 6.62323C44.28-9.87522 33.068-20.8421 22.9949-32.2981C11.6553-45.1482 5.61393-59.3806 7.87936-76.7623C11.0279-100.569 28.165-118.833 52.3429-123.875C76.9042-129.033 102.476-118.461 114.698-98.3026C127.165-77.6454 124.772-53.5832 108.145-34.0644C97.6896-21.7253 86.106-10.1304 82.9575 6.6339C70.607 6.75083 58.2679 6.62323 45.9181 6.62323Z"/>
  </g>
  <g id="Heavy-M" transform="matrix(1 0 0 1 2575.5 1126)">
   <path class="multicolor-0:secondaryLabelColor SFSymbolsPreview8A8A8E" d="M81.6157 31.0535L44.2201 31.0535C42.6889 31.0535 41.4129 29.7775 41.4129 28.2463L41.4129 22.0975C41.4129 20.5663 42.6889 19.2903 44.2201 19.2903L81.6157 19.2903C83.1469 19.2903 84.4229 20.5663 84.4229 22.0975L84.4229 28.2463C84.4229 29.7775 83.1469 31.0535 81.6157 31.0535ZM84.4229 13.9666L84.4229 8.62945C84.4229 7.22585 83.2745 6.20505 81.9985 6.20505L43.9599 6.20505C42.5563 6.20505 41.5355 7.35345 41.5355 8.62945L41.5355 14.0559C41.5355 15.4595 42.6839 16.4803 43.9599 16.4803L81.9935 16.4803C83.2745 16.5136 84.4229 15.3702 84.4229 13.9666ZM62.8566 45.716C68.8161 45.716 73.7699 41.7116 75.3421 36.1631C75.6867 34.9686 74.7424 33.8585 73.5479 33.8585L52.1985 33.8585C50.9991 33.8585 50.1159 35.053 50.4043 36.1631C51.9433 41.7116 56.9253 45.716 62.8566 45.716Z"/>
   <path class="multicolor-1:systemYellowColor SFSymbolsPreviewFFCC00" d="M45.0395 6.20505C43.4623-9.65195 32.6816-20.2207 23.0011-31.2233C12.0928-43.5812 6.28915-57.2662 8.46615-73.9731C11.4931-96.8615 27.9831-114.423 51.221-119.283C74.8367-124.232 99.43-114.079 111.193-94.6895C123.173-74.8231 120.874-51.6845 104.889-32.9231C94.8258-21.0706 83.6956-9.90715 80.6687 6.24331C68.7829 6.33265 56.9303 6.20505 45.0395 6.20505Z"/>
  </g>
  <g id="Bold-M" transform="matrix(1 0 0 1 2280.36 1126)">
   <path class="multicolor-0:secondaryLabelColor SFSymbolsPreview8A8A8E" d="M78.8885 29.4908L43.4042 29.4908C41.873 29.4908 40.597 28.2148 40.597 26.6836L40.597 21.0482C40.597 19.517 41.873 18.241 43.4042 18.241L78.8885 18.241C80.4197 18.241 81.6957 19.517 81.6957 21.0482L81.6957 26.6836C81.6957 28.2148 80.4197 29.4908 78.8885 29.4908ZM81.6957 13.0534L81.6957 8.16164C81.6957 6.75804 80.5473 5.73724 79.2713 5.73724L43.1377 5.73724C41.7341 5.73724 40.7133 6.88564 40.7133 8.16164L40.7133 13.1118C40.7133 14.5154 41.8617 15.5362 43.1377 15.5362L79.26 15.5362C80.5473 15.5941 81.6957 14.457 81.6957 13.0534ZM61.0882 43.5038C66.8001 43.5038 71.5252 39.6726 73.0231 34.39C73.3368 33.2635 72.4542 32.1843 71.3278 32.1843L50.9064 32.1843C49.7687 32.1843 48.8981 33.3107 49.2111 34.39C50.6512 39.6726 55.4228 43.5038 61.0882 43.5038Z"/>
   <path class="multicolor-1:systemYellowColor SFSymbolsPreviewFFCC00" d="M44.0567 5.73724C42.5475-9.40219 32.2494-19.5255 23.008-30.021C12.5823-41.8283 7.04447-54.9009 9.12256-70.8531C12.0134-92.7146 27.7795-109.491 49.966-114.146C72.524-118.86 96.0223-109.177 107.272-90.6479C118.708-71.6659 116.514-49.5605 101.246-31.6465C91.6222-20.3383 80.9992-9.65739 78.1083 5.80637C66.7423 5.86484 55.4341 5.73724 44.0567 5.73724Z"/>
  </g>
  <g id="Semibold-M" transform="matrix(1 0 0 1 1984.73 1126)">
   <path class="multicolor-0:secondaryLabelColor SFSymbolsPreview8A8A8E" d="M77.0083 28.4134L42.8417 28.4134C41.3105 28.4134 40.0345 27.1374 40.0345 25.6062L40.0345 20.3248C40.0345 18.7936 41.3105 17.5176 42.8417 17.5176L77.0083 17.5176C78.5395 17.5176 79.8155 18.7936 79.8155 20.3248L79.8155 25.6062C79.8155 27.1374 78.5395 28.4134 77.0083 28.4134ZM79.8155 12.4238L79.8155 7.83914C79.8155 6.43554 78.6671 5.41474 77.3911 5.41474L42.5709 5.41474C41.1673 5.41474 40.1465 6.56314 40.1465 7.83914L40.1465 12.461C40.1465 13.8646 41.2949 14.8854 42.5709 14.8854L77.3754 14.8854C78.6671 14.9602 79.8155 13.8274 79.8155 12.4238ZM59.869 41.9787C65.4103 41.9787 69.9777 38.2669 71.4244 33.1676C71.7167 32.088 70.8768 31.03 69.7972 31.03L50.0156 31.03C48.9204 31.03 48.0585 32.1096 48.3885 33.1676C49.7604 38.2669 54.3869 41.9787 59.869 41.9787Z"/>
   <path class="multicolor-1:systemYellowColor SFSymbolsPreviewFFCC00" d="M43.3792 5.41474C41.9168-9.23001 31.9514-19.0463 23.0127-29.1921C12.9197-40.6198 7.56519-53.2703 9.57509-68.7022C12.3721-89.8558 27.6392-106.09 49.1008-110.605C70.9296-115.157 93.6731-105.798 104.569-87.8615C115.629-69.4894 113.508-48.0962 98.7352-30.7664C89.4137-19.8334 79.1403-9.48521 76.3433 5.50516C65.3355 5.54234 54.4025 5.41474 43.3792 5.41474Z"/>
  </g>
  <g id="Medium-M" transform="matrix(1 0 0 1 1688.83 1126)">
   <path class="multicolor-0:secondaryLabelColor SFSymbolsPreview8A8A8E" d="M75.5827 27.5966L42.4152 27.5966C40.884 27.5966 39.608 26.3206 39.608 24.7894L39.608 19.7764C39.608 18.2452 40.884 16.9692 42.4152 16.9692L75.5827 16.9692C77.1139 16.9692 78.3899 18.2452 78.3899 19.7764L78.3899 24.7894C78.3899 26.3206 77.1139 27.5966 75.5827 27.5966ZM78.3899 11.9464L78.3899 7.59461C78.3899 6.19101 77.2415 5.17021 75.9655 5.17021L42.1411 5.17021C40.7375 5.17021 39.7167 6.31861 39.7167 7.59461L39.7167 11.9675C39.7167 13.3711 40.8651 14.3919 42.1411 14.3919L75.9465 14.3919C77.2415 14.4795 78.3899 13.35 78.3899 11.9464ZM58.9446 40.8223C64.3565 40.8223 68.8043 37.201 70.2121 32.2407C70.4884 31.1967 69.6807 30.1549 68.6367 30.1549L49.3401 30.1549C48.2772 30.1549 47.4219 31.1988 47.7647 32.2407C49.0849 37.201 53.6015 40.8223 58.9446 40.8223Z"/>
   <path class="multicolor-1:systemYellowColor SFSymbolsPreviewFFCC00" d="M42.8654 5.17021C41.4387-9.09945 31.7255-18.6829 23.0163-28.5636C13.1756-39.7035 7.96001-52.0339 9.91822-67.0713C12.6441-87.6881 27.5328-103.512 48.4448-107.92C69.7207-112.349 91.8918-103.236 102.519-85.7488C113.295-67.839 111.228-46.986 96.8311-30.099C87.7391-19.4506 77.7308-9.35465 75.0049 5.27676C64.2688 5.29781 53.6204 5.17021 42.8654 5.17021Z"/>
  </g>
  <g id="Regular-M" transform="matrix(1 0 0 1 1393.19 1126)">
   <path class="multicolor-0:secondaryLabelColor SFSymbolsPreview8A8A8E" d="M73.7231 26.5311L41.859 26.5311C40.3278 26.5311 39.0518 25.2551 39.0518 23.7239L39.0518 19.0609C39.0518 17.5297 40.3278 16.2537 41.859 16.2537L73.7231 16.2537C75.2543 16.2537 76.5303 17.5297 76.5303 19.0609L76.5303 23.7239C76.5303 25.2551 75.2543 26.5311 73.7231 26.5311ZM76.5303 11.3238L76.5303 7.27565C76.5303 5.87205 75.3819 4.85125 74.1059 4.85125L41.5805 4.85125C40.1769 4.85125 39.1561 5.99965 39.1561 7.27565L39.1561 11.3238C39.1561 12.7274 40.3045 13.7482 41.5805 13.7482L74.0827 13.7482C75.3819 13.8526 76.5303 12.7274 76.5303 11.3238ZM57.7389 39.3139C62.9819 39.3139 67.2738 35.8108 68.631 31.0317C68.8862 30.0341 68.1206 29.0133 67.123 29.0133L48.4591 29.0133C47.4383 29.0133 46.5916 30.0109 46.9512 31.0317C48.2039 35.8108 52.577 39.3139 57.7389 39.3139Z"/>
   <path class="multicolor-1:systemYellowColor SFSymbolsPreviewFFCC00" d="M42.1953 4.85125C40.8149-8.92916 31.4308-18.2089 23.021-27.7439C13.5093-38.5084 8.47501-50.4212 10.3658-64.944C12.9989-84.8607 27.3941-100.149 47.5892-104.418C68.1438-108.686 89.5684-99.8938 99.8457-82.9931C110.251-65.6864 108.256-45.5378 94.3475-29.2286C85.5549-18.9513 75.8923-9.18436 73.2592 4.97885C62.8775 4.97885 52.6002 4.85125 42.1953 4.85125Z"/>
  </g>
  <g id="Light-M" transform="matrix(1 0 0 1 1097.48 1126)">
   <path class="multicolor-0:secondaryLabelColor SFSymbolsPreview8A8A8E" d="M72.5746 23.978L41.8031 23.978C40.2719 23.978 38.9959 22.702 38.9959 21.1708L38.9959 16.8093C38.9959 15.2781 40.2719 14.0021 41.8031 14.0021L72.5746 14.0021C74.1058 14.0021 75.3818 15.2781 75.3818 16.8093L75.3818 21.1708C75.3818 22.702 74.1058 23.978 72.5746 23.978ZM75.3818 9.14754L75.3818 5.36315C75.3818 3.95955 74.2334 2.93875 72.9574 2.93875L41.487 2.93875C40.0834 2.93875 39.0626 4.08715 39.0626 5.36315L39.0626 9.14754C39.0626 10.5511 40.211 11.5719 41.487 11.5719L72.8964 11.5719C74.2334 11.6386 75.3818 10.5511 75.3818 9.14754ZM57.1555 36.384C62.2101 36.384 66.4267 32.994 67.7085 28.3279C67.9637 27.368 67.1981 26.3472 66.2382 26.3472L48.1395 26.3472C47.1187 26.3472 46.3473 27.3071 46.6692 28.3279C47.8843 32.994 52.1066 36.384 57.1555 36.384Z"/>
   <path class="multicolor-1:systemYellowColor SFSymbolsPreviewFFCC00" d="M42.0641 2.93875C40.7214-10.4272 31.6387-19.4432 23.455-28.7143C14.2448-39.1397 9.32352-50.7134 11.1766-64.784C13.7344-84.0978 27.6774-98.934 47.3072-103.09C67.259-107.245 88.043-98.6788 98.0189-82.3056C108.122-65.4887 106.203-45.9807 92.709-30.1237C84.1425-20.1478 74.7438-10.6824 72.186 3.06635C62.1434 3.06635 52.1676 2.93875 42.0641 2.93875Z"/>
  </g>
  <g id="Thin-M" transform="matrix(1 0 0 1 802.092 1126)">
   <path class="multicolor-0:secondaryLabelColor SFSymbolsPreview8A8A8E" d="M71.0554 20.6013L41.7293 20.6013C40.1981 20.6013 38.9221 19.3253 38.9221 17.7941L38.9221 13.8314C38.9221 12.3002 40.1981 11.0242 41.7293 11.0242L71.0554 11.0242C72.5866 11.0242 73.8626 12.3002 73.8626 13.8314L73.8626 17.7941C73.8626 19.3253 72.5866 20.6013 71.0554 20.6013ZM73.8626 6.26926L73.8626 2.83372C73.8626 1.43012 72.7142 0.409325 71.4382 0.409325L41.3633 0.409325C39.9597 0.409325 38.9389 1.55772 38.9389 2.83372L38.9389 6.26926C38.9389 7.67286 40.0873 8.69366 41.3633 8.69366L71.3275 8.69366C72.7142 8.7105 73.8626 7.67286 73.8626 6.26926ZM56.3839 32.509C61.1894 32.509 65.3063 29.2685 66.4884 24.7519C66.7436 23.8419 65.978 22.8211 65.0679 22.8211L47.7168 22.8211C46.696 22.8211 46.0243 23.7311 46.2964 24.7519C47.4616 29.2685 51.4846 32.509 56.3839 32.509Z"/>
   <path class="multicolor-1:systemYellowColor SFSymbolsPreviewFFCC00" d="M41.8906 0.409325C40.5977-12.4084 31.9137-21.0755 24.0291-29.9979C15.2175-39.9747 10.4457-51.0999 12.249-64.5725C14.7071-83.0888 28.052-97.327 46.9344-101.333C66.0887-105.339 86.0255-97.0718 95.6027-81.3963C105.307-65.2273 103.487-46.5665 90.5421-31.3076C82.2746-21.7304 73.2246-12.6636 70.7666 0.536925C61.1725 0.536925 51.5953 0.409325 41.8906 0.409325Z"/>
  </g>
  <g id="Ultralight-M" transform="matrix(1 0 0 1 506.058 1126)">
   <path class="multicolor-0:secondaryLabelColor SFSymbolsPreview8A8A8E" d="M70.2774 18.8718L41.6914 18.8718C40.1602 18.8718 38.8842 17.5958 38.8842 16.0646L38.8842 12.3061C38.8842 10.7749 40.1602 9.49886 41.6914 9.49886L70.2774 9.49886C71.8086 9.49886 73.0846 10.7749 73.0846 12.3061L73.0846 16.0646C73.0846 17.5958 71.8086 18.8718 70.2774 18.8718ZM73.0846 4.79501L73.0846 1.53816C73.0846 0.134563 71.9362-0.886237 70.6602-0.886237L41.3-0.886237C39.8964-0.886237 38.8756 0.262163 38.8756 1.53816L38.8756 4.79501C38.8756 6.19861 40.024 7.21941 41.3 7.21941L70.5239 7.21941C71.9362 7.21073 73.0846 6.19861 73.0846 4.79501ZM55.9887 30.5242C60.6666 30.5242 64.7324 27.3603 65.8634 22.9203C66.1186 22.0358 65.353 21.015 64.4685 21.015L47.5003 21.015C46.4795 21.015 45.8589 21.8995 46.1054 22.9203C47.2451 27.3603 51.166 30.5242 55.9887 30.5242Z"/>
   <path class="multicolor-1:systemYellowColor SFSymbolsPreviewFFCC00" d="M41.8017-0.886237C40.5344-13.4232 32.0546-21.9116 24.3231-30.6553C15.7157-40.4024 11.0205-51.2979 12.7983-64.4641C15.2053-82.5721 28.244-96.5039 46.7434-100.433C65.4893-104.363 84.9922-96.2487 94.3652-80.9306C103.866-65.0934 102.097-46.8666 89.4321-31.9139C81.3178-22.5409 72.4466-13.6784 70.0395-0.758637C60.6752-0.758637 51.3023-0.886237 41.8017-0.886237Z"/>
  </g>
  <g id="Black-S" transform="matrix(1 0 0 1 2883.98 696)">
   <path class="multicolor-0:secondaryLabelColor SFSymbolsPreview8A8A8E" d="M66.5445 18.0813L35.4445 18.0813C34.2445 18.0813 33.2445 17.0813 33.2445 15.8813L33.2445 10.5813C33.2445 9.38133 34.2445 8.38133 35.4445 8.38133L66.5445 8.38133C67.7445 8.38133 68.7445 9.38133 68.7445 10.5813L68.7445 15.8813C68.7445 17.0813 67.7445 18.0813 66.5445 18.0813ZM68.7445 4.08133L68.7445-0.518672C68.7445-1.61867 67.8445-2.41867 66.8445-2.41867L35.2445-2.41867C34.1445-2.41867 33.3445-1.51867 33.3445-0.518672L33.3445 4.18133C33.3445 5.28133 34.2445 6.08133 35.2445 6.08133L66.8445 6.08133C67.8445 6.08133 68.7445 5.18133 68.7445 4.08133ZM50.9445 30.1813C55.8445 30.1813 59.9445 26.8813 61.2445 22.2813C61.5445 21.2813 60.7445 20.3813 59.7445 20.3813L42.1445 20.3813C41.1445 20.3813 40.4445 21.3813 40.6445 22.2813C41.9445 26.8813 46.0445 30.1813 50.9445 30.1813Z"/>
   <path class="multicolor-1:systemYellowColor SFSymbolsPreviewFFCC00" d="M36.2445-2.41867C34.9445-15.5187 26.0445-24.2187 18.0445-33.3187C9.04451-43.5187 4.24451-54.8187 6.04451-68.6187C8.54451-87.5187 22.1445-102.019 41.3445-106.019C60.8445-110.119 81.1445-101.719 90.8445-85.7187C100.745-69.3187 98.8445-50.2187 85.6445-34.7187C77.3445-24.9187 68.1445-15.7187 65.6445-2.41867C55.8445-2.31867 46.0445-2.41867 36.2445-2.41867Z"/>
  </g>
  <g id="Heavy-S" transform="matrix(1 0 0 1 2588.34 696)">
   <path class="multicolor-0:secondaryLabelColor SFSymbolsPreview8A8A8E" d="M64.6061 17.2128L34.8279 17.2128C33.6279 17.2128 32.6279 16.2128 32.6279 15.0128L32.6279 10.0668C32.6279 8.86685 33.6279 7.86685 34.8279 7.86685L64.6061 7.86685C65.8061 7.86685 66.8061 8.86685 66.8061 10.0668L66.8061 15.0128C66.8061 16.2128 65.8061 17.2128 64.6061 17.2128ZM66.8061 3.66126L66.8061-0.631916C66.8061-1.73192 65.9061-2.53192 64.9061-2.53192L34.6279-2.53192C33.5279-2.53192 32.7279-1.63192 32.7279-0.631916L32.7279 3.73765C32.7279 4.83765 33.6279 5.63765 34.6279 5.63765L64.9061 5.63765C65.9061 5.66126 66.8061 4.76126 66.8061 3.66126ZM49.667 28.8644C54.4018 28.8644 58.3366 25.6824 59.5894 21.2712C59.8658 20.3184 59.113 19.442 58.1602 19.442L41.1974 19.442C40.2446 19.442 39.5446 20.3948 39.7682 21.2712C40.9974 25.6824 44.9558 28.8644 49.667 28.8644Z"/>
   <path class="multicolor-1:systemYellowColor SFSymbolsPreviewFFCC00" d="M35.5098-2.53192C34.257-15.1363 25.6875-23.5294 17.9943-32.2754C9.32474-42.0978 4.71355-52.9729 6.44275-66.2537C8.84834-84.4456 21.9527-98.4028 40.421-102.261C59.1894-106.196 78.7341-98.1264 88.0801-82.7164C97.6024-66.9301 95.7732-48.5382 83.0689-33.6282C75.0757-24.2058 66.2297-15.3363 63.8241-2.50831C54.3782-2.43192 44.9558-2.53192 35.5098-2.53192Z"/>
  </g>
  <g id="Bold-S" transform="matrix(1 0 0 1 2292.83 696)">
   <path class="multicolor-0:secondaryLabelColor SFSymbolsPreview8A8A8E" d="M62.4382 16.2414L34.1382 16.2414C32.9382 16.2414 31.9382 15.2414 31.9382 14.0414L31.9382 9.49143C31.9382 8.29143 32.9382 7.29143 34.1382 7.29143L62.4382 7.29143C63.6382 7.29143 64.6382 8.29143 64.6382 9.49143L64.6382 14.0414C64.6382 15.2414 63.6382 16.2414 62.4382 16.2414ZM64.6382 3.19143L64.6382-0.758575C64.6382-1.85857 63.7382-2.65857 62.7382-2.65857L33.9382-2.65857C32.8382-2.65857 32.0382-1.75857 32.0382-0.758575L32.0382 3.24143C32.0382 4.34143 32.9382 5.14143 33.9382 5.14143L62.7382 5.14143C63.7382 5.19143 64.6382 4.29143 64.6382 3.19143ZM48.2382 27.3914C52.7882 27.3914 56.5382 24.3414 57.7382 20.1414C57.9882 19.2414 57.2882 18.3914 56.3882 18.3914L40.1382 18.3914C39.2382 18.3914 38.5382 19.2914 38.7882 20.1414C39.9382 24.3414 43.7382 27.3914 48.2382 27.3914Z"/>
   <path class="multicolor-1:systemYellowColor SFSymbolsPreviewFFCC00" d="M34.6882-2.65857C33.4882-14.7086 25.2882-22.7586 17.9382-31.1086C9.63816-40.5086 5.23816-50.9086 6.88816-63.6086C9.18816-81.0086 21.7382-94.3586 39.3882-98.0586C57.3382-101.809 76.0382-94.1086 84.9882-79.3586C94.0882-64.2586 92.3382-46.6586 80.1882-32.4086C72.5382-23.4086 64.0882-14.9086 61.7882-2.60857C52.7382-2.55857 43.7382-2.65857 34.6882-2.65857Z"/>
  </g>
  <g id="Semibold-S" transform="matrix(1 0 0 1 1996.94 696)">
   <path class="multicolor-0:secondaryLabelColor SFSymbolsPreview8A8A8E" d="M60.9435 15.5717L33.6627 15.5717C32.4627 15.5717 31.4627 14.5717 31.4627 13.3717L31.4627 9.0947C31.4627 7.8947 32.4627 6.8947 33.6627 6.8947L60.9435 6.8947C62.1435 6.8947 63.1435 7.8947 63.1435 9.0947L63.1435 13.3717C63.1435 14.5717 62.1435 15.5717 60.9435 15.5717ZM63.1435 2.8675L63.1435-0.845899C63.1435-1.9459 62.2435-2.7459 61.2435-2.7459L33.4627-2.7459C32.3627-2.7459 31.5627-1.8459 31.5627-0.845899L31.5627 2.8993C31.5627 3.9993 32.4627 4.7993 33.4627 4.7993L61.2435 4.7993C62.2435 4.8675 63.1435 3.9675 63.1435 2.8675ZM47.2531 26.3759C51.6757 26.3759 55.2983 23.4169 56.4619 19.3625C56.6937 18.4989 56.0301 17.6671 55.1665 17.6671L39.4079 17.6671C38.5443 17.6671 37.8443 18.5307 38.1125 19.3625C39.2079 23.4169 42.8987 26.3759 47.2531 26.3759Z"/>
   <path class="multicolor-1:systemYellowColor SFSymbolsPreviewFFCC00" d="M34.1217-2.7459C32.9581-14.4137 25.0129-22.2271 17.8995-30.3041C9.85425-39.4129 5.59985-49.4853 7.19525-61.7849C9.42245-78.6389 21.5903-91.5703 38.6761-95.1611C56.0619-98.7837 74.1795-91.3385 82.8565-77.0435C91.6653-62.4167 89.9699-45.3627 78.2021-31.5677C70.7887-22.8589 62.6117-14.6137 60.3845-2.6777C51.6075-2.6459 42.8987-2.7459 34.1217-2.7459Z"/>
  </g>
  <g id="Medium-S" transform="matrix(1 0 0 1 1700.86 696)">
   <path class="multicolor-0:secondaryLabelColor SFSymbolsPreview8A8A8E" d="M59.8101 15.0639L33.3021 15.0639C32.1021 15.0639 31.1021 14.0639 31.1021 12.8639L31.1021 8.79389C31.1021 7.59389 32.1021 6.59389 33.3021 6.59389L59.8101 6.59389C61.0101 6.59389 62.0101 7.59389 62.0101 8.79389L62.0101 12.8639C62.0101 14.0639 61.0101 15.0639 59.8101 15.0639ZM62.0101 2.62189L62.0101-0.912112C62.0101-2.01211 61.1101-2.81211 60.1101-2.81211L33.1021-2.81211C32.0021-2.81211 31.2021-1.91211 31.2021-0.912112L31.2021 2.63989C31.2021 3.73989 32.1021 4.53989 33.1021 4.53989L60.1101 4.53989C61.1101 4.62189 62.0101 3.72189 62.0101 2.62189ZM46.5061 25.6059C50.8321 25.6059 54.3581 22.7159 55.4941 18.7719C55.7121 17.9359 55.0761 17.1179 54.2401 17.1179L38.8541 17.1179C38.0181 17.1179 37.3181 17.9539 37.6001 18.7719C38.6541 22.7159 42.2621 25.6059 46.5061 25.6059Z"/>
   <path class="multicolor-1:systemYellowColor SFSymbolsPreviewFFCC00" d="M33.6921-2.81211C32.5561-14.1901 24.8041-21.8241 17.8701-29.6941C10.0181-38.5821 5.8741-48.4061 7.4281-60.4021C9.6001-76.8421 21.4781-89.4561 38.1361-92.9641C55.0941-96.4901 72.7701-89.2381 81.2401-75.2881C89.8281-61.0201 88.1741-44.3801 76.6961-30.9301C69.4621-22.4421 61.4921-14.3901 59.3201-2.73011C50.7501-2.71211 42.2621-2.81211 33.6921-2.81211Z"/>
  </g>
  <g id="Regular-S" transform="matrix(1 0 0 1 1404.96 696)">
   <path class="multicolor-0:secondaryLabelColor SFSymbolsPreview8A8A8E" d="M58.3318 14.4015L32.8318 14.4015C31.6318 14.4015 30.6318 13.4015 30.6318 12.2015L30.6318 8.40152C30.6318 7.20152 31.6318 6.20152 32.8318 6.20152L58.3318 6.20152C59.5318 6.20152 60.5318 7.20152 60.5318 8.40152L60.5318 12.2015C60.5318 13.4015 59.5318 14.4015 58.3318 14.4015ZM60.5318 2.30152L60.5318-0.998478C60.5318-2.09848 59.6318-2.89848 58.6318-2.89848L32.6318-2.89848C31.5318-2.89848 30.7318-1.99848 30.7318-0.998478L30.7318 2.30152C30.7318 3.40152 31.6318 4.20152 32.6318 4.20152L58.6318 4.20152C59.6318 4.30152 60.5318 3.40152 60.5318 2.30152ZM45.5318 24.6015C49.7318 24.6015 53.1318 21.8015 54.2318 18.0015C54.4318 17.2015 53.8318 16.4015 53.0318 16.4015L38.1318 16.4015C37.3318 16.4015 36.6318 17.2015 36.9318 18.0015C37.9318 21.8015 41.4318 24.6015 45.5318 24.6015Z"/>
   <path class="multicolor-1:systemYellowColor SFSymbolsPreviewFFCC00" d="M33.1318-2.89848C32.0318-13.8985 24.5318-21.2985 17.8318-28.8985C10.2318-37.4985 6.23181-46.9985 7.73181-58.5985C9.83181-74.4985 21.3318-86.6985 37.4318-90.0985C53.8318-93.4985 70.9318-86.4985 79.1318-72.9985C87.4318-59.1985 85.8318-43.0985 74.7318-30.0985C67.7318-21.8985 60.0318-14.0985 57.9318-2.79848C49.6318-2.79848 41.4318-2.89848 33.1318-2.89848Z"/>
  </g>
  <g id="Light-S" transform="matrix(1 0 0 1 1109.14 696)">
   <path class="multicolor-0:secondaryLabelColor SFSymbolsPreview8A8A8E" d="M57.3158 12.143L32.7824 12.143C31.5824 12.143 30.5824 11.143 30.5824 9.94303L30.5824 6.4097C30.5824 5.2097 31.5824 4.2097 32.7824 4.2097L57.3158 4.2097C58.5158 4.2097 59.5158 5.2097 59.5158 6.4097L59.5158 9.94303C59.5158 11.143 58.5158 12.143 57.3158 12.143ZM59.5158 0.376366L59.5158-2.6903C59.5158-3.7903 58.6158-4.5903 57.6158-4.5903L32.5491-4.5903C31.4491-4.5903 30.6491-3.6903 30.6491-2.6903L30.6491 0.376366C30.6491 1.47637 31.5491 2.27637 32.5491 2.27637L57.5824 2.27637C58.6158 2.34303 59.5158 1.47637 59.5158 0.376366ZM45.0158 22.0097C49.0491 22.0097 52.3824 19.3097 53.4158 15.6097C53.6158 14.843 53.0158 14.043 52.2491 14.043L37.8491 14.043C37.0491 14.043 36.4158 14.8097 36.6824 15.6097C37.6491 19.3097 41.0158 22.0097 45.0158 22.0097Z"/>
   <path class="multicolor-1:systemYellowColor SFSymbolsPreviewFFCC00" d="M33.0158-4.5903C31.9491-15.2236 24.7158-22.3903 18.2158-29.757C10.8824-38.057 6.98242-47.257 8.44909-58.457C10.4824-73.8236 21.5824-85.6236 37.1824-88.9236C53.0491-92.2236 69.5824-85.4236 77.5158-72.3903C85.5491-59.0236 84.0158-43.4903 73.2824-30.8903C66.4824-22.957 59.0158-15.4236 56.9824-4.4903C48.9824-4.4903 41.0491-4.5903 33.0158-4.5903Z"/>
  </g>
  <g id="Thin-S" transform="matrix(1 0 0 1 813.595 696)">
   <path class="multicolor-0:secondaryLabelColor SFSymbolsPreview8A8A8E" d="M55.9719 9.156L32.7171 9.156C31.5171 9.156 30.5171 8.156 30.5171 6.956L30.5171 3.77535C30.5171 2.57535 31.5171 1.57535 32.7171 1.57535L55.9719 1.57535C57.1719 1.57535 58.1719 2.57535 58.1719 3.77535L58.1719 6.956C58.1719 8.156 57.1719 9.156 55.9719 9.156ZM58.1719-2.16981L58.1719-4.92787C58.1719-6.02787 57.2719-6.82787 56.2719-6.82787L32.4397-6.82787C31.3397-6.82787 30.5397-5.92787 30.5397-4.92787L30.5397-2.16981C30.5397-1.06981 31.4397-0.269808 32.4397-0.269808L56.1945-0.269808C57.2719-0.247227 58.1719-1.06981 58.1719-2.16981ZM44.3332 18.5818C48.1461 18.5818 51.3913 16.0141 52.3364 12.4463C52.5364 11.7237 51.9364 10.9237 51.2139 10.9237L37.4752 10.9237C36.6752 10.9237 36.13 11.6463 36.3526 12.4463C37.2752 16.0141 40.4655 18.5818 44.3332 18.5818Z"/>
   <path class="multicolor-1:systemYellowColor SFSymbolsPreviewFFCC00" d="M32.8623-6.82787C31.8397-16.9763 24.959-23.8343 18.7235-30.8924C11.7429-38.7956 7.97515-47.5988 9.39773-58.2698C11.3429-72.9311 21.9139-84.2021 36.8526-87.3698C52.0139-90.5375 67.7977-84.0021 75.3784-71.5859C83.059-58.7924 81.6139-44.0085 71.3655-31.9375C64.83-24.3569 57.6719-17.1763 55.7268-6.72787C48.1235-6.72787 40.5429-6.82787 32.8623-6.82787Z"/>
  </g>
  <g id="Ultralight-S" transform="matrix(1 0 0 1 517.483 696)">
   <path class="multicolor-0:secondaryLabelColor SFSymbolsPreview8A8A8E" d="M55.2836 7.62605L32.6836 7.62605C31.4836 7.62605 30.4836 6.62605 30.4836 5.42605L30.4836 2.42605C30.4836 1.22605 31.4836 0.226054 32.6836 0.226054L55.2836 0.226054C56.4836 0.226054 57.4836 1.22605 57.4836 2.42605L57.4836 5.42605C57.4836 6.62605 56.4836 7.62605 55.2836 7.62605ZM57.4836-3.47395L57.4836-6.07395C57.4836-7.17395 56.5836-7.97395 55.5836-7.97395L32.3836-7.97395C31.2836-7.97395 30.4836-7.07395 30.4836-6.07395L30.4836-3.47395C30.4836-2.37395 31.3836-1.57395 32.3836-1.57395L55.4836-1.57395C56.5836-1.57395 57.4836-2.37395 57.4836-3.47395ZM43.9836 16.8261C47.6836 16.8261 50.8836 14.3261 51.7836 10.8261C51.9836 10.1261 51.3836 9.32605 50.6836 9.32605L37.2836 9.32605C36.4836 9.32605 35.9836 10.0261 36.1836 10.8261C37.0836 14.3261 40.1836 16.8261 43.9836 16.8261Z"/>
   <path class="multicolor-1:systemYellowColor SFSymbolsPreviewFFCC00" d="M32.7836-7.97395C31.7836-17.8739 25.0836-24.5739 18.9836-31.4739C12.1836-39.1739 8.48363-47.7739 9.88363-58.1739C11.7836-72.4739 22.0836-83.4739 36.6836-86.5739C51.4836-89.6739 66.8836-83.2739 74.2836-71.1739C81.7836-58.6739 80.3836-44.2739 70.3836-32.4739C63.9836-25.0739 56.9836-18.0739 55.0836-7.87395C47.6836-7.87395 40.2836-7.97395 32.7836-7.97395Z"/>
  </g>
 </g>
</svg>
