<?xml version="1.0" encoding="UTF-8"?>
<!--Generator: Apple Native CoreSVG 149-->
<!DOCTYPE svg
PUBLIC "-//W3C//DTD SVG 1.1//EN"
       "http://www.w3.org/Graphics/SVG/1.1/DTD/svg11.dtd">
<svg version="1.1" xmlns="http://www.w3.org/2000/svg" xmlns:xlink="http://www.w3.org/1999/xlink" width="3300" height="2200">
 <!--glyph: "", point size: 100.0, font version: "17.0d9e1", template writer version: "59"-->
 <style>.multicolor-0:systemIndigoColor {fill:#5856D6;opacity:1.0}
.multicolor-1:systemPinkColor {fill:#FF2D55;opacity:1.0}

.hierarchical-0:primary {fill:#212121}
.hierarchical-1:secondary {fill:#4D4D4D}

.clearBehindLayer {}
.SFSymbolsPreview5856D6 {fill:#5856D6;opacity:1.0}
.SFSymbolsPreviewFF2D55 {fill:#FF2D55;opacity:1.0}
.SFSymbolsPreviewNone {fill:none;opacity:1.0}
</style>
 <g id="Notes">
  <rect height="2200" id="artboard" style="fill:white;opacity:1" width="3300" x="0" y="0"/>
  <line style="fill:none;stroke:black;opacity:1;stroke-width:0.5;" x1="263" x2="3036" y1="292" y2="292"/>
  <text style="stroke:none;fill:black;font-family:sans-serif;font-size:13;font-weight:bold;" transform="matrix(1 0 0 1 263 322)">Weight/Scale Variations</text>
  <text style="stroke:none;fill:black;font-family:sans-serif;font-size:13;text-anchor:middle;" transform="matrix(1 0 0 1 559.711 322)">Ultralight</text>
  <text style="stroke:none;fill:black;font-family:sans-serif;font-size:13;text-anchor:middle;" transform="matrix(1 0 0 1 856.422 322)">Thin</text>
  <text style="stroke:none;fill:black;font-family:sans-serif;font-size:13;text-anchor:middle;" transform="matrix(1 0 0 1 1153.13 322)">Light</text>
  <text style="stroke:none;fill:black;font-family:sans-serif;font-size:13;text-anchor:middle;" transform="matrix(1 0 0 1 1449.84 322)">Regular</text>
  <text style="stroke:none;fill:black;font-family:sans-serif;font-size:13;text-anchor:middle;" transform="matrix(1 0 0 1 1746.56 322)">Medium</text>
  <text style="stroke:none;fill:black;font-family:sans-serif;font-size:13;text-anchor:middle;" transform="matrix(1 0 0 1 2043.27 322)">Semibold</text>
  <text style="stroke:none;fill:black;font-family:sans-serif;font-size:13;text-anchor:middle;" transform="matrix(1 0 0 1 2339.98 322)">Bold</text>
  <text style="stroke:none;fill:black;font-family:sans-serif;font-size:13;text-anchor:middle;" transform="matrix(1 0 0 1 2636.69 322)">Heavy</text>
  <text style="stroke:none;fill:black;font-family:sans-serif;font-size:13;text-anchor:middle;" transform="matrix(1 0 0 1 2933.4 322)">Black</text>
  <line style="fill:none;stroke:black;opacity:1;stroke-width:0.5;" x1="263" x2="3036" y1="1903" y2="1903"/>
  <g transform="matrix(1 0 0 1 263 1933)">
   <path d="M9.24805 0.830078Q10.8691 0.830078 12.2949 0.214844Q13.7207-0.400391 14.8096-1.49414Q15.8984-2.58789 16.5186-4.01367Q17.1387-5.43945 17.1387-7.05078Q17.1387-8.66211 16.5186-10.0879Q15.8984-11.5137 14.8047-12.6074Q13.7109-13.7012 12.2852-14.3164Q10.8594-14.9316 9.23828-14.9316Q7.62695-14.9316 6.20117-14.3164Q4.77539-13.7012 3.69141-12.6074Q2.60742-11.5137 1.9873-10.0879Q1.36719-8.66211 1.36719-7.05078Q1.36719-5.43945 1.9873-4.01367Q2.60742-2.58789 3.69629-1.49414Q4.78516-0.400391 6.21094 0.214844Q7.63672 0.830078 9.24805 0.830078ZM9.24805-0.654297Q7.91992-0.654297 6.7627-1.14746Q5.60547-1.64062 4.73145-2.51953Q3.85742-3.39844 3.36426-4.56055Q2.87109-5.72266 2.87109-7.05078Q2.87109-8.37891 3.35938-9.54102Q3.84766-10.7031 4.72168-11.582Q5.5957-12.4609 6.75293-12.9541Q7.91016-13.4473 9.23828-13.4473Q10.5762-13.4473 11.7334-12.9541Q12.8906-12.4609 13.7695-11.582Q14.6484-10.7031 15.1465-9.54102Q15.6445-8.37891 15.6445-7.05078Q15.6445-5.72266 15.1514-4.56055Q14.6582-3.39844 13.7842-2.51953Q12.9102-1.64062 11.748-1.14746Q10.5859-0.654297 9.24805-0.654297ZM5.83984-7.04102Q5.83984-6.71875 6.04492-6.51855Q6.25-6.31836 6.5918-6.31836L8.50586-6.31836L8.50586-4.39453Q8.50586-4.0625 8.70605-3.85742Q8.90625-3.65234 9.22852-3.65234Q9.56055-3.65234 9.76562-3.85742Q9.9707-4.0625 9.9707-4.39453L9.9707-6.31836L11.8945-6.31836Q12.2266-6.31836 12.4316-6.51855Q12.6367-6.71875 12.6367-7.04102Q12.6367-7.37305 12.4316-7.57812Q12.2266-7.7832 11.8945-7.7832L9.9707-7.7832L9.9707-9.69727Q9.9707-10.0391 9.76562-10.2441Q9.56055-10.4492 9.22852-10.4492Q8.90625-10.4492 8.70605-10.2441Q8.50586-10.0391 8.50586-9.69727L8.50586-7.7832L6.5918-7.7832Q6.25-7.7832 6.04492-7.57812Q5.83984-7.37305 5.83984-7.04102Z"/>
  </g>
  <g transform="matrix(1 0 0 1 281.867 1933)">
   <path d="M11.709 2.91016Q13.75 2.91016 15.5518 2.12891Q17.3535 1.34766 18.7305-0.0292969Q20.1074-1.40625 20.8887-3.20801Q21.6699-5.00977 21.6699-7.05078Q21.6699-9.0918 20.8887-10.8936Q20.1074-12.6953 18.7305-14.0723Q17.3535-15.4492 15.5469-16.2305Q13.7402-17.0117 11.6992-17.0117Q9.6582-17.0117 7.85645-16.2305Q6.05469-15.4492 4.68262-14.0723Q3.31055-12.6953 2.5293-10.8936Q1.74805-9.0918 1.74805-7.05078Q1.74805-5.00977 2.5293-3.20801Q3.31055-1.40625 4.6875-0.0292969Q6.06445 1.34766 7.86621 2.12891Q9.66797 2.91016 11.709 2.91016ZM11.709 1.25Q9.98047 1.25 8.47656 0.605469Q6.97266-0.0390625 5.83496-1.17676Q4.69727-2.31445 4.05762-3.81836Q3.41797-5.32227 3.41797-7.05078Q3.41797-8.7793 4.05762-10.2832Q4.69727-11.7871 5.83008-12.9297Q6.96289-14.0723 8.4668-14.7119Q9.9707-15.3516 11.6992-15.3516Q13.4277-15.3516 14.9316-14.7119Q16.4355-14.0723 17.5781-12.9297Q18.7207-11.7871 19.3652-10.2832Q20.0098-8.7793 20.0098-7.05078Q20.0098-5.32227 19.3701-3.81836Q18.7305-2.31445 17.5928-1.17676Q16.4551-0.0390625 14.9463 0.605469Q13.4375 1.25 11.709 1.25ZM7.39258-7.04102Q7.39258-6.68945 7.62695-6.46484Q7.86133-6.24023 8.23242-6.24023L10.8789-6.24023L10.8789-3.57422Q10.8789-3.21289 11.1035-2.9834Q11.3281-2.75391 11.6797-2.75391Q12.0508-2.75391 12.2852-2.9834Q12.5195-3.21289 12.5195-3.57422L12.5195-6.24023L15.1758-6.24023Q15.5371-6.24023 15.7715-6.46484Q16.0059-6.68945 16.0059-7.04102Q16.0059-7.41211 15.7715-7.6416Q15.5371-7.87109 15.1758-7.87109L12.5195-7.87109L12.5195-10.5176Q12.5195-10.8984 12.2852-11.1279Q12.0508-11.3574 11.6797-11.3574Q11.3281-11.3574 11.1035-11.1279Q10.8789-10.8984 10.8789-10.5176L10.8789-7.87109L8.23242-7.87109Q7.85156-7.87109 7.62207-7.6416Q7.39258-7.41211 7.39258-7.04102Z"/>
  </g>
  <g transform="matrix(1 0 0 1 305.646 1933)">
   <path d="M14.9707 5.66406Q17.0605 5.66406 18.96 5.01465Q20.8594 4.36523 22.4512 3.19336Q24.043 2.02148 25.2197 0.429688Q26.3965-1.16211 27.0459-3.06641Q27.6953-4.9707 27.6953-7.05078Q27.6953-9.14062 27.0459-11.04Q26.3965-12.9395 25.2197-14.5312Q24.043-16.123 22.4512-17.2998Q20.8594-18.4766 18.9551-19.126Q17.0508-19.7754 14.9609-19.7754Q12.8711-19.7754 10.9717-19.126Q9.07227-18.4766 7.48535-17.2998Q5.89844-16.123 4.72168-14.5312Q3.54492-12.9395 2.90039-11.04Q2.25586-9.14062 2.25586-7.05078Q2.25586-4.9707 2.90527-3.06641Q3.55469-1.16211 4.72656 0.429688Q5.89844 2.02148 7.49023 3.19336Q9.08203 4.36523 10.9814 5.01465Q12.8809 5.66406 14.9707 5.66406ZM14.9707 3.84766Q13.1641 3.84766 11.5283 3.2959Q9.89258 2.74414 8.53516 1.74805Q7.17773 0.751953 6.17676-0.610352Q5.17578-1.97266 4.62891-3.6084Q4.08203-5.24414 4.08203-7.05078Q4.08203-8.86719 4.62891-10.5029Q5.17578-12.1387 6.17188-13.501Q7.16797-14.8633 8.52539-15.8594Q9.88281-16.8555 11.5186-17.4023Q13.1543-17.9492 14.9609-17.9492Q16.7773-17.9492 18.4131-17.4023Q20.0488-16.8555 21.4111-15.8594Q22.7734-14.8633 23.7695-13.501Q24.7656-12.1387 25.3174-10.5029Q25.8691-8.86719 25.8691-7.05078Q25.8789-5.24414 25.332-3.6084Q24.7852-1.97266 23.7842-0.610352Q22.7832 0.751953 21.4209 1.74805Q20.0586 2.74414 18.4229 3.2959Q16.7871 3.84766 14.9707 3.84766ZM9.45312-7.04102Q9.45312-6.66016 9.71191-6.41113Q9.9707-6.16211 10.3711-6.16211L14.0625-6.16211L14.0625-2.46094Q14.0625-2.06055 14.3115-1.80664Q14.5605-1.55273 14.9414-1.55273Q15.3516-1.55273 15.6055-1.80664Q15.8594-2.06055 15.8594-2.46094L15.8594-6.16211L19.5605-6.16211Q19.9609-6.16211 20.2148-6.41113Q20.4688-6.66016 20.4688-7.04102Q20.4688-7.45117 20.2148-7.70508Q19.9609-7.95898 19.5605-7.95898L15.8594-7.95898L15.8594-11.6504Q15.8594-12.0605 15.6055-12.3145Q15.3516-12.5684 14.9414-12.5684Q14.5605-12.5684 14.3115-12.3096Q14.0625-12.0508 14.0625-11.6504L14.0625-7.95898L10.3711-7.95898Q9.96094-7.95898 9.70703-7.70508Q9.45312-7.45117 9.45312-7.04102Z"/>
  </g>
  <text style="stroke:none;fill:black;font-family:sans-serif;font-size:13;font-weight:bold;" transform="matrix(1 0 0 1 263 1953)">Design Variations</text>
  <text style="stroke:none;fill:black;font-family:sans-serif;font-size:13;" transform="matrix(1 0 0 1 263 1971)">Symbols are supported in up to nine weights and three scales.</text>
  <text style="stroke:none;fill:black;font-family:sans-serif;font-size:13;" transform="matrix(1 0 0 1 263 1989)">For optimal layout with text and other symbols, vertically align</text>
  <text style="stroke:none;fill:black;font-family:sans-serif;font-size:13;" transform="matrix(1 0 0 1 263 2007)">symbols with the adjacent text.</text>
  <line style="fill:none;stroke:#00AEEF;stroke-width:0.5;opacity:1.0;" x1="776" x2="776" y1="1919" y2="1933"/>
  <g transform="matrix(1 0 0 1 776 1933)">
   <path d="M3.31055 0.15625Q3.70117 0.15625 3.91602-0.00976562Q4.13086-0.175781 4.26758-0.585938L5.52734-4.0332L11.2891-4.0332L12.5488-0.585938Q12.6855-0.175781 12.9004-0.00976562Q13.1152 0.15625 13.4961 0.15625Q13.8867 0.15625 14.1162-0.0585938Q14.3457-0.273438 14.3457-0.644531Q14.3457-0.869141 14.2383-1.17188L9.6582-13.3691Q9.48242-13.8184 9.17969-14.043Q8.87695-14.2676 8.4082-14.2676Q7.5-14.2676 7.17773-13.3789L2.59766-1.16211Q2.49023-0.859375 2.49023-0.634766Q2.49023-0.263672 2.70996-0.0537109Q2.92969 0.15625 3.31055 0.15625ZM6.00586-5.51758L8.37891-12.0898L8.42773-12.0898L10.8008-5.51758Z"/>
  </g>
  <line style="fill:none;stroke:#00AEEF;stroke-width:0.5;opacity:1.0;" x1="793.197" x2="793.197" y1="1919" y2="1933"/>
  <text style="stroke:none;fill:black;font-family:sans-serif;font-size:13;font-weight:bold;" transform="matrix(1 0 0 1 776 1953)">Margins</text>
  <text style="stroke:none;fill:black;font-family:sans-serif;font-size:13;" transform="matrix(1 0 0 1 776 1971)">Leading and trailing margins on the left and right side of each symbol</text>
  <text style="stroke:none;fill:black;font-family:sans-serif;font-size:13;" transform="matrix(1 0 0 1 776 1989)">can be adjusted by modifying the x-location of the margin guidelines.</text>
  <text style="stroke:none;fill:black;font-family:sans-serif;font-size:13;" transform="matrix(1 0 0 1 776 2007)">Modifications are automatically applied proportionally to all</text>
  <text style="stroke:none;fill:black;font-family:sans-serif;font-size:13;" transform="matrix(1 0 0 1 776 2025)">scales and weights.</text>
  <g transform="matrix(1 0 0 1 1289 1933)">
   <path d="M2.8418 1.86523L4.54102 3.57422Q5.18555 4.22852 5.90332 4.17969Q6.62109 4.13086 7.31445 3.35938L18.0078-8.42773L17.041-9.4043L6.42578 2.27539Q6.16211 2.57812 5.89355 2.61719Q5.625 2.65625 5.27344 2.30469L4.10156 1.14258Q3.75 0.791016 3.79395 0.522461Q3.83789 0.253906 4.14062-0.0195312L15.6152-10.8203L14.6387-11.7871L3.04688-0.898438Q2.30469-0.214844 2.25098 0.498047Q2.19727 1.21094 2.8418 1.86523ZM9.25781-16.3281Q8.94531-16.0254 8.90625-15.6348Q8.86719-15.2441 9.04297-14.9512Q9.21875-14.6777 9.55566-14.541Q9.89258-14.4043 10.3809-14.5215Q11.4746-14.7754 12.5977-14.7314Q13.7207-14.6875 14.7949-13.9844L14.209-12.5293Q13.9551-11.9043 14.0674-11.4404Q14.1797-10.9766 14.5801-10.5664L16.875-8.25195Q17.2363-7.88086 17.5781-7.82227Q17.9199-7.76367 18.3398-7.8418L19.4043-8.03711L20.0684-7.36328L20.0293-6.80664Q20-6.43555 20.1221-6.12305Q20.2441-5.81055 20.6055-5.44922L21.3672-4.70703Q21.7285-4.3457 22.1533-4.33105Q22.5781-4.31641 22.9297-4.66797L25.8398-7.58789Q26.1914-7.93945 26.1816-8.35449Q26.1719-8.76953 25.8105-9.13086L25.0391-9.89258Q24.6875-10.2539 24.3799-10.3857Q24.0723-10.5176 23.7109-10.4883L23.1348-10.4395L22.4902-11.0742L22.7344-12.1973Q22.832-12.6172 22.6953-12.9834Q22.5586-13.3496 22.1191-13.7891L19.9219-15.9766Q18.6719-17.2168 17.2607-17.8369Q15.8496-18.457 14.4189-18.4814Q12.9883-18.5059 11.665-17.959Q10.3418-17.4121 9.25781-16.3281ZM10.752-15.957Q11.6602-16.6211 12.7002-16.9043Q13.7402-17.1875 14.8047-17.085Q15.8691-16.9824 16.8701-16.5137Q17.8711-16.0449 18.7012-15.2051L21.1328-12.793Q21.3086-12.6172 21.3525-12.4512Q21.3965-12.2852 21.3379-12.0312L21.0156-10.5469L22.5195-9.0625L23.5059-9.12109Q23.6914-9.13086 23.7891-9.09668Q23.8867-9.0625 24.0332-8.91602L24.6094-8.33984L22.168-5.89844L21.5918-6.47461Q21.4453-6.62109 21.4062-6.71875Q21.3672-6.81641 21.377-7.01172L21.4453-7.98828L19.9512-9.47266L18.4277-9.21875Q18.1836-9.16992 18.042-9.2041Q17.9004-9.23828 17.7148-9.41406L15.7129-11.416Q15.5176-11.5918 15.4932-11.7529Q15.4688-11.9141 15.5859-12.1875L16.4648-14.2773Q15.293-15.3711 13.8281-15.791Q12.3633-16.2109 10.8398-15.7617Q10.7227-15.7324 10.6885-15.8057Q10.6543-15.8789 10.752-15.957Z"/>
  </g>
  <text style="stroke:none;fill:black;font-family:sans-serif;font-size:13;font-weight:bold;" transform="matrix(1 0 0 1 1289 1953)">Exporting</text>
  <text style="stroke:none;fill:black;font-family:sans-serif;font-size:13;" transform="matrix(1 0 0 1 1289 1971)">Symbols should be outlined when exporting to ensure the</text>
  <text style="stroke:none;fill:black;font-family:sans-serif;font-size:13;" transform="matrix(1 0 0 1 1289 1989)">design is preserved when submitting to Xcode.</text>
  <text id="template-version" style="stroke:none;fill:black;font-family:sans-serif;font-size:13;text-anchor:end;" transform="matrix(1 0 0 1 3036 1933)">Template v.3.0</text>
  <text style="stroke:none;fill:black;font-family:sans-serif;font-size:13;text-anchor:end;" transform="matrix(1 0 0 1 3036 1951)">Requires Xcode 13 or greater</text>
  <text id="descriptive-name" style="stroke:none;fill:black;font-family:sans-serif;font-size:13;text-anchor:end;" transform="matrix(1 0 0 1 3036 1969)">Generated from laundry.file.6</text>
  <text style="stroke:none;fill:black;font-family:sans-serif;font-size:13;text-anchor:end;" transform="matrix(1 0 0 1 3036 1987)">Typeset at 100 points</text>
  <text style="stroke:none;fill:black;font-family:sans-serif;font-size:13;" transform="matrix(1 0 0 1 263 726)">Small</text>
  <text style="stroke:none;fill:black;font-family:sans-serif;font-size:13;" transform="matrix(1 0 0 1 263 1156)">Medium</text>
  <text style="stroke:none;fill:black;font-family:sans-serif;font-size:13;" transform="matrix(1 0 0 1 263 1586)">Large</text>
 </g>
 <g id="Guides">
  <g id="H-reference" style="fill:#27AAE1;stroke:none;" transform="matrix(1 0 0 1 339 696)">
   <path d="M0.993347 0L3.6377 0L29.3282-67.1326L30.0301-67.1326L30.0301-70.459L28.1227-70.459ZM11.6882-24.4797L46.9818-24.4797L46.2311-26.7288L12.4382-26.7288ZM55.1193 0L57.7637 0L30.6381-70.459L29.4327-70.459L29.4327-67.1326Z"/>
  </g>
  <line id="Baseline-S" style="fill:none;stroke:#27AAE1;opacity:1;stroke-width:0.5;" x1="263" x2="3036" y1="696" y2="696"/>
  <line id="Capline-S" style="fill:none;stroke:#27AAE1;opacity:1;stroke-width:0.5;" x1="263" x2="3036" y1="625.541" y2="625.541"/>
  <g id="H-reference" style="fill:#27AAE1;stroke:none;" transform="matrix(1 0 0 1 339 1126)">
   <path d="M0.993347 0L3.6377 0L29.3282-67.1326L30.0301-67.1326L30.0301-70.459L28.1227-70.459ZM11.6882-24.4797L46.9818-24.4797L46.2311-26.7288L12.4382-26.7288ZM55.1193 0L57.7637 0L30.6381-70.459L29.4327-70.459L29.4327-67.1326Z"/>
  </g>
  <line id="Baseline-M" style="fill:none;stroke:#27AAE1;opacity:1;stroke-width:0.5;" x1="263" x2="3036" y1="1126" y2="1126"/>
  <line id="Capline-M" style="fill:none;stroke:#27AAE1;opacity:1;stroke-width:0.5;" x1="263" x2="3036" y1="1055.54" y2="1055.54"/>
  <g id="H-reference" style="fill:#27AAE1;stroke:none;" transform="matrix(1 0 0 1 339 1556)">
   <path d="M0.993347 0L3.6377 0L29.3282-67.1326L30.0301-67.1326L30.0301-70.459L28.1227-70.459ZM11.6882-24.4797L46.9818-24.4797L46.2311-26.7288L12.4382-26.7288ZM55.1193 0L57.7637 0L30.6381-70.459L29.4327-70.459L29.4327-67.1326Z"/>
  </g>
  <line id="Baseline-L" style="fill:none;stroke:#27AAE1;opacity:1;stroke-width:0.5;" x1="263" x2="3036" y1="1556" y2="1556"/>
  <line id="Capline-L" style="fill:none;stroke:#27AAE1;opacity:1;stroke-width:0.5;" x1="263" x2="3036" y1="1485.54" y2="1485.54"/>
  <line id="left-margin-Regular-M" style="fill:none;stroke:#00AEEF;stroke-width:0.5;opacity:1.0;" x1="1380.43" x2="1380.43" y1="1030.73" y2="1150.14"/>
  <line id="right-margin-Regular-M" style="fill:none;stroke:#00AEEF;stroke-width:0.5;opacity:1.0;" x1="1519.26" x2="1519.26" y1="1030.73" y2="1150.14"/>
 </g>
 <g id="Symbols">
  <g id="Black-L" transform="matrix(1 0 0 1 2837.1 1556)">
   <path class="SFSymbolsPreviewNone" d="M177.003-36.7241C177.003 7.84407 140.874 43.9737 96.3057 43.9737C51.7375 43.9737 15.6079 7.84407 15.6079-36.7241C15.6079-81.2923 51.7375-117.422 96.3057-117.422C140.874-117.422 177.003-81.2923 177.003-36.7241Z"/>
   <path class="multicolor-0:systemIndigoColor hierarchical-0:primary SFSymbolsPreview5856D6" d="M96.3057-117.422C51.6677-117.422 15.6079-81.2424 15.6079-36.7241C15.6079 7.79684 51.7874 43.9763 96.3057 43.9763C140.946 43.9763 177.003 7.79684 177.003-36.7215C177.006-81.2424 140.784-117.422 96.3057-117.422Z"/>
   <path class="multicolor-1:systemPinkColor hierarchical-1:secondary clearBehindLayer SFSymbolsPreviewFF2D55" d="M155.074-2.18897C142.054-0.0955867 132.198-2.68043 123.41-7.6907C139.676-13.5643 153.267-21.9829 164.316-33.3131C163.702-21.9803 160.413-11.4258 155.074-2.18897ZM96.3057-104.896C129.449-104.896 157.167-81.0379 163.205-49.7013C149.572-32.2079 131.829-22.1025 111.421-16.2714C108.672-18.5295 106.039-20.83 103.29-23.2528C85.7963-38.6528 66.122-55.9043 28.6275-45.3472C32.8594-78.9392 61.5634-104.896 96.3057-104.896ZM97.2939-12.863C77.7843-9.12528 56.3911-8.30441 34.4587-8.30178C30.8856-15.9393 28.7922-24.2383 28.2981-32.9837C62.0549-44.0296 77.662-30.2342 95.5272-14.4623C96.141-13.8486 96.6351-13.3571 97.2939-12.863ZM96.3057 31.4481C73.7596 31.4481 53.7585 20.4022 41.2754 3.52254C63.1627 3.35784 87.0662 2.08796 108.791-3.29415C118.69 4.13626 130.392 10.0125 145.507 10.1772C133.144 23.3165 115.651 31.4481 96.3057 31.4481Z"/>
  </g>
  <g id="Heavy-L" transform="matrix(1 0 0 1 2542.08 1556)">
   <path class="SFSymbolsPreviewNone" d="M174.358-35.8653C174.358 8.09714 138.72 43.7358 94.7571 43.7358C50.7946 43.7358 15.156 8.09714 15.156-35.8653C15.156-79.8278 50.7946-115.466 94.7571-115.466C138.72-115.466 174.358-79.8278 174.358-35.8653Z"/>
   <path class="multicolor-0:systemIndigoColor hierarchical-0:primary SFSymbolsPreview5856D6" d="M94.7571-115.466C50.7391-115.466 15.156-79.792 15.156-35.8653C15.156 8.07368 50.8305 43.7481 94.7571 43.7481C138.788 43.7481 174.358 8.07368 174.358-35.853C174.371-79.792 138.635-115.466 94.7571-115.466Z"/>
   <path class="multicolor-1:systemPinkColor hierarchical-1:secondary clearBehindLayer SFSymbolsPreviewFF2D55" d="M152.724-1.82554C139.867 0.229887 130.163-2.30728 121.49-7.24163C137.556-13.0481 150.937-21.3431 161.843-32.4923C161.257-21.3307 157.988-10.9193 152.724-1.82554ZM94.7571-103.103C127.461-103.103 154.78-79.5787 160.751-48.6616C147.308-31.4251 129.785-21.4345 109.682-15.689C106.98-17.9091 104.357-20.1902 101.656-22.575C84.419-37.7561 64.9929-54.7974 28.0132-44.3737C32.1974-77.4986 60.4917-103.103 94.7571-103.103ZM95.7453-12.3283C76.4839-8.63826 55.405-7.82712 33.7587-7.81476C30.2333-15.3472 28.1779-23.5509 27.6838-32.1629C60.9734-43.0561 76.3801-29.4611 94.0069-13.8897C94.5924-13.3042 95.0865-12.8224 95.7453-12.3283ZM94.7571 31.3727C72.5253 31.3727 52.7821 20.4796 40.48 3.82857C62.053 3.66387 85.651 2.43194 107.072-2.89277C116.837 4.41405 128.376 10.2329 143.301 10.3976C131.09 23.3461 113.854 31.3727 94.7571 31.3727Z"/>
  </g>
  <g id="Bold-L" transform="matrix(1 0 0 1 2247.45 1556)">
   <path class="SFSymbolsPreviewNone" d="M170.853-35.0344C170.853 8.10081 135.885 43.0688 92.7502 43.0688C49.615 43.0688 14.647 8.10081 14.647-35.0344C14.647-78.1696 49.615-113.138 92.7502-113.138C135.885-113.138 170.853-78.1696 170.853-35.0344Z"/>
   <path class="multicolor-0:systemIndigoColor hierarchical-0:primary SFSymbolsPreview5856D6" d="M92.7502-113.138C49.5788-113.138 14.647-78.146 14.647-35.0344C14.647 8.10634 49.6386 43.0979 92.7502 43.0979C135.951 43.0979 170.853 8.10634 170.853-35.0053C170.882-78.146 135.815-113.138 92.7502-113.138Z"/>
   <path class="multicolor-1:systemPinkColor hierarchical-1:secondary clearBehindLayer SFSymbolsPreviewFF2D55" d="M149.627-1.66066C136.999 0.346413 127.488-2.12563 118.979-6.96327C134.767-12.671 147.874-20.8042 158.584-31.7097C158.03-20.7751 154.794-10.5591 149.627-1.66066ZM92.7502-101.003C124.851-101.003 151.634-77.9347 157.507-47.5869C144.324-30.6908 127.112-20.864 107.415-15.232C104.778-17.4038 102.172-19.6513 99.5351-21.9878C82.6391-36.8768 63.5553-53.624 27.2752-43.3789C31.3943-75.8693 59.136-101.003 92.7502-101.003ZM93.7384-11.9365C74.8193-8.31155 54.1628-7.51718 32.9073-7.48805C29.447-14.8735 27.4399-22.9469 26.9458-31.3803C59.601-42.0613 74.7304-28.7436 92.0316-13.4495C92.5855-12.8955 93.0796-12.4306 93.7384-11.9365ZM92.7502 30.9346C70.9407 30.9346 51.5567 20.2537 39.4983 3.91154C60.649 3.74684 83.8226 2.56327 104.838-2.67953C114.424 4.46545 125.735 10.2024 140.399 10.3671C128.401 23.0551 111.505 30.9346 92.7502 30.9346Z"/>
  </g>
  <g id="Semibold-L" transform="matrix(1 0 0 1 1952.18 1556)">
   <path class="SFSymbolsPreviewNone" d="M168.437-34.4615C168.437 8.10334 133.931 42.609 91.3666 42.609C48.8017 42.609 14.2961 8.10334 14.2961-34.4615C14.2961-77.0264 48.8017-111.532 91.3666-111.532C133.931-111.532 168.437-77.0264 168.437-34.4615Z"/>
   <path class="multicolor-0:systemIndigoColor hierarchical-0:primary SFSymbolsPreview5856D6" d="M91.3666-111.532C48.7789-111.532 14.2961-77.0112 14.2961-34.4615C14.2961 8.12885 48.8169 42.6497 91.3666 42.6497C133.995 42.6497 168.437 8.12885 168.437-34.4208C168.478-77.0112 133.871-111.532 91.3666-111.532Z"/>
   <path class="multicolor-1:systemPinkColor hierarchical-1:secondary clearBehindLayer SFSymbolsPreviewFF2D55" d="M147.492-1.54699C135.021 0.426745 125.644-2.00039 117.248-6.77137C132.845-12.4111 145.761-20.4327 156.337-31.1702C155.805-20.392 152.592-10.3107 147.492-1.54699ZM91.3666-99.5557C123.052-99.5557 149.465-76.8012 155.27-46.846C142.267-30.1847 125.269-20.4708 105.851-14.917C103.26-17.0554 100.665-19.2798 98.0733-21.583C81.412-36.2706 62.5643-52.8151 26.7665-42.6931C30.8407-74.7461 58.2014-99.5557 91.3666-99.5557ZM92.3548-11.6664C73.6718-8.08631 53.3064-7.30351 32.3203-7.26281C28.905-14.5469 26.9312-22.5305 26.4371-30.8408C58.6548-41.3755 73.5931-28.249 90.6698-13.146C91.2019-12.6139 91.696-12.1605 92.3548-11.6664ZM91.3666 30.6327C69.8483 30.6327 50.7119 20.0979 38.8216 3.96875C59.681 3.80405 82.5622 2.65381 103.298-2.53253C112.761 4.50088 123.914 10.1813 138.399 10.346C126.546 22.8545 109.885 30.6327 91.3666 30.6327Z"/>
  </g>
  <g id="Medium-L" transform="matrix(1 0 0 1 1656.56 1556)">
   <path class="SFSymbolsPreviewNone" d="M166.605-34.0272C166.605 8.10526 132.45 42.2603 90.3175 42.2603C48.1851 42.2603 14.03 8.10526 14.03-34.0272C14.03-76.1596 48.1851-110.315 90.3175-110.315C132.45-110.315 166.605-76.1596 166.605-34.0272Z"/>
   <path class="multicolor-0:systemIndigoColor hierarchical-0:primary SFSymbolsPreview5856D6" d="M90.3175-110.315C48.1724-110.315 14.03-76.1508 14.03-34.0272C14.03 8.14592 48.1939 42.3098 90.3175 42.3098C132.512 42.3098 166.605 8.14592 166.605-33.9777C166.654-76.1508 132.397-110.315 90.3175-110.315Z"/>
   <path class="multicolor-1:systemPinkColor hierarchical-1:secondary clearBehindLayer SFSymbolsPreviewFF2D55" d="M145.873-1.46081C133.522 0.487656 124.246-1.90544 115.935-6.62587C131.387-12.214 144.16-20.151 154.633-30.7611C154.118-20.1016 150.922-10.1224 145.873-1.46081ZM90.3175-98.458C121.688-98.458 147.821-75.9418 153.574-46.2842C140.708-29.8008 123.872-20.1726 104.666-14.6781C102.108-16.7913 99.5227-18.9981 96.9649-21.276C80.4815-35.8109 61.8128-52.2018 26.3808-42.1731C30.4209-73.8944 57.4928-98.458 90.3175-98.458ZM91.3057-11.4615C72.8017-7.91553 52.6571-7.1415 31.8752-7.09203C28.4939-14.2993 26.5455-22.2147 26.0514-30.4317C57.9374-40.8555 72.7307-27.8739 89.6372-12.9159C90.1528-12.4003 90.6469-11.9556 91.3057-11.4615ZM90.3175 30.4037C69.02 30.4037 50.0714 19.9799 38.3084 4.01212C58.9471 3.84742 81.6065 2.72246 102.13-2.42107C111.5 4.52775 122.533 10.1654 136.882 10.3301C125.14 22.7024 108.657 30.4037 90.3175 30.4037Z"/>
  </g>
  <g id="Regular-L" transform="matrix(1 0 0 1 1361.27 1556)">
   <path class="SFSymbolsPreviewNone" d="M164.215-33.4606C164.215 8.10777 130.518 41.8056 88.9492 41.8056C47.3808 41.8056 13.683 8.10777 13.683-33.4606C13.683-75.029 47.3808-108.727 88.9492-108.727C130.518-108.727 164.215-75.029 164.215-33.4606Z"/>
   <path class="multicolor-0:systemIndigoColor hierarchical-0:primary SFSymbolsPreview5856D6" d="M88.9492-108.727C47.3813-108.727 13.683-75.0285 13.683-33.4606C13.683 8.16818 47.3813 41.8665 88.9492 41.8665C130.578 41.8665 164.215 8.16818 164.215-33.3997C164.276-75.0285 130.474-108.727 88.9492-108.727Z"/>
   <path class="multicolor-1:systemPinkColor hierarchical-1:secondary clearBehindLayer SFSymbolsPreviewFF2D55" d="M143.761-1.34839C131.566 0.567106 122.422-1.78159 114.223-6.43608C129.486-11.957 142.071-19.7836 152.411-30.2275C151.917-19.7227 148.745-9.87676 143.761-1.34839ZM88.9492-97.0262C119.908-97.0262 145.676-74.8209 151.362-45.5515C138.673-29.3002 122.05-19.7836 103.12-14.3666C100.607-16.4467 98.0325-18.6307 95.5191-20.8756C79.2679-35.2114 60.8326-51.4018 25.8776-41.4949C29.8733-72.7836 56.5684-97.0262 88.9492-97.0262ZM89.9374-11.1944C71.6668-7.69277 51.8102-6.93018 31.2947-6.86927C27.9578-13.9762 26.0423-21.8029 25.5482-29.8981C57.0016-40.1773 71.6059-27.3847 88.2904-12.6158C88.7845-12.1217 89.2786-11.6885 89.9374-11.1944ZM88.9492 30.105C67.9396 30.105 49.2359 19.8259 37.6391 4.0687C57.9898 3.904 80.3599 2.812 100.607-2.27569C109.855 4.5628 120.732 10.1446 134.903 10.3093C123.306 22.5039 107.055 30.105 88.9492 30.105Z"/>
  </g>
  <g id="Light-L" transform="matrix(1 0 0 1 1065.94 1556)">
   <path class="SFSymbolsPreviewNone" d="M160.323-34.3852C160.323 6.11538 127.491 38.9476 86.9906 38.9476C46.49 38.9476 13.6577 6.11538 13.6577-34.3852C13.6577-74.8859 46.49-107.718 86.9906-107.718C127.491-107.718 160.323-74.8859 160.323-34.3852Z"/>
   <path class="multicolor-0:systemIndigoColor hierarchical-0:primary SFSymbolsPreview5856D6" d="M86.9906-107.718C46.5155-107.718 13.6577-74.8604 13.6577-34.3852C13.6577 6.19282 46.5155 39.0505 86.9906 39.0505C127.569 39.0505 160.323 6.19282 160.323-34.2823C160.426-74.8604 127.507-107.718 86.9906-107.718Z"/>
   <path class="multicolor-1:systemPinkColor hierarchical-1:secondary clearBehindLayer SFSymbolsPreviewFF2D55" d="M140.415-3.07158C128.557-1.19811 119.581-3.46274 111.634-8.03318C126.519-13.3859 138.809-21.0445 148.897-31.1942C148.403-20.9416 145.315-11.3478 140.415-3.07158ZM86.9906-96.3538C117.151-96.3538 142.289-74.7368 147.806-46.1819C135.454-30.3089 119.292-21.0445 100.825-15.7535C98.3961-17.7917 95.8638-19.8916 93.4345-22.0945C77.5615-36.094 59.5886-51.8641 25.5162-42.1673C29.4278-72.6575 55.4505-96.3538 86.9906-96.3538ZM87.9788-12.6654C70.1706-9.24784 50.8183-8.52728 30.8072-8.42434C27.5543-15.3212 25.6809-22.9797 25.1868-30.8648C55.8416-40.8497 70.0676-28.4354 86.3318-14.0447C86.8259-13.5506 87.32-13.1595 87.9788-12.6654ZM86.9906 27.5833C66.4854 27.5833 48.286 17.5983 36.9834 2.21942C56.8298 2.05472 78.6115 1.00475 98.3961-3.95684C107.434 2.71352 117.975 8.16922 131.81 8.33392C120.507 20.1924 104.634 27.5833 86.9906 27.5833Z"/>
  </g>
  <g id="Thin-L" transform="matrix(1 0 0 1 771.068 1556)">
   <path class="SFSymbolsPreviewNone" d="M155.176-35.6081C155.176 3.48028 123.489 35.1677 84.4003 35.1677C45.3118 35.1677 13.6244 3.48028 13.6244-35.6081C13.6244-74.6966 45.3118-106.384 84.4003-106.384C123.489-106.384 155.176-74.6966 155.176-35.6081Z"/>
   <path class="multicolor-0:systemIndigoColor hierarchical-0:primary SFSymbolsPreview5856D6" d="M84.4003-106.384C45.3704-106.384 13.6244-74.638 13.6244-35.6081C13.6244 3.58024 45.3704 35.3262 84.4003 35.3262C123.589 35.3262 155.176 3.58024 155.176-35.4496C155.335-74.638 123.582-106.384 84.4003-106.384Z"/>
   <path class="multicolor-1:systemPinkColor hierarchical-1:secondary clearBehindLayer SFSymbolsPreviewFF2D55" d="M135.991-5.35063C124.577-3.53275 115.823-5.68621 108.21-10.1455C122.594-15.2759 134.496-22.7121 144.25-32.4727C143.756-22.5536 140.779-13.2933 135.991-5.35063ZM84.4003-95.4644C113.505-95.4644 137.808-74.6257 143.104-47.0157C131.196-31.643 115.646-22.7121 97.7904-17.5879C95.4722-19.5705 92.9956-21.5592 90.6774-23.7065C75.3047-37.2613 57.9432-52.4755 25.0381-43.0567C28.8386-72.4907 53.9719-95.4644 84.4003-95.4644ZM85.3885-14.6109C68.1917-11.3046 49.5064-10.6396 30.1624-10.4811C27.0207-17.1 25.2028-24.5362 24.7087-32.1433C54.3074-41.7391 68.0332-29.8251 83.7415-15.9347C84.2356-15.4406 84.7297-15.105 85.3885-14.6109ZM84.4003 24.2481C64.5621 24.2481 47.0298 14.6522 36.1163-0.226395C55.2956-0.391095 76.2991-1.38547 95.4722-6.18031C104.232 0.267705 114.328 5.55664 127.719 5.72134C116.805 17.1351 101.432 24.2481 84.4003 24.2481Z"/>
  </g>
  <g id="Ultralight-L" transform="matrix(1 0 0 1 475.296 1556)">
   <path class="SFSymbolsPreviewNone" d="M152.54-36.2345C152.54 2.1306 121.439 33.2317 83.0735 33.2317C44.7084 33.2317 13.6073 2.1306 13.6073-36.2345C13.6073-74.5996 44.7084-105.701 83.0735-105.701C121.439-105.701 152.54-74.5996 152.54-36.2345Z"/>
   <path class="multicolor-0:systemIndigoColor hierarchical-0:primary SFSymbolsPreview5856D6" d="M83.0735-105.701C44.7839-105.701 13.6073-74.5241 13.6073-36.2345C13.6073 2.2421 44.7839 33.4187 83.0735 33.4187C121.55 33.4187 152.54 2.2421 152.54-36.0475C152.727-74.5241 121.572-105.701 83.0735-105.701Z"/>
   <path class="multicolor-1:systemPinkColor hierarchical-1:secondary clearBehindLayer SFSymbolsPreviewFF2D55" d="M133.724-6.51795C122.538-4.72855 113.898-6.82506 106.456-11.2274C120.584-16.2439 132.287-23.5662 141.87-33.1275C141.376-23.3793 138.456-14.2898 133.724-6.51795ZM83.0735-95.0088C111.637-95.0088 135.514-74.5687 140.695-47.4428C129.015-32.3263 113.778-23.5662 96.2359-18.5274C93.9747-20.4815 91.5264-22.4133 89.2652-24.5322C74.1488-37.8592 57.1005-52.7887 24.7933-43.5123C28.5368-72.4053 53.2145-95.0088 83.0735-95.0088ZM84.0617-15.6074C67.1781-12.358 48.8345-11.7215 29.8321-11.5345C26.7474-18.011 24.958-25.3334 24.4639-32.7981C53.5216-42.1947 66.9911-30.5369 82.4147-16.9027C82.9088-16.4086 83.4029-16.1015 84.0617-15.6074ZM83.0735 22.5398C63.577 22.5398 46.3863 13.1432 35.6721-1.47913C54.5098-1.64383 75.1147-2.60974 93.9747-7.31916C102.592-0.98503 112.461 4.2185 125.623 4.3832C114.909 15.5692 99.7924 22.5398 83.0735 22.5398Z"/>
  </g>
  <g id="Black-M" transform="matrix(1 0 0 1 2857.53 1126)">
   <path class="SFSymbolsPreviewNone" d="M138.878-37.2554C138.878-2.35066 110.582 25.9452 75.6775 25.9452C40.7728 25.9452 12.477-2.35066 12.477-37.2554C12.477-72.16 40.7728-100.456 75.6775-100.456C110.582-100.456 138.878-72.16 138.878-37.2554Z"/>
   <path class="multicolor-0:systemIndigoColor hierarchical-0:primary SFSymbolsPreview5856D6" d="M75.6775-100.456C40.71-100.456 12.477-72.106 12.477-37.2554C12.477-2.40537 40.8269 25.9446 75.6775 25.9446C110.644 25.9446 138.878-2.40537 138.878-37.256C138.877-72.106 110.516-100.456 75.6775-100.456Z"/>
   <path class="multicolor-1:systemPinkColor hierarchical-1:secondary clearBehindLayer SFSymbolsPreviewFF2D55" d="M121.708-10.182C111.527-8.53329 103.784-10.5655 96.9108-14.501C109.634-19.0864 120.303-25.6921 128.952-34.5858C128.452-25.6927 125.899-17.427 121.708-10.182ZM75.6775-90.6577C101.624-90.6577 123.357-71.9664 128.07-47.425C117.389-33.7026 103.516-25.809 87.5067-21.2349C85.3469-23.0113 83.3047-24.7989 81.1449-26.7029C67.4225-38.7765 52.0293-52.2657 22.658-44.0006C25.9662-70.3189 48.4653-90.6577 75.6775-90.6577ZM76.4431-18.5647C61.1776-15.6393 44.4016-15.0007 27.2321-15.0013C24.4343-20.9803 22.7856-27.4691 22.4028-34.3306C48.8488-42.9798 61.0613-32.1708 75.0502-19.8307C75.5499-19.3309 75.9327-18.9475 76.4431-18.5647ZM75.6775 16.147C58.0083 16.147 42.3594 7.49784 32.5725-5.72484C49.7313-5.85244 68.4332-6.8632 85.4638-11.0652C93.2185-5.22511 102.379-0.640303 114.208-0.512703C104.538 9.78522 90.8155 16.147 75.6775 16.147Z"/>
  </g>
  <g id="Heavy-M" transform="matrix(1 0 0 1 2562.34 1126)">
   <path class="SFSymbolsPreviewNone" d="M136.651-36.3306C136.651-1.91946 108.756 25.9763 74.3444 25.9763C39.9333 25.9763 12.0376-1.91946 12.0376-36.3306C12.0376-70.7417 39.9333-98.6374 74.3444-98.6374C108.756-98.6374 136.651-70.7417 136.651-36.3306Z"/>
   <path class="multicolor-0:systemIndigoColor hierarchical-0:primary SFSymbolsPreview5856D6" d="M74.3444-98.6374C39.882-98.6374 12.0376-70.7036 12.0376-36.3306C12.0376-1.95251 39.9714 25.9813 74.3444 25.9813C108.812 25.9813 136.651-1.95251 136.651-36.3256C136.656-70.7036 108.689-98.6374 74.3444-98.6374Z"/>
   <path class="multicolor-1:systemPinkColor hierarchical-1:secondary clearBehindLayer SFSymbolsPreviewFF2D55" d="M119.72-9.6678C109.667-8.05227 102.056-10.0456 95.2724-13.9147C107.834-18.45 118.326-24.9503 126.858-33.6942C126.386-24.9453 123.844-16.7962 119.72-9.6678ZM74.3444-88.967C99.9353-88.967 121.335-70.5478 125.998-46.3505C115.473-32.8443 101.773-25.0397 86.0181-20.5376C83.8972-22.2808 81.8606-24.0571 79.7397-25.9279C66.2335-37.8185 51.0403-51.141 22.0908-42.9868C25.3601-68.9222 47.5208-88.967 74.3444-88.967ZM75.11-17.9063C60.0444-15.0198 43.5291-14.3868 26.5928-14.3818C23.8339-20.2774 22.2184-26.6885 21.8356-33.439C47.8986-41.966 59.9501-31.3181 73.7447-19.139C74.2168-18.6669 74.5996-18.2891 75.11-17.9063ZM74.3444 16.3059C56.9359 16.3059 41.4925 7.77894 31.8555-5.25508C48.7535-5.38268 67.211-6.36021 83.9865-10.5177C91.6303-4.78295 100.663-0.242631 112.336-0.115031C102.789 10.0275 89.2824 16.3059 74.3444 16.3059Z"/>
  </g>
  <g id="Bold-M" transform="matrix(1 0 0 1 2267.34 1126)">
   <path class="SFSymbolsPreviewNone" d="M134.16-35.2961C134.16-1.43711 106.712 26.011 72.8531 26.011C38.9942 26.011 11.5461-1.43711 11.5461-35.2961C11.5461-69.155 38.9942-96.6031 72.8531-96.6031C106.712-96.6031 134.16-69.155 134.16-35.2961Z"/>
   <path class="multicolor-0:systemIndigoColor hierarchical-0:primary SFSymbolsPreview5856D6" d="M72.8531-96.6031C38.9558-96.6031 11.5461-69.1349 11.5461-35.2961C11.5461-1.44591 39.0143 26.0223 72.8531 26.0223C106.762 26.0223 134.16-1.44591 134.16-35.2848C134.171-69.1349 106.645-96.6031 72.8531-96.6031Z"/>
   <path class="multicolor-1:systemPinkColor hierarchical-1:secondary clearBehindLayer SFSymbolsPreviewFF2D55" d="M117.496-9.09254C107.586-7.51418 100.124-9.46404 93.4397-13.2588C105.821-17.738 116.115-24.1206 124.517-32.6969C124.075-24.1093 121.546-16.0905 117.496-9.09254ZM72.8531-87.0758C98.0465-87.0758 119.074-68.9608 123.681-45.1484C113.33-31.8841 99.8223-24.179 84.353-19.7576C82.2755-21.4636 80.2452-23.2274 78.1677-25.0609C64.9035-36.7468 49.9339-49.8828 21.4562-41.8528C24.6821-67.3598 46.4642-87.0758 72.8531-87.0758ZM73.6187-17.1698C58.7768-14.3267 42.5532-13.7 25.8776-13.6887C23.1622-19.4911 21.5838-25.8152 21.201-32.4417C46.8357-40.832 58.707-30.3642 72.2843-18.3653C72.7255-17.9241 73.1083-17.5526 73.6187-17.1698ZM72.8531 16.4836C55.7363 16.4836 40.5229 8.09339 31.0533-4.72959C47.6597-4.85719 65.8439-5.79755 82.334-9.9053C89.8536-4.28833 98.743 0.202222 110.243 0.329822C100.832 10.2984 87.5675 16.4836 72.8531 16.4836Z"/>
  </g>
  <g id="Semibold-M" transform="matrix(1 0 0 1 1971.8 1126)">
   <path class="SFSymbolsPreviewNone" d="M132.443-34.5829C132.443-1.10458 105.303 26.035 71.825 26.035C38.3467 26.035 11.2072-1.10458 11.2072-34.5829C11.2072-68.0612 38.3467-95.2007 71.825-95.2007C105.303-95.2007 132.443-68.0612 132.443-34.5829Z"/>
   <path class="multicolor-0:systemIndigoColor hierarchical-0:primary SFSymbolsPreview5856D6" d="M71.825-95.2007C38.3173-95.2007 11.2072-68.0534 11.2072-34.5829C11.2072-1.09667 38.3545 26.0506 71.825 26.0506C105.348 26.0506 132.443-1.09667 132.443-34.5672C132.459-68.0534 105.236-95.2007 71.825-95.2007Z"/>
   <path class="multicolor-1:systemPinkColor hierarchical-1:secondary clearBehindLayer SFSymbolsPreviewFF2D55" d="M115.963-8.69596C106.151-7.14323 98.7919-9.06312 92.1762-12.8066C104.434-17.2472 114.59-23.5485 122.902-32.0093C122.482-23.5329 119.961-15.604 115.963-8.69596ZM71.825-85.7719C96.7444-85.7719 117.516-67.8667 122.084-44.3197C111.852-31.2222 98.4776-23.5857 83.205-19.2199C81.1575-20.9002 79.1316-22.6553 77.0841-24.4633C63.9866-36.008 49.1712-49.0155 21.0188-41.071C24.2147-66.2827 45.7358-85.7719 71.825-85.7719ZM72.5906-16.662C57.9029-13.8489 41.8803-13.2266 25.3846-13.2109C22.6991-18.9491 21.1464-25.2132 20.7636-31.7541C46.1029-40.0502 57.85-29.7067 71.2775-17.832C71.6974-17.412 72.0802-17.0448 72.5906-16.662ZM71.825 16.6062C54.9093 16.6062 39.8544 8.31017 30.5004-4.36732C46.9057-4.49492 64.9013-5.40966 81.1947-9.4831C88.6288-3.94734 97.4196 0.508902 108.8 0.636502C99.4827 10.4853 86.3852 16.6062 71.825 16.6062Z"/>
  </g>
  <g id="Medium-M" transform="matrix(1 0 0 1 1675.98 1126)">
   <path class="SFSymbolsPreviewNone" d="M131.141-34.0421C131.141-0.852436 104.235 26.0531 71.0455 26.0531C37.8558 26.0531 10.9503-0.852436 10.9503-34.0421C10.9503-67.2318 37.8558-94.1374 71.0455-94.1374C104.235-94.1374 131.141-67.2318 131.141-34.0421Z"/>
   <path class="multicolor-0:systemIndigoColor hierarchical-0:primary SFSymbolsPreview5856D6" d="M71.0455-94.1374C37.8331-94.1374 10.9503-67.2334 10.9503-34.0421C10.9503-0.831857 37.8542 26.0721 71.0455 26.0721C104.277 26.0721 131.141-0.831857 131.141-34.0232C131.16-67.2334 104.168-94.1374 71.0455-94.1374Z"/>
   <path class="multicolor-1:systemPinkColor hierarchical-1:secondary clearBehindLayer SFSymbolsPreviewFF2D55" d="M114.8-8.39526C105.063-6.86195 97.7818-8.75912 91.2182-12.4637C103.382-16.875 113.435-23.1148 121.678-31.488C121.274-23.0959 118.76-15.2352 114.8-8.39526ZM71.0455-84.7833C95.7571-84.7833 116.334-67.0372 120.872-43.6913C110.732-30.7203 97.458-23.1359 82.3346-18.8122C80.3098-20.4731 78.2872-22.2216 76.2624-24.0101C63.2914-35.4478 48.5929-48.3578 20.6871-40.4782C23.8603-65.466 45.1834-84.7833 71.0455-84.7833ZM71.8111-16.277C57.2402-13.4866 41.3702-12.8676 25.0108-12.8486C22.348-18.538 20.8147-24.7568 20.4319-31.2328C45.5473-39.4574 57.2002-29.208 70.5141-17.4275C70.9179-17.0237 71.3007-16.6598 71.8111-16.277ZM71.0455 16.6991C54.2823 16.6991 39.3475 8.47454 30.0811-4.09264C46.3339-4.22024 64.1867-5.11554 80.3309-9.16297C87.7001-3.68879 96.4161 0.741439 107.705 0.869039C98.4598 10.6269 85.4888 16.6991 71.0455 16.6991Z"/>
  </g>
  <g id="Regular-M" transform="matrix(1 0 0 1 1380.43 1126)">
   <path class="SFSymbolsPreviewNone" d="M129.442-33.3368C129.442-0.523558 102.842 26.0768 70.0287 26.0768C37.2155 26.0768 10.6151-0.523558 10.6151-33.3368C10.6151-66.15 37.2155-92.7504 70.0287-92.7504C102.842-92.7504 129.442-66.15 129.442-33.3368Z"/>
   <path class="multicolor-0:systemIndigoColor hierarchical-0:primary SFSymbolsPreview5856D6" d="M70.0287-92.7504C37.2016-92.7504 10.6151-66.1639 10.6151-33.3368C10.6151-0.486452 37.2016 26.1 70.0287 26.1C102.879 26.1 129.442-0.486452 129.442-33.3135C129.466-66.1639 102.775-92.7504 70.0287-92.7504Z"/>
   <path class="multicolor-1:systemPinkColor hierarchical-1:secondary clearBehindLayer SFSymbolsPreviewFF2D55" d="M113.284-8.00304C103.645-6.49508 96.4644-8.36261 89.9686-12.0165C102.009-16.3896 111.927-22.5491 120.081-30.808C119.699-22.5258 117.193-14.754 113.284-8.00304ZM70.0287-83.4938C94.4693-83.4938 114.792-65.9551 119.293-42.8717C109.27-30.0656 96.1281-22.5491 81.1992-18.2804C79.2041-19.9159 77.1857-21.6559 75.1906-23.419C62.3845-34.7171 47.8385-47.5 20.2545-39.705C23.398-64.4007 44.463-83.4938 70.0287-83.4938ZM70.7943-15.7748C56.3759-13.0141 40.7047-12.3993 24.5232-12.3761C21.89-18.0019 20.3821-24.1614 19.9993-30.5528C44.8226-38.6842 56.3527-28.5577 69.5183-16.9C69.9011-16.5172 70.2839-16.1576 70.7943-15.7748ZM70.0287 16.8203C53.4643 16.8203 38.6864 8.68894 29.5342-3.73435C45.5882-3.86195 63.2545-4.73191 79.2041-8.74541C86.4887-3.35155 95.1073 1.04475 106.278 1.17235C97.1256 10.8117 84.3195 16.8203 70.0287 16.8203Z"/>
  </g>
  <g id="Light-M" transform="matrix(1 0 0 1 1084.96 1126)">
   <path class="SFSymbolsPreviewNone" d="M125.953-34.1658C125.953-2.30984 100.129 23.5145 68.2728 23.5145C36.4169 23.5145 10.5925-2.30984 10.5925-34.1658C10.5925-66.0217 36.4169-91.846 68.2728-91.846C100.129-91.846 125.953-66.0217 125.953-34.1658Z"/>
   <path class="multicolor-0:systemIndigoColor hierarchical-0:primary SFSymbolsPreview5856D6" d="M68.2728-91.846C36.4254-91.846 10.5925-66.0131 10.5925-34.1658C10.5925-2.25747 36.4254 23.5754 68.2728 23.5754C100.181 23.5754 125.953-2.25747 125.953-34.1048C126.014-66.0131 100.114-91.846 68.2728-91.846Z"/>
   <path class="multicolor-1:systemPinkColor hierarchical-1:secondary clearBehindLayer SFSymbolsPreviewFF2D55" d="M110.285-9.54797C100.947-8.07769 93.9171-9.86985 87.6474-13.4484C99.3488-17.6708 109.003-23.6795 116.931-31.6747C116.548-23.6186 114.118-16.0729 110.285-9.54797ZM68.2728-82.8909C91.9974-82.8909 111.755-65.8798 116.105-43.4369C106.384-30.97 93.6562-23.6795 79.1418-19.5238C77.2221-21.1217 75.2414-22.7863 73.3216-24.5118C60.8547-35.5084 46.7232-47.9145 19.9304-40.3079C22.9986-64.2877 43.4607-82.8909 68.2728-82.8909ZM69.0384-17.0937C55.0345-14.4083 39.8155-13.8312 24.0861-13.7703C21.5283-19.2077 20.058-25.2165 19.6752-31.4195C43.7826-39.2871 54.9735-29.4997 67.7624-18.1812C68.1452-17.7984 68.528-17.4765 69.0384-17.0937ZM68.2728 14.5594C52.1606 14.5594 37.8348 6.69184 28.9464-5.39232C44.5482-5.51992 61.687-6.3522 77.2221-10.2527C84.3183-5.00952 92.6354-0.726267 103.504-0.598667C94.6161 8.7392 82.1491 14.5594 68.2728 14.5594Z"/>
  </g>
  <g id="Thin-M" transform="matrix(1 0 0 1 789.897 1126)">
   <path class="SFSymbolsPreviewNone" d="M121.338-35.2622C121.338-4.67233 96.5402 20.1256 65.9504 20.1256C35.3606 20.1256 10.5626-4.67233 10.5626-35.2622C10.5626-65.852 35.3606-90.6499 65.9504-90.6499C96.5402-90.6499 121.338-65.852 121.338-35.2622Z"/>
   <path class="multicolor-0:systemIndigoColor hierarchical-0:primary SFSymbolsPreview5856D6" d="M65.9504-90.6499C35.3988-90.6499 10.5626-65.8138 10.5626-35.2622C10.5626-4.59978 35.3988 20.2364 65.9504 20.2364C96.6128 20.2364 121.338-4.59978 121.338-35.1514C121.449-65.8138 96.5959-90.6499 65.9504-90.6499Z"/>
   <path class="multicolor-1:systemPinkColor hierarchical-1:secondary clearBehindLayer SFSymbolsPreviewFF2D55" d="M106.318-11.5913C97.3784-10.1708 90.5482-11.8633 84.5775-15.3422C95.8303-19.3652 105.135-25.1746 112.765-32.8209C112.382-25.0638 110.052-17.8171 106.318-11.5913ZM65.9504-82.0936C88.7281-82.0936 107.738-65.7801 111.889-44.1845C102.567-32.1661 90.3869-25.1746 76.4208-21.1684C74.6007-22.7165 72.6698-24.2814 70.8497-25.957C58.8313-36.555 45.248-48.4627 19.5018-41.1052C22.4703-64.1381 42.1351-82.0936 65.9504-82.0936ZM66.716-18.8379C53.2603-16.2522 38.6393-15.725 23.5079-15.6142C21.0499-20.8025 19.6294-26.6119 19.2466-32.5657C42.4071-40.0844 53.1495-30.7456 65.44-19.8756C65.8228-19.4928 66.2056-19.2207 66.716-18.8379ZM65.9504 11.5692C50.4362 11.5692 36.7085 4.05051 28.1689-7.58512C43.1727-7.71272 59.6138-8.49517 74.6007-12.2461C81.4477-7.20232 89.3661-3.06858 99.8365-2.94098C91.297 5.9982 79.2785 11.5692 65.9504 11.5692Z"/>
  </g>
  <g id="Ultralight-M" transform="matrix(1 0 0 1 494.028 1126)">
   <path class="SFSymbolsPreviewNone" d="M118.974-35.8237C118.974-5.88239 94.7022 18.3899 64.7609 18.3899C34.8196 18.3899 10.5473-5.88239 10.5473-35.8237C10.5473-65.7651 34.8196-90.0373 64.7609-90.0373C94.7022-90.0373 118.974-65.7651 118.974-35.8237Z"/>
   <path class="multicolor-0:systemIndigoColor hierarchical-0:primary SFSymbolsPreview5856D6" d="M64.7609-90.0373C34.8729-90.0373 10.5473-65.7117 10.5473-35.8237C10.5473-5.7995 34.8729 18.5261 64.7609 18.5261C94.7851 18.5261 118.974-5.7995 118.974-35.6875C119.111-65.7117 94.7938-90.0373 64.7609-90.0373Z"/>
   <path class="multicolor-1:systemPinkColor hierarchical-1:secondary clearBehindLayer SFSymbolsPreviewFF2D55" d="M104.286-12.6378C95.5507-11.2429 88.8226-12.8843 83.0051-16.3122C94.0282-20.2331 103.155-25.9404 110.631-33.408C110.248-25.8041 107.969-18.7106 104.286-12.6378ZM64.7609-81.6851C87.0536-81.6851 105.681-65.729 109.729-44.5674C100.611-32.7787 88.7124-25.9404 75.0271-22.0108C73.258-23.5333 71.3527-25.0472 69.5837-26.6973C57.795-37.0911 44.4924-48.7435 19.2823-41.5137C22.1997-64.0616 41.4561-81.6851 64.7609-81.6851ZM65.5265-19.7314C52.3516-17.1967 38.0369-16.695 23.2118-16.5587C20.8048-21.6193 19.4099-27.3266 19.0271-33.1528C41.7026-40.4929 52.2153-31.3838 64.2505-20.7435C64.6333-20.3607 65.0161-20.1142 65.5265-19.7314ZM64.7609 10.0377C49.553 10.0377 36.1316 2.69763 27.7707-8.70826C42.4682-8.83586 58.5519-9.59278 73.258-13.2671C79.9774-8.32546 87.6916-4.2683 97.9578-4.1407C89.5969 4.59428 77.8082 10.0377 64.7609 10.0377Z"/>
  </g>
  <g id="Black-S" transform="matrix(1 0 0 1 2873.55 696)">
   <path class="SFSymbolsPreviewNone" d="M109.31-37.15C109.31-9.70145 87.0586 12.55 59.61 12.55C32.1614 12.55 9.91-9.70145 9.91-37.15C9.91-64.5986 32.1614-86.85 59.61-86.85C87.0586-86.85 109.31-64.5986 109.31-37.15Z"/>
   <path class="multicolor-0:systemIndigoColor hierarchical-0:primary SFSymbolsPreview5856D6" d="M59.61-86.85C32.11-86.85 9.91-64.55 9.91-37.15C9.91-9.75 32.21 12.55 59.61 12.55C87.11 12.55 109.31-9.75 109.31-37.15C109.31-64.55 87.01-86.85 59.61-86.85Z"/>
   <path class="multicolor-1:systemPinkColor hierarchical-1:secondary clearBehindLayer SFSymbolsPreviewFF2D55" d="M95.81-15.85C87.81-14.55 81.71-16.15 76.31-19.25C86.31-22.85 94.71-28.05 101.51-35.05C101.11-28.05 99.11-21.55 95.81-15.85ZM59.61-79.15C80.01-79.15 97.11-64.45 100.81-45.15C92.41-34.35 81.51-28.15 68.91-24.55C67.21-25.95 65.61-27.35 63.91-28.85C53.11-38.35 41.01-48.95 17.91-42.45C20.51-63.15 38.21-79.15 59.61-79.15ZM60.21-22.45C48.21-20.15 35.01-19.65 21.51-19.65C19.31-24.35 18.01-29.45 17.71-34.85C38.51-41.65 48.11-33.15 59.11-23.45C59.51-23.05 59.81-22.75 60.21-22.45ZM59.61 4.85C45.71 4.85 33.41-1.95 25.71-12.35C39.21-12.45 53.91-13.25 67.31-16.55C73.41-11.95 80.61-8.35 89.91-8.25C82.31-0.15 71.51 4.85 59.61 4.85Z"/>
  </g>
  <g id="Heavy-S" transform="matrix(1 0 0 1 2577.98 696)">
   <path class="SFSymbolsPreviewNone" d="M107.851-36.2531C107.851-9.10437 85.843 12.904 58.6942 12.904C31.5455 12.904 9.53709-9.10437 9.53709-36.2531C9.53709-63.4019 31.5455-85.4103 58.6942-85.4103C85.843-85.4103 107.851-63.4019 107.851-36.2531Z"/>
   <path class="multicolor-0:systemIndigoColor hierarchical-0:primary SFSymbolsPreview5856D6" d="M58.6942-85.4103C31.5011-85.4103 9.53709-63.3699 9.53709-36.2531C9.53709-9.13635 31.5775 12.904 58.6942 12.904C85.8874 12.904 107.851-9.13635 107.851-36.2531C107.851-63.3699 85.7874-85.4103 58.6942-85.4103Z"/>
   <path class="multicolor-1:systemPinkColor hierarchical-1:secondary clearBehindLayer SFSymbolsPreviewFF2D55" d="M94.493-15.2127C86.5638-13.9363 80.5582-15.5127 75.2054-18.5655C85.111-22.1419 93.393-27.2711 100.122-34.1767C99.7458-27.2711 97.7458-20.8419 94.493-15.2127ZM58.6942-77.7811C78.8818-77.7811 95.7694-63.2463 99.4458-44.1587C91.1402-33.5003 80.3346-27.3475 67.8998-23.7947C66.2234-25.1711 64.6234-26.5711 62.947-28.0475C52.2886-37.4295 40.3067-47.9351 17.4663-41.5059C20.0427-61.9699 37.5303-77.7811 58.6942-77.7811ZM59.2942-21.7183C47.4122-19.4419 34.3775-18.9419 21.0191-18.9419C18.8427-23.5947 17.5663-28.6475 17.2663-33.9767C37.8303-40.7059 47.3359-32.3003 58.2178-22.6947C58.5942-22.3183 58.8942-22.0183 59.2942-21.7183ZM58.6942 5.27484C44.9595 5.27484 32.7775-1.45436 25.1719-11.7363C38.5067-11.8363 53.065-12.6127 66.2998-15.8891C72.329-11.3599 79.4582-7.78355 88.6638-7.68355C81.1346 0.322042 70.4762 5.27484 58.6942 5.27484Z"/>
  </g>
  <g id="Bold-S" transform="matrix(1 0 0 1 2282.55 696)">
   <path class="SFSymbolsPreviewNone" d="M106.22-35.25C106.22-8.43658 84.4834 13.3 57.67 13.3C30.8566 13.3 9.12-8.43658 9.12-35.25C9.12-62.0634 30.8566-83.8 57.67-83.8C84.4834-83.8 106.22-62.0634 106.22-35.25Z"/>
   <path class="multicolor-0:systemIndigoColor hierarchical-0:primary SFSymbolsPreview5856D6" d="M57.67-83.8C30.82-83.8 9.12-62.05 9.12-35.25C9.12-8.45 30.87 13.3 57.67 13.3C84.52 13.3 106.22-8.45 106.22-35.25C106.22-62.05 84.42-83.8 57.67-83.8Z"/>
   <path class="multicolor-1:systemPinkColor hierarchical-1:secondary clearBehindLayer SFSymbolsPreviewFF2D55" d="M93.02-14.5C85.17-13.25 79.27-14.8 73.97-17.8C83.77-21.35 91.92-26.4 98.57-33.2C98.22-26.4 96.22-20.05 93.02-14.5ZM57.67-76.25C77.62-76.25 94.27-61.9 97.92-43.05C89.72-32.55 79.02-26.45 66.77-22.95C65.12-24.3 63.52-25.7 61.87-27.15C51.37-36.4 39.52-46.8 16.97-40.45C19.52-60.65 36.77-76.25 57.67-76.25ZM58.27-20.9C46.52-18.65 33.67-18.15 20.47-18.15C18.32-22.75 17.07-27.75 16.77-33C37.07-39.65 46.47-31.35 57.22-21.85C57.57-21.5 57.87-21.2 58.27-20.9ZM57.67 5.75C44.12 5.75 32.07-0.9 24.57-11.05C37.72-11.15 52.12-11.9 65.17-15.15C71.12-10.7 78.17-7.15 87.27-7.05C79.82 0.85 69.32 5.75 57.67 5.75Z"/>
  </g>
  <g id="Semibold-S" transform="matrix(1 0 0 1 1986.72 696)">
   <path class="SFSymbolsPreviewNone" d="M105.095-34.5584C105.095-7.97616 83.5461 13.573 56.9638 13.573C30.3816 13.573 8.83244-7.97616 8.83244-34.5584C8.83244-61.1406 30.3816-82.6898 56.9638-82.6898C83.5461-82.6898 105.095-61.1406 105.095-34.5584Z"/>
   <path class="multicolor-0:systemIndigoColor hierarchical-0:primary SFSymbolsPreview5856D6" d="M56.9638-82.6898C30.3504-82.6898 8.83244-61.14 8.83244-34.5584C8.83244-7.9768 30.3822 13.573 56.9638 13.573C83.5772 13.573 105.095-7.9768 105.095-34.5584C105.095-61.14 83.4772-82.6898 56.9638-82.6898Z"/>
   <path class="multicolor-1:systemPinkColor hierarchical-1:secondary clearBehindLayer SFSymbolsPreviewFF2D55" d="M92.0044-14.0086C84.209-12.7768 78.3818-14.3086 73.1182-17.2722C82.8454-20.804 90.9044-25.7994 97.4998-32.5266C97.168-25.7994 95.168-19.504 92.0044-14.0086ZM56.9638-75.1944C76.75-75.1944 93.2362-60.9718 96.868-42.2856C88.7408-31.8948 78.1136-25.8312 65.991-22.3676C64.3592-23.6994 62.7592-25.0994 61.1274-26.5312C50.7366-35.6902 38.9776-46.0174 16.6278-39.722C19.1596-59.74 36.2458-75.1944 56.9638-75.1944ZM57.5638-20.3358C45.9048-18.104 33.1822-17.604 20.0914-17.604C17.9596-22.1676 16.7278-27.1312 16.4278-32.3266C36.5458-38.922 45.873-30.6948 56.532-21.2676C56.8638-20.9358 57.1638-20.6358 57.5638-20.3358ZM56.9638 6.0776C43.5412 6.0776 31.5822-0.5178 24.155-10.5768C37.1776-10.6768 51.4684-11.4086 64.391-14.6404C70.2864-10.245 77.2818-6.7132 86.309-6.6132C78.9136 1.214 68.5228 6.0776 56.9638 6.0776Z"/>
  </g>
  <g id="Medium-S" transform="matrix(1 0 0 1 1690.68 696)">
   <path class="SFSymbolsPreviewNone" d="M104.242-34.034C104.242-7.62706 82.8353 13.78 56.4284 13.78C30.0215 13.78 8.6144-7.62706 8.6144-34.034C8.6144-60.4409 30.0215-81.848 56.4284-81.848C82.8353-81.848 104.242-60.4409 104.242-34.034Z"/>
   <path class="multicolor-0:systemIndigoColor hierarchical-0:primary SFSymbolsPreview5856D6" d="M56.4284-81.848C29.9944-81.848 8.6144-60.45 8.6144-34.034C8.6144-7.618 30.0124 13.78 56.4284 13.78C82.8624 13.78 104.242-7.618 104.242-34.034C104.242-60.45 82.7624-81.848 56.4284-81.848Z"/>
   <path class="multicolor-1:systemPinkColor hierarchical-1:secondary clearBehindLayer SFSymbolsPreviewFF2D55" d="M91.2344-13.636C83.4804-12.418 77.7084-13.936 72.4724-16.872C82.1444-20.39 90.1344-25.344 96.6884-32.016C96.3704-25.344 94.3704-19.09 91.2344-13.636ZM56.4284-74.394C76.0904-74.394 92.4524-60.268 96.0704-41.706C87.9984-31.398 77.4264-25.362 65.4004-21.926C63.7824-23.244 62.1824-24.644 60.5644-26.062C50.2564-35.152 38.5664-45.424 16.3684-39.17C18.8864-59.05 35.8484-74.394 56.4284-74.394ZM57.0284-19.908C45.4384-17.69 32.8124-17.19 19.8044-17.19C17.6864-21.726 16.4684-26.662 16.1684-31.816C36.1484-38.37 45.4204-30.198 56.0104-20.826C56.3284-20.508 56.6284-20.208 57.0284-19.908ZM56.4284 6.326C43.1024 6.326 31.2124-0.228 23.8404-10.218C36.7664-10.318 50.9744-11.036 63.8004-14.254C69.6544-9.9 76.6084-6.382 85.5804-6.282C78.2264 1.49 67.9184 6.326 56.4284 6.326Z"/>
  </g>
  <g id="Regular-S" transform="matrix(1 0 0 1 1394.84 696)">
   <path class="SFSymbolsPreviewNone" d="M103.13-33.35C103.13-7.1717 81.9083 14.05 55.73 14.05C29.5517 14.05 8.33-7.1717 8.33-33.35C8.33-59.5283 29.5517-80.75 55.73-80.75C81.9083-80.75 103.13-59.5283 103.13-33.35Z"/>
   <path class="multicolor-0:systemIndigoColor hierarchical-0:primary SFSymbolsPreview5856D6" d="M55.73-80.75C29.53-80.75 8.33-59.55 8.33-33.35C8.33-7.15 29.53 14.05 55.73 14.05C81.93 14.05 103.13-7.15 103.13-33.35C103.13-59.55 81.83-80.75 55.73-80.75Z"/>
   <path class="multicolor-1:systemPinkColor hierarchical-1:secondary clearBehindLayer SFSymbolsPreviewFF2D55" d="M90.23-13.15C82.53-11.95 76.83-13.45 71.63-16.35C81.23-19.85 89.13-24.75 95.63-31.35C95.33-24.75 93.33-18.55 90.23-13.15ZM55.73-73.35C75.23-73.35 91.43-59.35 95.03-40.95C87.03-30.75 76.53-24.75 64.63-21.35C63.03-22.65 61.43-24.05 59.83-25.45C49.63-34.45 38.03-44.65 16.03-38.45C18.53-58.15 35.33-73.35 55.73-73.35ZM56.33-19.35C44.83-17.15 32.33-16.65 19.43-16.65C17.33-21.15 16.13-26.05 15.83-31.15C35.63-37.65 44.83-29.55 55.33-20.25C55.63-19.95 55.93-19.65 56.33-19.35ZM55.73 6.65C42.53 6.65 30.73 0.15 23.43-9.75C36.23-9.85 50.33-10.55 63.03-13.75C68.83-9.45 75.73-5.95 84.63-5.85C77.33 1.85 67.13 6.65 55.73 6.65Z"/>
  </g>
  <g id="Light-S" transform="matrix(1 0 0 1 1099.23 696)">
   <path class="SFSymbolsPreviewNone" d="M100.043-34.0833C100.043-8.75187 79.5081 11.7833 54.1767 11.7833C28.8452 11.7833 8.31-8.75187 8.31-34.0833C8.31-59.4148 28.8452-79.95 54.1767-79.95C79.5081-79.95 100.043-59.4148 100.043-34.0833Z"/>
   <path class="multicolor-0:systemIndigoColor hierarchical-0:primary SFSymbolsPreview5856D6" d="M54.1767-79.95C28.8433-79.95 8.31-59.4167 8.31-34.0833C8.31-8.71667 28.8433 11.8167 54.1767 11.8167C79.5433 11.8167 100.043-8.71667 100.043-34.05C100.077-59.4167 79.4767-79.95 54.1767-79.95Z"/>
   <path class="multicolor-1:systemPinkColor hierarchical-1:secondary clearBehindLayer SFSymbolsPreviewFF2D55" d="M87.5767-14.5167C80.1433-13.35 74.5767-14.7833 69.5767-17.6167C78.8767-20.9833 86.5433-25.75 92.8433-32.1167C92.5433-25.7167 90.61-19.7167 87.5767-14.5167ZM54.1767-72.8167C73.0433-72.8167 88.7433-59.2833 92.21-41.45C84.4767-31.55 74.3433-25.75 62.81-22.45C61.2767-23.7167 59.71-25.05 58.1767-26.4167C48.2767-35.15 37.0433-45.0167 15.7433-38.9833C18.1767-58.05 34.4433-72.8167 54.1767-72.8167ZM54.7767-20.5167C43.6433-18.3833 31.5433-17.9167 19.0433-17.8833C17.01-22.2167 15.8433-26.9833 15.5433-31.9167C34.71-38.1833 43.61-30.3833 53.7767-21.3833C54.0767-21.0833 54.3767-20.8167 54.7767-20.5167ZM54.1767 4.65C41.3767 4.65 29.9767-1.61667 22.91-11.2167C35.31-11.3167 48.9433-11.9833 61.2767-15.0833C66.91-10.9167 73.5433-7.51667 82.1767-7.41667C75.11 0.0166667 65.21 4.65 54.1767 4.65Z"/>
  </g>
  <g id="Thin-S" transform="matrix(1 0 0 1 803.977 696)">
   <path class="SFSymbolsPreviewNone" d="M95.961-35.0532C95.961-10.8418 76.3337 8.78548 52.1223 8.78548C27.9108 8.78548 8.28355-10.8418 8.28355-35.0532C8.28355-59.2647 27.9108-78.8919 52.1223-78.8919C76.3337-78.8919 95.961-59.2647 95.961-35.0532Z"/>
   <path class="multicolor-0:systemIndigoColor hierarchical-0:primary SFSymbolsPreview5856D6" d="M52.1223-78.8919C27.9352-78.8919 8.28355-59.2403 8.28355-35.0532C8.28355-10.7887 27.9352 8.8629 52.1223 8.8629C76.3868 8.8629 95.961-10.7887 95.961-34.9758C96.0384-59.2403 76.3642-78.8919 52.1223-78.8919Z"/>
   <path class="multicolor-1:systemPinkColor hierarchical-1:secondary clearBehindLayer SFSymbolsPreviewFF2D55" d="M84.0674-16.3242C76.9868-15.2016 71.5965-16.5468 66.861-19.2919C75.7642-22.4823 83.1223-27.0726 89.1577-33.1306C88.8577-26.9952 87.0126-21.2597 84.0674-16.3242ZM52.1223-72.1113C70.1513-72.1113 85.19-59.1952 88.4803-42.1113C81.0997-32.6081 71.4513-27.0726 60.4029-23.9048C58.9577-25.1274 57.4352-26.3726 55.99-27.6952C46.4868-36.0758 35.7384-45.5016 15.3642-39.6887C17.7094-57.9177 33.2706-72.1113 52.1223-72.1113ZM52.7223-22.0597C42.0739-20.0145 30.5029-19.5919 18.5319-19.5145C16.5868-23.6274 15.4642-28.2177 15.1642-32.9306C33.4932-38.8887 41.9965-31.4855 51.7223-22.8823C52.0223-22.5823 52.3223-22.3597 52.7223-22.0597ZM52.1223 2.00484C39.8513 2.00484 28.9803-3.95323 22.2223-13.1565C34.0932-13.2565 47.1094-13.879 58.9577-16.8468C64.3706-12.8565 70.6513-9.58871 78.9319-9.48871C72.1739-2.40806 62.6706 2.00484 52.1223 2.00484Z"/>
  </g>
  <g id="Ultralight-S" transform="matrix(1 0 0 1 508.011 696)">
   <path class="SFSymbolsPreviewNone" d="M93.87-35.55C93.87-11.9122 74.7078 7.25 51.07 7.25C27.4322 7.25 8.27-11.9122 8.27-35.55C8.27-59.1878 27.4322-78.35 51.07-78.35C74.7078-78.35 93.87-59.1878 93.87-35.55Z"/>
   <path class="multicolor-0:systemIndigoColor hierarchical-0:primary SFSymbolsPreview5856D6" d="M51.07-78.35C27.47-78.35 8.27-59.15 8.27-35.55C8.27-11.85 27.47 7.35 51.07 7.35C74.77 7.35 93.87-11.85 93.87-35.45C93.97-59.15 74.77-78.35 51.07-78.35Z"/>
   <path class="multicolor-1:systemPinkColor hierarchical-1:secondary clearBehindLayer SFSymbolsPreviewFF2D55" d="M82.27-17.25C75.37-16.15 70.07-17.45 65.47-20.15C74.17-23.25 81.37-27.75 87.27-33.65C86.97-27.65 85.17-22.05 82.27-17.25ZM51.07-71.75C68.67-71.75 83.37-59.15 86.57-42.45C79.37-33.15 69.97-27.75 59.17-24.65C57.77-25.85 56.27-27.05 54.87-28.35C45.57-36.55 35.07-45.75 15.17-40.05C17.47-57.85 32.67-71.75 51.07-71.75ZM51.67-22.85C41.27-20.85 29.97-20.45 18.27-20.35C16.37-24.35 15.27-28.85 14.97-33.45C32.87-39.25 41.17-32.05 50.67-23.65C50.97-23.35 51.27-23.15 51.67-22.85ZM51.07 0.65C39.07 0.65 28.47-5.15 21.87-14.15C33.47-14.25 46.17-14.85 57.77-17.75C63.07-13.85 69.17-10.65 77.27-10.55C70.67-3.65 61.37 0.65 51.07 0.65Z"/>
  </g>
 </g>
</svg>
