<?xml version="1.0" encoding="UTF-8"?>
<!--Generator: Apple Native CoreSVG 149-->
<!DOCTYPE svg
PUBLIC "-//W3C//DTD SVG 1.1//EN"
       "http://www.w3.org/Graphics/SVG/1.1/DTD/svg11.dtd">
<svg version="1.1" xmlns="http://www.w3.org/2000/svg" xmlns:xlink="http://www.w3.org/1999/xlink" width="3300" height="2200">
 <!--glyph: "uni1001AC.medium", point size: 100.0, font version: "17.0d9e1", template writer version: "59"-->
 <g id="Notes">
  <rect height="2200" id="artboard" style="fill:white;opacity:1" width="3300" x="0" y="0"/>
  <line style="fill:none;stroke:black;opacity:1;stroke-width:0.5;" x1="263" x2="3036" y1="292" y2="292"/>
  <text style="stroke:none;fill:black;font-family:sans-serif;font-size:13;font-weight:bold;" transform="matrix(1 0 0 1 263 322)">Weight/Scale Variations</text>
  <text style="stroke:none;fill:black;font-family:sans-serif;font-size:13;text-anchor:middle;" transform="matrix(1 0 0 1 559.711 322)">Ultralight</text>
  <text style="stroke:none;fill:black;font-family:sans-serif;font-size:13;text-anchor:middle;" transform="matrix(1 0 0 1 856.422 322)">Thin</text>
  <text style="stroke:none;fill:black;font-family:sans-serif;font-size:13;text-anchor:middle;" transform="matrix(1 0 0 1 1153.13 322)">Light</text>
  <text style="stroke:none;fill:black;font-family:sans-serif;font-size:13;text-anchor:middle;" transform="matrix(1 0 0 1 1449.84 322)">Regular</text>
  <text style="stroke:none;fill:black;font-family:sans-serif;font-size:13;text-anchor:middle;" transform="matrix(1 0 0 1 1746.56 322)">Medium</text>
  <text style="stroke:none;fill:black;font-family:sans-serif;font-size:13;text-anchor:middle;" transform="matrix(1 0 0 1 2043.27 322)">Semibold</text>
  <text style="stroke:none;fill:black;font-family:sans-serif;font-size:13;text-anchor:middle;" transform="matrix(1 0 0 1 2339.98 322)">Bold</text>
  <text style="stroke:none;fill:black;font-family:sans-serif;font-size:13;text-anchor:middle;" transform="matrix(1 0 0 1 2636.69 322)">Heavy</text>
  <text style="stroke:none;fill:black;font-family:sans-serif;font-size:13;text-anchor:middle;" transform="matrix(1 0 0 1 2933.4 322)">Black</text>
  <line style="fill:none;stroke:black;opacity:1;stroke-width:0.5;" x1="263" x2="3036" y1="1903" y2="1903"/>
  <g transform="matrix(1 0 0 1 263 1933)">
   <path d="M9.24805 0.830078Q10.8691 0.830078 12.2949 0.214844Q13.7207-0.400391 14.8096-1.49414Q15.8984-2.58789 16.5186-4.01367Q17.1387-5.43945 17.1387-7.05078Q17.1387-8.66211 16.5186-10.0879Q15.8984-11.5137 14.8047-12.6074Q13.7109-13.7012 12.2852-14.3164Q10.8594-14.9316 9.23828-14.9316Q7.62695-14.9316 6.20117-14.3164Q4.77539-13.7012 3.69141-12.6074Q2.60742-11.5137 1.9873-10.0879Q1.36719-8.66211 1.36719-7.05078Q1.36719-5.43945 1.9873-4.01367Q2.60742-2.58789 3.69629-1.49414Q4.78516-0.400391 6.21094 0.214844Q7.63672 0.830078 9.24805 0.830078ZM9.24805-0.654297Q7.91992-0.654297 6.7627-1.14746Q5.60547-1.64062 4.73145-2.51953Q3.85742-3.39844 3.36426-4.56055Q2.87109-5.72266 2.87109-7.05078Q2.87109-8.37891 3.35938-9.54102Q3.84766-10.7031 4.72168-11.582Q5.5957-12.4609 6.75293-12.9541Q7.91016-13.4473 9.23828-13.4473Q10.5762-13.4473 11.7334-12.9541Q12.8906-12.4609 13.7695-11.582Q14.6484-10.7031 15.1465-9.54102Q15.6445-8.37891 15.6445-7.05078Q15.6445-5.72266 15.1514-4.56055Q14.6582-3.39844 13.7842-2.51953Q12.9102-1.64062 11.748-1.14746Q10.5859-0.654297 9.24805-0.654297ZM5.83984-7.04102Q5.83984-6.71875 6.04492-6.51855Q6.25-6.31836 6.5918-6.31836L8.50586-6.31836L8.50586-4.39453Q8.50586-4.0625 8.70605-3.85742Q8.90625-3.65234 9.22852-3.65234Q9.56055-3.65234 9.76562-3.85742Q9.9707-4.0625 9.9707-4.39453L9.9707-6.31836L11.8945-6.31836Q12.2266-6.31836 12.4316-6.51855Q12.6367-6.71875 12.6367-7.04102Q12.6367-7.37305 12.4316-7.57812Q12.2266-7.7832 11.8945-7.7832L9.9707-7.7832L9.9707-9.69727Q9.9707-10.0391 9.76562-10.2441Q9.56055-10.4492 9.22852-10.4492Q8.90625-10.4492 8.70605-10.2441Q8.50586-10.0391 8.50586-9.69727L8.50586-7.7832L6.5918-7.7832Q6.25-7.7832 6.04492-7.57812Q5.83984-7.37305 5.83984-7.04102Z"/>
  </g>
  <g transform="matrix(1 0 0 1 281.867 1933)">
   <path d="M11.709 2.91016Q13.75 2.91016 15.5518 2.12891Q17.3535 1.34766 18.7305-0.0292969Q20.1074-1.40625 20.8887-3.20801Q21.6699-5.00977 21.6699-7.05078Q21.6699-9.0918 20.8887-10.8936Q20.1074-12.6953 18.7305-14.0723Q17.3535-15.4492 15.5469-16.2305Q13.7402-17.0117 11.6992-17.0117Q9.6582-17.0117 7.85645-16.2305Q6.05469-15.4492 4.68262-14.0723Q3.31055-12.6953 2.5293-10.8936Q1.74805-9.0918 1.74805-7.05078Q1.74805-5.00977 2.5293-3.20801Q3.31055-1.40625 4.6875-0.0292969Q6.06445 1.34766 7.86621 2.12891Q9.66797 2.91016 11.709 2.91016ZM11.709 1.25Q9.98047 1.25 8.47656 0.605469Q6.97266-0.0390625 5.83496-1.17676Q4.69727-2.31445 4.05762-3.81836Q3.41797-5.32227 3.41797-7.05078Q3.41797-8.7793 4.05762-10.2832Q4.69727-11.7871 5.83008-12.9297Q6.96289-14.0723 8.4668-14.7119Q9.9707-15.3516 11.6992-15.3516Q13.4277-15.3516 14.9316-14.7119Q16.4355-14.0723 17.5781-12.9297Q18.7207-11.7871 19.3652-10.2832Q20.0098-8.7793 20.0098-7.05078Q20.0098-5.32227 19.3701-3.81836Q18.7305-2.31445 17.5928-1.17676Q16.4551-0.0390625 14.9463 0.605469Q13.4375 1.25 11.709 1.25ZM7.39258-7.04102Q7.39258-6.68945 7.62695-6.46484Q7.86133-6.24023 8.23242-6.24023L10.8789-6.24023L10.8789-3.57422Q10.8789-3.21289 11.1035-2.9834Q11.3281-2.75391 11.6797-2.75391Q12.0508-2.75391 12.2852-2.9834Q12.5195-3.21289 12.5195-3.57422L12.5195-6.24023L15.1758-6.24023Q15.5371-6.24023 15.7715-6.46484Q16.0059-6.68945 16.0059-7.04102Q16.0059-7.41211 15.7715-7.6416Q15.5371-7.87109 15.1758-7.87109L12.5195-7.87109L12.5195-10.5176Q12.5195-10.8984 12.2852-11.1279Q12.0508-11.3574 11.6797-11.3574Q11.3281-11.3574 11.1035-11.1279Q10.8789-10.8984 10.8789-10.5176L10.8789-7.87109L8.23242-7.87109Q7.85156-7.87109 7.62207-7.6416Q7.39258-7.41211 7.39258-7.04102Z"/>
  </g>
  <g transform="matrix(1 0 0 1 305.646 1933)">
   <path d="M14.9707 5.66406Q17.0605 5.66406 18.96 5.01465Q20.8594 4.36523 22.4512 3.19336Q24.043 2.02148 25.2197 0.429688Q26.3965-1.16211 27.0459-3.06641Q27.6953-4.9707 27.6953-7.05078Q27.6953-9.14062 27.0459-11.04Q26.3965-12.9395 25.2197-14.5312Q24.043-16.123 22.4512-17.2998Q20.8594-18.4766 18.9551-19.126Q17.0508-19.7754 14.9609-19.7754Q12.8711-19.7754 10.9717-19.126Q9.07227-18.4766 7.48535-17.2998Q5.89844-16.123 4.72168-14.5312Q3.54492-12.9395 2.90039-11.04Q2.25586-9.14062 2.25586-7.05078Q2.25586-4.9707 2.90527-3.06641Q3.55469-1.16211 4.72656 0.429688Q5.89844 2.02148 7.49023 3.19336Q9.08203 4.36523 10.9814 5.01465Q12.8809 5.66406 14.9707 5.66406ZM14.9707 3.84766Q13.1641 3.84766 11.5283 3.2959Q9.89258 2.74414 8.53516 1.74805Q7.17773 0.751953 6.17676-0.610352Q5.17578-1.97266 4.62891-3.6084Q4.08203-5.24414 4.08203-7.05078Q4.08203-8.86719 4.62891-10.5029Q5.17578-12.1387 6.17188-13.501Q7.16797-14.8633 8.52539-15.8594Q9.88281-16.8555 11.5186-17.4023Q13.1543-17.9492 14.9609-17.9492Q16.7773-17.9492 18.4131-17.4023Q20.0488-16.8555 21.4111-15.8594Q22.7734-14.8633 23.7695-13.501Q24.7656-12.1387 25.3174-10.5029Q25.8691-8.86719 25.8691-7.05078Q25.8789-5.24414 25.332-3.6084Q24.7852-1.97266 23.7842-0.610352Q22.7832 0.751953 21.4209 1.74805Q20.0586 2.74414 18.4229 3.2959Q16.7871 3.84766 14.9707 3.84766ZM9.45312-7.04102Q9.45312-6.66016 9.71191-6.41113Q9.9707-6.16211 10.3711-6.16211L14.0625-6.16211L14.0625-2.46094Q14.0625-2.06055 14.3115-1.80664Q14.5605-1.55273 14.9414-1.55273Q15.3516-1.55273 15.6055-1.80664Q15.8594-2.06055 15.8594-2.46094L15.8594-6.16211L19.5605-6.16211Q19.9609-6.16211 20.2148-6.41113Q20.4688-6.66016 20.4688-7.04102Q20.4688-7.45117 20.2148-7.70508Q19.9609-7.95898 19.5605-7.95898L15.8594-7.95898L15.8594-11.6504Q15.8594-12.0605 15.6055-12.3145Q15.3516-12.5684 14.9414-12.5684Q14.5605-12.5684 14.3115-12.3096Q14.0625-12.0508 14.0625-11.6504L14.0625-7.95898L10.3711-7.95898Q9.96094-7.95898 9.70703-7.70508Q9.45312-7.45117 9.45312-7.04102Z"/>
  </g>
  <text style="stroke:none;fill:black;font-family:sans-serif;font-size:13;font-weight:bold;" transform="matrix(1 0 0 1 263 1953)">Design Variations</text>
  <text style="stroke:none;fill:black;font-family:sans-serif;font-size:13;" transform="matrix(1 0 0 1 263 1971)">Symbols are supported in up to nine weights and three scales.</text>
  <text style="stroke:none;fill:black;font-family:sans-serif;font-size:13;" transform="matrix(1 0 0 1 263 1989)">For optimal layout with text and other symbols, vertically align</text>
  <text style="stroke:none;fill:black;font-family:sans-serif;font-size:13;" transform="matrix(1 0 0 1 263 2007)">symbols with the adjacent text.</text>
  <line style="fill:none;stroke:#00AEEF;stroke-width:0.5;opacity:1.0;" x1="776" x2="776" y1="1919" y2="1933"/>
  <g transform="matrix(1 0 0 1 776 1933)">
   <path d="M3.31055 0.15625Q3.70117 0.15625 3.91602-0.00976562Q4.13086-0.175781 4.26758-0.585938L5.52734-4.0332L11.2891-4.0332L12.5488-0.585938Q12.6855-0.175781 12.9004-0.00976562Q13.1152 0.15625 13.4961 0.15625Q13.8867 0.15625 14.1162-0.0585938Q14.3457-0.273438 14.3457-0.644531Q14.3457-0.869141 14.2383-1.17188L9.6582-13.3691Q9.48242-13.8184 9.17969-14.043Q8.87695-14.2676 8.4082-14.2676Q7.5-14.2676 7.17773-13.3789L2.59766-1.16211Q2.49023-0.859375 2.49023-0.634766Q2.49023-0.263672 2.70996-0.0537109Q2.92969 0.15625 3.31055 0.15625ZM6.00586-5.51758L8.37891-12.0898L8.42773-12.0898L10.8008-5.51758Z"/>
  </g>
  <line style="fill:none;stroke:#00AEEF;stroke-width:0.5;opacity:1.0;" x1="793.197" x2="793.197" y1="1919" y2="1933"/>
  <text style="stroke:none;fill:black;font-family:sans-serif;font-size:13;font-weight:bold;" transform="matrix(1 0 0 1 776 1953)">Margins</text>
  <text style="stroke:none;fill:black;font-family:sans-serif;font-size:13;" transform="matrix(1 0 0 1 776 1971)">Leading and trailing margins on the left and right side of each symbol</text>
  <text style="stroke:none;fill:black;font-family:sans-serif;font-size:13;" transform="matrix(1 0 0 1 776 1989)">can be adjusted by modifying the x-location of the margin guidelines.</text>
  <text style="stroke:none;fill:black;font-family:sans-serif;font-size:13;" transform="matrix(1 0 0 1 776 2007)">Modifications are automatically applied proportionally to all</text>
  <text style="stroke:none;fill:black;font-family:sans-serif;font-size:13;" transform="matrix(1 0 0 1 776 2025)">scales and weights.</text>
  <g transform="matrix(1 0 0 1 1289 1933)">
   <path d="M2.8418 1.86523L4.54102 3.57422Q5.18555 4.22852 5.90332 4.17969Q6.62109 4.13086 7.31445 3.35938L18.0078-8.42773L17.041-9.4043L6.42578 2.27539Q6.16211 2.57812 5.89355 2.61719Q5.625 2.65625 5.27344 2.30469L4.10156 1.14258Q3.75 0.791016 3.79395 0.522461Q3.83789 0.253906 4.14062-0.0195312L15.6152-10.8203L14.6387-11.7871L3.04688-0.898438Q2.30469-0.214844 2.25098 0.498047Q2.19727 1.21094 2.8418 1.86523ZM9.25781-16.3281Q8.94531-16.0254 8.90625-15.6348Q8.86719-15.2441 9.04297-14.9512Q9.21875-14.6777 9.55566-14.541Q9.89258-14.4043 10.3809-14.5215Q11.4746-14.7754 12.5977-14.7314Q13.7207-14.6875 14.7949-13.9844L14.209-12.5293Q13.9551-11.9043 14.0674-11.4404Q14.1797-10.9766 14.5801-10.5664L16.875-8.25195Q17.2363-7.88086 17.5781-7.82227Q17.9199-7.76367 18.3398-7.8418L19.4043-8.03711L20.0684-7.36328L20.0293-6.80664Q20-6.43555 20.1221-6.12305Q20.2441-5.81055 20.6055-5.44922L21.3672-4.70703Q21.7285-4.3457 22.1533-4.33105Q22.5781-4.31641 22.9297-4.66797L25.8398-7.58789Q26.1914-7.93945 26.1816-8.35449Q26.1719-8.76953 25.8105-9.13086L25.0391-9.89258Q24.6875-10.2539 24.3799-10.3857Q24.0723-10.5176 23.7109-10.4883L23.1348-10.4395L22.4902-11.0742L22.7344-12.1973Q22.832-12.6172 22.6953-12.9834Q22.5586-13.3496 22.1191-13.7891L19.9219-15.9766Q18.6719-17.2168 17.2607-17.8369Q15.8496-18.457 14.4189-18.4814Q12.9883-18.5059 11.665-17.959Q10.3418-17.4121 9.25781-16.3281ZM10.752-15.957Q11.6602-16.6211 12.7002-16.9043Q13.7402-17.1875 14.8047-17.085Q15.8691-16.9824 16.8701-16.5137Q17.8711-16.0449 18.7012-15.2051L21.1328-12.793Q21.3086-12.6172 21.3525-12.4512Q21.3965-12.2852 21.3379-12.0312L21.0156-10.5469L22.5195-9.0625L23.5059-9.12109Q23.6914-9.13086 23.7891-9.09668Q23.8867-9.0625 24.0332-8.91602L24.6094-8.33984L22.168-5.89844L21.5918-6.47461Q21.4453-6.62109 21.4062-6.71875Q21.3672-6.81641 21.377-7.01172L21.4453-7.98828L19.9512-9.47266L18.4277-9.21875Q18.1836-9.16992 18.042-9.2041Q17.9004-9.23828 17.7148-9.41406L15.7129-11.416Q15.5176-11.5918 15.4932-11.7529Q15.4688-11.9141 15.5859-12.1875L16.4648-14.2773Q15.293-15.3711 13.8281-15.791Q12.3633-16.2109 10.8398-15.7617Q10.7227-15.7324 10.6885-15.8057Q10.6543-15.8789 10.752-15.957Z"/>
  </g>
  <text style="stroke:none;fill:black;font-family:sans-serif;font-size:13;font-weight:bold;" transform="matrix(1 0 0 1 1289 1953)">Exporting</text>
  <text style="stroke:none;fill:black;font-family:sans-serif;font-size:13;" transform="matrix(1 0 0 1 1289 1971)">Symbols should be outlined when exporting to ensure the</text>
  <text style="stroke:none;fill:black;font-family:sans-serif;font-size:13;" transform="matrix(1 0 0 1 1289 1989)">design is preserved when submitting to Xcode.</text>
  <text id="template-version" style="stroke:none;fill:black;font-family:sans-serif;font-size:13;text-anchor:end;" transform="matrix(1 0 0 1 3036 1933)">Template v.3.0</text>
  <text style="stroke:none;fill:black;font-family:sans-serif;font-size:13;text-anchor:end;" transform="matrix(1 0 0 1 3036 1951)">Requires Xcode 13 or greater</text>
  <text id="descriptive-name" style="stroke:none;fill:black;font-family:sans-serif;font-size:13;text-anchor:end;" transform="matrix(1 0 0 1 3036 1969)">Generated from sun.min.fill</text>
  <text style="stroke:none;fill:black;font-family:sans-serif;font-size:13;text-anchor:end;" transform="matrix(1 0 0 1 3036 1987)">Typeset at 100 points</text>
  <text style="stroke:none;fill:black;font-family:sans-serif;font-size:13;" transform="matrix(1 0 0 1 263 726)">Small</text>
  <text style="stroke:none;fill:black;font-family:sans-serif;font-size:13;" transform="matrix(1 0 0 1 263 1156)">Medium</text>
  <text style="stroke:none;fill:black;font-family:sans-serif;font-size:13;" transform="matrix(1 0 0 1 263 1586)">Large</text>
 </g>
 <g id="Guides">
  <g id="H-reference" style="fill:#27AAE1;stroke:none;" transform="matrix(1 0 0 1 339 696)">
   <path d="M0.993347 0L3.6377 0L29.3282-67.1326L30.0301-67.1326L30.0301-70.459L28.1227-70.459ZM11.6882-24.4797L46.9818-24.4797L46.2311-26.7288L12.4382-26.7288ZM55.1193 0L57.7637 0L30.6381-70.459L29.4327-70.459L29.4327-67.1326Z"/>
  </g>
  <line id="Baseline-S" style="fill:none;stroke:#27AAE1;opacity:1;stroke-width:0.5;" x1="263" x2="3036" y1="696" y2="696"/>
  <line id="Capline-S" style="fill:none;stroke:#27AAE1;opacity:1;stroke-width:0.5;" x1="263" x2="3036" y1="625.541" y2="625.541"/>
  <g id="H-reference" style="fill:#27AAE1;stroke:none;" transform="matrix(1 0 0 1 339 1126)">
   <path d="M0.993347 0L3.6377 0L29.3282-67.1326L30.0301-67.1326L30.0301-70.459L28.1227-70.459ZM11.6882-24.4797L46.9818-24.4797L46.2311-26.7288L12.4382-26.7288ZM55.1193 0L57.7637 0L30.6381-70.459L29.4327-70.459L29.4327-67.1326Z"/>
  </g>
  <line id="Baseline-M" style="fill:none;stroke:#27AAE1;opacity:1;stroke-width:0.5;" x1="263" x2="3036" y1="1126" y2="1126"/>
  <line id="Capline-M" style="fill:none;stroke:#27AAE1;opacity:1;stroke-width:0.5;" x1="263" x2="3036" y1="1055.54" y2="1055.54"/>
  <g id="H-reference" style="fill:#27AAE1;stroke:none;" transform="matrix(1 0 0 1 339 1556)">
   <path d="M0.993347 0L3.6377 0L29.3282-67.1326L30.0301-67.1326L30.0301-70.459L28.1227-70.459ZM11.6882-24.4797L46.9818-24.4797L46.2311-26.7288L12.4382-26.7288ZM55.1193 0L57.7637 0L30.6381-70.459L29.4327-70.459L29.4327-67.1326Z"/>
  </g>
  <line id="Baseline-L" style="fill:none;stroke:#27AAE1;opacity:1;stroke-width:0.5;" x1="263" x2="3036" y1="1556" y2="1556"/>
  <line id="Capline-L" style="fill:none;stroke:#27AAE1;opacity:1;stroke-width:0.5;" x1="263" x2="3036" y1="1485.54" y2="1485.54"/>
  <line id="left-margin-Regular-M" style="fill:none;stroke:#00AEEF;stroke-width:0.5;opacity:1.0;" x1="1392.13" x2="1392.13" y1="1030.79" y2="1150.12"/>
  <line id="right-margin-Regular-M" style="fill:none;stroke:#00AEEF;stroke-width:0.5;opacity:1.0;" x1="1507.56" x2="1507.56" y1="1030.79" y2="1150.12"/>
 </g>
 <g id="Symbols">
  <g id="Black-L" transform="matrix(1 0 0 1 2854.32 1556)">
   <path d="M79.0527 0.634766Q86.4258 0.634766 92.9199-2.17285Q99.4141-4.98047 104.37-9.93652Q109.326-14.8926 112.158-21.3867Q114.99-27.8809 114.99-35.2539Q114.99-42.627 112.158-49.1211Q109.326-55.6152 104.37-60.5713Q99.4141-65.5273 92.9199-68.335Q86.4258-71.1426 79.0527-71.1426Q71.7285-71.1426 65.21-68.335Q58.6914-65.5273 53.7598-60.5713Q48.8281-55.6152 45.9961-49.1211Q43.1641-42.627 43.1641-35.2539Q43.1641-27.8809 45.9717-21.3623Q48.7793-14.8438 53.7109-9.91211Q58.6426-4.98047 65.1611-2.17285Q71.6797 0.634766 79.0527 0.634766ZM20.8496-25.7324Q24.8047-25.7324 27.6123-28.5156Q30.4199-31.2988 30.4199-35.2539Q30.4199-39.2578 27.6123-42.041Q24.8047-44.8242 20.8496-44.8242Q16.8457-44.8242 14.0625-42.041Q11.2793-39.2578 11.2793-35.2539Q11.2793-31.2988 14.0625-28.5156Q16.8457-25.7324 20.8496-25.7324ZM37.8906-66.8945Q41.8457-66.8945 44.6533-69.6777Q47.4609-72.4609 47.4609-76.4648Q47.4609-80.4199 44.6533-83.2275Q41.8457-86.0352 37.8906-86.0352Q33.9355-86.0352 31.1279-83.2275Q28.3203-80.4199 28.3203-76.4648Q28.3203-72.4609 31.1279-69.6777Q33.9355-66.8945 37.8906-66.8945ZM79.0527-83.9355Q83.0566-83.9355 85.8398-86.7432Q88.623-89.5508 88.623-93.5059Q88.623-97.4609 85.8398-100.269Q83.0566-103.076 79.0527-103.076Q75.0977-103.076 72.3145-100.269Q69.5312-97.4609 69.5312-93.5059Q69.5312-89.5508 72.3145-86.7432Q75.0977-83.9355 79.0527-83.9355ZM120.264-66.8945Q124.219-66.8945 127.026-69.6777Q129.834-72.4609 129.834-76.4648Q129.834-80.4199 127.026-83.2275Q124.219-86.0352 120.264-86.0352Q116.309-86.0352 113.501-83.2275Q110.693-80.4199 110.693-76.4648Q110.693-72.4609 113.501-69.6777Q116.309-66.8945 120.264-66.8945ZM137.305-25.7324Q141.309-25.7324 144.092-28.5156Q146.875-31.2988 146.875-35.2539Q146.875-39.2578 144.092-42.041Q141.309-44.8242 137.305-44.8242Q133.35-44.8242 130.542-42.041Q127.734-39.2578 127.734-35.2539Q127.734-31.2988 130.542-28.5156Q133.35-25.7324 137.305-25.7324ZM120.264 15.4785Q124.219 15.4785 127.026 12.6953Q129.834 9.91211 129.834 5.9082Q129.834 1.95312 127.026-0.854492Q124.219-3.66211 120.264-3.66211Q116.309-3.66211 113.501-0.854492Q110.693 1.95312 110.693 5.9082Q110.693 9.91211 113.501 12.6953Q116.309 15.4785 120.264 15.4785ZM79.0527 32.5195Q83.0566 32.5195 85.8398 29.7363Q88.623 26.9531 88.623 22.9492Q88.623 18.9941 85.8398 16.2109Q83.0566 13.4277 79.0527 13.4277Q75.0977 13.4277 72.3145 16.2109Q69.5312 18.9941 69.5312 22.9492Q69.5312 26.9531 72.3145 29.7363Q75.0977 32.5195 79.0527 32.5195ZM37.8906 15.4785Q41.8457 15.4785 44.6533 12.6953Q47.4609 9.91211 47.4609 5.9082Q47.4609 1.95312 44.6533-0.854492Q41.8457-3.66211 37.8906-3.66211Q33.9355-3.66211 31.1279-0.854492Q28.3203 1.95312 28.3203 5.9082Q28.3203 9.91211 31.1279 12.6953Q33.9355 15.4785 37.8906 15.4785Z"/>
  </g>
  <g id="Heavy-L" transform="matrix(1 0 0 1 2558.88 1556)">
   <path d="M77.7969-0.42572Q84.951-0.42572 91.2548-3.15247Q97.5586-5.87921 102.365-10.6915Q107.171-15.5037 109.917-21.8018Q112.663-28.0998 112.663-35.2539Q112.663-42.408 109.917-48.7122Q107.171-55.0163 102.365-59.8282Q97.5586-64.64 91.2548-67.3668Q84.951-70.0935 77.7969-70.0935Q70.6795-70.0935 64.357-67.3668Q58.0345-64.64 53.2413-59.8282Q48.4482-55.0163 45.7024-48.7122Q42.9565-42.408 42.9565-35.2539Q42.9565-28.0998 45.6837-21.7831Q48.4108-15.4663 53.204-10.6728Q57.9971-5.87921 64.32-3.15247Q70.6429-0.42572 77.7969-0.42572ZM20.2156-26.3664Q23.8945-26.3664 26.5175-28.965Q29.1405-31.5636 29.1405-35.2539Q29.1405-38.9809 26.5175-41.5855Q23.8945-44.1902 20.2156-44.1902Q16.4886-44.1902 13.884-41.5855Q11.2793-38.9809 11.2793-35.2539Q11.2793-31.5636 13.884-28.965Q16.4886-26.3664 20.2156-26.3664ZM37.0605-67.0906Q40.7509-67.0906 43.3743-69.6953Q45.9976-72.3 45.9976-76.0269Q45.9976-79.7173 43.3743-82.3345Q40.7509-84.9518 37.0605-84.9518Q33.371-84.9518 30.7533-82.3345Q28.1357-79.7173 28.1357-76.0269Q28.1357-72.3 30.7533-69.6953Q33.371-67.0906 37.0605-67.0906ZM77.7969-83.947Q81.5239-83.947 84.1228-86.5704Q86.7218-89.1937 86.7218-92.8719Q86.7218-96.5622 84.1228-99.1852Q81.5239-101.808 77.7969-101.808Q74.1066-101.808 71.5019-99.1852Q68.8972-96.5622 68.8972-92.8719Q68.8972-89.1937 71.5019-86.5704Q74.1066-83.947 77.7969-83.947ZM118.558-67.0906Q122.248-67.0906 124.871-69.6953Q127.495-72.3 127.495-76.0269Q127.495-79.7173 124.871-82.3345Q122.248-84.9518 118.558-84.9518Q114.868-84.9518 112.251-82.3345Q109.633-79.7173 109.633-76.0269Q109.633-72.3 112.251-69.6953Q114.868-67.0906 118.558-67.0906ZM135.415-26.3664Q139.142-26.3664 141.741-28.965Q144.34-31.5636 144.34-35.2539Q144.34-38.9809 141.741-41.5855Q139.142-44.1902 135.415-44.1902Q131.725-44.1902 129.102-41.5855Q126.479-38.9809 126.479-35.2539Q126.479-31.5636 129.102-28.965Q131.725-26.3664 135.415-26.3664ZM118.558 14.4066Q122.248 14.4066 124.871 11.8019Q127.495 9.19724 127.495 5.47028Q127.495 1.77994 124.871-0.843048Q122.248-3.46603 118.558-3.46603Q114.868-3.46603 112.251-0.843048Q109.633 1.77994 109.633 5.47028Q109.633 9.19724 112.251 11.8019Q114.868 14.4066 118.558 14.4066ZM77.7969 31.2515Q81.5239 31.2515 84.1228 28.653Q86.7218 26.0544 86.7218 22.3267Q86.7218 18.6371 84.1228 16.0324Q81.5239 13.4277 77.7969 13.4277Q74.1066 13.4277 71.5019 16.0324Q68.8972 18.6371 68.8972 22.3267Q68.8972 26.0544 71.5019 28.653Q74.1066 31.2515 77.7969 31.2515ZM37.0605 14.4066Q40.7509 14.4066 43.3743 11.8019Q45.9976 9.19724 45.9976 5.47028Q45.9976 1.77994 43.3743-0.843048Q40.7509-3.46603 37.0605-3.46603Q33.371-3.46603 30.7533-0.843048Q28.1357 1.77994 28.1357 5.47028Q28.1357 9.19724 30.7533 11.8019Q33.371 14.4066 37.0605 14.4066Z"/>
  </g>
  <g id="Bold-L" transform="matrix(1 0 0 1 2263.59 1556)">
   <path d="M76.3916-1.61133Q83.3008-1.61133 89.3921-4.24805Q95.4834-6.88477 100.122-11.5356Q104.761-16.1865 107.41-22.2656Q110.059-28.3447 110.059-35.2539Q110.059-42.1631 107.41-48.2544Q104.761-54.3457 100.122-58.9966Q95.4834-63.6475 89.3921-66.2842Q83.3008-68.9209 76.3916-68.9209Q69.5068-68.9209 63.4033-66.2842Q57.2998-63.6475 52.6611-58.9966Q48.0225-54.3457 45.3735-48.2544Q42.7246-42.1631 42.7246-35.2539Q42.7246-28.3447 45.3613-22.2534Q47.998-16.1621 52.6367-11.5234Q57.2754-6.88477 63.3789-4.24805Q69.4824-1.61133 76.3916-1.61133ZM19.5068-27.0752Q22.876-27.0752 25.293-29.4678Q27.71-31.8604 27.71-35.2539Q27.71-38.6719 25.293-41.0767Q22.876-43.4814 19.5068-43.4814Q16.0889-43.4814 13.6841-41.0767Q11.2793-38.6719 11.2793-35.2539Q11.2793-31.8604 13.6841-29.4678Q16.0889-27.0752 19.5068-27.0752ZM36.1328-67.3096Q39.5264-67.3096 41.9434-69.7144Q44.3604-72.1191 44.3604-75.5371Q44.3604-78.9307 41.9434-81.3354Q39.5264-83.7402 36.1328-83.7402Q32.7393-83.7402 30.3345-81.3354Q27.9297-78.9307 27.9297-75.5371Q27.9297-72.1191 30.3345-69.7144Q32.7393-67.3096 36.1328-67.3096ZM76.3916-83.96Q79.8096-83.96 82.2021-86.377Q84.5947-88.7939 84.5947-92.1631Q84.5947-95.5566 82.2021-97.9736Q79.8096-100.391 76.3916-100.391Q72.998-100.391 70.5933-97.9736Q68.1885-95.5566 68.1885-92.1631Q68.1885-88.7939 70.5933-86.377Q72.998-83.96 76.3916-83.96ZM116.65-67.3096Q120.044-67.3096 122.461-69.7144Q124.878-72.1191 124.878-75.5371Q124.878-78.9307 122.461-81.3354Q120.044-83.7402 116.65-83.7402Q113.257-83.7402 110.852-81.3354Q108.447-78.9307 108.447-75.5371Q108.447-72.1191 110.852-69.7144Q113.257-67.3096 116.65-67.3096ZM133.301-27.0752Q136.719-27.0752 139.111-29.4678Q141.504-31.8604 141.504-35.2539Q141.504-38.6719 139.111-41.0767Q136.719-43.4814 133.301-43.4814Q129.907-43.4814 127.49-41.0767Q125.073-38.6719 125.073-35.2539Q125.073-31.8604 127.49-29.4678Q129.907-27.0752 133.301-27.0752ZM116.65 13.208Q120.044 13.208 122.461 10.8032Q124.878 8.39844 124.878 4.98047Q124.878 1.58691 122.461-0.830078Q120.044-3.24707 116.65-3.24707Q113.257-3.24707 110.852-0.830078Q108.447 1.58691 108.447 4.98047Q108.447 8.39844 110.852 10.8032Q113.257 13.208 116.65 13.208ZM76.3916 29.834Q79.8096 29.834 82.2021 27.4414Q84.5947 25.0488 84.5947 21.6309Q84.5947 18.2373 82.2021 15.8325Q79.8096 13.4277 76.3916 13.4277Q72.998 13.4277 70.5933 15.8325Q68.1885 18.2373 68.1885 21.6309Q68.1885 25.0488 70.5933 27.4414Q72.998 29.834 76.3916 29.834ZM36.1328 13.208Q39.5264 13.208 41.9434 10.8032Q44.3604 8.39844 44.3604 4.98047Q44.3604 1.58691 41.9434-0.830078Q39.5264-3.24707 36.1328-3.24707Q32.7393-3.24707 30.3345-0.830078Q27.9297 1.58691 27.9297 4.98047Q27.9297 8.39844 30.3345 10.8032Q32.7393 13.208 36.1328 13.208Z"/>
  </g>
  <g id="Semibold-L" transform="matrix(1 0 0 1 1967.85 1556)">
   <path d="M75.4227-2.4292Q82.1632-2.4292 88.1081-5.00374Q94.0529-7.57828 98.576-12.1178Q103.099-16.6573 105.681-22.5853Q108.263-28.5133 108.263-35.2539Q108.263-41.9945 105.681-47.9389Q103.099-53.8834 98.576-58.4232Q94.0529-62.9631 88.1081-65.5376Q82.1632-68.1122 75.4227-68.1122Q68.6981-68.1122 62.7457-65.5376Q56.7932-62.9631 52.2614-58.4232Q47.7295-53.8834 45.1469-47.9389Q42.5644-41.9945 42.5644-35.2539Q42.5644-28.5133 45.1389-22.5777Q47.7135-16.642 52.2457-12.1101Q56.778-7.57828 62.7304-5.00374Q68.6829-2.4292 75.4227-2.4292ZM19.0178-27.5642Q22.1741-27.5642 24.4488-29.8145Q26.7235-32.0648 26.7235-35.2539Q26.7235-38.4583 24.4488-40.7253Q22.1741-42.9924 19.0178-42.9924Q15.8134-42.9924 13.5464-40.7253Q11.2793-38.4583 11.2793-35.2539Q11.2793-32.0648 13.5464-29.8145Q15.8134-27.5642 19.0178-27.5642ZM35.4927-67.4606Q38.6818-67.4606 40.9569-69.7277Q43.232-71.9948 43.232-75.1991Q43.232-78.3882 40.9569-80.6465Q38.6818-82.9048 35.4927-82.9048Q32.3036-82.9048 30.0457-80.6465Q27.7878-78.3882 27.7878-75.1991Q27.7878-71.9948 30.0457-69.7277Q32.3036-67.4606 35.4927-67.4606ZM75.4227-83.9691Q78.6278-83.9691 80.8781-86.2438Q83.1284-88.5185 83.1284-91.674Q83.1284-94.8631 80.8781-97.1382Q78.6278-99.4133 75.4227-99.4133Q72.2336-99.4133 69.9665-97.1382Q67.6994-94.8631 67.6994-91.674Q67.6994-88.5185 69.9665-86.2438Q72.2336-83.9691 75.4227-83.9691ZM115.335-67.4606Q118.524-67.4606 120.799-69.7277Q123.074-71.9948 123.074-75.1991Q123.074-78.3882 120.799-80.6465Q118.524-82.9048 115.335-82.9048Q112.146-82.9048 109.888-80.6465Q107.629-78.3882 107.629-75.1991Q107.629-71.9948 109.888-69.7277Q112.146-67.4606 115.335-67.4606ZM131.844-27.5642Q135.048-27.5642 137.298-29.8145Q139.548-32.0648 139.548-35.2539Q139.548-38.4583 137.298-40.7253Q135.048-42.9924 131.844-42.9924Q128.654-42.9924 126.379-40.7253Q124.104-38.4583 124.104-35.2539Q124.104-32.0648 126.379-29.8145Q128.654-27.5642 131.844-27.5642ZM115.335 12.3817Q118.524 12.3817 120.799 10.1147Q123.074 7.8476 123.074 4.64249Q123.074 1.4534 120.799-0.821304Q118.524-3.09601 115.335-3.09601Q112.146-3.09601 109.888-0.821304Q107.629 1.4534 107.629 4.64249Q107.629 7.8476 109.888 10.1147Q112.146 12.3817 115.335 12.3817ZM75.4227 28.8567Q78.6278 28.8567 80.8781 26.606Q83.1284 24.3553 83.1284 21.151Q83.1284 17.9619 80.8781 15.6948Q78.6278 13.4277 75.4227 13.4277Q72.2336 13.4277 69.9665 15.6948Q67.6994 17.9619 67.6994 21.151Q67.6994 24.3553 69.9665 26.606Q72.2336 28.8567 75.4227 28.8567ZM35.4927 12.3817Q38.6818 12.3817 40.9569 10.1147Q43.232 7.8476 43.232 4.64249Q43.232 1.4534 40.9569-0.821304Q38.6818-3.09601 35.4927-3.09601Q32.3036-3.09601 30.0457-0.821304Q27.7878 1.4534 27.7878 4.64249Q27.7878 7.8476 30.0457 10.1147Q32.3036 12.3817 35.4927 12.3817Z"/>
  </g>
  <g id="Medium-L" transform="matrix(1 0 0 1 1671.88 1556)">
   <path d="M74.6887-3.04871Q81.3011-3.04871 87.1346-5.57594Q92.968-8.10318 97.4033-12.5587Q101.839-17.0143 104.37-22.8279Q106.902-28.6415 106.902-35.2539Q106.902-41.8663 104.37-47.6997Q101.839-53.5332 97.4033-57.9887Q92.968-62.4443 87.1346-64.9715Q81.3011-67.4988 74.6887-67.4988Q68.0847-67.4988 62.2471-64.9715Q56.4095-62.4443 51.9581-57.9887Q47.5067-53.5332 44.9749-47.6997Q42.4431-41.8663 42.4431-35.2539Q42.4431-28.6415 44.9707-22.8237Q47.4983-17.0059 51.9493-12.5546Q56.4003-8.10318 62.2383-5.57594Q68.0763-3.04871 74.6887-3.04871ZM18.6478-27.9343Q21.6415-27.9343 23.8087-30.077Q25.9758-32.2197 25.9758-35.2539Q25.9758-38.2965 23.8087-40.4594Q21.6415-42.6224 18.6478-42.6224Q15.6044-42.6224 13.4418-40.4594Q11.2793-38.2965 11.2793-35.2539Q11.2793-32.2197 13.4418-30.077Q15.6044-27.9343 18.6478-27.9343ZM35.0075-67.5751Q38.0417-67.5751 40.2088-69.7376Q42.3759-71.9002 42.3759-74.9435Q42.3759-77.9778 40.2088-80.1247Q38.0417-82.2716 35.0075-82.2716Q31.9733-82.2716 29.8264-80.1247Q27.6794-77.9778 27.6794-74.9435Q27.6794-71.9002 29.8264-69.7376Q31.9733-67.5751 35.0075-67.5751ZM74.6887-83.9752Q77.7313-83.9752 79.874-86.1423Q82.0168-88.3095 82.0168-91.304Q82.0168-94.3382 79.874-96.505Q77.7313-98.6717 74.6887-98.6717Q71.6545-98.6717 69.492-96.505Q67.3294-94.3382 67.3294-91.304Q67.3294-88.3095 69.492-86.1423Q71.6545-83.9752 74.6887-83.9752ZM114.338-67.5751Q117.372-67.5751 119.539-69.7376Q121.706-71.9002 121.706-74.9435Q121.706-77.9778 119.539-80.1247Q117.372-82.2716 114.338-82.2716Q111.304-82.2716 109.157-80.1247Q107.01-77.9778 107.01-74.9435Q107.01-71.9002 109.157-69.7376Q111.304-67.5751 114.338-67.5751ZM130.738-27.9343Q133.781-27.9343 135.924-30.077Q138.066-32.2197 138.066-35.2539Q138.066-38.2965 135.924-40.4594Q133.781-42.6224 130.738-42.6224Q127.704-42.6224 125.537-40.4594Q123.37-38.2965 123.37-35.2539Q123.37-32.2197 125.537-30.077Q127.704-27.9343 130.738-27.9343ZM114.338 11.7546Q117.372 11.7546 119.539 9.59206Q121.706 7.4295 121.706 4.3869Q121.706 1.35269 119.539-0.814438Q117.372-2.98157 114.338-2.98157Q111.304-2.98157 109.157-0.814438Q107.01 1.35269 107.01 4.3869Q107.01 7.4295 109.157 9.59206Q111.304 11.7546 114.338 11.7546ZM74.6887 28.1151Q77.7313 28.1151 79.874 25.9727Q82.0168 23.8304 82.0168 20.787Q82.0168 17.7528 79.874 15.5903Q77.7313 13.4277 74.6887 13.4277Q71.6545 13.4277 69.492 15.5903Q67.3294 17.7528 67.3294 20.787Q67.3294 23.8304 69.492 25.9727Q71.6545 28.1151 74.6887 28.1151ZM35.0075 11.7546Q38.0417 11.7546 40.2088 9.59206Q42.3759 7.4295 42.3759 4.3869Q42.3759 1.35269 40.2088-0.814438Q38.0417-2.98157 35.0075-2.98157Q31.9733-2.98157 29.8264-0.814438Q27.6794 1.35269 27.6794 4.3869Q27.6794 7.4295 29.8264 9.59206Q31.9733 11.7546 35.0075 11.7546Z"/>
  </g>
  <g id="Regular-L" transform="matrix(1 0 0 1 1376.14 1556)">
   <path d="M73.7305-3.85742Q80.1758-3.85742 85.8643-6.32324Q91.5527-8.78906 95.874-13.1348Q100.195-17.4805 102.661-23.1445Q105.127-28.8086 105.127-35.2539Q105.127-41.6992 102.661-47.3877Q100.195-53.0762 95.874-57.4219Q91.5527-61.7676 85.8643-64.2334Q80.1758-66.6992 73.7305-66.6992Q67.2852-66.6992 61.5967-64.2334Q55.9082-61.7676 51.5625-57.4219Q47.2168-53.0762 44.751-47.3877Q42.2852-41.6992 42.2852-35.2539Q42.2852-28.8086 44.751-23.1445Q47.2168-17.4805 51.5625-13.1348Q55.9082-8.78906 61.5967-6.32324Q67.2852-3.85742 73.7305-3.85742ZM18.1641-28.418Q20.9473-28.418 22.9736-30.4199Q25-32.4219 25-35.2539Q25-38.0859 22.9736-40.1123Q20.9473-42.1387 18.1641-42.1387Q15.332-42.1387 13.3057-40.1123Q11.2793-38.0859 11.2793-35.2539Q11.2793-32.4219 13.3057-30.4199Q15.332-28.418 18.1641-28.418ZM34.375-67.7246Q37.207-67.7246 39.2334-69.751Q41.2598-71.7773 41.2598-74.6094Q41.2598-77.4414 39.2334-79.4434Q37.207-81.4453 34.375-81.4453Q31.543-81.4453 29.541-79.4434Q27.5391-77.4414 27.5391-74.6094Q27.5391-71.7773 29.541-69.751Q31.543-67.7246 34.375-67.7246ZM73.7305-83.9844Q76.5625-83.9844 78.5645-86.0107Q80.5664-88.0371 80.5664-90.8203Q80.5664-93.6523 78.5645-95.6787Q76.5625-97.7051 73.7305-97.7051Q70.8984-97.7051 68.8721-95.6787Q66.8457-93.6523 66.8457-90.8203Q66.8457-88.0371 68.8721-86.0107Q70.8984-83.9844 73.7305-83.9844ZM113.037-67.7246Q115.869-67.7246 117.896-69.751Q119.922-71.7773 119.922-74.6094Q119.922-77.4414 117.896-79.4434Q115.869-81.4453 113.037-81.4453Q110.205-81.4453 108.203-79.4434Q106.201-77.4414 106.201-74.6094Q106.201-71.7773 108.203-69.751Q110.205-67.7246 113.037-67.7246ZM129.297-28.418Q132.129-28.418 134.131-30.4199Q136.133-32.4219 136.133-35.2539Q136.133-38.0859 134.131-40.1123Q132.129-42.1387 129.297-42.1387Q126.465-42.1387 124.438-40.1123Q122.412-38.0859 122.412-35.2539Q122.412-32.4219 124.438-30.4199Q126.465-28.418 129.297-28.418ZM113.037 10.9375Q115.869 10.9375 117.896 8.91113Q119.922 6.88477 119.922 4.05273Q119.922 1.2207 117.896-0.805664Q115.869-2.83203 113.037-2.83203Q110.205-2.83203 108.203-0.805664Q106.201 1.2207 106.201 4.05273Q106.201 6.88477 108.203 8.91113Q110.205 10.9375 113.037 10.9375ZM73.7305 27.1484Q76.5625 27.1484 78.5645 25.1465Q80.5664 23.1445 80.5664 20.3125Q80.5664 17.4805 78.5645 15.4541Q76.5625 13.4277 73.7305 13.4277Q70.8984 13.4277 68.8721 15.4541Q66.8457 17.4805 66.8457 20.3125Q66.8457 23.1445 68.8721 25.1465Q70.8984 27.1484 73.7305 27.1484ZM34.375 10.9375Q37.207 10.9375 39.2334 8.91113Q41.2598 6.88477 41.2598 4.05273Q41.2598 1.2207 39.2334-0.805664Q37.207-2.83203 34.375-2.83203Q31.543-2.83203 29.541-0.805664Q27.5391 1.2207 27.5391 4.05273Q27.5391 6.88477 29.541 8.91113Q31.543 10.9375 34.375 10.9375Z"/>
  </g>
  <g id="Light-L" transform="matrix(1 0 0 1 1080.46 1556)">
   <path d="M72.686-4.78058Q78.9497-4.78058 84.4719-7.17087Q89.994-9.56116 94.194-13.7783Q98.394-17.9955 100.784-23.5004Q103.175-29.0054 103.175-35.2539Q103.175-41.5176 100.784-47.0394Q98.394-52.5612 94.194-56.7783Q89.994-60.9955 84.4719-63.3858Q78.9497-65.7761 72.686-65.7761Q66.4375-65.7761 60.9154-63.3858Q55.3932-60.9955 51.1765-56.7783Q46.9597-52.5612 44.5694-47.0394Q42.1791-41.5176 42.1791-35.2539Q42.1791-29.0054 44.5694-23.5004Q46.9597-17.9955 51.1765-13.7783Q55.3932-9.56116 60.9154-7.17087Q66.4375-4.78058 72.686-4.78058ZM17.453-29.1145Q19.9631-29.1145 21.7777-30.9196Q23.5924-32.7248 23.5924-35.2539Q23.5924-37.7983 21.7777-39.613Q19.9631-41.4276 17.453-41.4276Q14.9078-41.4276 13.0936-39.613Q11.2793-37.7983 11.2793-35.2539Q11.2793-32.7248 13.0936-30.9196Q14.9078-29.1145 17.453-29.1145ZM33.5876-68.1938Q36.132-68.1938 37.9467-70.0085Q39.7614-71.8231 39.7614-74.3675Q39.7614-76.9119 37.9467-78.7094Q36.132-80.5069 33.5876-80.5069Q31.0432-80.5069 29.2458-78.7094Q27.4483-76.9119 27.4483-74.3675Q27.4483-71.8231 29.2458-70.0085Q31.0432-68.1938 33.5876-68.1938ZM72.686-84.3475Q75.2304-84.3475 77.0355-86.1694Q78.8406-87.9913 78.8406-90.5022Q78.8406-93.0321 77.0355-94.854Q75.2304-96.6759 72.686-96.6759Q70.1569-96.6759 68.335-94.854Q66.5131-93.0321 66.5131-90.5022Q66.5131-87.9913 68.335-86.1694Q70.1569-84.3475 72.686-84.3475ZM111.765-68.1938Q114.31-68.1938 116.125-70.0085Q117.939-71.8231 117.939-74.3675Q117.939-76.9119 116.125-78.7094Q114.31-80.5069 111.765-80.5069Q109.221-80.5069 107.423-78.7094Q105.626-76.9119 105.626-74.3675Q105.626-71.8231 107.423-70.0085Q109.221-68.1938 111.765-68.1938ZM127.934-29.1145Q130.464-29.1145 132.269-30.9196Q134.074-32.7248 134.074-35.2539Q134.074-37.7983 132.269-39.613Q130.464-41.4276 127.934-41.4276Q125.39-41.4276 123.568-39.613Q121.746-37.7983 121.746-35.2539Q121.746-32.7248 123.568-30.9196Q125.39-29.1145 127.934-29.1145ZM111.765 9.98383Q114.31 9.98383 116.125 8.16956Q117.939 6.35529 117.939 3.81088Q117.939 1.26648 116.125-0.548172Q114.31-2.36282 111.765-2.36282Q109.221-2.36282 107.423-0.548172Q105.626 1.26648 105.626 3.81088Q105.626 6.35529 107.423 8.16956Q109.221 9.98383 111.765 9.98383ZM72.686 26.1192Q75.2304 26.1192 77.0355 24.3217Q78.8406 22.5243 78.8406 19.9799Q78.8406 17.4347 77.0355 15.6204Q75.2304 13.8062 72.686 13.8062Q70.1569 13.8062 68.335 15.6204Q66.5131 17.4347 66.5131 19.9799Q66.5131 22.5243 68.335 24.3217Q70.1569 26.1192 72.686 26.1192ZM33.5876 9.98383Q36.132 9.98383 37.9467 8.16956Q39.7614 6.35529 39.7614 3.81088Q39.7614 1.26648 37.9467-0.548172Q36.132-2.36282 33.5876-2.36282Q31.0432-2.36282 29.2458-0.548172Q27.4483 1.26648 27.4483 3.81088Q27.4483 6.35529 29.2458 8.16956Q31.0432 9.98383 33.5876 9.98383Z"/>
  </g>
  <g id="Thin-L" transform="matrix(1 0 0 1 785.107 1556)">
   <path d="M71.3051-6.00204Q77.3285-6.00204 82.6302-8.29201Q87.9318-10.582 91.972-14.629Q96.0121-18.676 98.3021-23.9708Q100.592-29.2656 100.592-35.2539Q100.592-41.2773 98.3021-46.579Q96.0121-51.8806 91.972-55.9277Q87.9318-59.9747 82.6302-62.2646Q77.3285-64.5546 71.3051-64.5546Q65.3168-64.5546 60.0147-62.2646Q54.7127-59.9747 50.666-55.9277Q46.6194-51.8806 44.3291-46.579Q42.0387-41.2773 42.0387-35.2539Q42.0387-29.2656 44.3291-23.9708Q46.6194-18.676 50.666-14.629Q54.7127-10.582 60.0147-8.29201Q65.3168-6.00204 71.3051-6.00204ZM16.5115-30.0354Q18.6623-30.0354 20.1965-31.5804Q21.7308-33.1253 21.7308-35.2539Q21.7308-37.4184 20.1965-38.9523Q18.6623-40.4861 16.5115-40.4861Q14.3478-40.4861 12.8136-38.9523Q11.2793-37.4184 11.2793-35.2539Q11.2793-33.1253 12.8136-31.5804Q14.3478-30.0354 16.5115-30.0354ZM32.547-68.8141Q34.7107-68.8141 36.245-70.3484Q37.7792-71.8826 37.7792-74.0471Q37.7792-76.2108 36.245-77.7382Q34.7107-79.2656 32.547-79.2656Q30.3825-79.2656 28.8555-77.7382Q27.3285-76.2108 27.3285-74.0471Q27.3285-71.8826 28.8555-70.3484Q30.3825-68.8141 32.547-68.8141ZM71.3051-84.8282Q73.4688-84.8282 75.0137-86.38Q76.5587-87.9318 76.5587-90.0818Q76.5587-92.2112 75.0137-93.763Q73.4688-95.3148 71.3051-95.3148Q69.1757-95.3148 67.6239-93.763Q66.0721-92.2112 66.0721-90.0818Q66.0721-87.9318 67.6239-86.38Q69.1757-84.8282 71.3051-84.8282ZM110.084-68.8141Q112.248-68.8141 113.783-70.3484Q115.317-71.8826 115.317-74.0471Q115.317-76.2108 113.783-77.7382Q112.248-79.2656 110.084-79.2656Q107.92-79.2656 106.393-77.7382Q104.865-76.2108 104.865-74.0471Q104.865-71.8826 106.393-70.3484Q107.92-68.8141 110.084-68.8141ZM126.133-30.0354Q128.262-30.0354 129.807-31.5804Q131.351-33.1253 131.351-35.2539Q131.351-37.4184 129.807-38.9523Q128.262-40.4861 126.133-40.4861Q123.969-40.4861 122.417-38.9523Q120.866-37.4184 120.866-35.2539Q120.866-33.1253 122.417-31.5804Q123.969-30.0354 126.133-30.0354ZM110.084 8.72269Q112.248 8.72269 113.783 7.18842Q115.317 5.65414 115.317 3.49045Q115.317 1.32599 113.783-0.208282Q112.248-1.74255 110.084-1.74255Q107.92-1.74255 106.393-0.208282Q104.865 1.32599 104.865 3.49045Q104.865 5.65414 106.393 7.18842Q107.92 8.72269 110.084 8.72269ZM71.3051 24.7581Q73.4688 24.7581 75.0137 23.2307Q76.5587 21.7033 76.5587 19.5389Q76.5587 17.3752 75.0137 15.8409Q73.4688 14.3066 71.3051 14.3066Q69.1757 14.3066 67.6239 15.8409Q66.0721 17.3752 66.0721 19.5389Q66.0721 21.7033 67.6239 23.2307Q69.1757 24.7581 71.3051 24.7581ZM32.547 8.72269Q34.7107 8.72269 36.245 7.18842Q37.7792 5.65414 37.7792 3.49045Q37.7792 1.32599 36.245-0.208282Q34.7107-1.74255 32.547-1.74255Q30.3825-1.74255 28.8555-0.208282Q27.3285 1.32599 27.3285 3.49045Q27.3285 5.65414 28.8555 7.18842Q30.3825 8.72269 32.547 8.72269Z"/>
  </g>
  <g id="Ultralight-L" transform="matrix(1 0 0 1 489.093 1556)">
   <path d="M70.5971-6.62766Q76.4977-6.62766 81.6864-8.86612Q86.8752-11.1046 90.8333-15.0646Q94.7914-19.0247 97.0303-24.2119Q99.2691-29.3991 99.2691-35.2539Q99.2691-41.1545 97.0303-46.3432Q94.7914-51.532 90.8333-55.492Q86.8752-59.4521 81.6864-61.6905Q76.4977-63.929 70.5971-63.929Q64.7423-63.929 59.5531-61.6905Q54.364-59.4521 50.4044-55.492Q46.4447-51.532 44.2059-46.3432Q41.967-41.1545 41.967-35.2539Q41.967-29.3991 44.2059-24.2119Q46.4447-19.0247 50.4044-15.0646Q54.364-11.1046 59.5531-8.86612Q64.7423-6.62766 70.5971-6.62766ZM16.0301-30.5069Q17.9955-30.5069 19.3863-31.9183Q20.7771-33.3298 20.7771-35.2539Q20.7771-37.2231 19.3863-38.6139Q17.9955-40.0047 16.0301-40.0047Q14.0602-40.0047 12.6698-38.6139Q11.2793-37.2231 11.2793-35.2539Q11.2793-33.3298 12.6698-31.9183Q14.0602-30.5069 16.0301-30.5069ZM32.0137-69.1322Q33.9828-69.1322 35.3737-70.5231Q36.7645-71.9139 36.7645-73.8831Q36.7645-75.8522 35.3737-77.2411Q33.9828-78.6301 32.0137-78.6301Q30.0446-78.6301 28.6556-77.2411Q27.2667-75.8522 27.2667-73.8831Q27.2667-71.9139 28.6556-70.5231Q30.0446-69.1322 32.0137-69.1322ZM70.5971-85.0739Q72.5662-85.0739 73.978-86.4872Q75.3899-87.9005 75.3899-89.8666Q75.3899-91.7908 73.978-93.2041Q72.5662-94.6175 70.5971-94.6175Q68.6737-94.6175 67.2604-93.2041Q65.847-91.7908 65.847-89.8666Q65.847-87.9005 67.2604-86.4872Q68.6737-85.0739 70.5971-85.0739ZM109.222-69.1322Q111.192-69.1322 112.582-70.5231Q113.973-71.9139 113.973-73.8831Q113.973-75.8522 112.582-77.2411Q111.192-78.6301 109.222-78.6301Q107.253-78.6301 105.864-77.2411Q104.475-75.8522 104.475-73.8831Q104.475-71.9139 105.864-70.5231Q107.253-69.1322 109.222-69.1322ZM125.21-30.5069Q127.134-30.5069 128.545-31.9183Q129.957-33.3298 129.957-35.2539Q129.957-37.2231 128.545-38.6139Q127.134-40.0047 125.21-40.0047Q123.241-40.0047 121.827-38.6139Q120.414-37.2231 120.414-35.2539Q120.414-33.3298 121.827-31.9183Q123.241-30.5069 125.21-30.5069ZM109.222 8.07648Q111.192 8.07648 112.582 6.68602Q113.973 5.29556 113.973 3.32642Q113.973 1.35727 112.582-0.0335693Q111.192-1.42441 109.222-1.42441Q107.253-1.42441 105.864-0.0335693Q104.475 1.35727 104.475 3.32642Q104.475 5.29556 105.864 6.68602Q107.253 8.07648 109.222 8.07648ZM70.5971 24.0608Q72.5662 24.0608 73.978 22.6719Q75.3899 21.283 75.3899 19.3138Q75.3899 17.3439 73.978 15.9534Q72.5662 14.563 70.5971 14.563Q68.6737 14.563 67.2604 15.9534Q65.847 17.3439 65.847 19.3138Q65.847 21.283 67.2604 22.6719Q68.6737 24.0608 70.5971 24.0608ZM32.0137 8.07648Q33.9828 8.07648 35.3737 6.68602Q36.7645 5.29556 36.7645 3.32642Q36.7645 1.35727 35.3737-0.0335693Q33.9828-1.42441 32.0137-1.42441Q30.0446-1.42441 28.6556-0.0335693Q27.2667 1.35727 27.2667 3.32642Q27.2667 5.29556 28.6556 6.68602Q30.0446 8.07648 32.0137 8.07648Z"/>
  </g>
  <g id="Black-M" transform="matrix(1 0 0 1 2871.39 1126)">
   <path d="M62.0117-6.83594Q67.8711-6.83594 72.998-9.05762Q78.125-11.2793 82.0557-15.21Q85.9863-19.1406 88.208-24.292Q90.4297-29.4434 90.4297-35.2539Q90.4297-41.1133 88.208-46.2402Q85.9863-51.3672 82.0557-55.2979Q78.125-59.2285 72.998-61.4502Q67.8711-63.6719 62.0117-63.6719Q56.2012-63.6719 51.0498-61.4502Q45.8984-59.2285 41.9678-55.2979Q38.0371-51.3672 35.8154-46.2402Q33.5938-41.1133 33.5938-35.2539Q33.5938-29.3945 35.8154-24.2432Q38.0371-19.0918 41.9434-15.1855Q45.8496-11.2793 51.001-9.05762Q56.1523-6.83594 62.0117-6.83594ZM16.4551-27.5391Q19.6777-27.5391 21.9238-29.7852Q24.1699-32.0312 24.1699-35.2539Q24.1699-38.4766 21.9238-40.7227Q19.6777-42.9688 16.4551-42.9688Q13.2324-42.9688 10.9863-40.7227Q8.74023-38.4766 8.74023-35.2539Q8.74023-32.0312 10.9863-29.7852Q13.2324-27.5391 16.4551-27.5391ZM29.7852-59.7656Q33.0078-59.7656 35.2539-62.0117Q37.5-64.2578 37.5-67.4805Q37.5-70.7031 35.2539-72.9492Q33.0078-75.1953 29.7852-75.1953Q26.5625-75.1953 24.3164-72.9492Q22.0703-70.7031 22.0703-67.4805Q22.0703-64.2578 24.3164-62.0117Q26.5625-59.7656 29.7852-59.7656ZM62.0117-73.0957Q65.2344-73.0957 67.4805-75.3418Q69.7266-77.5879 69.7266-80.8105Q69.7266-84.0332 67.4805-86.2793Q65.2344-88.5254 62.0117-88.5254Q58.7891-88.5254 56.543-86.2793Q54.2969-84.0332 54.2969-80.8105Q54.2969-77.5879 56.543-75.3418Q58.7891-73.0957 62.0117-73.0957ZM94.2383-59.7656Q97.4609-59.7656 99.707-62.0117Q101.953-64.2578 101.953-67.4805Q101.953-70.7031 99.707-72.9492Q97.4609-75.1953 94.2383-75.1953Q91.0156-75.1953 88.7695-72.9492Q86.5234-70.7031 86.5234-67.4805Q86.5234-64.2578 88.7695-62.0117Q91.0156-59.7656 94.2383-59.7656ZM107.568-27.5391Q110.791-27.5391 113.037-29.7852Q115.283-32.0312 115.283-35.2539Q115.283-38.4766 113.037-40.7227Q110.791-42.9688 107.568-42.9688Q104.346-42.9688 102.1-40.7227Q99.8535-38.4766 99.8535-35.2539Q99.8535-32.0312 102.1-29.7852Q104.346-27.5391 107.568-27.5391ZM94.2383 4.6875Q97.4609 4.6875 99.707 2.41699Q101.953 0.146484 101.953-3.02734Q101.953-6.25 99.707-8.49609Q97.4609-10.7422 94.2383-10.7422Q91.0156-10.7422 88.7695-8.49609Q86.5234-6.25 86.5234-3.02734Q86.5234 0.146484 88.7695 2.41699Q91.0156 4.6875 94.2383 4.6875ZM62.0117 18.0176Q65.2344 18.0176 67.4805 15.7715Q69.7266 13.5254 69.7266 10.3027Q69.7266 7.08008 67.4805 4.83398Q65.2344 2.58789 62.0117 2.58789Q58.7891 2.58789 56.543 4.83398Q54.2969 7.08008 54.2969 10.3027Q54.2969 13.5254 56.543 15.7715Q58.7891 18.0176 62.0117 18.0176ZM29.7852 4.6875Q33.0078 4.6875 35.2539 2.41699Q37.5 0.146484 37.5-3.02734Q37.5-6.25 35.2539-8.49609Q33.0078-10.7422 29.7852-10.7422Q26.5625-10.7422 24.3164-8.49609Q22.0703-6.25 22.0703-3.02734Q22.0703 0.146484 24.3164 2.41699Q26.5625 4.6875 29.7852 4.6875Z"/>
  </g>
  <g id="Heavy-M" transform="matrix(1 0 0 1 2575.69 1126)">
   <path d="M60.9978-7.67746Q66.6725-7.67746 71.6553-9.83582Q76.638-11.9942 80.4535-15.8035Q84.269-19.6129 86.4273-24.6147Q88.5857-29.6165 88.5857-35.2539Q88.5857-40.9401 86.4273-45.9175Q84.269-50.8949 80.4535-54.7104Q76.638-58.5258 71.6553-60.6838Q66.6725-62.8418 60.9978-62.8418Q55.3596-62.8418 50.3582-60.6838Q45.3568-58.5258 41.547-54.7104Q37.7373-50.8949 35.5789-45.9175Q33.4206-40.9401 33.4206-35.2539Q33.4206-29.5792 35.5789-24.5773Q37.7373-19.5755 41.5283-15.7848Q45.3194-11.9942 50.3208-9.83582Q55.3223-7.67746 60.9978-7.67746ZM15.9828-28.0113Q18.998-28.0113 21.1113-30.125Q23.2246-32.2388 23.2246-35.2539Q23.2246-38.269 21.1113-40.3828Q18.998-42.4965 15.9828-42.4965Q12.9677-42.4965 10.854-40.3828Q8.74023-38.269 8.74023-35.2539Q8.74023-32.2388 10.854-30.125Q12.9677-28.0113 15.9828-28.0113ZM29.1512-59.8579Q32.1663-59.8579 34.28-61.9713Q36.3937-64.0846 36.3937-67.1005Q36.3937-70.1157 34.28-72.229Q32.1663-74.3423 29.1512-74.3423Q26.136-74.3423 24.0227-72.229Q21.9093-70.1157 21.9093-67.1005Q21.9093-64.0846 24.0227-61.9713Q26.136-59.8579 29.1512-59.8579ZM60.9978-73.0263Q64.0129-73.0263 66.1263-75.14Q68.2396-77.2537 68.2396-80.2689Q68.2396-83.284 66.1263-85.3977Q64.0129-87.5114 60.9978-87.5114Q57.9826-87.5114 55.8689-85.3977Q53.7552-83.284 53.7552-80.2689Q53.7552-77.2537 55.8689-75.14Q57.9826-73.0263 60.9978-73.0263ZM92.8436-59.8579Q95.8588-59.8579 97.9725-61.9713Q100.086-64.0846 100.086-67.1005Q100.086-70.1157 97.9725-72.229Q95.8588-74.3423 92.8436-74.3423Q89.8285-74.3423 87.7151-72.229Q85.6018-70.1157 85.6018-67.1005Q85.6018-64.0846 87.7151-61.9713Q89.8285-59.8579 92.8436-59.8579ZM106.013-28.0113Q109.028-28.0113 111.141-30.125Q113.255-32.2388 113.255-35.2539Q113.255-38.269 111.141-40.3828Q109.028-42.4965 106.013-42.4965Q102.998-42.4965 100.884-40.3828Q98.7701-38.269 98.7701-35.2539Q98.7701-32.2388 100.884-30.125Q102.998-28.0113 106.013-28.0113ZM92.8436 3.83453Q95.8588 3.83453 97.9725 1.7025Q100.086-0.429535 100.086-3.40729Q100.086-6.42319 97.9725-8.53653Q95.8588-10.6499 92.8436-10.6499Q89.8285-10.6499 87.7151-8.53653Q85.6018-6.42319 85.6018-3.40729Q85.6018-0.429535 87.7151 1.7025Q89.8285 3.83453 92.8436 3.83453ZM60.9978 17.0036Q64.0129 17.0036 66.1263 14.8899Q68.2396 12.7762 68.2396 9.76105Q68.2396 6.74591 66.1263 4.63219Q64.0129 2.51846 60.9978 2.51846Q57.9826 2.51846 55.8689 4.63219Q53.7552 6.74591 53.7552 9.76105Q53.7552 12.7762 55.8689 14.8899Q57.9826 17.0036 60.9978 17.0036ZM29.1512 3.83453Q32.1663 3.83453 34.28 1.7025Q36.3937-0.429535 36.3937-3.40729Q36.3937-6.42319 34.28-8.53653Q32.1663-10.6499 29.1512-10.6499Q26.136-10.6499 24.0227-8.53653Q21.9093-6.42319 21.9093-3.40729Q21.9093-0.429535 24.0227 1.7025Q26.136 3.83453 29.1512 3.83453Z"/>
  </g>
  <g id="Bold-M" transform="matrix(1 0 0 1 2280.11 1126)">
   <path d="M59.8633-8.61816Q65.332-8.61816 70.1538-10.7056Q74.9756-12.793 78.6621-16.4673Q82.3486-20.1416 84.436-24.9756Q86.5234-29.8096 86.5234-35.2539Q86.5234-40.7471 84.436-45.5566Q82.3486-50.3662 78.6621-54.0527Q74.9756-57.7393 70.1538-59.8267Q65.332-61.9141 59.8633-61.9141Q54.4189-61.9141 49.585-59.8267Q44.751-57.7393 41.0767-54.0527Q37.4023-50.3662 35.3149-45.5566Q33.2275-40.7471 33.2275-35.2539Q33.2275-29.7852 35.3149-24.9512Q37.4023-20.1172 41.0645-16.4551Q44.7266-12.793 49.5605-10.7056Q54.3945-8.61816 59.8633-8.61816ZM15.4541-28.54Q18.2373-28.54 20.2026-30.5054Q22.168-32.4707 22.168-35.2539Q22.168-38.0371 20.2026-40.0024Q18.2373-41.9678 15.4541-41.9678Q12.6709-41.9678 10.7056-40.0024Q8.74023-38.0371 8.74023-35.2539Q8.74023-32.4707 10.7056-30.5054Q12.6709-28.54 15.4541-28.54ZM28.4424-59.9609Q31.2256-59.9609 33.1909-61.9263Q35.1562-63.8916 35.1562-66.6748Q35.1562-69.458 33.1909-71.4233Q31.2256-73.3887 28.4424-73.3887Q25.6592-73.3887 23.6938-71.4233Q21.7285-69.458 21.7285-66.6748Q21.7285-63.8916 23.6938-61.9263Q25.6592-59.9609 28.4424-59.9609ZM59.8633-72.9492Q62.6465-72.9492 64.6118-74.9146Q66.5771-76.8799 66.5771-79.6631Q66.5771-82.4463 64.6118-84.4116Q62.6465-86.377 59.8633-86.377Q57.0801-86.377 55.1147-84.4116Q53.1494-82.4463 53.1494-79.6631Q53.1494-76.8799 55.1147-74.9146Q57.0801-72.9492 59.8633-72.9492ZM91.2842-59.9609Q94.0674-59.9609 96.0327-61.9263Q97.998-63.8916 97.998-66.6748Q97.998-69.458 96.0327-71.4233Q94.0674-73.3887 91.2842-73.3887Q88.501-73.3887 86.5356-71.4233Q84.5703-69.458 84.5703-66.6748Q84.5703-63.8916 86.5356-61.9263Q88.501-59.9609 91.2842-59.9609ZM104.272-28.54Q107.056-28.54 109.021-30.5054Q110.986-32.4707 110.986-35.2539Q110.986-38.0371 109.021-40.0024Q107.056-41.9678 104.272-41.9678Q101.489-41.9678 99.5239-40.0024Q97.5586-38.0371 97.5586-35.2539Q97.5586-32.4707 99.5239-30.5054Q101.489-28.54 104.272-28.54ZM91.2842 2.88086Q94.0674 2.88086 96.0327 0.90332Q97.998-1.07422 97.998-3.83301Q97.998-6.61621 96.0327-8.58154Q94.0674-10.5469 91.2842-10.5469Q88.501-10.5469 86.5356-8.58154Q84.5703-6.61621 84.5703-3.83301Q84.5703-1.07422 86.5356 0.90332Q88.501 2.88086 91.2842 2.88086ZM59.8633 15.8691Q62.6465 15.8691 64.6118 13.9038Q66.5771 11.9385 66.5771 9.15527Q66.5771 6.37207 64.6118 4.40674Q62.6465 2.44141 59.8633 2.44141Q57.0801 2.44141 55.1147 4.40674Q53.1494 6.37207 53.1494 9.15527Q53.1494 11.9385 55.1147 13.9038Q57.0801 15.8691 59.8633 15.8691ZM28.4424 2.88086Q31.2256 2.88086 33.1909 0.90332Q35.1562-1.07422 35.1562-3.83301Q35.1562-6.61621 33.1909-8.58154Q31.2256-10.5469 28.4424-10.5469Q25.6592-10.5469 23.6938-8.58154Q21.7285-6.61621 21.7285-3.83301Q21.7285-1.07422 23.6938 0.90332Q25.6592 2.88086 28.4424 2.88086Z"/>
  </g>
  <g id="Semibold-M" transform="matrix(1 0 0 1 1984.19 1126)">
   <path d="M59.0813-9.26666Q64.4081-9.26666 69.1185-11.3052Q73.8289-13.3438 77.4265-16.925Q81.0242-20.5063 83.0627-25.2247Q85.1013-29.9431 85.1013-35.2539Q85.1013-40.6136 83.0627-45.3075Q81.0242-50.0015 77.4265-53.5992Q73.8289-57.1968 69.1185-59.2354Q64.4081-61.274 59.0813-61.274Q53.7704-61.274 49.052-59.2354Q44.3336-57.1968 40.7524-53.5992Q37.1712-50.0015 35.1326-45.3075Q33.094-40.6136 33.094-35.2539Q33.094-29.9271 35.1326-25.2087Q37.1712-20.4903 40.7444-16.917Q44.3176-13.3438 49.036-11.3052Q53.7544-9.26666 59.0813-9.26666ZM15.0894-28.9047Q17.7132-28.9047 19.5763-30.7678Q21.4394-32.6309 21.4394-35.2539Q21.4394-37.8769 19.5763-39.74Q17.7132-41.6031 15.0894-41.6031Q12.4664-41.6031 10.6033-39.74Q8.74023-37.8769 8.74023-35.2539Q8.74023-32.6309 10.6033-30.7678Q12.4664-28.9047 15.0894-28.9047ZM27.9533-60.0319Q30.5771-60.0319 32.4402-61.895Q34.3033-63.7581 34.3033-66.3818Q34.3033-69.0048 32.4402-70.8679Q30.5771-72.731 27.9533-72.731Q25.3304-72.731 23.4673-70.8679Q21.6042-69.0048 21.6042-66.3818Q21.6042-63.7581 23.4673-61.895Q25.3304-60.0319 27.9533-60.0319ZM59.0813-72.8958Q61.7043-72.8958 63.5674-74.7589Q65.4305-76.622 65.4305-79.2458Q65.4305-81.8687 63.5674-83.7318Q61.7043-85.5949 59.0813-85.5949Q56.4583-85.5949 54.5952-83.7318Q52.7321-81.8687 52.7321-79.2458Q52.7321-76.622 54.5952-74.7589Q56.4583-72.8958 59.0813-72.8958ZM90.2092-60.0319Q92.8322-60.0319 94.6953-61.895Q96.5584-63.7581 96.5584-66.3818Q96.5584-69.0048 94.6953-70.8679Q92.8322-72.731 90.2092-72.731Q87.5854-72.731 85.7224-70.8679Q83.8593-69.0048 83.8593-66.3818Q83.8593-63.7581 85.7224-61.895Q87.5854-60.0319 90.2092-60.0319ZM103.072-28.9047Q105.696-28.9047 107.559-30.7678Q109.422-32.6309 109.422-35.2539Q109.422-37.8769 107.559-39.74Q105.696-41.6031 103.072-41.6031Q100.449-41.6031 98.5863-39.74Q96.7232-37.8769 96.7232-35.2539Q96.7232-32.6309 98.5863-30.7678Q100.449-28.9047 103.072-28.9047ZM90.2092 2.22321Q92.8322 2.22321 94.6953 0.352478Q96.5584-1.51825 96.5584-4.12598Q96.5584-6.74973 94.6953-8.61282Q92.8322-10.4759 90.2092-10.4759Q87.5854-10.4759 85.7224-8.61282Q83.8593-6.74973 83.8593-4.12598Q83.8593-1.51825 85.7224 0.352478Q87.5854 2.22321 90.2092 2.22321ZM59.0813 15.0871Q61.7043 15.0871 63.5674 13.224Q65.4305 11.3609 65.4305 8.73795Q65.4305 6.1142 63.5674 4.2511Q61.7043 2.388 59.0813 2.388Q56.4583 2.388 54.5952 4.2511Q52.7321 6.1142 52.7321 8.73795Q52.7321 11.3609 54.5952 13.224Q56.4583 15.0871 59.0813 15.0871ZM27.9533 2.22321Q30.5771 2.22321 32.4402 0.352478Q34.3033-1.51825 34.3033-4.12598Q34.3033-6.74973 32.4402-8.61282Q30.5771-10.4759 27.9533-10.4759Q25.3304-10.4759 23.4673-8.61282Q21.6042-6.74973 21.6042-4.12598Q21.6042-1.51825 23.4673 0.352478Q25.3304 2.22321 27.9533 2.22321Z"/>
  </g>
  <g id="Medium-M" transform="matrix(1 0 0 1 1688.07 1126)">
   <path d="M58.4885-9.75876Q63.707-9.75876 68.3334-11.7603Q72.9599-13.7619 76.49-17.2722Q80.0201-20.7825 82.0217-25.4131Q84.0233-30.0438 84.0233-35.2539Q84.0233-40.5128 82.0217-45.1191Q80.0201-49.7253 76.49-53.2558Q72.9599-56.7863 68.3334-58.7875Q63.707-60.7887 58.4885-60.7887Q53.2784-60.7887 48.6473-58.7875Q44.0163-56.7863 40.5064-53.2558Q36.9965-49.7253 34.9949-45.1191Q32.9933-40.5128 32.9933-35.2539Q32.9933-30.0354 34.9949-25.4044Q36.9965-20.7733 40.5022-17.2676Q44.0079-13.7619 48.6385-11.7603Q53.2692-9.75876 58.4885-9.75876ZM14.8132-29.1809Q17.3157-29.1809 19.1013-30.9666Q20.887-32.7522 20.887-35.2539Q20.887-37.7556 19.1013-39.5412Q17.3157-41.3269 14.8132-41.3269Q12.3116-41.3269 10.5259-39.5412Q8.74023-37.7556 8.74023-35.2539Q8.74023-32.7522 10.5259-30.9666Q12.3116-29.1809 14.8132-29.1809ZM27.5833-60.0861Q30.085-60.0861 31.8707-61.8717Q33.6563-63.6574 33.6563-66.1591Q33.6563-68.6615 31.8707-70.4468Q30.085-72.2321 27.5833-72.2321Q25.0809-72.2321 23.2952-70.4468Q21.5096-68.6615 21.5096-66.1591Q21.5096-63.6574 23.2952-61.8717Q25.0809-60.0861 27.5833-60.0861ZM58.4885-72.8554Q60.9901-72.8554 62.7758-74.641Q64.5615-76.4267 64.5615-78.9284Q64.5615-81.4308 62.7758-83.2165Q60.9901-85.0021 58.4885-85.0021Q55.986-85.0021 54.2004-83.2165Q52.4147-81.4308 52.4147-78.9284Q52.4147-76.4267 54.2004-74.641Q55.986-72.8554 58.4885-72.8554ZM89.3936-60.0861Q91.8953-60.0861 93.681-61.8717Q95.4666-63.6574 95.4666-66.1591Q95.4666-68.6615 93.681-70.4468Q91.8953-72.2321 89.3936-72.2321Q86.8919-72.2321 85.1063-70.4468Q83.3206-68.6615 83.3206-66.1591Q83.3206-63.6574 85.1063-61.8717Q86.8919-60.0861 89.3936-60.0861ZM102.163-29.1809Q104.665-29.1809 106.45-30.9666Q108.236-32.7522 108.236-35.2539Q108.236-37.7556 106.45-39.5412Q104.665-41.3269 102.163-41.3269Q99.6613-41.3269 97.8756-39.5412Q96.0899-37.7556 96.0899-35.2539Q96.0899-32.7522 97.8756-30.9666Q99.6613-29.1809 102.163-29.1809ZM89.3936 1.72424Q91.8953 1.72424 93.681-0.0656128Q95.4666-1.85547 95.4666-4.34875Q95.4666-6.85043 93.681-8.63609Q91.8953-10.4218 89.3936-10.4218Q86.8919-10.4218 85.1063-8.63609Q83.3206-6.85043 83.3206-4.34875Q83.3206-1.85547 85.1063-0.0656128Q86.8919 1.72424 89.3936 1.72424ZM58.4885 14.4943Q60.9901 14.4943 62.7758 12.7087Q64.5615 10.923 64.5615 8.42056Q64.5615 5.91888 62.7758 4.13322Q60.9901 2.34756 58.4885 2.34756Q55.986 2.34756 54.2004 4.13322Q52.4147 5.91888 52.4147 8.42056Q52.4147 10.923 54.2004 12.7087Q55.986 14.4943 58.4885 14.4943ZM27.5833 1.72424Q30.085 1.72424 31.8707-0.0656128Q33.6563-1.85547 33.6563-4.34875Q33.6563-6.85043 31.8707-8.63609Q30.085-10.4218 27.5833-10.4218Q25.0809-10.4218 23.2952-8.63609Q21.5096-6.85043 21.5096-4.34875Q21.5096-1.85547 23.2952-0.0656128Q25.0809 1.72424 27.5833 1.72424Z"/>
  </g>
  <g id="Regular-M" transform="matrix(1 0 0 1 1392.13 1126)">
   <path d="M57.7148-10.4004Q62.793-10.4004 67.3096-12.3535Q71.8262-14.3066 75.2686-17.7246Q78.7109-21.1426 80.6641-25.6592Q82.6172-30.1758 82.6172-35.2539Q82.6172-40.3809 80.6641-44.873Q78.7109-49.3652 75.2686-52.8076Q71.8262-56.25 67.3096-58.2031Q62.793-60.1562 57.7148-60.1562Q52.6367-60.1562 48.1201-58.2031Q43.6035-56.25 40.1855-52.8076Q36.7676-49.3652 34.8145-44.873Q32.8613-40.3809 32.8613-35.2539Q32.8613-30.1758 34.8145-25.6592Q36.7676-21.1426 40.1855-17.7246Q43.6035-14.3066 48.1201-12.3535Q52.6367-10.4004 57.7148-10.4004ZM14.4531-29.541Q16.7969-29.541 18.4814-31.2256Q20.166-32.9102 20.166-35.2539Q20.166-37.5977 18.4814-39.2822Q16.7969-40.9668 14.4531-40.9668Q12.1094-40.9668 10.4248-39.2822Q8.74023-37.5977 8.74023-35.2539Q8.74023-32.9102 10.4248-31.2256Q12.1094-29.541 14.4531-29.541ZM27.0996-60.1562Q29.4434-60.1562 31.1279-61.8408Q32.8125-63.5254 32.8125-65.8691Q32.8125-68.2129 31.1279-69.8975Q29.4434-71.582 27.0996-71.582Q24.7559-71.582 23.0713-69.8975Q21.3867-68.2129 21.3867-65.8691Q21.3867-63.5254 23.0713-61.8408Q24.7559-60.1562 27.0996-60.1562ZM57.7148-72.8027Q60.0586-72.8027 61.7432-74.4873Q63.4277-76.1719 63.4277-78.5156Q63.4277-80.8594 61.7432-82.5439Q60.0586-84.2285 57.7148-84.2285Q55.3711-84.2285 53.6865-82.5439Q52.002-80.8594 52.002-78.5156Q52.002-76.1719 53.6865-74.4873Q55.3711-72.8027 57.7148-72.8027ZM88.3301-60.1562Q90.6738-60.1562 92.3584-61.8408Q94.043-63.5254 94.043-65.8691Q94.043-68.2129 92.3584-69.8975Q90.6738-71.582 88.3301-71.582Q85.9863-71.582 84.3018-69.8975Q82.6172-68.2129 82.6172-65.8691Q82.6172-63.5254 84.3018-61.8408Q85.9863-60.1562 88.3301-60.1562ZM100.977-29.541Q103.32-29.541 105.005-31.2256Q106.689-32.9102 106.689-35.2539Q106.689-37.5977 105.005-39.2822Q103.32-40.9668 100.977-40.9668Q98.6328-40.9668 96.9482-39.2822Q95.2637-37.5977 95.2637-35.2539Q95.2637-32.9102 96.9482-31.2256Q98.6328-29.541 100.977-29.541ZM88.3301 1.07422Q90.6738 1.07422 92.3584-0.610352Q94.043-2.29492 94.043-4.63867Q94.043-6.98242 92.3584-8.66699Q90.6738-10.3516 88.3301-10.3516Q85.9863-10.3516 84.3018-8.66699Q82.6172-6.98242 82.6172-4.63867Q82.6172-2.29492 84.3018-0.610352Q85.9863 1.07422 88.3301 1.07422ZM57.7148 13.7207Q60.0586 13.7207 61.7432 12.0361Q63.4277 10.3516 63.4277 8.00781Q63.4277 5.66406 61.7432 3.97949Q60.0586 2.29492 57.7148 2.29492Q55.3711 2.29492 53.6865 3.97949Q52.002 5.66406 52.002 8.00781Q52.002 10.3516 53.6865 12.0361Q55.3711 13.7207 57.7148 13.7207ZM27.0996 1.07422Q29.4434 1.07422 31.1279-0.610352Q32.8125-2.29492 32.8125-4.63867Q32.8125-6.98242 31.1279-8.66699Q29.4434-10.3516 27.0996-10.3516Q24.7559-10.3516 23.0713-8.66699Q21.3867-6.98242 21.3867-4.63867Q21.3867-2.29492 23.0713-0.610352Q24.7559 1.07422 27.0996 1.07422Z"/>
  </g>
  <g id="Light-M" transform="matrix(1 0 0 1 1096.34 1126)">
   <path d="M56.7917-11.2175Q61.7035-11.2175 66.0686-13.1104Q70.4338-15.0032 73.7549-18.3075Q77.076-21.6118 78.9612-25.9769Q80.8464-30.3421 80.8464-35.2539Q80.8464-40.1993 78.9612-44.5477Q77.076-48.896 73.7549-52.2247Q70.4338-55.5534 66.0686-57.4387Q61.7035-59.3239 56.7917-59.3239Q51.8646-59.3239 47.5071-57.4387Q43.1496-55.5534 39.8376-52.2247Q36.5257-48.896 34.6405-44.5477Q32.7553-40.1993 32.7553-35.2539Q32.7553-30.3421 34.6405-25.9769Q36.5257-21.6118 39.8376-18.3075Q43.1496-15.0032 47.5071-13.1104Q51.8646-11.2175 56.7917-11.2175ZM13.8329-30.1765Q15.9187-30.1765 17.4141-31.6719Q18.9095-33.1673 18.9095-35.2539Q18.9095-37.3405 17.4141-38.8435Q15.9187-40.3465 13.8329-40.3465Q11.731-40.3465 10.2356-38.8435Q8.74023-37.3405 8.74023-35.2539Q8.74023-33.1673 10.2356-31.6719Q11.731-30.1765 13.8329-30.1765ZM26.3885-60.5652Q28.4744-60.5652 29.9774-62.0682Q31.4804-63.5712 31.4804-65.657Q31.4804-67.7437 29.9774-69.239Q28.4744-70.7344 26.3885-70.7344Q24.3019-70.7344 22.8065-69.239Q21.3112-67.7437 21.3112-65.657Q21.3112-63.5712 22.8065-62.0682Q24.3019-60.5652 26.3885-60.5652ZM56.7917-73.1354Q58.8776-73.1354 60.3733-74.6307Q61.869-76.1261 61.869-78.2127Q61.869-80.2994 60.3733-81.8024Q58.8776-83.3054 56.7917-83.3054Q54.705-83.3054 53.2021-81.8024Q51.6991-80.2994 51.6991-78.2127Q51.6991-76.1261 53.2021-74.6307Q54.705-73.1354 56.7917-73.1354ZM87.1796-60.5652Q89.2815-60.5652 90.7768-62.0682Q92.2722-63.5712 92.2722-65.657Q92.2722-67.7437 90.7768-69.239Q89.2815-70.7344 87.1796-70.7344Q85.0929-70.7344 83.5976-69.239Q82.1022-67.7437 82.1022-65.657Q82.1022-63.5712 83.5976-62.0682Q85.0929-60.5652 87.1796-60.5652ZM99.7505-30.1765Q101.837-30.1765 103.34-31.6719Q104.843-33.1673 104.843-35.2539Q104.843-37.3405 103.34-38.8435Q101.837-40.3465 99.7505-40.3465Q97.6639-40.3465 96.1609-38.8435Q94.6579-37.3405 94.6579-35.2539Q94.6579-33.1673 96.1609-31.6719Q97.6639-30.1765 99.7505-30.1765ZM87.1796 0.226593Q89.2815 0.226593 90.7768-1.26877Q92.2722-2.76413 92.2722-4.85077Q92.2722-6.93665 90.7768-8.43964Q89.2815-9.94263 87.1796-9.94263Q85.0929-9.94263 83.5976-8.43964Q82.1022-6.93665 82.1022-4.85077Q82.1022-2.76413 83.5976-1.26877Q85.0929 0.226593 87.1796 0.226593ZM56.7917 12.7975Q58.8776 12.7975 60.3733 11.2946Q61.869 9.79156 61.869 7.70493Q61.869 5.61829 60.3733 4.12292Q58.8776 2.62756 56.7917 2.62756Q54.705 2.62756 53.2021 4.12292Q51.6991 5.61829 51.6991 7.70493Q51.6991 9.79156 53.2021 11.2946Q54.705 12.7975 56.7917 12.7975ZM26.3885 0.226593Q28.4744 0.226593 29.9774-1.26877Q31.4804-2.76413 31.4804-4.85077Q31.4804-6.93665 29.9774-8.43964Q28.4744-9.94263 26.3885-9.94263Q24.3019-9.94263 22.8065-8.43964Q21.3112-6.93665 21.3112-4.85077Q21.3112-2.76413 22.8065-1.26877Q24.3019 0.226593 26.3885 0.226593Z"/>
  </g>
  <g id="Thin-M" transform="matrix(1 0 0 1 800.852 1126)">
   <path d="M55.5702-12.2986Q60.2615-12.2986 64.4268-14.1113Q68.5921-15.9241 71.7533-19.0781Q74.9146-22.2321 76.7094-26.3973Q78.5042-30.5626 78.5042-35.2539Q78.5042-39.959 76.7094-44.1174Q74.9146-48.2758 71.7533-51.4542Q68.5921-54.6326 64.4268-56.4278Q60.2615-58.223 55.5702-58.223Q50.8438-58.223 46.6965-56.4278Q42.5491-54.6326 39.3772-51.4542Q36.2053-48.2758 34.4101-44.1174Q32.6149-39.959 32.6149-35.2539Q32.6149-30.5626 34.4101-26.3973Q36.2053-22.2321 39.3772-19.0781Q42.5491-15.9241 46.6965-14.1113Q50.8438-12.2986 55.5702-12.2986ZM13.0119-31.0173Q14.7575-31.0173 16.003-32.2624Q17.2485-33.5075 17.2485-35.2539Q17.2485-37.0003 16.003-38.2629Q14.7575-39.5256 13.0119-39.5256Q11.2305-39.5256 9.98535-38.2629Q8.74023-37.0003 8.74023-35.2539Q8.74023-33.5075 9.98535-32.2624Q11.2305-31.0173 13.0119-31.0173ZM25.4471-61.1053Q27.1935-61.1053 28.4561-62.368Q29.7188-63.6307 29.7188-65.377Q29.7188-67.1234 28.4561-68.3685Q27.1935-69.6136 25.4471-69.6136Q23.7015-69.6136 22.4564-68.3685Q21.2112-67.1234 21.2112-65.377Q21.2112-63.6307 22.4564-62.368Q23.7015-61.1053 25.4471-61.1053ZM55.5702-73.5764Q57.3166-73.5764 58.5617-74.8215Q59.8068-76.0666 59.8068-77.8122Q59.8068-79.5586 58.5617-80.8212Q57.3166-82.0839 55.5702-82.0839Q53.8246-82.0839 52.5616-80.8212Q51.2985-79.5586 51.2985-77.8122Q51.2985-76.0666 52.5616-74.8215Q53.8246-73.5764 55.5702-73.5764ZM85.6583-61.1053Q87.4397-61.1053 88.6848-62.368Q89.93-63.6307 89.93-65.377Q89.93-67.1234 88.6848-68.3685Q87.4397-69.6136 85.6583-69.6136Q83.9119-69.6136 82.6668-68.3685Q81.4217-67.1234 81.4217-65.377Q81.4217-63.6307 82.6668-62.368Q83.9119-61.1053 85.6583-61.1053ZM98.1293-31.0173Q99.8749-31.0173 101.138-32.2624Q102.4-33.5075 102.4-35.2539Q102.4-37.0003 101.138-38.2629Q99.8749-39.5256 98.1293-39.5256Q96.3829-39.5256 95.1202-38.2629Q93.8576-37.0003 93.8576-35.2539Q93.8576-33.5075 95.1202-32.2624Q96.3829-31.0173 98.1293-31.0173ZM85.6583-0.894165Q87.4397-0.894165 88.6848-2.13928Q89.93-3.3844 89.93-5.13077Q89.93-6.87714 88.6848-8.1398Q87.4397-9.40247 85.6583-9.40247Q83.9119-9.40247 82.6668-8.1398Q81.4217-6.87714 81.4217-5.13077Q81.4217-3.3844 82.6668-2.13928Q83.9119-0.894165 85.6583-0.894165ZM55.5702 11.5761Q57.3166 11.5761 58.5617 10.3134Q59.8068 9.05075 59.8068 7.30438Q59.8068 5.55878 58.5617 4.31366Q57.3166 3.06854 55.5702 3.06854Q53.8246 3.06854 52.5616 4.31366Q51.2985 5.55878 51.2985 7.30438Q51.2985 9.05075 52.5616 10.3134Q53.8246 11.5761 55.5702 11.5761ZM25.4471-0.894165Q27.1935-0.894165 28.4561-2.13928Q29.7188-3.3844 29.7188-5.13077Q29.7188-6.87714 28.4561-8.1398Q27.1935-9.40247 25.4471-9.40247Q23.7015-9.40247 22.4564-8.1398Q21.2112-6.87714 21.2112-5.13077Q21.2112-3.3844 22.4564-2.13928Q23.7015-0.894165 25.4471-0.894165Z"/>
  </g>
  <g id="Ultralight-M" transform="matrix(1 0 0 1 504.766 1126)">
   <path d="M54.9446-12.8525Q59.5238-12.8525 63.586-14.624Q67.6483-16.3956 70.7275-19.4729Q73.8068-22.5502 75.5554-26.6129Q77.3041-30.6755 77.3041-35.2539Q77.3041-39.8361 75.5554-43.8969Q73.8068-47.9576 70.7275-51.0593Q67.6483-54.1611 63.586-55.9097Q59.5238-57.6584 54.9446-57.6584Q50.3212-57.6584 46.2811-55.9097Q42.2409-54.1611 39.1411-51.0593Q36.0413-47.9576 34.2922-43.8969Q32.5432-39.8361 32.5432-35.2539Q32.5432-30.6755 34.2922-26.6129Q36.0413-22.5502 39.1411-19.4729Q42.2409-16.3956 46.2811-14.624Q50.3212-12.8525 54.9446-12.8525ZM12.5916-31.4484Q14.1632-31.4484 15.2802-32.5653Q16.3971-33.6823 16.3971-35.2539Q16.3971-36.8256 15.2802-37.9654Q14.1632-39.1052 12.5916-39.1052Q10.9741-39.1052 9.85718-37.9654Q8.74023-36.8256 8.74023-35.2539Q8.74023-33.6823 9.85718-32.5653Q10.9741-31.4484 12.5916-31.4484ZM24.9657-61.3823Q26.5373-61.3823 27.6768-62.5221Q28.8162-63.662 28.8162-65.2336Q28.8162-66.8053 27.6768-67.9222Q26.5373-69.0392 24.9657-69.0392Q23.3932-69.0392 22.2763-67.9222Q21.1594-66.8053 21.1594-65.2336Q21.1594-63.662 22.2763-62.5221Q23.3932-61.3823 24.9657-61.3823ZM54.9446-73.8014Q56.5163-73.8014 57.6332-74.9184Q58.7502-76.0353 58.7502-77.6077Q58.7502-79.1794 57.6332-80.3188Q56.5163-81.4583 54.9446-81.4583Q53.373-81.4583 52.2335-80.3188Q51.0941-79.1794 51.0941-77.6077Q51.0941-76.0353 52.2335-74.9184Q53.373-73.8014 54.9446-73.8014ZM84.8793-61.3823Q86.496-61.3823 87.6129-62.5221Q88.7299-63.662 88.7299-65.2336Q88.7299-66.8053 87.6129-67.9222Q86.496-69.0392 84.8793-69.0392Q83.3069-69.0392 82.1899-67.9222Q81.073-66.8053 81.073-65.2336Q81.073-63.662 82.1899-62.5221Q83.3069-61.3823 84.8793-61.3823ZM97.2984-31.4484Q98.8701-31.4484 100.01-32.5653Q101.15-33.6823 101.15-35.2539Q101.15-36.8256 100.01-37.9654Q98.8701-39.1052 97.2984-39.1052Q95.7268-39.1052 94.5869-37.9654Q93.4471-36.8256 93.4471-35.2539Q93.4471-33.6823 94.5869-32.5653Q95.7268-31.4484 97.2984-31.4484ZM84.8793-1.46866Q86.496-1.46866 87.6129-2.5856Q88.7299-3.70255 88.7299-5.2742Q88.7299-6.84586 87.6129-7.98569Q86.496-9.12552 84.8793-9.12552Q83.3069-9.12552 82.1899-7.98569Q81.073-6.84586 81.073-5.2742Q81.073-3.70255 82.1899-2.5856Q83.3069-1.46866 84.8793-1.46866ZM54.9446 10.9505Q56.5163 10.9505 57.6332 9.81102Q58.7502 8.67157 58.7502 7.09991Q58.7502 5.5275 57.6332 4.41055Q56.5163 3.29361 54.9446 3.29361Q53.373 3.29361 52.2335 4.41055Q51.0941 5.5275 51.0941 7.09991Q51.0941 8.67157 52.2335 9.81102Q53.373 10.9505 54.9446 10.9505ZM24.9657-1.46866Q26.5373-1.46866 27.6768-2.5856Q28.8162-3.70255 28.8162-5.2742Q28.8162-6.84586 27.6768-7.98569Q26.5373-9.12552 24.9657-9.12552Q23.3932-9.12552 22.2763-7.98569Q21.1594-6.84586 21.1594-5.2742Q21.1594-3.70255 22.2763-2.5856Q23.3932-1.46866 24.9657-1.46866Z"/>
  </g>
  <g id="Black-S" transform="matrix(1 0 0 1 2884.57 696)">
   <path d="M48.8281-12.793Q54.9805-12.793 60.083-15.8447Q65.1855-18.8965 68.2373-23.999Q71.2891-29.1016 71.2891-35.2539Q71.2891-41.4062 68.2373-46.5088Q65.1855-51.6113 60.083-54.6631Q54.9805-57.7148 48.8281-57.7148Q42.6758-57.7148 37.5732-54.6631Q32.4707-51.6113 29.4189-46.5088Q26.3672-41.4062 26.3672-35.2539Q26.3672-29.0527 29.3945-23.9502Q32.4219-18.8477 37.5244-15.8203Q42.627-12.793 48.8281-12.793ZM12.9883-29.1016Q15.5762-29.1016 17.3584-30.9082Q19.1406-32.7148 19.1406-35.2539Q19.1406-37.8418 17.3584-39.624Q15.5762-41.4062 12.9883-41.4062Q10.4492-41.4062 8.64258-39.624Q6.83594-37.8418 6.83594-35.2539Q6.83594-32.7148 8.64258-30.9082Q10.4492-29.1016 12.9883-29.1016ZM23.4863-54.4434Q26.0742-54.4434 27.8564-56.25Q29.6387-58.0566 29.6387-60.5957Q29.6387-63.1836 27.8564-64.9658Q26.0742-66.748 23.4863-66.748Q20.9473-66.748 19.1406-64.9658Q17.334-63.1836 17.334-60.5957Q17.334-58.0566 19.1406-56.25Q20.9473-54.4434 23.4863-54.4434ZM48.8281-64.9414Q51.416-64.9414 53.1982-66.748Q54.9805-68.5547 54.9805-71.0938Q54.9805-73.6816 53.1982-75.4639Q51.416-77.2461 48.8281-77.2461Q46.2891-77.2461 44.4824-75.4639Q42.6758-73.6816 42.6758-71.0938Q42.6758-68.5547 44.4824-66.748Q46.2891-64.9414 48.8281-64.9414ZM74.1699-54.4434Q76.7578-54.4434 78.54-56.25Q80.3223-58.0566 80.3223-60.5957Q80.3223-63.1836 78.54-64.9658Q76.7578-66.748 74.1699-66.748Q71.6309-66.748 69.8242-64.9658Q68.0176-63.1836 68.0176-60.5957Q68.0176-58.0566 69.8242-56.25Q71.6309-54.4434 74.1699-54.4434ZM84.668-29.1016Q87.2559-29.1016 89.0381-30.9082Q90.8203-32.7148 90.8203-35.2539Q90.8203-37.8418 89.0381-39.624Q87.2559-41.4062 84.668-41.4062Q82.1289-41.4062 80.3223-39.624Q78.5156-37.8418 78.5156-35.2539Q78.5156-32.7148 80.3223-30.9082Q82.1289-29.1016 84.668-29.1016ZM74.1699-3.75977Q76.7578-3.75977 78.54-5.56641Q80.3223-7.37305 80.3223-9.91211Q80.3223-12.5 78.54-14.2822Q76.7578-16.0645 74.1699-16.0645Q71.6309-16.0645 69.8242-14.2822Q68.0176-12.5 68.0176-9.91211Q68.0176-7.37305 69.8242-5.56641Q71.6309-3.75977 74.1699-3.75977ZM48.8281 6.73828Q51.416 6.73828 53.1982 4.93164Q54.9805 3.125 54.9805 0.585938Q54.9805-2.00195 53.1982-3.78418Q51.416-5.56641 48.8281-5.56641Q46.2891-5.56641 44.4824-3.78418Q42.6758-2.00195 42.6758 0.585938Q42.6758 3.125 44.4824 4.93164Q46.2891 6.73828 48.8281 6.73828ZM23.4863-3.75977Q26.0742-3.75977 27.8564-5.56641Q29.6387-7.37305 29.6387-9.91211Q29.6387-12.5 27.8564-14.2822Q26.0742-16.0645 23.4863-16.0645Q20.9473-16.0645 19.1406-14.2822Q17.334-12.5 17.334-9.91211Q17.334-7.37305 19.1406-5.56641Q20.9473-3.75977 23.4863-3.75977Z"/>
  </g>
  <g id="Heavy-S" transform="matrix(1 0 0 1 2588.61 696)">
   <path d="M48.0789-13.4041Q54.0588-13.4041 59.0229-16.375Q63.987-19.3459 66.9582-24.3103Q69.9295-29.2747 69.9295-35.2539Q69.9295-41.2331 66.9582-46.1975Q63.987-51.162 59.0229-54.1328Q54.0588-57.1037 48.0789-57.1037Q42.0998-57.1037 37.1353-54.1328Q32.1709-51.162 29.2-46.1975Q26.2291-41.2331 26.2291-35.2539Q26.2291-29.2374 29.1813-24.2729Q32.1335-19.3085 37.0979-16.3563Q42.0624-13.4041 48.0789-13.4041ZM12.6656-29.4243Q15.1039-29.4243 16.7995-31.1386Q18.4952-32.8529 18.4952-35.2539Q18.4952-37.6923 16.7995-39.3879Q15.1039-41.0835 12.6656-41.0835Q10.2646-41.0835 8.55026-39.3879Q6.83594-37.6923 6.83594-35.2539Q6.83594-32.8529 8.55026-31.1386Q10.2646-29.4243 12.6656-29.4243ZM23.037-54.4662Q25.4753-54.4662 27.1709-56.181Q28.8666-57.8957 28.8666-60.2959Q28.8666-62.7457 27.1709-64.4356Q25.4753-66.1255 23.037-66.1255Q20.6245-66.1255 18.9159-64.4356Q17.2073-62.7457 17.2073-60.2959Q17.2073-57.8957 18.9159-56.181Q20.6245-54.4662 23.037-54.4662ZM48.0789-64.8376Q50.5173-64.8376 52.2129-66.552Q53.9085-68.2663 53.9085-70.6673Q53.9085-73.1056 52.2129-74.8013Q50.5173-76.4969 48.0789-76.4969Q45.6779-76.4969 43.9636-74.8013Q42.2493-73.1056 42.2493-70.6673Q42.2493-68.2663 43.9636-66.552Q45.6779-64.8376 48.0789-64.8376ZM73.1209-54.4662Q75.5707-54.4662 77.2606-56.181Q78.9505-57.8957 78.9505-60.2959Q78.9505-62.7457 77.2606-64.4356Q75.5707-66.1255 73.1209-66.1255Q70.7207-66.1255 69.006-64.4356Q67.2913-62.7457 67.2913-60.2959Q67.2913-57.8957 69.006-56.181Q70.7207-54.4662 73.1209-54.4662ZM83.4923-29.4243Q85.9421-29.4243 87.632-31.1386Q89.3219-32.8529 89.3219-35.2539Q89.3219-37.6923 87.632-39.3879Q85.9421-41.0835 83.4923-41.0835Q81.0921-41.0835 79.3774-39.3879Q77.6627-37.6923 77.6627-35.2539Q77.6627-32.8529 79.3774-31.1386Q81.0921-29.4243 83.4923-29.4243ZM73.1209-4.38232Q75.5707-4.38232 77.2606-6.09093Q78.9505-7.79953 78.9505-10.2119Q78.9505-12.6495 77.2606-14.3456Q75.5707-16.0416 73.1209-16.0416Q70.7207-16.0416 69.006-14.3456Q67.2913-12.6495 67.2913-10.2119Q67.2913-7.79953 69.006-6.09093Q70.7207-4.38232 73.1209-4.38232ZM48.0789 5.98907Q50.5173 5.98907 52.2129 4.27475Q53.9085 2.56042 53.9085 0.159454Q53.9085-2.2789 52.2129-3.97453Q50.5173-5.67017 48.0789-5.67017Q45.6779-5.67017 43.9636-3.97453Q42.2493-2.2789 42.2493 0.159454Q42.2493 2.56042 43.9636 4.27475Q45.6779 5.98907 48.0789 5.98907ZM23.037-4.38232Q25.4753-4.38232 27.1709-6.09093Q28.8666-7.79953 28.8666-10.2119Q28.8666-12.6495 27.1709-14.3456Q25.4753-16.0416 23.037-16.0416Q20.6245-16.0416 18.9159-14.3456Q17.2073-12.6495 17.2073-10.2119Q17.2073-7.79953 18.9159-6.09093Q20.6245-4.38232 23.037-4.38232Z"/>
  </g>
  <g id="Bold-S" transform="matrix(1 0 0 1 2292.74 696)">
   <path d="M47.2412-14.0869Q53.0273-14.0869 57.8369-16.9678Q62.6465-19.8486 65.5273-24.6582Q68.4082-29.4678 68.4082-35.2539Q68.4082-41.04 65.5273-45.8496Q62.6465-50.6592 57.8369-53.54Q53.0273-56.4209 47.2412-56.4209Q41.4551-56.4209 36.6455-53.54Q31.8359-50.6592 28.9551-45.8496Q26.0742-41.04 26.0742-35.2539Q26.0742-29.4434 28.9429-24.6338Q31.8115-19.8242 36.6211-16.9556Q41.4307-14.0869 47.2412-14.0869ZM12.3047-29.7852Q14.5752-29.7852 16.1743-31.3965Q17.7734-33.0078 17.7734-35.2539Q17.7734-37.5244 16.1743-39.1235Q14.5752-40.7227 12.3047-40.7227Q10.0586-40.7227 8.44727-39.1235Q6.83594-37.5244 6.83594-35.2539Q6.83594-33.0078 8.44727-31.3965Q10.0586-29.7852 12.3047-29.7852ZM22.5342-54.4922Q24.8047-54.4922 26.4038-56.1035Q28.0029-57.7148 28.0029-59.9609Q28.0029-62.2559 26.4038-63.8428Q24.8047-65.4297 22.5342-65.4297Q20.2637-65.4297 18.6646-63.8428Q17.0654-62.2559 17.0654-59.9609Q17.0654-57.7148 18.6646-56.1035Q20.2637-54.4922 22.5342-54.4922ZM47.2412-64.7217Q49.5117-64.7217 51.1108-66.333Q52.71-67.9443 52.71-70.1904Q52.71-72.4609 51.1108-74.0601Q49.5117-75.6592 47.2412-75.6592Q44.9951-75.6592 43.3838-74.0601Q41.7725-72.4609 41.7725-70.1904Q41.7725-67.9443 43.3838-66.333Q44.9951-64.7217 47.2412-64.7217ZM71.9482-54.4922Q74.2432-54.4922 75.8301-56.1035Q77.417-57.7148 77.417-59.9609Q77.417-62.2559 75.8301-63.8428Q74.2432-65.4297 71.9482-65.4297Q69.7021-65.4297 68.0908-63.8428Q66.4795-62.2559 66.4795-59.9609Q66.4795-57.7148 68.0908-56.1035Q69.7021-54.4922 71.9482-54.4922ZM82.1777-29.7852Q84.4727-29.7852 86.0596-31.3965Q87.6465-33.0078 87.6465-35.2539Q87.6465-37.5244 86.0596-39.1235Q84.4727-40.7227 82.1777-40.7227Q79.9316-40.7227 78.3203-39.1235Q76.709-37.5244 76.709-35.2539Q76.709-33.0078 78.3203-31.3965Q79.9316-29.7852 82.1777-29.7852ZM71.9482-5.07812Q74.2432-5.07812 75.8301-6.67725Q77.417-8.27637 77.417-10.5469Q77.417-12.8174 75.8301-14.4165Q74.2432-16.0156 71.9482-16.0156Q69.7021-16.0156 68.0908-14.4165Q66.4795-12.8174 66.4795-10.5469Q66.4795-8.27637 68.0908-6.67725Q69.7021-5.07812 71.9482-5.07812ZM47.2412 5.15137Q49.5117 5.15137 51.1108 3.54004Q52.71 1.92871 52.71-0.317383Q52.71-2.58789 51.1108-4.18701Q49.5117-5.78613 47.2412-5.78613Q44.9951-5.78613 43.3838-4.18701Q41.7725-2.58789 41.7725-0.317383Q41.7725 1.92871 43.3838 3.54004Q44.9951 5.15137 47.2412 5.15137ZM22.5342-5.07812Q24.8047-5.07812 26.4038-6.67725Q28.0029-8.27637 28.0029-10.5469Q28.0029-12.8174 26.4038-14.4165Q24.8047-16.0156 22.5342-16.0156Q20.2637-16.0156 18.6646-14.4165Q17.0654-12.8174 17.0654-10.5469Q17.0654-8.27637 18.6646-6.67725Q20.2637-5.07812 22.5342-5.07812Z"/>
  </g>
  <g id="Semibold-S" transform="matrix(1 0 0 1 1996.6 696)">
   <path d="M46.6637-14.5576Q52.3163-14.5576 57.0194-17.3763Q61.7226-20.195 64.5409-24.8981Q67.3592-29.6013 67.3592-35.2539Q67.3592-40.9065 64.5409-45.6097Q61.7226-50.3128 57.0194-53.1315Q52.3163-55.9502 46.6637-55.9502Q41.011-55.9502 36.3079-53.1315Q31.6048-50.3128 28.7861-45.6097Q25.9674-40.9065 25.9674-35.2539Q25.9674-29.5853 28.7785-24.8825Q31.5895-20.1797 36.2923-17.3687Q40.995-14.5576 46.6637-14.5576ZM12.056-30.0339Q14.2105-30.0339 15.7433-31.5742Q17.276-33.1146 17.276-35.2539Q17.276-37.4092 15.7433-38.9416Q14.2105-40.4739 12.056-40.4739Q9.91669-40.4739 8.37631-38.9416Q6.83594-37.4092 6.83594-35.2539Q6.83594-33.1146 8.37631-31.5742Q9.91669-30.0339 12.056-30.0339ZM22.1878-54.5097Q24.3423-54.5097 25.8751-56.0501Q27.4078-57.5905 27.4078-59.7298Q27.4078-61.9179 25.8751-63.4338Q24.3423-64.9498 22.1878-64.9498Q20.015-64.9498 18.4914-63.4338Q16.9678-61.9179 16.9678-59.7298Q16.9678-57.5905 18.4914-56.0501Q20.015-54.5097 22.1878-54.5097ZM46.6637-64.6416Q48.8182-64.6416 50.351-66.1819Q51.8837-67.7223 51.8837-69.8616Q51.8837-72.0169 50.351-73.5493Q48.8182-75.0816 46.6637-75.0816Q44.5244-75.0816 42.984-73.5493Q41.4436-72.0169 41.4436-69.8616Q41.4436-67.7223 42.984-66.1819Q44.5244-64.6416 46.6637-64.6416ZM71.1395-54.5097Q73.3276-54.5097 74.8436-56.0501Q76.3596-57.5905 76.3596-59.7298Q76.3596-61.9179 74.8436-63.4338Q73.3276-64.9498 71.1395-64.9498Q69.0002-64.9498 67.4599-63.4338Q65.9195-61.9179 65.9195-59.7298Q65.9195-57.5905 67.4599-56.0501Q69.0002-54.5097 71.1395-54.5097ZM81.2714-30.0339Q83.4595-30.0339 84.9754-31.5742Q86.4914-33.1146 86.4914-35.2539Q86.4914-37.4092 84.9754-38.9416Q83.4595-40.4739 81.2714-40.4739Q79.1321-40.4739 77.5917-38.9416Q76.0513-37.4092 76.0513-35.2539Q76.0513-33.1146 77.5917-31.5742Q79.1321-30.0339 81.2714-30.0339ZM71.1395-5.55801Q73.3276-5.55801 74.8436-7.0816Q76.3596-8.60519 76.3596-10.778Q76.3596-12.9326 74.8436-14.4653Q73.3276-15.9981 71.1395-15.9981Q69.0002-15.9981 67.4599-14.4653Q65.9195-12.9326 65.9195-10.778Q65.9195-8.60519 67.4599-7.0816Q69.0002-5.55801 71.1395-5.55801ZM46.6637 4.57382Q48.8182 4.57382 50.351 3.03345Q51.8837 1.49307 51.8837-0.64621Q51.8837-2.80151 50.351-4.33388Q48.8182-5.86624 46.6637-5.86624Q44.5244-5.86624 42.984-4.33388Q41.4436-2.80151 41.4436-0.64621Q41.4436 1.49307 42.984 3.03345Q44.5244 4.57382 46.6637 4.57382ZM22.1878-5.55801Q24.3423-5.55801 25.8751-7.0816Q27.4078-8.60519 27.4078-10.778Q27.4078-12.9326 25.8751-14.4653Q24.3423-15.9981 22.1878-15.9981Q20.015-15.9981 18.4914-14.4653Q16.9678-12.9326 16.9678-10.778Q16.9678-8.60519 18.4914-7.0816Q20.015-5.55801 22.1878-5.55801Z"/>
  </g>
  <g id="Medium-S" transform="matrix(1 0 0 1 1700.33 696)">
   <path d="M46.2257-14.9147Q51.7776-14.9147 56.3995-17.6865Q61.0214-20.4582 63.7928-25.0801Q66.5642-29.702 66.5642-35.2539Q66.5642-40.8058 63.7928-45.4277Q61.0214-50.0496 56.3995-52.8214Q51.7776-55.5931 46.2257-55.5931Q40.6738-55.5931 36.0519-52.8214Q31.4301-50.0496 28.6583-45.4277Q25.8865-40.8058 25.8865-35.2539Q25.8865-29.6936 28.6537-25.0713Q31.4209-20.4491 36.0428-17.6819Q40.6647-14.9147 46.2257-14.9147ZM11.8675-30.2223Q13.9343-30.2223 15.4163-31.7089Q16.8983-33.1955 16.8983-35.2539Q16.8983-37.3215 15.4163-38.8035Q13.9343-40.2855 11.8675-40.2855Q9.80835-40.2855 8.32214-38.8035Q6.83594-37.3215 6.83594-35.2539Q6.83594-33.1955 8.32214-31.7089Q9.80835-30.2223 11.8675-30.2223ZM21.9246-54.5235Q23.9922-54.5235 25.4742-56.0097Q26.9562-57.4959 26.9562-59.5551Q26.9562-61.6623 25.4742-63.1241Q23.9922-64.5859 21.9246-64.5859Q19.8265-64.5859 18.3601-63.1241Q16.8938-61.6623 16.8938-59.5551Q16.8938-57.4959 18.3601-56.0097Q19.8265-54.5235 21.9246-54.5235ZM46.2257-64.5813Q48.2933-64.5813 49.7749-66.0675Q51.2566-67.5537 51.2566-69.6121Q51.2566-71.6797 49.7749-73.1617Q48.2933-74.6437 46.2257-74.6437Q44.1673-74.6437 42.6807-73.1617Q41.1942-71.6797 41.1942-69.6121Q41.1942-67.5537 42.6807-66.0675Q44.1673-64.5813 46.2257-64.5813ZM70.5261-54.5235Q72.6341-54.5235 74.0959-56.0097Q75.5577-57.4959 75.5577-59.5551Q75.5577-61.6623 74.0959-63.1241Q72.6341-64.5859 70.5261-64.5859Q68.4677-64.5859 66.9815-63.1241Q65.4953-61.6623 65.4953-59.5551Q65.4953-57.4959 66.9815-56.0097Q68.4677-54.5235 70.5261-54.5235ZM80.584-30.2223Q82.6912-30.2223 84.1534-31.7089Q85.6155-33.1955 85.6155-35.2539Q85.6155-37.3215 84.1534-38.8035Q82.6912-40.2855 80.584-40.2855Q78.5255-40.2855 77.039-38.8035Q75.5524-37.3215 75.5524-35.2539Q75.5524-33.1955 77.039-31.7089Q78.5255-30.2223 80.584-30.2223ZM70.5261-5.92194Q72.6341-5.92194 74.0959-7.38831Q75.5577-8.85468 75.5577-10.9528Q75.5577-13.0203 74.0959-14.5023Q72.6341-15.9843 70.5261-15.9843Q68.4677-15.9843 66.9815-14.5023Q65.4953-13.0203 65.4953-10.9528Q65.4953-8.85468 66.9815-7.38831Q68.4677-5.92194 70.5261-5.92194ZM46.2257 4.13589Q48.2933 4.13589 49.7749 2.64931Q51.2566 1.16272 51.2566-0.895691Q51.2566-2.96326 49.7749-4.44489Q48.2933-5.92651 46.2257-5.92651Q44.1673-5.92651 42.6807-4.44489Q41.1942-2.96326 41.1942-0.895691Q41.1942 1.16272 42.6807 2.64931Q44.1673 4.13589 46.2257 4.13589ZM21.9246-5.92194Q23.9922-5.92194 25.4742-7.38831Q26.9562-8.85468 26.9562-10.9528Q26.9562-13.0203 25.4742-14.5023Q23.9922-15.9843 21.9246-15.9843Q19.8265-15.9843 18.3601-14.5023Q16.8938-13.0203 16.8938-10.9528Q16.8938-8.85468 18.3601-7.38831Q19.8265-5.92194 21.9246-5.92194Z"/>
  </g>
  <g id="Regular-S" transform="matrix(1 0 0 1 1404.19 696)">
   <path d="M45.6543-15.3809Q51.0742-15.3809 55.5908-18.0908Q60.1074-20.8008 62.8174-25.3174Q65.5273-29.834 65.5273-35.2539Q65.5273-40.6738 62.8174-45.1904Q60.1074-49.707 55.5908-52.417Q51.0742-55.127 45.6543-55.127Q40.2344-55.127 35.7178-52.417Q31.2012-49.707 28.4912-45.1904Q25.7812-40.6738 25.7812-35.2539Q25.7812-29.834 28.4912-25.3174Q31.2012-20.8008 35.7178-18.0908Q40.2344-15.3809 45.6543-15.3809ZM11.6211-30.4688Q13.5742-30.4688 14.9902-31.8848Q16.4062-33.3008 16.4062-35.2539Q16.4062-37.207 14.9902-38.623Q13.5742-40.0391 11.6211-40.0391Q9.66797-40.0391 8.25195-38.623Q6.83594-37.207 6.83594-35.2539Q6.83594-33.3008 8.25195-31.8848Q9.66797-30.4688 11.6211-30.4688ZM21.582-54.541Q23.5352-54.541 24.9512-55.957Q26.3672-57.373 26.3672-59.3262Q26.3672-61.3281 24.9512-62.7197Q23.5352-64.1113 21.582-64.1113Q19.5801-64.1113 18.1885-62.7197Q16.7969-61.3281 16.7969-59.3262Q16.7969-57.373 18.1885-55.957Q19.5801-54.541 21.582-54.541ZM45.6543-64.502Q47.6074-64.502 49.0234-65.918Q50.4395-67.334 50.4395-69.2871Q50.4395-71.2402 49.0234-72.6562Q47.6074-74.0723 45.6543-74.0723Q43.7012-74.0723 42.2852-72.6562Q40.8691-71.2402 40.8691-69.2871Q40.8691-67.334 42.2852-65.918Q43.7012-64.502 45.6543-64.502ZM69.7266-54.541Q71.7285-54.541 73.1201-55.957Q74.5117-57.373 74.5117-59.3262Q74.5117-61.3281 73.1201-62.7197Q71.7285-64.1113 69.7266-64.1113Q67.7734-64.1113 66.3574-62.7197Q64.9414-61.3281 64.9414-59.3262Q64.9414-57.373 66.3574-55.957Q67.7734-54.541 69.7266-54.541ZM79.6875-30.4688Q81.6895-30.4688 83.0811-31.8848Q84.4727-33.3008 84.4727-35.2539Q84.4727-37.207 83.0811-38.623Q81.6895-40.0391 79.6875-40.0391Q77.7344-40.0391 76.3184-38.623Q74.9023-37.207 74.9023-35.2539Q74.9023-33.3008 76.3184-31.8848Q77.7344-30.4688 79.6875-30.4688ZM69.7266-6.39648Q71.7285-6.39648 73.1201-7.78809Q74.5117-9.17969 74.5117-11.1816Q74.5117-13.1348 73.1201-14.5508Q71.7285-15.9668 69.7266-15.9668Q67.7734-15.9668 66.3574-14.5508Q64.9414-13.1348 64.9414-11.1816Q64.9414-9.17969 66.3574-7.78809Q67.7734-6.39648 69.7266-6.39648ZM45.6543 3.56445Q47.6074 3.56445 49.0234 2.14844Q50.4395 0.732422 50.4395-1.2207Q50.4395-3.17383 49.0234-4.58984Q47.6074-6.00586 45.6543-6.00586Q43.7012-6.00586 42.2852-4.58984Q40.8691-3.17383 40.8691-1.2207Q40.8691 0.732422 42.2852 2.14844Q43.7012 3.56445 45.6543 3.56445ZM21.582-6.39648Q23.5352-6.39648 24.9512-7.78809Q26.3672-9.17969 26.3672-11.1816Q26.3672-13.1348 24.9512-14.5508Q23.5352-15.9668 21.582-15.9668Q19.5801-15.9668 18.1885-14.5508Q16.7969-13.1348 16.7969-11.1816Q16.7969-9.17969 18.1885-7.78809Q19.5801-6.39648 21.582-6.39648Z"/>
  </g>
  <g id="Light-S" transform="matrix(1 0 0 1 1108.3 696)">
   <path d="M44.8372-16.1072Q50.0603-16.1072 54.4102-18.7187Q58.7601-21.3303 61.3716-25.6805Q63.9832-30.0308 63.9832-35.2539Q63.9832-40.477 61.3716-44.8273Q58.7601-49.1776 54.4102-51.7891Q50.0603-54.4006 44.8372-54.4006Q39.6141-54.4006 35.2638-51.7891Q30.9135-49.1776 28.302-44.8273Q25.6905-40.477 25.6905-35.2539Q25.6905-30.0308 28.302-25.6805Q30.9135-21.3303 35.2638-18.7187Q39.6141-16.1072 44.8372-16.1072ZM11.0611-31.0287Q12.7869-31.0287 14.0366-32.2784Q15.2863-33.5281 15.2863-35.2539Q15.2863-36.9797 14.0366-38.2294Q12.7869-39.4791 11.0611-39.4791Q9.33533-39.4791 8.08563-38.2294Q6.83594-36.9797 6.83594-35.2539Q6.83594-33.5281 8.08563-32.2784Q9.33533-31.0287 11.0611-31.0287ZM20.9465-54.9194Q22.6723-54.9194 23.922-56.1691Q25.1717-57.4188 25.1717-59.1446Q25.1717-60.9039 23.922-62.1368Q22.6723-63.3698 20.9465-63.3698Q19.1864-63.3698 17.9539-62.1368Q16.7213-60.9039 16.7213-59.1446Q16.7213-57.4188 17.9539-56.1691Q19.1864-54.9194 20.9465-54.9194ZM44.8372-64.7896Q46.563-64.7896 47.8127-66.0389Q49.0623-67.2882 49.0623-69.03Q49.0623-70.7558 47.8127-72.0055Q46.563-73.2552 44.8372-73.2552Q43.1107-73.2552 41.8613-72.0055Q40.612-70.7558 40.612-69.03Q40.612-67.2882 41.8613-66.0389Q43.1107-64.7896 44.8372-64.7896ZM68.7279-54.9194Q70.4872-54.9194 71.7201-56.1691Q72.953-57.4188 72.953-59.1446Q72.953-60.9039 71.7201-62.1368Q70.4872-63.3698 68.7279-63.3698Q66.9861-63.3698 65.7368-62.1368Q64.4875-60.9039 64.4875-59.1446Q64.4875-57.4188 65.7368-56.1691Q66.9861-54.9194 68.7279-54.9194ZM78.598-31.0287Q80.3726-31.0287 81.6051-32.2784Q82.8377-33.5281 82.8377-35.2539Q82.8377-36.9797 81.6051-38.2294Q80.3726-39.4791 78.598-39.4791Q76.8715-39.4791 75.6222-38.2294Q74.3729-36.9797 74.3729-35.2539Q74.3729-33.5281 75.6222-32.2784Q76.8715-31.0287 78.598-31.0287ZM68.7279-7.13806Q70.4872-7.13806 71.7201-8.37097Q72.953-9.60388 72.953-11.3632Q72.953-13.089 71.7201-14.3387Q70.4872-15.5884 68.7279-15.5884Q66.9861-15.5884 65.7368-14.3387Q64.4875-13.089 64.4875-11.3632Q64.4875-9.60388 65.7368-8.37097Q66.9861-7.13806 68.7279-7.13806ZM44.8372 2.74734Q46.563 2.74734 47.8127 1.49765Q49.0623 0.247955 49.0623-1.47781Q49.0623-3.2196 47.8127-4.46892Q46.563-5.71823 44.8372-5.71823Q43.1107-5.71823 41.8613-4.46892Q40.612-3.2196 40.612-1.47781Q40.612 0.247955 41.8613 1.49765Q43.1107 2.74734 44.8372 2.74734ZM20.9465-7.13806Q22.6723-7.13806 23.922-8.37097Q25.1717-9.60388 25.1717-11.3632Q25.1717-13.089 23.922-14.3387Q22.6723-15.5884 20.9465-15.5884Q19.1864-15.5884 17.9539-14.3387Q16.7213-13.089 16.7213-11.3632Q16.7213-9.60388 17.9539-8.37097Q19.1864-7.13806 20.9465-7.13806Z"/>
  </g>
  <g id="Thin-S" transform="matrix(1 0 0 1 812.666 696)">
   <path d="M43.7561-17.0685Q48.719-17.0685 52.8488-19.5499Q56.9786-22.0314 59.4601-26.1612Q61.9415-30.291 61.9415-35.2539Q61.9415-40.2168 59.4601-44.3466Q56.9786-48.4764 52.8488-50.9579Q48.719-53.4393 43.7561-53.4393Q38.7932-53.4393 34.6634-50.9579Q30.5336-48.4764 28.0521-44.3466Q25.5707-40.2168 25.5707-35.2539Q25.5707-30.291 28.0521-26.1612Q30.5336-22.0314 34.6634-19.5499Q38.7932-17.0685 43.7561-17.0685ZM10.3203-31.7696Q11.7462-31.7696 12.7754-32.7988Q13.8046-33.828 13.8046-35.2539Q13.8046-36.6798 12.7754-37.709Q11.7462-38.7383 10.3203-38.7383Q8.89435-38.7383 7.86514-37.709Q6.83594-36.6798 6.83594-35.2539Q6.83594-33.828 7.86514-32.7988Q8.89435-31.7696 10.3203-31.7696ZM20.1057-55.4199Q21.5317-55.4199 22.5609-56.4491Q23.5901-57.4783 23.5901-58.9043Q23.5901-60.3439 22.5609-61.3663Q21.5317-62.3886 20.1057-62.3886Q18.6661-62.3886 17.6437-61.3663Q16.6214-60.3439 16.6214-58.9043Q16.6214-57.4783 17.6437-56.4491Q18.6661-55.4199 20.1057-55.4199ZM43.7561-65.1695Q45.182-65.1695 46.2112-66.1991Q47.2404-67.2287 47.2404-68.6897Q47.2404-70.1157 46.2112-71.1449Q45.182-72.1741 43.7561-72.1741Q42.3302-72.1741 41.301-71.1449Q40.2718-70.1157 40.2718-68.6897Q40.2718-67.2287 41.301-66.1991Q42.3302-65.1695 43.7561-65.1695ZM67.4065-55.4199Q68.8461-55.4199 69.8685-56.4491Q70.8908-57.4783 70.8908-58.9043Q70.8908-60.3439 69.8685-61.3663Q68.8461-62.3886 67.4065-62.3886Q65.9454-62.3886 64.9162-61.3663Q63.887-60.3439 63.887-58.9043Q63.887-57.4783 64.9162-56.4491Q65.9454-55.4199 67.4065-55.4199ZM77.1561-31.7696Q78.6308-31.7696 79.6535-32.7988Q80.6763-33.828 80.6763-35.2539Q80.6763-36.6798 79.6535-37.709Q78.6308-38.7383 77.1561-38.7383Q75.7309-38.7383 74.7013-37.709Q73.6717-36.6798 73.6717-35.2539Q73.6717-33.828 74.7013-32.7988Q75.7309-31.7696 77.1561-31.7696ZM67.4065-8.1192Q68.8461-8.1192 69.8685-9.14154Q70.8908-10.1639 70.8908-11.6035Q70.8908-13.0295 69.8685-14.0587Q68.8461-15.0879 67.4065-15.0879Q65.9454-15.0879 64.9162-14.0587Q63.887-13.0295 63.887-11.6035Q63.887-10.1639 64.9162-9.14154Q65.9454-8.1192 67.4065-8.1192ZM43.7561 1.66626Q45.182 1.66626 46.2112 0.636673Q47.2404-0.392914 47.2404-1.81808Q47.2404-3.27911 46.2112-4.3087Q45.182-5.33829 43.7561-5.33829Q42.3302-5.33829 41.301-4.3087Q40.2718-3.27911 40.2718-1.81808Q40.2718-0.392914 41.301 0.636673Q42.3302 1.66626 43.7561 1.66626ZM20.1057-8.1192Q21.5317-8.1192 22.5609-9.14154Q23.5901-10.1639 23.5901-11.6035Q23.5901-13.0295 22.5609-14.0587Q21.5317-15.0879 20.1057-15.0879Q18.6661-15.0879 17.6437-14.0587Q16.6214-13.0295 16.6214-11.6035Q16.6214-10.1639 17.6437-9.14154Q18.6661-8.1192 20.1057-8.1192Z"/>
  </g>
  <g id="Ultralight-S" transform="matrix(1 0 0 1 516.509 696)">
   <path d="M43.2022-17.5606Q48.0316-17.5606 52.0489-19.9753Q56.0661-22.39 58.4808-26.4072Q60.8955-30.4245 60.8955-35.2539Q60.8955-40.0833 58.4808-44.1006Q56.0661-48.1178 52.0489-50.5325Q48.0316-52.9472 43.2022-52.9472Q38.3728-52.9472 34.3555-50.5325Q30.3383-48.1178 27.9236-44.1006Q25.5089-40.0833 25.5089-35.2539Q25.5089-30.4245 27.9236-26.4072Q30.3383-22.39 34.3555-19.9753Q38.3728-17.5606 43.2022-17.5606ZM9.9411-32.1487Q11.2129-32.1487 12.1296-33.0654Q13.0463-33.9821 13.0463-35.2539Q13.0463-36.5257 12.1296-37.4424Q11.2129-38.3591 9.9411-38.3591Q8.66928-38.3591 7.75261-37.4424Q6.83594-36.5257 6.83594-35.2539Q6.83594-33.9821 7.75261-33.0654Q8.66928-32.1487 9.9411-32.1487ZM19.6747-55.6763Q20.9465-55.6763 21.8632-56.5929Q22.7798-57.5096 22.7798-58.7814Q22.7798-60.0563 21.8632-60.9715Q20.9465-61.8866 19.6747-61.8866Q18.399-61.8866 17.4843-60.9715Q16.5695-60.0563 16.5695-58.7814Q16.5695-57.5096 17.4843-56.5929Q18.399-55.6763 19.6747-55.6763ZM43.2022-65.3648Q44.474-65.3648 45.3907-66.2811Q46.3074-67.1974 46.3074-68.515Q46.3074-69.7868 45.3907-70.7035Q44.474-71.6202 43.2022-71.6202Q41.9304-71.6202 41.0137-70.7035Q40.097-69.7868 40.097-68.515Q40.097-67.1974 41.0137-66.2811Q41.9304-65.3648 43.2022-65.3648ZM66.7297-55.6763Q68.0046-55.6763 68.9194-56.5929Q69.8341-57.5096 69.8341-58.7814Q69.8341-60.0563 68.9194-60.9715Q68.0046-61.8866 66.7297-61.8866Q65.4121-61.8866 64.4955-60.9715Q63.5788-60.0563 63.5788-58.7814Q63.5788-57.5096 64.4955-56.5929Q65.4121-55.6763 66.7297-55.6763ZM76.4183-32.1487Q77.739-32.1487 78.6537-33.0654Q79.5685-33.9821 79.5685-35.2539Q79.5685-36.5257 78.6537-37.4424Q77.739-38.3591 76.4183-38.3591Q75.1457-38.3591 74.2294-37.4424Q73.3131-36.5257 73.3131-35.2539Q73.3131-33.9821 74.2294-33.0654Q75.1457-32.1487 76.4183-32.1487ZM66.7297-8.62122Q68.0046-8.62122 68.9194-9.53636Q69.8341-10.4515 69.8341-11.7264Q69.8341-12.9982 68.9194-13.9149Q68.0046-14.8315 66.7297-14.8315Q65.4121-14.8315 64.4955-13.9149Q63.5788-12.9982 63.5788-11.7264Q63.5788-10.4515 64.4955-9.53636Q65.4121-8.62122 66.7297-8.62122ZM43.2022 1.11237Q44.474 1.11237 45.3907 0.195694Q46.3074-0.720978 46.3074-1.9928Q46.3074-3.31039 45.3907-4.22668Q44.474-5.14297 43.2022-5.14297Q41.9304-5.14297 41.0137-4.22668Q40.097-3.31039 40.097-1.9928Q40.097-0.720978 41.0137 0.195694Q41.9304 1.11237 43.2022 1.11237ZM19.6747-8.62122Q20.9465-8.62122 21.8632-9.53636Q22.7798-10.4515 22.7798-11.7264Q22.7798-12.9982 21.8632-13.9149Q20.9465-14.8315 19.6747-14.8315Q18.399-14.8315 17.4843-13.9149Q16.5695-12.9982 16.5695-11.7264Q16.5695-10.4515 17.4843-9.53636Q18.399-8.62122 19.6747-8.62122Z"/>
  </g>
 </g>
</svg>
