<?xml version="1.0" encoding="utf-8"?>
<!-- Generator: Adobe Illustrator 25.4.1, SVG Export Plug-In . SVG Version: 6.00 Build 0)  -->
<svg version="1.1" id="Ebene_1" xmlns="http://www.w3.org/2000/svg" xmlns:xlink="http://www.w3.org/1999/xlink" x="0px" y="0px"
	 viewBox="0 0 1686 1108.7" style="enable-background:new 0 0 1686 1108.7;" xml:space="preserve">
<style type="text/css">
	.st0{fill:#303030;}
	.st1{fill:#FF00FF;}
	.st2{fill:#F15A24;}
	.st3{fill:#999999;}
	.st4{fill:#F4CC4A;}
	.st5{fill:#938062;}
	.st6{fill:#2DB8E6;}
	.st7{fill:none;stroke:#00FFFF;stroke-miterlimit:10;}
	.st8{fill:#F15A24;stroke:#FFFFFF;stroke-width:11;stroke-miterlimit:10;}
	.st9{fill:#FFFFFF;}
	.st10{fill:none;}
	.st11{fill:#00F3FF;}
	.st12{fill:#1D1D1B;}
	.st13{fill:none;stroke:#000000;stroke-width:35;stroke-linecap:round;stroke-miterlimit:10;}
	.st14{fill:none;stroke:#000000;stroke-width:40;stroke-linecap:round;stroke-miterlimit:10;}
	.st15{fill:none;stroke:#1D1D1B;stroke-width:16;stroke-linecap:round;stroke-miterlimit:10;}
	.st16{fill:#ED1C24;}
	.st17{fill:#1C1C1E;}
	.st18{fill:#F2F2F7;}
	.st19{fill:#FFFFFF;stroke:#000000;stroke-miterlimit:10;}
	.st20{fill:#F2F2F7;stroke:#000000;stroke-miterlimit:10;}
</style>
<polygon class="st0" points="1383.5,442.6 609.3,616.3 351.3,264 1142.5,127.3 "/>
<polygon class="st17" points="1354.3,732.4 613.2,930.3 609.3,616.7 1383.5,443 "/>
<polygon class="st17" points="609.3,616.3 613.2,929.9 215.1,777.7 215.1,528.7 351.8,264.6 "/>
<polygon class="st9" points="771.4,832.2 654.8,862.3 654.8,669.8 771.4,639.6 "/>
<polygon class="st18" points="788.5,842.9 671.9,873.1 671.9,680.5 788.5,650.4 "/>
<polygon class="st0" points="671.9,873.1 654.5,868.4 654.5,669.6 671.9,680.5 "/>
<polygon class="st3" points="788.5,650.4 671.9,680.5 654.8,669.8 771.4,639.6 "/>
<polygon class="st20" points="517.6,862.7 458.4,842.5 458.4,660.7 517.6,681 "/>
<polygon class="st20" points="406.6,715.3 357.9,697.4 360.7,623.6 408.7,639.8 "/>
<polygon class="st0" points="1302.2,745.9 976.9,832.8 976.9,605.1 1316.8,523.4 "/>
</svg>
