<?xml version="1.0" encoding="UTF-8"?>
<!--Generator: Apple Native CoreSVG 149-->
<!DOCTYPE svg
PUBLIC "-//W3C//DTD SVG 1.1//EN"
       "http://www.w3.org/Graphics/SVG/1.1/DTD/svg11.dtd">
<svg version="1.1" xmlns="http://www.w3.org/2000/svg" xmlns:xlink="http://www.w3.org/1999/xlink" width="3300" height="2200">
 <!--glyph: "", point size: 100.0, font version: "17.0d9e1", template writer version: "59"-->
 <style>.multicolor-0:systemGrayColor {fill:#8E8E93;opacity:1.0}
.multicolor-1:systemYellowColor {fill:#FFCC00;opacity:1.0}
.multicolor-2:systemOrangeColor {fill:#FF9500;opacity:1.0}
.multicolor-3:white {fill:#FFFFFF;opacity:1.0}
.multicolor-4:systemBrownColor {fill:#A2845E;opacity:1.0}
.multicolor-5:systemCyanColor {fill:#55BEF0;opacity:1.0}

.SFSymbolsPreview55BEF0 {fill:#55BEF0;opacity:1.0}
.SFSymbolsPreview8E8E93 {fill:#8E8E93;opacity:1.0}
.SFSymbolsPreviewA2845E {fill:#A2845E;opacity:1.0}
.SFSymbolsPreviewFF9500 {fill:#FF9500;opacity:1.0}
.SFSymbolsPreviewFFCC00 {fill:#FFCC00;opacity:1.0}
.SFSymbolsPreviewFFFFFF {fill:#FFFFFF;opacity:1.0}
</style>
 <g id="Notes">
  <rect height="2200" id="artboard" style="fill:white;opacity:1" width="3300" x="0" y="0"/>
  <line style="fill:none;stroke:black;opacity:1;stroke-width:0.5;" x1="263" x2="3036" y1="292" y2="292"/>
  <text style="stroke:none;fill:black;font-family:sans-serif;font-size:13;font-weight:bold;" transform="matrix(1 0 0 1 263 322)">Weight/Scale Variations</text>
  <text style="stroke:none;fill:black;font-family:sans-serif;font-size:13;text-anchor:middle;" transform="matrix(1 0 0 1 559.711 322)">Ultralight</text>
  <text style="stroke:none;fill:black;font-family:sans-serif;font-size:13;text-anchor:middle;" transform="matrix(1 0 0 1 856.422 322)">Thin</text>
  <text style="stroke:none;fill:black;font-family:sans-serif;font-size:13;text-anchor:middle;" transform="matrix(1 0 0 1 1153.13 322)">Light</text>
  <text style="stroke:none;fill:black;font-family:sans-serif;font-size:13;text-anchor:middle;" transform="matrix(1 0 0 1 1449.84 322)">Regular</text>
  <text style="stroke:none;fill:black;font-family:sans-serif;font-size:13;text-anchor:middle;" transform="matrix(1 0 0 1 1746.56 322)">Medium</text>
  <text style="stroke:none;fill:black;font-family:sans-serif;font-size:13;text-anchor:middle;" transform="matrix(1 0 0 1 2043.27 322)">Semibold</text>
  <text style="stroke:none;fill:black;font-family:sans-serif;font-size:13;text-anchor:middle;" transform="matrix(1 0 0 1 2339.98 322)">Bold</text>
  <text style="stroke:none;fill:black;font-family:sans-serif;font-size:13;text-anchor:middle;" transform="matrix(1 0 0 1 2636.69 322)">Heavy</text>
  <text style="stroke:none;fill:black;font-family:sans-serif;font-size:13;text-anchor:middle;" transform="matrix(1 0 0 1 2933.4 322)">Black</text>
  <line style="fill:none;stroke:black;opacity:1;stroke-width:0.5;" x1="263" x2="3036" y1="1903" y2="1903"/>
  <g transform="matrix(1 0 0 1 263 1933)">
   <path d="M9.24805 0.830078Q10.8691 0.830078 12.2949 0.214844Q13.7207-0.400391 14.8096-1.49414Q15.8984-2.58789 16.5186-4.01367Q17.1387-5.43945 17.1387-7.05078Q17.1387-8.66211 16.5186-10.0879Q15.8984-11.5137 14.8047-12.6074Q13.7109-13.7012 12.2852-14.3164Q10.8594-14.9316 9.23828-14.9316Q7.62695-14.9316 6.20117-14.3164Q4.77539-13.7012 3.69141-12.6074Q2.60742-11.5137 1.9873-10.0879Q1.36719-8.66211 1.36719-7.05078Q1.36719-5.43945 1.9873-4.01367Q2.60742-2.58789 3.69629-1.49414Q4.78516-0.400391 6.21094 0.214844Q7.63672 0.830078 9.24805 0.830078ZM9.24805-0.654297Q7.91992-0.654297 6.7627-1.14746Q5.60547-1.64062 4.73145-2.51953Q3.85742-3.39844 3.36426-4.56055Q2.87109-5.72266 2.87109-7.05078Q2.87109-8.37891 3.35938-9.54102Q3.84766-10.7031 4.72168-11.582Q5.5957-12.4609 6.75293-12.9541Q7.91016-13.4473 9.23828-13.4473Q10.5762-13.4473 11.7334-12.9541Q12.8906-12.4609 13.7695-11.582Q14.6484-10.7031 15.1465-9.54102Q15.6445-8.37891 15.6445-7.05078Q15.6445-5.72266 15.1514-4.56055Q14.6582-3.39844 13.7842-2.51953Q12.9102-1.64062 11.748-1.14746Q10.5859-0.654297 9.24805-0.654297ZM5.83984-7.04102Q5.83984-6.71875 6.04492-6.51855Q6.25-6.31836 6.5918-6.31836L8.50586-6.31836L8.50586-4.39453Q8.50586-4.0625 8.70605-3.85742Q8.90625-3.65234 9.22852-3.65234Q9.56055-3.65234 9.76562-3.85742Q9.9707-4.0625 9.9707-4.39453L9.9707-6.31836L11.8945-6.31836Q12.2266-6.31836 12.4316-6.51855Q12.6367-6.71875 12.6367-7.04102Q12.6367-7.37305 12.4316-7.57812Q12.2266-7.7832 11.8945-7.7832L9.9707-7.7832L9.9707-9.69727Q9.9707-10.0391 9.76562-10.2441Q9.56055-10.4492 9.22852-10.4492Q8.90625-10.4492 8.70605-10.2441Q8.50586-10.0391 8.50586-9.69727L8.50586-7.7832L6.5918-7.7832Q6.25-7.7832 6.04492-7.57812Q5.83984-7.37305 5.83984-7.04102Z"/>
  </g>
  <g transform="matrix(1 0 0 1 281.867 1933)">
   <path d="M11.709 2.91016Q13.75 2.91016 15.5518 2.12891Q17.3535 1.34766 18.7305-0.0292969Q20.1074-1.40625 20.8887-3.20801Q21.6699-5.00977 21.6699-7.05078Q21.6699-9.0918 20.8887-10.8936Q20.1074-12.6953 18.7305-14.0723Q17.3535-15.4492 15.5469-16.2305Q13.7402-17.0117 11.6992-17.0117Q9.6582-17.0117 7.85645-16.2305Q6.05469-15.4492 4.68262-14.0723Q3.31055-12.6953 2.5293-10.8936Q1.74805-9.0918 1.74805-7.05078Q1.74805-5.00977 2.5293-3.20801Q3.31055-1.40625 4.6875-0.0292969Q6.06445 1.34766 7.86621 2.12891Q9.66797 2.91016 11.709 2.91016ZM11.709 1.25Q9.98047 1.25 8.47656 0.605469Q6.97266-0.0390625 5.83496-1.17676Q4.69727-2.31445 4.05762-3.81836Q3.41797-5.32227 3.41797-7.05078Q3.41797-8.7793 4.05762-10.2832Q4.69727-11.7871 5.83008-12.9297Q6.96289-14.0723 8.4668-14.7119Q9.9707-15.3516 11.6992-15.3516Q13.4277-15.3516 14.9316-14.7119Q16.4355-14.0723 17.5781-12.9297Q18.7207-11.7871 19.3652-10.2832Q20.0098-8.7793 20.0098-7.05078Q20.0098-5.32227 19.3701-3.81836Q18.7305-2.31445 17.5928-1.17676Q16.4551-0.0390625 14.9463 0.605469Q13.4375 1.25 11.709 1.25ZM7.39258-7.04102Q7.39258-6.68945 7.62695-6.46484Q7.86133-6.24023 8.23242-6.24023L10.8789-6.24023L10.8789-3.57422Q10.8789-3.21289 11.1035-2.9834Q11.3281-2.75391 11.6797-2.75391Q12.0508-2.75391 12.2852-2.9834Q12.5195-3.21289 12.5195-3.57422L12.5195-6.24023L15.1758-6.24023Q15.5371-6.24023 15.7715-6.46484Q16.0059-6.68945 16.0059-7.04102Q16.0059-7.41211 15.7715-7.6416Q15.5371-7.87109 15.1758-7.87109L12.5195-7.87109L12.5195-10.5176Q12.5195-10.8984 12.2852-11.1279Q12.0508-11.3574 11.6797-11.3574Q11.3281-11.3574 11.1035-11.1279Q10.8789-10.8984 10.8789-10.5176L10.8789-7.87109L8.23242-7.87109Q7.85156-7.87109 7.62207-7.6416Q7.39258-7.41211 7.39258-7.04102Z"/>
  </g>
  <g transform="matrix(1 0 0 1 305.646 1933)">
   <path d="M14.9707 5.66406Q17.0605 5.66406 18.96 5.01465Q20.8594 4.36523 22.4512 3.19336Q24.043 2.02148 25.2197 0.429688Q26.3965-1.16211 27.0459-3.06641Q27.6953-4.9707 27.6953-7.05078Q27.6953-9.14062 27.0459-11.04Q26.3965-12.9395 25.2197-14.5312Q24.043-16.123 22.4512-17.2998Q20.8594-18.4766 18.9551-19.126Q17.0508-19.7754 14.9609-19.7754Q12.8711-19.7754 10.9717-19.126Q9.07227-18.4766 7.48535-17.2998Q5.89844-16.123 4.72168-14.5312Q3.54492-12.9395 2.90039-11.04Q2.25586-9.14062 2.25586-7.05078Q2.25586-4.9707 2.90527-3.06641Q3.55469-1.16211 4.72656 0.429688Q5.89844 2.02148 7.49023 3.19336Q9.08203 4.36523 10.9814 5.01465Q12.8809 5.66406 14.9707 5.66406ZM14.9707 3.84766Q13.1641 3.84766 11.5283 3.2959Q9.89258 2.74414 8.53516 1.74805Q7.17773 0.751953 6.17676-0.610352Q5.17578-1.97266 4.62891-3.6084Q4.08203-5.24414 4.08203-7.05078Q4.08203-8.86719 4.62891-10.5029Q5.17578-12.1387 6.17188-13.501Q7.16797-14.8633 8.52539-15.8594Q9.88281-16.8555 11.5186-17.4023Q13.1543-17.9492 14.9609-17.9492Q16.7773-17.9492 18.4131-17.4023Q20.0488-16.8555 21.4111-15.8594Q22.7734-14.8633 23.7695-13.501Q24.7656-12.1387 25.3174-10.5029Q25.8691-8.86719 25.8691-7.05078Q25.8789-5.24414 25.332-3.6084Q24.7852-1.97266 23.7842-0.610352Q22.7832 0.751953 21.4209 1.74805Q20.0586 2.74414 18.4229 3.2959Q16.7871 3.84766 14.9707 3.84766ZM9.45312-7.04102Q9.45312-6.66016 9.71191-6.41113Q9.9707-6.16211 10.3711-6.16211L14.0625-6.16211L14.0625-2.46094Q14.0625-2.06055 14.3115-1.80664Q14.5605-1.55273 14.9414-1.55273Q15.3516-1.55273 15.6055-1.80664Q15.8594-2.06055 15.8594-2.46094L15.8594-6.16211L19.5605-6.16211Q19.9609-6.16211 20.2148-6.41113Q20.4688-6.66016 20.4688-7.04102Q20.4688-7.45117 20.2148-7.70508Q19.9609-7.95898 19.5605-7.95898L15.8594-7.95898L15.8594-11.6504Q15.8594-12.0605 15.6055-12.3145Q15.3516-12.5684 14.9414-12.5684Q14.5605-12.5684 14.3115-12.3096Q14.0625-12.0508 14.0625-11.6504L14.0625-7.95898L10.3711-7.95898Q9.96094-7.95898 9.70703-7.70508Q9.45312-7.45117 9.45312-7.04102Z"/>
  </g>
  <text style="stroke:none;fill:black;font-family:sans-serif;font-size:13;font-weight:bold;" transform="matrix(1 0 0 1 263 1953)">Design Variations</text>
  <text style="stroke:none;fill:black;font-family:sans-serif;font-size:13;" transform="matrix(1 0 0 1 263 1971)">Symbols are supported in up to nine weights and three scales.</text>
  <text style="stroke:none;fill:black;font-family:sans-serif;font-size:13;" transform="matrix(1 0 0 1 263 1989)">For optimal layout with text and other symbols, vertically align</text>
  <text style="stroke:none;fill:black;font-family:sans-serif;font-size:13;" transform="matrix(1 0 0 1 263 2007)">symbols with the adjacent text.</text>
  <line style="fill:none;stroke:#00AEEF;stroke-width:0.5;opacity:1.0;" x1="776" x2="776" y1="1919" y2="1933"/>
  <g transform="matrix(1 0 0 1 776 1933)">
   <path d="M3.31055 0.15625Q3.70117 0.15625 3.91602-0.00976562Q4.13086-0.175781 4.26758-0.585938L5.52734-4.0332L11.2891-4.0332L12.5488-0.585938Q12.6855-0.175781 12.9004-0.00976562Q13.1152 0.15625 13.4961 0.15625Q13.8867 0.15625 14.1162-0.0585938Q14.3457-0.273438 14.3457-0.644531Q14.3457-0.869141 14.2383-1.17188L9.6582-13.3691Q9.48242-13.8184 9.17969-14.043Q8.87695-14.2676 8.4082-14.2676Q7.5-14.2676 7.17773-13.3789L2.59766-1.16211Q2.49023-0.859375 2.49023-0.634766Q2.49023-0.263672 2.70996-0.0537109Q2.92969 0.15625 3.31055 0.15625ZM6.00586-5.51758L8.37891-12.0898L8.42773-12.0898L10.8008-5.51758Z"/>
  </g>
  <line style="fill:none;stroke:#00AEEF;stroke-width:0.5;opacity:1.0;" x1="793.197" x2="793.197" y1="1919" y2="1933"/>
  <text style="stroke:none;fill:black;font-family:sans-serif;font-size:13;font-weight:bold;" transform="matrix(1 0 0 1 776 1953)">Margins</text>
  <text style="stroke:none;fill:black;font-family:sans-serif;font-size:13;" transform="matrix(1 0 0 1 776 1971)">Leading and trailing margins on the left and right side of each symbol</text>
  <text style="stroke:none;fill:black;font-family:sans-serif;font-size:13;" transform="matrix(1 0 0 1 776 1989)">can be adjusted by modifying the x-location of the margin guidelines.</text>
  <text style="stroke:none;fill:black;font-family:sans-serif;font-size:13;" transform="matrix(1 0 0 1 776 2007)">Modifications are automatically applied proportionally to all</text>
  <text style="stroke:none;fill:black;font-family:sans-serif;font-size:13;" transform="matrix(1 0 0 1 776 2025)">scales and weights.</text>
  <g transform="matrix(1 0 0 1 1289 1933)">
   <path d="M2.8418 1.86523L4.54102 3.57422Q5.18555 4.22852 5.90332 4.17969Q6.62109 4.13086 7.31445 3.35938L18.0078-8.42773L17.041-9.4043L6.42578 2.27539Q6.16211 2.57812 5.89355 2.61719Q5.625 2.65625 5.27344 2.30469L4.10156 1.14258Q3.75 0.791016 3.79395 0.522461Q3.83789 0.253906 4.14062-0.0195312L15.6152-10.8203L14.6387-11.7871L3.04688-0.898438Q2.30469-0.214844 2.25098 0.498047Q2.19727 1.21094 2.8418 1.86523ZM9.25781-16.3281Q8.94531-16.0254 8.90625-15.6348Q8.86719-15.2441 9.04297-14.9512Q9.21875-14.6777 9.55566-14.541Q9.89258-14.4043 10.3809-14.5215Q11.4746-14.7754 12.5977-14.7314Q13.7207-14.6875 14.7949-13.9844L14.209-12.5293Q13.9551-11.9043 14.0674-11.4404Q14.1797-10.9766 14.5801-10.5664L16.875-8.25195Q17.2363-7.88086 17.5781-7.82227Q17.9199-7.76367 18.3398-7.8418L19.4043-8.03711L20.0684-7.36328L20.0293-6.80664Q20-6.43555 20.1221-6.12305Q20.2441-5.81055 20.6055-5.44922L21.3672-4.70703Q21.7285-4.3457 22.1533-4.33105Q22.5781-4.31641 22.9297-4.66797L25.8398-7.58789Q26.1914-7.93945 26.1816-8.35449Q26.1719-8.76953 25.8105-9.13086L25.0391-9.89258Q24.6875-10.2539 24.3799-10.3857Q24.0723-10.5176 23.7109-10.4883L23.1348-10.4395L22.4902-11.0742L22.7344-12.1973Q22.832-12.6172 22.6953-12.9834Q22.5586-13.3496 22.1191-13.7891L19.9219-15.9766Q18.6719-17.2168 17.2607-17.8369Q15.8496-18.457 14.4189-18.4814Q12.9883-18.5059 11.665-17.959Q10.3418-17.4121 9.25781-16.3281ZM10.752-15.957Q11.6602-16.6211 12.7002-16.9043Q13.7402-17.1875 14.8047-17.085Q15.8691-16.9824 16.8701-16.5137Q17.8711-16.0449 18.7012-15.2051L21.1328-12.793Q21.3086-12.6172 21.3525-12.4512Q21.3965-12.2852 21.3379-12.0312L21.0156-10.5469L22.5195-9.0625L23.5059-9.12109Q23.6914-9.13086 23.7891-9.09668Q23.8867-9.0625 24.0332-8.91602L24.6094-8.33984L22.168-5.89844L21.5918-6.47461Q21.4453-6.62109 21.4062-6.71875Q21.3672-6.81641 21.377-7.01172L21.4453-7.98828L19.9512-9.47266L18.4277-9.21875Q18.1836-9.16992 18.042-9.2041Q17.9004-9.23828 17.7148-9.41406L15.7129-11.416Q15.5176-11.5918 15.4932-11.7529Q15.4688-11.9141 15.5859-12.1875L16.4648-14.2773Q15.293-15.3711 13.8281-15.791Q12.3633-16.2109 10.8398-15.7617Q10.7227-15.7324 10.6885-15.8057Q10.6543-15.8789 10.752-15.957Z"/>
  </g>
  <text style="stroke:none;fill:black;font-family:sans-serif;font-size:13;font-weight:bold;" transform="matrix(1 0 0 1 1289 1953)">Exporting</text>
  <text style="stroke:none;fill:black;font-family:sans-serif;font-size:13;" transform="matrix(1 0 0 1 1289 1971)">Symbols should be outlined when exporting to ensure the</text>
  <text style="stroke:none;fill:black;font-family:sans-serif;font-size:13;" transform="matrix(1 0 0 1 1289 1989)">design is preserved when submitting to Xcode.</text>
  <text id="template-version" style="stroke:none;fill:black;font-family:sans-serif;font-size:13;text-anchor:end;" transform="matrix(1 0 0 1 3036 1933)">Template v.3.0</text>
  <text style="stroke:none;fill:black;font-family:sans-serif;font-size:13;text-anchor:end;" transform="matrix(1 0 0 1 3036 1951)">Requires Xcode 13 or greater</text>
  <text id="descriptive-name" style="stroke:none;fill:black;font-family:sans-serif;font-size:13;text-anchor:end;" transform="matrix(1 0 0 1 3036 1969)">Generated from summary</text>
  <text style="stroke:none;fill:black;font-family:sans-serif;font-size:13;text-anchor:end;" transform="matrix(1 0 0 1 3036 1987)">Typeset at 100 points</text>
  <text style="stroke:none;fill:black;font-family:sans-serif;font-size:13;" transform="matrix(1 0 0 1 263 726)">Small</text>
  <text style="stroke:none;fill:black;font-family:sans-serif;font-size:13;" transform="matrix(1 0 0 1 263 1156)">Medium</text>
  <text style="stroke:none;fill:black;font-family:sans-serif;font-size:13;" transform="matrix(1 0 0 1 263 1586)">Large</text>
 </g>
 <g id="Guides">
  <g id="H-reference" style="fill:#27AAE1;stroke:none;" transform="matrix(1 0 0 1 339 696)">
   <path d="M0.993347 0L3.6377 0L29.3282-67.1326L30.0301-67.1326L30.0301-70.459L28.1227-70.459ZM11.6882-24.4797L46.9818-24.4797L46.2311-26.7288L12.4382-26.7288ZM55.1193 0L57.7637 0L30.6381-70.459L29.4327-70.459L29.4327-67.1326Z"/>
  </g>
  <line id="Baseline-S" style="fill:none;stroke:#27AAE1;opacity:1;stroke-width:0.5;" x1="263" x2="3036" y1="696" y2="696"/>
  <line id="Capline-S" style="fill:none;stroke:#27AAE1;opacity:1;stroke-width:0.5;" x1="263" x2="3036" y1="625.541" y2="625.541"/>
  <g id="H-reference" style="fill:#27AAE1;stroke:none;" transform="matrix(1 0 0 1 339 1126)">
   <path d="M0.993347 0L3.6377 0L29.3282-67.1326L30.0301-67.1326L30.0301-70.459L28.1227-70.459ZM11.6882-24.4797L46.9818-24.4797L46.2311-26.7288L12.4382-26.7288ZM55.1193 0L57.7637 0L30.6381-70.459L29.4327-70.459L29.4327-67.1326Z"/>
  </g>
  <line id="Baseline-M" style="fill:none;stroke:#27AAE1;opacity:1;stroke-width:0.5;" x1="263" x2="3036" y1="1126" y2="1126"/>
  <line id="Capline-M" style="fill:none;stroke:#27AAE1;opacity:1;stroke-width:0.5;" x1="263" x2="3036" y1="1055.54" y2="1055.54"/>
  <g id="H-reference" style="fill:#27AAE1;stroke:none;" transform="matrix(1 0 0 1 339 1556)">
   <path d="M0.993347 0L3.6377 0L29.3282-67.1326L30.0301-67.1326L30.0301-70.459L28.1227-70.459ZM11.6882-24.4797L46.9818-24.4797L46.2311-26.7288L12.4382-26.7288ZM55.1193 0L57.7637 0L30.6381-70.459L29.4327-70.459L29.4327-67.1326Z"/>
  </g>
  <line id="Baseline-L" style="fill:none;stroke:#27AAE1;opacity:1;stroke-width:0.5;" x1="263" x2="3036" y1="1556" y2="1556"/>
  <line id="Capline-L" style="fill:none;stroke:#27AAE1;opacity:1;stroke-width:0.5;" x1="263" x2="3036" y1="1485.54" y2="1485.54"/>
  <line id="left-margin-Regular-M" style="fill:none;stroke:#FF3B30;stroke-width:0.5;opacity:1.0;" x1="1390.85" x2="1390.85" y1="1030.73" y2="1150.14"/>
  <line id="right-margin-Regular-M" style="fill:none;stroke:#00AEEF;stroke-width:0.5;opacity:1.0;" x1="1508.83" x2="1508.83" y1="1030.73" y2="1150.14"/>
 </g>
 <g id="Symbols">
  <g id="Regular-M" transform="matrix(1 0 0 1 1390.85 1126)">
   <path class="multicolor-0:systemGrayColor SFSymbolsPreview8E8E93" d="M37.7705 2.05L19.2705 2.05C17.6705 2.05 16.3705 0.75 16.3705-0.85L16.3705-1.75C16.3705-3.35 17.6705-4.65 19.2705-4.65L37.7705-4.65C39.3705-4.65 40.6705-3.35 40.6705-1.75L40.6705-0.95C40.6705 0.75 39.3705 2.05 37.7705 2.05ZM40.6705-8.75L40.6705-9.45C40.6705-10.95 39.4705-11.95 38.1705-11.95L18.8705-11.95C17.3705-11.95 16.3705-10.75 16.3705-9.45L16.3705-8.75C16.3705-7.25 17.5705-6.25 18.8705-6.25L38.1705-6.25C39.5705-6.25 40.6705-7.45 40.6705-8.75ZM28.4705 10.35C31.7705 10.35 34.6705 8.05 35.5705 4.95C35.6705 4.25 35.2705 3.65 34.4705 3.65L22.3705 3.65C21.6705 3.65 21.1705 4.35 21.2705 4.95C22.3705 8.05 25.1705 10.35 28.4705 10.35Z"/>
   <path class="multicolor-1:systemYellowColor SFSymbolsPreviewFFCC00" d="M53.7705-61.05C53.7705-54.85 55.3705-49.15 58.1705-44.05C56.8705-40.75 54.8705-37.35 52.2705-34.25C46.4705-27.55 40.1705-21.25 38.4705-12.05C31.7705-12.05 25.0705-12.05 18.2705-12.15C17.3705-21.15 11.2705-27.15 5.67054-33.35C-0.529462-40.35-3.82946-48.05-2.52946-57.55C-0.729462-70.55 8.67054-80.45 21.7705-83.25C34.6705-85.95 48.1705-80.75 54.9705-70.55C54.1705-67.45 53.7705-64.25 53.7705-61.05Z"/>
   <path class="multicolor-2:systemOrangeColor SFSymbolsPreviewFF9500" d="M117.671-61.05C117.671-54.25 115.271-47.95 111.371-42.95C110.971-43.85 110.071-44.45 108.971-44.45L64.3705-44.45C62.4705-47.25 61.0705-50.35 60.0705-53.55C59.3705-55.95 59.1705-58.55 59.1705-61.05C59.1705-61.15 59.1705-61.45 59.1705-61.55C59.4705-77.45 72.4705-90.25 88.3705-90.25C104.571-90.25 117.671-77.05 117.671-61.05Z"/>
   <path class="multicolor-3:white SFSymbolsPreviewFFFFFF" d="M78.0705-65.35C78.3705-65.85 78.7705-66.25 79.3705-66.55C79.8705-66.85 80.5705-66.95 81.2705-66.95C81.9705-66.95 82.5705-66.85 83.1705-66.55C83.6705-66.25 84.0705-65.85 84.3705-65.45C84.6705-65.05 84.7705-64.55 84.7705-63.85C84.7705-63.45 84.6705-63.05 84.4705-62.75C84.3705-62.35 84.0705-61.95 83.7705-61.55C83.3705-61.15 82.9705-60.65 82.4705-59.95L80.1705-57.65L80.1705-57.55L84.9705-57.55L84.9705-56.05L77.7705-56.05L77.7705-57.25L81.3705-60.95C81.8705-61.45 82.1705-61.85 82.4705-62.15C82.7705-62.45 82.8705-62.85 82.9705-62.95C83.0705-63.25 83.0705-63.45 83.0705-63.75C83.0705-64.25 82.9705-64.65 82.5705-64.95C82.1705-65.25 81.7705-65.35 81.2705-65.35C80.7705-65.35 80.1705-65.25 79.9705-64.85C79.5705-64.45 79.4705-64.05 79.4705-63.55L79.4705-63.55L77.7705-63.55L77.7705-63.55C77.4705-64.25 77.7705-64.75 78.0705-65.35ZM87.3705-65.35C87.6705-65.85 88.0705-66.25 88.6705-66.55C89.1705-66.85 89.8705-66.95 90.5705-66.95C91.2705-66.95 91.8705-66.85 92.4705-66.55C92.9705-66.25 93.3705-65.85 93.6705-65.45C93.9705-65.05 94.0705-64.55 94.0705-63.85C94.0705-63.45 93.9705-63.05 93.7705-62.75C93.6705-62.35 93.3705-61.95 93.0705-61.55C92.6705-61.15 92.2705-60.65 91.7705-59.95L89.4705-57.65L89.4705-57.55L94.2705-57.55L94.2705-56.05L87.0705-56.05L87.0705-57.25L90.6705-60.95C91.1705-61.45 91.4705-61.85 91.7705-62.15C92.0705-62.45 92.1705-62.85 92.2705-62.95C92.3705-63.25 92.3705-63.45 92.3705-63.75C92.3705-64.25 92.2705-64.65 91.8705-64.95C91.4705-65.25 91.0705-65.35 90.5705-65.35C90.0705-65.35 89.4705-65.25 89.2705-64.85C88.8705-64.45 88.7705-64.05 88.7705-63.55L88.7705-63.55L87.0705-63.55L87.0705-63.55C86.9705-64.25 87.1705-64.75 87.3705-65.35ZM98.7705-62.35C98.3705-62.65 98.0705-62.85 97.8705-63.25C97.5705-63.65 97.5705-64.05 97.5705-64.55C97.5705-65.05 97.6705-65.45 97.8705-65.85C98.1705-66.25 98.3705-66.55 98.7705-66.75C99.1705-67.05 99.5705-67.05 100.071-67.05C100.571-67.05 100.971-66.95 101.371-66.75C101.771-66.45 102.071-66.25 102.271-65.85C102.571-65.45 102.571-65.05 102.571-64.55C102.571-64.05 102.471-63.65 102.271-63.25C101.971-62.85 101.771-62.55 101.371-62.35C100.971-62.05 100.571-62.05 100.071-62.05C99.5705-61.95 99.1705-62.05 98.7705-62.35ZM101.071-63.55C101.371-63.85 101.471-64.05 101.471-64.45C101.471-64.85 101.371-65.15 101.071-65.35C100.771-65.65 100.571-65.75 100.171-65.75C99.7705-65.75 99.4705-65.65 99.2705-65.35C98.9705-65.05 98.8705-64.85 98.8705-64.45C98.8705-64.05 98.9705-63.65 99.2705-63.55C99.5705-63.25 99.7705-63.15 100.171-63.15C100.571-63.15 100.771-63.35 101.071-63.55Z"/>
   <path class="multicolor-4:systemBrownColor SFSymbolsPreviewA2845E" d="M116.871-8.75L52.0705-8.75C51.2705-8.75 50.4705-9.45 50.4705-10.05L50.4705-11.35C50.4705-12.15 51.1705-12.65 52.0705-12.65L111.271-12.65L116.871-8.75L116.871-8.75ZM116.871 2.55L111.271-1.25L52.0705-1.25C51.2705-1.25 50.4705-0.75 50.4705 0.05L50.4705 1.25C50.4705 2.05 51.1705 2.55 52.0705 2.55L116.871 2.55L116.871 2.55ZM116.871 14.15L111.271 9.15L52.0705 9.15C51.2705 9.15 50.4705 9.95 50.4705 10.85L50.4705 12.45C50.4705 13.35 51.1705 14.15 52.0705 14.15L116.871 14.15L116.871 14.15ZM116.871-31.55L110.871-35.55L52.0705-35.55C51.2705-35.55 50.4705-34.85 50.4705-34.25L50.4705-32.95C50.4705-32.15 51.1705-31.65 52.0705-31.65L116.871-31.65L116.871-31.55ZM116.871-20.35L109.771-24.55L52.0705-24.55C51.2705-24.55 50.4705-23.85 50.4705-23.05L50.4705-21.75C50.4705-20.95 51.1705-20.25 52.0705-20.25L116.871-20.35L116.871-20.35ZM45.4705-34.55L43.3705-34.55C42.5705-34.55 41.8705-35.25 41.8705-36.05L41.8705-41.05C41.8705-41.85 42.5705-42.55 43.3705-42.55L45.4705-42.55C46.2705-42.55 46.9705-41.85 46.9705-41.05L46.9705-36.05C46.8705-35.15 46.2705-34.55 45.4705-34.55ZM46.8705 17.35L46.8705 10.05C46.8705 9.65 46.5705 9.35 46.1705 9.35L42.6705 9.35C42.2705 9.35 41.9705 9.65 41.9705 10.05L41.9705 17.25C41.9705 18.55 43.0705 19.55 44.2705 19.55L44.5705 19.55C45.7705 19.55 46.8705 18.55 46.8705 17.35Z"/>
   <path class="multicolor-5:systemCyanColor SFSymbolsPreview55BEF0" d="M45.8705 1.95C45.8705 3.05 45.1705 3.85 44.3705 3.85C43.5705 3.85 42.8705 3.05 42.8705 1.95C42.8705 0.85 43.5705 0.05 44.3705 0.05C45.1705 0.05 45.8705 0.85 45.8705 1.95ZM44.4705-33.35C43.6705-33.35 42.9705-32.55 42.9705-31.45C42.9705-30.35 43.6705-29.55 44.4705-29.55C45.2705-29.55 45.9705-30.35 45.9705-31.45C45.8705-32.55 45.2705-33.35 44.4705-33.35ZM44.4705-23.75C43.6705-23.75 42.9705-22.95 42.9705-21.85C42.9705-20.75 43.6705-19.95 44.4705-19.95C45.2705-19.95 45.9705-20.75 45.9705-21.85C45.8705-22.95 45.2705-23.75 44.4705-23.75ZM44.4705-9.45C43.6705-9.45 42.9705-8.65 42.9705-7.55C42.9705-6.45 43.6705-5.75 44.4705-5.75C45.2705-5.75 45.9705-6.55 45.9705-7.65C45.9705-8.75 45.2705-9.45 44.4705-9.45ZM44.4705-4.65C43.6705-4.65 42.9705-3.85 42.9705-2.75C42.9705-1.65 43.6705-0.85 44.4705-0.85C45.2705-0.85 45.8705-1.75 45.8705-2.75C45.8705-3.85 45.2705-4.65 44.4705-4.65ZM44.4705-14.15C43.6705-14.15 42.9705-13.35 42.9705-12.25C42.9705-11.15 43.6705-10.35 44.4705-10.35C45.2705-10.35 45.9705-11.15 45.9705-12.25C45.8705-13.35 45.2705-14.15 44.4705-14.15ZM44.4705-18.95C43.6705-18.95 42.9705-18.15 42.9705-17.05C42.9705-15.95 43.6705-15.15 44.4705-15.15C45.2705-15.15 45.9705-15.95 45.9705-17.05C45.8705-18.15 45.2705-18.95 44.4705-18.95ZM44.4705-28.45C43.6705-28.45 42.9705-27.65 42.9705-26.55C42.9705-25.45 43.6705-24.65 44.4705-24.65C45.2705-24.65 45.9705-25.45 45.9705-26.55C45.8705-27.65 45.2705-28.45 44.4705-28.45ZM44.4705 4.85C43.6705 4.85 42.9705 5.65 42.9705 6.75C42.9705 7.85 43.6705 8.65 44.4705 8.65C45.2705 8.65 45.9705 7.85 45.9705 6.75C45.9705 5.65 45.2705 4.85 44.4705 4.85ZM109.471-42.15C109.371-42.25 109.171-42.25 109.071-42.25L108.971-42.25L65.8705-42.25L51.1705-42.25C51.0705-42.25 51.0705-42.25 50.8705-42.25C50.5705-42.15 50.4705-41.85 50.4705-41.55L50.4705-40.05C50.4705-39.75 50.5705-39.55 50.8705-39.35C50.9705-39.35 50.9705-39.35 51.1705-39.35L68.6705-39.35L108.071-39.35L108.871-39.35L108.971-39.35C109.071-39.35 109.271-39.45 109.371-39.45C109.471-39.55 109.671-39.75 109.671-39.95L109.671-40.75L109.671-41.45C109.671-41.85 109.671-42.05 109.471-42.15Z"/>
  </g>
 </g>
</svg>
