<?xml version="1.0" encoding="UTF-8"?>
<!--Generator: Apple Native CoreSVG 149-->
<!DOCTYPE svg
PUBLIC "-//W3C//DTD SVG 1.1//EN"
       "http://www.w3.org/Graphics/SVG/1.1/DTD/svg11.dtd">
<svg version="1.1" xmlns="http://www.w3.org/2000/svg" xmlns:xlink="http://www.w3.org/1999/xlink" width="3300" height="2200">
 <!--glyph: "", point size: 100.0, font version: "17.0d9e1", template writer version: "59"-->
 <style>.multicolor-0:secondaryLabelColor {fill:#8A8A8E;opacity:1.0}
.multicolor-1:tertiaryLabelColor {fill:#BDBDBD;opacity:1.0}

.clearBehindLayer {}
.SFSymbolsPreview8A8A8E {fill:#8A8A8E;opacity:1.0}
.SFSymbolsPreviewBDBDBD {fill:#BDBDBD;opacity:1.0}
</style>
 <g id="Notes">
  <rect height="2200" id="artboard" style="fill:white;opacity:1" width="3300" x="0" y="0"/>
  <line style="fill:none;stroke:black;opacity:1;stroke-width:0.5;" x1="263" x2="3036" y1="292" y2="292"/>
  <text style="stroke:none;fill:black;font-family:sans-serif;font-size:13;font-weight:bold;" transform="matrix(1 0 0 1 263 322)">Weight/Scale Variations</text>
  <text style="stroke:none;fill:black;font-family:sans-serif;font-size:13;text-anchor:middle;" transform="matrix(1 0 0 1 559.711 322)">Ultralight</text>
  <text style="stroke:none;fill:black;font-family:sans-serif;font-size:13;text-anchor:middle;" transform="matrix(1 0 0 1 856.422 322)">Thin</text>
  <text style="stroke:none;fill:black;font-family:sans-serif;font-size:13;text-anchor:middle;" transform="matrix(1 0 0 1 1153.13 322)">Light</text>
  <text style="stroke:none;fill:black;font-family:sans-serif;font-size:13;text-anchor:middle;" transform="matrix(1 0 0 1 1449.84 322)">Regular</text>
  <text style="stroke:none;fill:black;font-family:sans-serif;font-size:13;text-anchor:middle;" transform="matrix(1 0 0 1 1746.56 322)">Medium</text>
  <text style="stroke:none;fill:black;font-family:sans-serif;font-size:13;text-anchor:middle;" transform="matrix(1 0 0 1 2043.27 322)">Semibold</text>
  <text style="stroke:none;fill:black;font-family:sans-serif;font-size:13;text-anchor:middle;" transform="matrix(1 0 0 1 2339.98 322)">Bold</text>
  <text style="stroke:none;fill:black;font-family:sans-serif;font-size:13;text-anchor:middle;" transform="matrix(1 0 0 1 2636.69 322)">Heavy</text>
  <text style="stroke:none;fill:black;font-family:sans-serif;font-size:13;text-anchor:middle;" transform="matrix(1 0 0 1 2933.4 322)">Black</text>
  <line style="fill:none;stroke:black;opacity:1;stroke-width:0.5;" x1="263" x2="3036" y1="1903" y2="1903"/>
  <g transform="matrix(1 0 0 1 263 1933)">
   <path d="M9.24805 0.830078Q10.8691 0.830078 12.2949 0.214844Q13.7207-0.400391 14.8096-1.49414Q15.8984-2.58789 16.5186-4.01367Q17.1387-5.43945 17.1387-7.05078Q17.1387-8.66211 16.5186-10.0879Q15.8984-11.5137 14.8047-12.6074Q13.7109-13.7012 12.2852-14.3164Q10.8594-14.9316 9.23828-14.9316Q7.62695-14.9316 6.20117-14.3164Q4.77539-13.7012 3.69141-12.6074Q2.60742-11.5137 1.9873-10.0879Q1.36719-8.66211 1.36719-7.05078Q1.36719-5.43945 1.9873-4.01367Q2.60742-2.58789 3.69629-1.49414Q4.78516-0.400391 6.21094 0.214844Q7.63672 0.830078 9.24805 0.830078ZM9.24805-0.654297Q7.91992-0.654297 6.7627-1.14746Q5.60547-1.64062 4.73145-2.51953Q3.85742-3.39844 3.36426-4.56055Q2.87109-5.72266 2.87109-7.05078Q2.87109-8.37891 3.35938-9.54102Q3.84766-10.7031 4.72168-11.582Q5.5957-12.4609 6.75293-12.9541Q7.91016-13.4473 9.23828-13.4473Q10.5762-13.4473 11.7334-12.9541Q12.8906-12.4609 13.7695-11.582Q14.6484-10.7031 15.1465-9.54102Q15.6445-8.37891 15.6445-7.05078Q15.6445-5.72266 15.1514-4.56055Q14.6582-3.39844 13.7842-2.51953Q12.9102-1.64062 11.748-1.14746Q10.5859-0.654297 9.24805-0.654297ZM5.83984-7.04102Q5.83984-6.71875 6.04492-6.51855Q6.25-6.31836 6.5918-6.31836L8.50586-6.31836L8.50586-4.39453Q8.50586-4.0625 8.70605-3.85742Q8.90625-3.65234 9.22852-3.65234Q9.56055-3.65234 9.76562-3.85742Q9.9707-4.0625 9.9707-4.39453L9.9707-6.31836L11.8945-6.31836Q12.2266-6.31836 12.4316-6.51855Q12.6367-6.71875 12.6367-7.04102Q12.6367-7.37305 12.4316-7.57812Q12.2266-7.7832 11.8945-7.7832L9.9707-7.7832L9.9707-9.69727Q9.9707-10.0391 9.76562-10.2441Q9.56055-10.4492 9.22852-10.4492Q8.90625-10.4492 8.70605-10.2441Q8.50586-10.0391 8.50586-9.69727L8.50586-7.7832L6.5918-7.7832Q6.25-7.7832 6.04492-7.57812Q5.83984-7.37305 5.83984-7.04102Z"/>
  </g>
  <g transform="matrix(1 0 0 1 281.867 1933)">
   <path d="M11.709 2.91016Q13.75 2.91016 15.5518 2.12891Q17.3535 1.34766 18.7305-0.0292969Q20.1074-1.40625 20.8887-3.20801Q21.6699-5.00977 21.6699-7.05078Q21.6699-9.0918 20.8887-10.8936Q20.1074-12.6953 18.7305-14.0723Q17.3535-15.4492 15.5469-16.2305Q13.7402-17.0117 11.6992-17.0117Q9.6582-17.0117 7.85645-16.2305Q6.05469-15.4492 4.68262-14.0723Q3.31055-12.6953 2.5293-10.8936Q1.74805-9.0918 1.74805-7.05078Q1.74805-5.00977 2.5293-3.20801Q3.31055-1.40625 4.6875-0.0292969Q6.06445 1.34766 7.86621 2.12891Q9.66797 2.91016 11.709 2.91016ZM11.709 1.25Q9.98047 1.25 8.47656 0.605469Q6.97266-0.0390625 5.83496-1.17676Q4.69727-2.31445 4.05762-3.81836Q3.41797-5.32227 3.41797-7.05078Q3.41797-8.7793 4.05762-10.2832Q4.69727-11.7871 5.83008-12.9297Q6.96289-14.0723 8.4668-14.7119Q9.9707-15.3516 11.6992-15.3516Q13.4277-15.3516 14.9316-14.7119Q16.4355-14.0723 17.5781-12.9297Q18.7207-11.7871 19.3652-10.2832Q20.0098-8.7793 20.0098-7.05078Q20.0098-5.32227 19.3701-3.81836Q18.7305-2.31445 17.5928-1.17676Q16.4551-0.0390625 14.9463 0.605469Q13.4375 1.25 11.709 1.25ZM7.39258-7.04102Q7.39258-6.68945 7.62695-6.46484Q7.86133-6.24023 8.23242-6.24023L10.8789-6.24023L10.8789-3.57422Q10.8789-3.21289 11.1035-2.9834Q11.3281-2.75391 11.6797-2.75391Q12.0508-2.75391 12.2852-2.9834Q12.5195-3.21289 12.5195-3.57422L12.5195-6.24023L15.1758-6.24023Q15.5371-6.24023 15.7715-6.46484Q16.0059-6.68945 16.0059-7.04102Q16.0059-7.41211 15.7715-7.6416Q15.5371-7.87109 15.1758-7.87109L12.5195-7.87109L12.5195-10.5176Q12.5195-10.8984 12.2852-11.1279Q12.0508-11.3574 11.6797-11.3574Q11.3281-11.3574 11.1035-11.1279Q10.8789-10.8984 10.8789-10.5176L10.8789-7.87109L8.23242-7.87109Q7.85156-7.87109 7.62207-7.6416Q7.39258-7.41211 7.39258-7.04102Z"/>
  </g>
  <g transform="matrix(1 0 0 1 305.646 1933)">
   <path d="M14.9707 5.66406Q17.0605 5.66406 18.96 5.01465Q20.8594 4.36523 22.4512 3.19336Q24.043 2.02148 25.2197 0.429688Q26.3965-1.16211 27.0459-3.06641Q27.6953-4.9707 27.6953-7.05078Q27.6953-9.14062 27.0459-11.04Q26.3965-12.9395 25.2197-14.5312Q24.043-16.123 22.4512-17.2998Q20.8594-18.4766 18.9551-19.126Q17.0508-19.7754 14.9609-19.7754Q12.8711-19.7754 10.9717-19.126Q9.07227-18.4766 7.48535-17.2998Q5.89844-16.123 4.72168-14.5312Q3.54492-12.9395 2.90039-11.04Q2.25586-9.14062 2.25586-7.05078Q2.25586-4.9707 2.90527-3.06641Q3.55469-1.16211 4.72656 0.429688Q5.89844 2.02148 7.49023 3.19336Q9.08203 4.36523 10.9814 5.01465Q12.8809 5.66406 14.9707 5.66406ZM14.9707 3.84766Q13.1641 3.84766 11.5283 3.2959Q9.89258 2.74414 8.53516 1.74805Q7.17773 0.751953 6.17676-0.610352Q5.17578-1.97266 4.62891-3.6084Q4.08203-5.24414 4.08203-7.05078Q4.08203-8.86719 4.62891-10.5029Q5.17578-12.1387 6.17188-13.501Q7.16797-14.8633 8.52539-15.8594Q9.88281-16.8555 11.5186-17.4023Q13.1543-17.9492 14.9609-17.9492Q16.7773-17.9492 18.4131-17.4023Q20.0488-16.8555 21.4111-15.8594Q22.7734-14.8633 23.7695-13.501Q24.7656-12.1387 25.3174-10.5029Q25.8691-8.86719 25.8691-7.05078Q25.8789-5.24414 25.332-3.6084Q24.7852-1.97266 23.7842-0.610352Q22.7832 0.751953 21.4209 1.74805Q20.0586 2.74414 18.4229 3.2959Q16.7871 3.84766 14.9707 3.84766ZM9.45312-7.04102Q9.45312-6.66016 9.71191-6.41113Q9.9707-6.16211 10.3711-6.16211L14.0625-6.16211L14.0625-2.46094Q14.0625-2.06055 14.3115-1.80664Q14.5605-1.55273 14.9414-1.55273Q15.3516-1.55273 15.6055-1.80664Q15.8594-2.06055 15.8594-2.46094L15.8594-6.16211L19.5605-6.16211Q19.9609-6.16211 20.2148-6.41113Q20.4688-6.66016 20.4688-7.04102Q20.4688-7.45117 20.2148-7.70508Q19.9609-7.95898 19.5605-7.95898L15.8594-7.95898L15.8594-11.6504Q15.8594-12.0605 15.6055-12.3145Q15.3516-12.5684 14.9414-12.5684Q14.5605-12.5684 14.3115-12.3096Q14.0625-12.0508 14.0625-11.6504L14.0625-7.95898L10.3711-7.95898Q9.96094-7.95898 9.70703-7.70508Q9.45312-7.45117 9.45312-7.04102Z"/>
  </g>
  <text style="stroke:none;fill:black;font-family:sans-serif;font-size:13;font-weight:bold;" transform="matrix(1 0 0 1 263 1953)">Design Variations</text>
  <text style="stroke:none;fill:black;font-family:sans-serif;font-size:13;" transform="matrix(1 0 0 1 263 1971)">Symbols are supported in up to nine weights and three scales.</text>
  <text style="stroke:none;fill:black;font-family:sans-serif;font-size:13;" transform="matrix(1 0 0 1 263 1989)">For optimal layout with text and other symbols, vertically align</text>
  <text style="stroke:none;fill:black;font-family:sans-serif;font-size:13;" transform="matrix(1 0 0 1 263 2007)">symbols with the adjacent text.</text>
  <line style="fill:none;stroke:#00AEEF;stroke-width:0.5;opacity:1.0;" x1="776" x2="776" y1="1919" y2="1933"/>
  <g transform="matrix(1 0 0 1 776 1933)">
   <path d="M3.31055 0.15625Q3.70117 0.15625 3.91602-0.00976562Q4.13086-0.175781 4.26758-0.585938L5.52734-4.0332L11.2891-4.0332L12.5488-0.585938Q12.6855-0.175781 12.9004-0.00976562Q13.1152 0.15625 13.4961 0.15625Q13.8867 0.15625 14.1162-0.0585938Q14.3457-0.273438 14.3457-0.644531Q14.3457-0.869141 14.2383-1.17188L9.6582-13.3691Q9.48242-13.8184 9.17969-14.043Q8.87695-14.2676 8.4082-14.2676Q7.5-14.2676 7.17773-13.3789L2.59766-1.16211Q2.49023-0.859375 2.49023-0.634766Q2.49023-0.263672 2.70996-0.0537109Q2.92969 0.15625 3.31055 0.15625ZM6.00586-5.51758L8.37891-12.0898L8.42773-12.0898L10.8008-5.51758Z"/>
  </g>
  <line style="fill:none;stroke:#00AEEF;stroke-width:0.5;opacity:1.0;" x1="793.197" x2="793.197" y1="1919" y2="1933"/>
  <text style="stroke:none;fill:black;font-family:sans-serif;font-size:13;font-weight:bold;" transform="matrix(1 0 0 1 776 1953)">Margins</text>
  <text style="stroke:none;fill:black;font-family:sans-serif;font-size:13;" transform="matrix(1 0 0 1 776 1971)">Leading and trailing margins on the left and right side of each symbol</text>
  <text style="stroke:none;fill:black;font-family:sans-serif;font-size:13;" transform="matrix(1 0 0 1 776 1989)">can be adjusted by modifying the x-location of the margin guidelines.</text>
  <text style="stroke:none;fill:black;font-family:sans-serif;font-size:13;" transform="matrix(1 0 0 1 776 2007)">Modifications are automatically applied proportionally to all</text>
  <text style="stroke:none;fill:black;font-family:sans-serif;font-size:13;" transform="matrix(1 0 0 1 776 2025)">scales and weights.</text>
  <g transform="matrix(1 0 0 1 1289 1933)">
   <path d="M2.8418 1.86523L4.54102 3.57422Q5.18555 4.22852 5.90332 4.17969Q6.62109 4.13086 7.31445 3.35938L18.0078-8.42773L17.041-9.4043L6.42578 2.27539Q6.16211 2.57812 5.89355 2.61719Q5.625 2.65625 5.27344 2.30469L4.10156 1.14258Q3.75 0.791016 3.79395 0.522461Q3.83789 0.253906 4.14062-0.0195312L15.6152-10.8203L14.6387-11.7871L3.04688-0.898438Q2.30469-0.214844 2.25098 0.498047Q2.19727 1.21094 2.8418 1.86523ZM9.25781-16.3281Q8.94531-16.0254 8.90625-15.6348Q8.86719-15.2441 9.04297-14.9512Q9.21875-14.6777 9.55566-14.541Q9.89258-14.4043 10.3809-14.5215Q11.4746-14.7754 12.5977-14.7314Q13.7207-14.6875 14.7949-13.9844L14.209-12.5293Q13.9551-11.9043 14.0674-11.4404Q14.1797-10.9766 14.5801-10.5664L16.875-8.25195Q17.2363-7.88086 17.5781-7.82227Q17.9199-7.76367 18.3398-7.8418L19.4043-8.03711L20.0684-7.36328L20.0293-6.80664Q20-6.43555 20.1221-6.12305Q20.2441-5.81055 20.6055-5.44922L21.3672-4.70703Q21.7285-4.3457 22.1533-4.33105Q22.5781-4.31641 22.9297-4.66797L25.8398-7.58789Q26.1914-7.93945 26.1816-8.35449Q26.1719-8.76953 25.8105-9.13086L25.0391-9.89258Q24.6875-10.2539 24.3799-10.3857Q24.0723-10.5176 23.7109-10.4883L23.1348-10.4395L22.4902-11.0742L22.7344-12.1973Q22.832-12.6172 22.6953-12.9834Q22.5586-13.3496 22.1191-13.7891L19.9219-15.9766Q18.6719-17.2168 17.2607-17.8369Q15.8496-18.457 14.4189-18.4814Q12.9883-18.5059 11.665-17.959Q10.3418-17.4121 9.25781-16.3281ZM10.752-15.957Q11.6602-16.6211 12.7002-16.9043Q13.7402-17.1875 14.8047-17.085Q15.8691-16.9824 16.8701-16.5137Q17.8711-16.0449 18.7012-15.2051L21.1328-12.793Q21.3086-12.6172 21.3525-12.4512Q21.3965-12.2852 21.3379-12.0312L21.0156-10.5469L22.5195-9.0625L23.5059-9.12109Q23.6914-9.13086 23.7891-9.09668Q23.8867-9.0625 24.0332-8.91602L24.6094-8.33984L22.168-5.89844L21.5918-6.47461Q21.4453-6.62109 21.4062-6.71875Q21.3672-6.81641 21.377-7.01172L21.4453-7.98828L19.9512-9.47266L18.4277-9.21875Q18.1836-9.16992 18.042-9.2041Q17.9004-9.23828 17.7148-9.41406L15.7129-11.416Q15.5176-11.5918 15.4932-11.7529Q15.4688-11.9141 15.5859-12.1875L16.4648-14.2773Q15.293-15.3711 13.8281-15.791Q12.3633-16.2109 10.8398-15.7617Q10.7227-15.7324 10.6885-15.8057Q10.6543-15.8789 10.752-15.957Z"/>
  </g>
  <text style="stroke:none;fill:black;font-family:sans-serif;font-size:13;font-weight:bold;" transform="matrix(1 0 0 1 1289 1953)">Exporting</text>
  <text style="stroke:none;fill:black;font-family:sans-serif;font-size:13;" transform="matrix(1 0 0 1 1289 1971)">Symbols should be outlined when exporting to ensure the</text>
  <text style="stroke:none;fill:black;font-family:sans-serif;font-size:13;" transform="matrix(1 0 0 1 1289 1989)">design is preserved when submitting to Xcode.</text>
  <text id="template-version" style="stroke:none;fill:black;font-family:sans-serif;font-size:13;text-anchor:end;" transform="matrix(1 0 0 1 3036 1933)">Template v.3.0</text>
  <text style="stroke:none;fill:black;font-family:sans-serif;font-size:13;text-anchor:end;" transform="matrix(1 0 0 1 3036 1951)">Requires Xcode 13 or greater</text>
  <text id="descriptive-name" style="stroke:none;fill:black;font-family:sans-serif;font-size:13;text-anchor:end;" transform="matrix(1 0 0 1 3036 1969)">Generated from light.bulb.off</text>
  <text style="stroke:none;fill:black;font-family:sans-serif;font-size:13;text-anchor:end;" transform="matrix(1 0 0 1 3036 1987)">Typeset at 100 points</text>
  <text style="stroke:none;fill:black;font-family:sans-serif;font-size:13;" transform="matrix(1 0 0 1 263 726)">Small</text>
  <text style="stroke:none;fill:black;font-family:sans-serif;font-size:13;" transform="matrix(1 0 0 1 263 1156)">Medium</text>
  <text style="stroke:none;fill:black;font-family:sans-serif;font-size:13;" transform="matrix(1 0 0 1 263 1586)">Large</text>
 </g>
 <g id="Guides">
  <g id="H-reference" style="fill:#27AAE1;stroke:none;" transform="matrix(1 0 0 1 339 696)">
   <path d="M0.993347 0L3.6377 0L29.3282-67.1326L30.0301-67.1326L30.0301-70.459L28.1227-70.459ZM11.6882-24.4797L46.9818-24.4797L46.2311-26.7288L12.4382-26.7288ZM55.1193 0L57.7637 0L30.6381-70.459L29.4327-70.459L29.4327-67.1326Z"/>
  </g>
  <line id="Baseline-S" style="fill:none;stroke:#27AAE1;opacity:1;stroke-width:0.5;" x1="263" x2="3036" y1="696" y2="696"/>
  <line id="Capline-S" style="fill:none;stroke:#27AAE1;opacity:1;stroke-width:0.5;" x1="263" x2="3036" y1="625.541" y2="625.541"/>
  <g id="H-reference" style="fill:#27AAE1;stroke:none;" transform="matrix(1 0 0 1 339 1126)">
   <path d="M0.993347 0L3.6377 0L29.3282-67.1326L30.0301-67.1326L30.0301-70.459L28.1227-70.459ZM11.6882-24.4797L46.9818-24.4797L46.2311-26.7288L12.4382-26.7288ZM55.1193 0L57.7637 0L30.6381-70.459L29.4327-70.459L29.4327-67.1326Z"/>
  </g>
  <line id="Baseline-M" style="fill:none;stroke:#27AAE1;opacity:1;stroke-width:0.5;" x1="263" x2="3036" y1="1126" y2="1126"/>
  <line id="Capline-M" style="fill:none;stroke:#27AAE1;opacity:1;stroke-width:0.5;" x1="263" x2="3036" y1="1055.54" y2="1055.54"/>
  <g id="H-reference" style="fill:#27AAE1;stroke:none;" transform="matrix(1 0 0 1 339 1556)">
   <path d="M0.993347 0L3.6377 0L29.3282-67.1326L30.0301-67.1326L30.0301-70.459L28.1227-70.459ZM11.6882-24.4797L46.9818-24.4797L46.2311-26.7288L12.4382-26.7288ZM55.1193 0L57.7637 0L30.6381-70.459L29.4327-70.459L29.4327-67.1326Z"/>
  </g>
  <line id="Baseline-L" style="fill:none;stroke:#27AAE1;opacity:1;stroke-width:0.5;" x1="263" x2="3036" y1="1556" y2="1556"/>
  <line id="Capline-L" style="fill:none;stroke:#27AAE1;opacity:1;stroke-width:0.5;" x1="263" x2="3036" y1="1485.54" y2="1485.54"/>
  <line id="left-margin-Regular-M" style="fill:none;stroke:#00AEEF;stroke-width:0.5;opacity:1.0;" x1="1395.6" x2="1395.6" y1="1030.78" y2="1150.12"/>
  <line id="right-margin-Regular-M" style="fill:none;stroke:#00AEEF;stroke-width:0.5;opacity:1.0;" x1="1504.09" x2="1504.09" y1="1030.78" y2="1150.12"/>
 </g>
 <g id="Symbols">
  <g id="Black-L" transform="matrix(1 0 0 1 2855.44 1556)">
   <path class="multicolor-0:secondaryLabelColor SFSymbolsPreview8A8A8E" d="M95.6314 46.1856L47.0107 46.1856C45.0343 46.1856 43.3873 44.5386 43.3873 42.5622L43.3873 34.5304C43.3873 32.554 45.0343 30.907 47.0107 30.907L95.6314 30.907C97.6074 30.907 99.2544 32.554 99.2544 34.5304L99.2544 42.5622C99.2544 44.5386 97.6074 46.1856 95.6314 46.1856ZM99.2544 24.0105L99.2544 17.0389C99.2544 15.2272 97.7724 13.9096 96.1254 13.9096L46.6787 13.9096C44.867 13.9096 43.5494 15.3919 43.5494 17.0389L43.5494 24.1302C43.5494 25.9419 45.0317 27.2595 46.6787 27.2595L96.1224 27.2595C97.7724 27.3019 99.2544 25.8222 99.2544 24.0105ZM71.24 65.2314C78.9815 65.2314 85.4134 60.0296 87.459 52.822C87.9081 51.2678 86.6806 49.8306 85.1264 49.8306L57.396 49.8306C55.8392 49.8306 54.6915 51.3848 55.0634 52.822C57.0666 60.0296 63.5383 65.2314 71.24 65.2314Z"/>
   <path class="multicolor-1:tertiaryLabelColor clearBehindLayer SFSymbolsPreviewBDBDBD" d="M48.0976 13.9096C46.0493-6.69036 32.0433-20.4148 19.4692-34.7078C5.29837-50.7621-2.23866-68.538 0.588073-90.2432C4.51997-119.977 25.9408-142.79 56.1261-149.1C86.8029-155.529 118.749-142.341 134.028-117.153C149.591-91.3484 146.602-61.288 125.837-36.9181C112.769-21.52 98.3114-7.01976 94.3794 13.9547C78.9391 14.0743 63.5409 13.9096 48.0976 13.9096Z"/>
  </g>
  <g id="Heavy-L" transform="matrix(1 0 0 1 2561.14 1556)">
   <path class="multicolor-0:secondaryLabelColor SFSymbolsPreview8A8A8E" d="M92.3113 44.6567L45.5536 44.6567C43.5772 44.6567 41.9302 43.0097 41.9302 41.0333L41.9302 33.5028C41.9302 31.5264 43.5772 29.8794 45.5536 29.8794L92.3113 29.8794C94.2873 29.8794 95.9343 31.5264 95.9343 33.5028L95.9343 41.0333C95.9343 43.0097 94.2873 44.6567 92.3113 44.6567ZM95.9343 23.1153L95.9343 16.5787C95.9343 14.767 94.4523 13.4494 92.8053 13.4494L45.2119 13.4494C43.4002 13.4494 42.0826 14.9317 42.0826 16.5787L42.0826 23.2067C42.0826 25.0184 43.5649 26.336 45.2119 26.336L92.7933 26.336C94.4523 26.3969 95.9343 24.927 95.9343 23.1153ZM68.8563 63.0689C76.3516 63.0689 82.5664 58.0374 84.5362 51.0848C84.957 49.5968 83.786 48.1878 82.298 48.1878L55.4756 48.1878C53.9753 48.1878 52.8471 49.6758 53.2374 51.0848C55.1462 58.0374 61.4096 63.0689 68.8563 63.0689Z"/>
   <path class="multicolor-1:tertiaryLabelColor clearBehindLayer SFSymbolsPreviewBDBDBD" d="M46.48 13.4494C44.4978-6.45081 30.9648-19.7401 18.816-33.5416C5.1183-49.0567-2.16371-66.2369 0.568603-87.2043C4.3681-115.936 25.0794-137.983 54.2437-144.094C83.8897-150.296 114.767-137.562 129.545-113.216C144.578-88.2716 141.693-59.2234 121.629-35.676C108.986-20.8073 95.0203-6.78021 91.2203 13.5227C76.2907 13.6141 61.422 13.4494 46.48 13.4494Z"/>
  </g>
  <g id="Bold-L" transform="matrix(1 0 0 1 2267.35 1556)">
   <path class="multicolor-0:secondaryLabelColor SFSymbolsPreview8A8A8E" d="M88.2897 42.5599L43.7871 42.5599C41.8107 42.5599 40.1637 40.9129 40.1637 38.9365L40.1637 32.0138C40.1637 30.0374 41.8107 28.3904 43.7871 28.3904L88.2897 28.3904C90.2667 28.3904 91.9137 30.0374 91.9137 32.0138L91.9137 38.9365C91.9137 40.9129 90.2667 42.5599 88.2897 42.5599ZM91.9137 21.7861L91.9137 15.7775C91.9137 13.9658 90.4307 12.6482 88.7837 12.6482L43.4286 12.6482C41.6169 12.6482 40.2993 14.1305 40.2993 15.7775L40.2993 21.846C40.2993 23.6577 41.7816 24.9753 43.4286 24.9753L88.7547 24.9753C90.4307 25.051 91.9137 23.5978 91.9137 21.7861ZM65.9708 60.2043C73.1612 60.2043 79.1213 55.381 80.9944 48.7314C81.3836 47.3233 80.2758 45.9459 78.8677 45.9459L53.1496 45.9459C51.7124 45.9459 50.6178 47.354 51.0229 48.7314C52.8202 55.381 58.827 60.2043 65.9708 60.2043Z"/>
   <path class="multicolor-1:tertiaryLabelColor clearBehindLayer SFSymbolsPreviewBDBDBD" d="M44.522 12.6482C42.6198-6.40429 29.6631-19.1657 18.0255-32.3761C4.90396-47.235-2.07505-63.6958 0.545758-83.7672C4.18536-111.283 24.0323-132.402 51.966-138.273C80.3647-144.204 109.947-132.013 124.117-108.691C138.511-84.786 135.754-56.9704 116.537-34.4138C104.405-20.1845 91.0297-6.73369 87.3904 12.7531C73.0854 12.8129 58.8561 12.6482 44.522 12.6482Z"/>
  </g>
  <g id="Semibold-L" transform="matrix(1 0 0 1 1972.65 1556)">
   <path class="multicolor-0:secondaryLabelColor SFSymbolsPreview8A8A8E" d="M85.5177 41.1143L42.5693 41.1143C40.5929 41.1143 38.9459 39.4673 38.9459 37.4909L38.9459 30.9873C38.9459 29.0109 40.5929 27.3639 42.5693 27.3639L85.5177 27.3639C87.4941 27.3639 89.1408 29.0109 89.1408 30.9873L89.1408 37.4909C89.1408 39.4673 87.4941 41.1143 85.5177 41.1143ZM89.1408 20.8699L89.1408 15.2252C89.1408 13.4135 87.6588 12.0959 86.0118 12.0959L42.1992 12.0959C40.3875 12.0959 39.0699 13.5782 39.0699 15.2252L39.0699 20.9079C39.0699 22.7196 40.5522 24.0372 42.1992 24.0372L85.9711 24.0372C87.6588 24.1232 89.1408 22.6816 89.1408 20.8699ZM63.9815 58.2295C70.9617 58.2295 76.7463 53.5498 78.5527 47.109C78.9201 45.756 77.8559 44.4003 76.5029 44.4003L51.546 44.4003C50.1524 44.4003 49.0809 45.7533 49.4962 47.109C51.2166 53.5498 57.0466 58.2295 63.9815 58.2295Z"/>
   <path class="multicolor-1:tertiaryLabelColor clearBehindLayer SFSymbolsPreviewBDBDBD" d="M43.1722 12.0959C41.3251-6.37222 28.7657-18.7696 17.4805-31.5725C4.75629-45.979-2.01391-61.9439 0.529989-81.3976C4.05949-108.075 23.3104-128.555 50.3958-134.261C77.9346-140.005 106.624-128.187 120.374-105.572C134.327-82.3831 131.659-55.4171 113.027-33.5436C101.247-19.7552 88.2798-6.70162 84.7501 12.2226C70.8757 12.2606 57.0873 12.0959 43.1722 12.0959Z"/>
  </g>
  <g id="Medium-L" transform="matrix(1 0 0 1 1677.46 1556)">
   <path class="multicolor-0:secondaryLabelColor SFSymbolsPreview8A8A8E" d="M83.4155 40.0185L41.6458 40.0185C39.6694 40.0185 38.0224 38.3715 38.0224 36.3951L38.0224 30.2093C38.0224 28.2329 39.6694 26.5859 41.6458 26.5859L83.4155 26.5859C85.3919 26.5859 87.0389 28.2329 87.0389 30.2093L87.0389 36.3951C87.0389 38.3715 85.3919 40.0185 83.4155 40.0185ZM87.0389 20.1754L87.0389 14.8067C87.0389 12.995 85.5566 11.6774 83.9096 11.6774L41.267 11.6774C39.4553 11.6774 38.1377 13.1597 38.1377 14.8067L38.1377 20.1969C38.1377 22.0086 39.62 23.3262 41.267 23.3262L83.8601 23.3262C85.5566 23.4199 87.0389 21.9871 87.0389 20.1754ZM62.4731 56.7323C69.2938 56.7323 74.9454 52.1615 76.7012 45.879C77.0522 44.5678 76.0209 43.2287 74.7097 43.2287L50.3301 43.2287C48.9694 43.2287 47.9155 44.5399 48.3386 45.879C50.0007 52.1615 55.6965 56.7323 62.4731 56.7323Z"/>
   <path class="multicolor-1:tertiaryLabelColor clearBehindLayer SFSymbolsPreviewBDBDBD" d="M42.1487 11.6774C40.3434-6.34769 28.0852-18.4691 17.0672-30.963C4.64427-45.0265-1.96763-60.6153 0.518074-79.6006C3.96387-105.642 22.763-125.637 49.2051-131.218C76.0919-136.82 104.104-125.286 117.537-103.206C131.156-80.5608 128.555-54.2392 110.365-32.8835C98.8526-19.4293 86.1939-6.67709 82.748 11.8205C69.2001 11.8421 55.746 11.6774 42.1487 11.6774Z"/>
  </g>
  <g id="Regular-L" transform="matrix(1 0 0 1 1382.74 1556)">
   <path class="multicolor-0:secondaryLabelColor SFSymbolsPreview8A8A8E" d="M80.6736 38.5889L40.4413 38.5889C38.4649 38.5889 36.8179 36.9419 36.8179 34.9655L36.8179 29.1941C36.8179 27.2177 38.4649 25.5707 40.4413 25.5707L80.6736 25.5707C82.65 25.5707 84.297 27.2177 84.297 29.1941L84.297 34.9655C84.297 36.9419 82.65 38.5889 80.6736 38.5889ZM84.297 19.2692L84.297 14.2605C84.297 12.4488 82.8147 11.1312 81.1677 11.1312L40.051 11.1312C38.2393 11.1312 36.9217 12.6135 36.9217 14.2605L36.9217 19.2692C36.9217 21.0809 38.404 22.3985 40.051 22.3985L81.1068 22.3985C82.8147 22.5023 84.297 21.0809 84.297 19.2692ZM60.5056 54.7792C67.1185 54.7792 72.5964 50.3504 74.2863 44.2745C74.6157 43.0178 73.6275 41.7002 72.3708 41.7002L48.7441 41.7002C47.4265 41.7002 46.3954 42.9569 46.8286 44.2745C48.4147 50.3504 53.9356 54.7792 60.5056 54.7792Z"/>
   <path class="multicolor-1:tertiaryLabelColor clearBehindLayer SFSymbolsPreviewBDBDBD" d="M40.8136 11.1312C39.0628-6.31586 27.1976-18.0774 16.5281-30.1682C4.49808-43.7843-1.90712-58.8826 0.502477-77.257C3.83928-102.47 22.049-121.833 47.6521-127.25C73.6884-132.667 100.817-121.503 113.835-100.121C127.018-78.1843 124.505-52.703 106.893-32.0228C95.7286-19.0046 83.4735-6.64526 80.1366 11.2959C67.0147 11.2959 53.9965 11.1312 40.8136 11.1312Z"/>
  </g>
  <g id="Light-L" transform="matrix(1 0 0 1 1087.6 1556)">
   <path class="multicolor-0:secondaryLabelColor SFSymbolsPreview8A8A8E" d="M78.4805 35.8355L39.4671 35.8355C37.4907 35.8355 35.8437 34.1885 35.8437 32.2121L35.8437 26.777C35.8437 24.8006 37.4907 23.1536 39.4671 23.1536L78.4805 23.1536C80.4569 23.1536 82.1039 24.8006 82.1039 26.777L82.1039 32.2121C82.1039 34.1885 80.4569 35.8355 78.4805 35.8355ZM82.1039 16.9362L82.1039 12.2216C82.1039 10.4099 80.6216 9.09233 78.9746 9.09233L39.0347 9.09233C37.223 9.09233 35.9054 10.5746 35.9054 12.2216L35.9054 16.9362C35.9054 18.7479 37.3877 20.0655 39.0347 20.0655L78.8717 20.0655C80.6216 20.1272 82.1039 18.7479 82.1039 16.9362ZM58.9429 51.6056C65.3456 51.6056 70.7396 47.3028 72.3454 41.353C72.6748 40.1383 71.6866 38.8207 70.4719 38.8207L47.4756 38.8207C46.158 38.8207 45.211 40.0354 45.6022 41.353C47.1462 47.3028 52.499 51.6056 58.9429 51.6056Z"/>
   <path class="multicolor-1:tertiaryLabelColor clearBehindLayer SFSymbolsPreviewBDBDBD" d="M39.7553 9.09233C38.0465-7.89241 26.5175-19.3597 16.1002-31.1564C4.4065-44.3942-1.8727-59.1143 0.494802-76.9843C3.7477-101.525 21.453-120.383 46.4257-125.674C71.7895-130.965 98.2036-120.053 110.886-99.26C123.732-77.8695 121.303-53.1027 104.154-32.9269C93.2416-20.245 81.2804-8.22181 78.0276 9.25703C65.2839 9.25703 52.6019 9.09233 39.7553 9.09233Z"/>
  </g>
  <g id="Thin-L" transform="matrix(1 0 0 1 792.976 1556)">
   <path class="multicolor-0:secondaryLabelColor SFSymbolsPreview8A8A8E" d="M75.5798 32.1937L38.1784 32.1937C36.202 32.1937 34.555 30.5467 34.555 28.5703L34.555 23.5798C34.555 21.6034 36.202 19.9564 38.1784 19.9564L75.5798 19.9564C77.5562 19.9564 79.2032 21.6034 79.2032 23.5798L79.2032 28.5703C79.2032 30.5467 77.5562 32.1937 75.5798 32.1937ZM79.2032 13.8502L79.2032 9.52474C79.2032 7.71304 77.7209 6.39545 76.0739 6.39545L37.6905 6.39545C35.8788 6.39545 34.5612 7.87774 34.5612 9.52474L34.5612 13.8502C34.5612 15.6619 36.0435 16.9795 37.6905 16.9795L75.9154 16.9795C77.7209 16.9856 79.2032 15.6619 79.2032 13.8502ZM56.876 47.4079C63.0008 47.4079 68.2836 43.2718 69.7782 37.4888C70.1076 36.3297 69.1194 35.0121 67.9603 35.0121L45.7978 35.0121C44.4802 35.0121 43.6444 36.1712 43.98 37.4888C45.4684 43.2718 50.5989 47.4079 56.876 47.4079Z"/>
   <path class="multicolor-1:tertiaryLabelColor clearBehindLayer SFSymbolsPreviewBDBDBD" d="M38.3555 6.39545C36.7023-9.97783 25.6179-21.056 15.5342-32.4636C4.28514-45.2011-1.82726-59.4209 0.484736-76.6239C3.62634-100.275 20.6646-118.466 44.8035-123.59C69.2779-128.715 94.7463-118.137 106.984-98.1214C119.386-77.4536 117.068-53.6317 100.53-34.1229C89.9523-21.8857 78.3797-10.3072 75.238 6.56014C62.9946 6.56014 50.7574 6.39545 38.3555 6.39545Z"/>
  </g>
  <g id="Ultralight-L" transform="matrix(1 0 0 1 497.333 1556)">
   <path class="multicolor-0:secondaryLabelColor SFSymbolsPreview8A8A8E" d="M74.0942 30.3289L37.5185 30.3289C35.5421 30.3289 33.8951 28.6819 33.8951 26.7055L33.8951 21.9428C33.8951 19.9664 35.5421 18.3194 37.5185 18.3194L74.0942 18.3194C76.0706 18.3194 77.7176 19.9664 77.7176 21.9428L77.7176 26.7055C77.7176 28.6819 76.0706 30.3289 74.0942 30.3289ZM77.7176 12.2701L77.7176 8.14401C77.7176 6.33227 76.2353 5.01467 74.5883 5.01467L37.0021 5.01467C35.1904 5.01467 33.8728 6.49701 33.8728 8.14401L33.8728 12.2701C33.8728 14.0818 35.3551 15.3994 37.0021 15.3994L74.4014 15.3994C76.2353 15.3771 77.7176 14.0818 77.7176 12.2701ZM55.8175 45.2584C61.8 45.2584 67.0258 41.2078 68.4635 35.5101C68.7929 34.3795 67.8047 33.0619 66.6741 33.0619L44.9387 33.0619C43.6211 33.0619 42.8421 34.1925 43.1493 35.5101C44.6093 41.2078 49.6258 45.2584 55.8175 45.2584Z"/>
   <path class="multicolor-1:tertiaryLabelColor clearBehindLayer SFSymbolsPreviewBDBDBD" d="M37.6386 5.01467C36.0139-11.0454 25.1573-21.9243 15.2444-33.1326C4.22306-45.6138-1.80394-59.5774 0.479557-76.4387C3.56426-99.6341 20.2609-117.484 43.9728-122.523C67.9917-127.562 92.9766-117.155 104.986-97.5376C117.161-77.2399 114.899-53.9021 98.6746-34.735C88.2676-22.7255 76.8941-11.3748 73.8094 5.17937C61.8223 5.17937 49.8128 5.01467 37.6386 5.01467Z"/>
  </g>
  <g id="Black-M" transform="matrix(1 0 0 1 2869.79 1126)">
   <path class="multicolor-0:secondaryLabelColor SFSymbolsPreview8A8A8E" d="M76.6457 28.8395L37.5413 28.8395C36.0101 28.8395 34.7341 27.5635 34.7341 26.0323L34.7341 19.4245C34.7341 17.8933 36.0101 16.6173 37.5413 16.6173L76.6457 16.6173C78.1769 16.6173 79.4529 17.8933 79.4529 19.4245L79.4529 26.0323C79.4529 27.5635 78.1769 28.8395 76.6457 28.8395ZM79.4529 11.1719L79.4529 5.43661C79.4529 4.03301 78.3045 3.01221 77.0285 3.01221L37.2867 3.01221C35.8831 3.01221 34.8623 4.16061 34.8623 5.43661L34.8623 11.2889C34.8623 12.6925 36.0107 13.7133 37.2867 13.7133L77.0291 13.7133C78.3045 13.7246 79.4529 12.5755 79.4529 11.1719ZM57.0294 44.0827C63.2102 44.0827 68.3684 39.9233 70.0071 34.1372C70.3793 32.8819 69.3798 31.7442 68.1245 31.7442L45.9456 31.7442C44.6909 31.7442 43.7964 32.9995 44.0629 34.1372C45.6904 39.9233 50.8604 44.0827 57.0294 44.0827Z"/>
   <path class="multicolor-1:tertiaryLabelColor clearBehindLayer SFSymbolsPreviewBDBDBD" d="M38.51 3.01221C36.8719-13.4862 25.6599-24.4531 15.5868-35.9091C4.24724-48.7592-1.79413-62.9916 0.471296-80.3733C3.61984-104.18 20.7569-122.444 44.9348-127.486C69.4961-132.644 95.0679-122.072 107.29-101.914C119.757-81.2564 117.364-57.1942 100.737-37.6754C90.2815-25.3363 78.6979-13.7414 75.5494 3.02288C63.1989 3.13981 50.8598 3.01221 38.51 3.01221Z"/>
  </g>
  <g id="Heavy-M" transform="matrix(1 0 0 1 2575.29 1126)">
   <path class="multicolor-0:secondaryLabelColor SFSymbolsPreview8A8A8E" d="M73.6025 27.598L36.2069 27.598C34.6757 27.598 33.3997 26.322 33.3997 24.7908L33.3997 18.642C33.3997 17.1108 34.6757 15.8348 36.2069 15.8348L73.6025 15.8348C75.1337 15.8348 76.4097 17.1108 76.4097 18.642L76.4097 24.7908C76.4097 26.322 75.1337 27.598 73.6025 27.598ZM76.4097 10.5111L76.4097 5.17393C76.4097 3.77033 75.2613 2.74953 73.9853 2.74953L35.9467 2.74953C34.5431 2.74953 33.5223 3.89793 33.5223 5.17393L33.5223 10.6004C33.5223 12.004 34.6707 13.0248 35.9467 13.0248L73.9803 13.0248C75.2613 13.0581 76.4097 11.9147 76.4097 10.5111ZM54.8434 42.2605C60.8029 42.2605 65.7567 38.2561 67.3289 32.7076C67.6735 31.5131 66.7292 30.403 65.5347 30.403L44.1853 30.403C42.9859 30.403 42.1027 31.5975 42.3911 32.7076C43.9301 38.2561 48.9121 42.2605 54.8434 42.2605Z"/>
   <path class="multicolor-1:tertiaryLabelColor clearBehindLayer SFSymbolsPreviewBDBDBD" d="M37.0263 2.74953C35.4491-13.1075 24.6684-23.6762 14.9879-34.6788C4.07962-47.0367-1.72403-60.7217 0.45297-77.4286C3.47992-100.317 19.9699-117.879 43.2078-122.739C66.8235-127.688 91.4168-117.535 103.18-98.145C115.16-78.2786 112.861-55.14 96.8758-36.3786C86.8126-24.5261 75.6824-13.3627 72.6555 2.78779C60.7697 2.87713 48.9171 2.74953 37.0263 2.74953Z"/>
  </g>
  <g id="Bold-M" transform="matrix(1 0 0 1 2281.05 1126)">
   <path class="multicolor-0:secondaryLabelColor SFSymbolsPreview8A8A8E" d="M70.1984 26.21L34.7141 26.21C33.1829 26.21 31.9069 24.934 31.9069 23.4028L31.9069 17.7674C31.9069 16.2362 33.1829 14.9602 34.7141 14.9602L70.1984 14.9602C71.7296 14.9602 73.0056 16.2362 73.0056 17.7674L73.0056 23.4028C73.0056 24.934 71.7296 26.21 70.1984 26.21ZM73.0056 9.77262L73.0056 4.88086C73.0056 3.47726 71.8572 2.45646 70.5812 2.45646L34.4476 2.45646C33.044 2.45646 32.0232 3.60486 32.0232 4.88086L32.0232 9.83102C32.0232 11.2346 33.1716 12.2554 34.4476 12.2554L70.5699 12.2554C71.8572 12.3133 73.0056 11.1762 73.0056 9.77262ZM52.3981 40.223C58.11 40.223 62.8351 36.3918 64.333 31.1092C64.6467 29.9827 63.7641 28.9035 62.6377 28.9035L42.2163 28.9035C41.0786 28.9035 40.208 30.0299 40.521 31.1092C41.9611 36.3918 46.7327 40.223 52.3981 40.223Z"/>
   <path class="multicolor-1:tertiaryLabelColor clearBehindLayer SFSymbolsPreviewBDBDBD" d="M35.3666 2.45646C33.8574-12.683 23.5593-22.8063 14.3179-33.3018C3.89221-45.1091-1.64562-58.1817 0.432468-74.1339C3.32331-95.9954 19.0894-112.772 41.2759-117.427C63.8339-122.141 87.3322-112.458 98.5819-93.9287C110.018-74.9467 107.824-52.8413 92.5559-34.9273C82.9321-23.6191 72.3091-12.9382 69.4182 2.52559C58.0522 2.58406 46.744 2.45646 35.3666 2.45646Z"/>
  </g>
  <g id="Semibold-M" transform="matrix(1 0 0 1 1986.04 1126)">
   <path class="multicolor-0:secondaryLabelColor SFSymbolsPreview8A8A8E" d="M67.8515 25.2531L33.6849 25.2531C32.1537 25.2531 30.8777 23.9771 30.8777 22.4459L30.8777 17.1645C30.8777 15.6333 32.1537 14.3573 33.6849 14.3573L67.8515 14.3573C69.3827 14.3573 70.6587 15.6333 70.6587 17.1645L70.6587 22.4459C70.6587 23.9771 69.3827 25.2531 67.8515 25.2531ZM70.6587 9.26347L70.6587 4.67881C70.6587 3.27521 69.5103 2.25441 68.2343 2.25441L33.4141 2.25441C32.0105 2.25441 30.9897 3.40281 30.9897 4.67881L30.9897 9.30067C30.9897 10.7043 32.1381 11.7251 33.4141 11.7251L68.2186 11.7251C69.5103 11.7999 70.6587 10.6671 70.6587 9.26347ZM50.7122 38.8184C56.2535 38.8184 60.8209 35.1066 62.2676 30.0073C62.5599 28.9277 61.72 27.8697 60.6404 27.8697L40.8588 27.8697C39.7636 27.8697 38.9017 28.9493 39.2317 30.0073C40.6036 35.1066 45.2301 38.8184 50.7122 38.8184Z"/>
   <path class="multicolor-1:tertiaryLabelColor clearBehindLayer SFSymbolsPreviewBDBDBD" d="M34.2224 2.25441C32.76-12.3903 22.7946-22.2066 13.8559-32.3524C3.76295-43.7801-1.59156-56.4306 0.418336-71.8625C3.21535-93.0161 18.4824-109.25 39.944-113.765C61.7728-118.317 84.5163-108.958 95.4122-91.0218C106.472-72.6497 104.351-51.2565 89.5784-33.9267C80.2569-22.9937 69.9835-12.6455 67.1865 2.34483C56.1787 2.38201 45.2457 2.25441 34.2224 2.25441Z"/>
  </g>
  <g id="Medium-M" transform="matrix(1 0 0 1 1690.62 1126)">
   <path class="multicolor-0:secondaryLabelColor SFSymbolsPreview8A8A8E" d="M66.0721 24.5277L32.9046 24.5277C31.3734 24.5277 30.0974 23.2517 30.0974 21.7205L30.0974 16.7075C30.0974 15.1763 31.3734 13.9003 32.9046 13.9003L66.0721 13.9003C67.6033 13.9003 68.8793 15.1763 68.8793 16.7075L68.8793 21.7205C68.8793 23.2517 67.6033 24.5277 66.0721 24.5277ZM68.8793 8.87753L68.8793 4.52574C68.8793 3.12214 67.7309 2.10134 66.4549 2.10134L32.6305 2.10134C31.2269 2.10134 30.2061 3.24974 30.2061 4.52574L30.2061 8.89863C30.2061 10.3022 31.3545 11.323 32.6305 11.323L66.4359 11.323C67.7309 11.4106 68.8793 10.2811 68.8793 8.87753ZM49.434 37.7534C54.8459 37.7534 59.2937 34.1321 60.7015 29.1718C60.9778 28.1278 60.1701 27.086 59.1261 27.086L39.8295 27.086C38.7666 27.086 37.9113 28.1299 38.2541 29.1718C39.5743 34.1321 44.0909 37.7534 49.434 37.7534Z"/>
   <path class="multicolor-1:tertiaryLabelColor clearBehindLayer SFSymbolsPreviewBDBDBD" d="M33.3548 2.10134C31.9281-12.1683 22.2149-21.7518 13.5057-31.6325C3.665-42.7724-1.55059-55.1028 0.407622-70.1402C3.1335-90.757 18.0222-106.581 38.9342-110.989C60.2101-115.418 82.3812-106.305 93.0084-88.8177C103.784-70.9079 101.717-50.0549 87.3205-33.1679C78.2285-22.5195 68.2202-12.4235 65.4943 2.20789C54.7582 2.22894 44.1098 2.10134 33.3548 2.10134Z"/>
  </g>
  <g id="Regular-M" transform="matrix(1 0 0 1 1395.6 1126)">
   <path class="multicolor-0:secondaryLabelColor SFSymbolsPreview8A8A8E" d="M72.476 23.5818L40.6119 23.5818C39.0807 23.5818 37.8047 22.3058 37.8047 20.7746L37.8047 16.1116C37.8047 14.5804 39.0807 13.3044 40.6119 13.3044L72.476 13.3044C74.0072 13.3044 75.2832 14.5804 75.2832 16.1116L75.2832 20.7746C75.2832 22.3058 74.0072 23.5818 72.476 23.5818ZM75.2832 8.37454L75.2832 4.32639C75.2832 2.92279 74.1348 1.90199 72.8588 1.90199L40.3334 1.90199C38.9298 1.90199 37.909 3.05039 37.909 4.32639L37.909 8.37454C37.909 9.77814 39.0574 10.7989 40.3334 10.7989L72.8356 10.7989C74.1348 10.9033 75.2832 9.77814 75.2832 8.37454ZM56.4918 36.3646C61.7348 36.3646 66.0267 32.8615 67.3839 28.0824C67.6391 27.0848 66.8735 26.064 65.8759 26.064L47.212 26.064C46.1912 26.064 45.3445 27.0616 45.7041 28.0824C46.9568 32.8615 51.3299 36.3646 56.4918 36.3646Z"/>
   <path class="multicolor-1:tertiaryLabelColor clearBehindLayer SFSymbolsPreviewBDBDBD" d="M40.9482 1.90199C39.5678-11.8784 30.1837-21.1582 21.7739-30.6932C12.2622-41.4577 7.22787-53.3705 9.11866-67.8933C11.7518-87.81 26.147-103.098 46.3421-107.367C66.8967-111.635 88.3213-102.843 98.5986-85.9424C109.004-68.6357 107.009-48.4871 93.1004-32.1779C84.3078-21.9006 74.6452-12.1336 72.0121 2.02959C61.6304 2.02959 51.3531 1.90199 40.9482 1.90199Z"/>
  </g>
  <g id="Light-M" transform="matrix(1 0 0 1 1100.3 1126)">
   <path class="multicolor-0:secondaryLabelColor SFSymbolsPreview8A8A8E" d="M61.7848 21.1133L31.0133 21.1133C29.4821 21.1133 28.2061 19.8373 28.2061 18.3061L28.2061 13.9446C28.2061 12.4134 29.4821 11.1374 31.0133 11.1374L61.7848 11.1374C63.316 11.1374 64.592 12.4134 64.592 13.9446L64.592 18.3061C64.592 19.8373 63.316 21.1133 61.7848 21.1133ZM64.592 6.28286L64.592 2.49847C64.592 1.09487 63.4436 0.0740656 62.1676 0.0740656L30.6972 0.0740656C29.2936 0.0740656 28.2728 1.22247 28.2728 2.49847L28.2728 6.28286C28.2728 7.68642 29.4212 8.70722 30.6972 8.70722L62.1066 8.70722C63.4436 8.77392 64.592 7.68642 64.592 6.28286ZM46.3657 33.5193C51.4203 33.5193 55.6369 30.1293 56.9187 25.4632C57.1739 24.5033 56.4083 23.4825 55.4484 23.4825L37.3497 23.4825C36.3289 23.4825 35.5575 24.4424 35.8794 25.4632C37.0945 30.1293 41.3168 33.5193 46.3657 33.5193Z"/>
   <path class="multicolor-1:tertiaryLabelColor clearBehindLayer SFSymbolsPreviewBDBDBD" d="M31.2743 0.0740656C29.9316-13.2919 20.8489-22.3079 12.6652-31.579C3.45498-42.0044-1.4663-53.5781 0.386784-67.6487C2.94458-86.9625 16.8876-101.799 36.5174-105.955C56.4692-110.11 77.2532-101.543 87.2291-85.1703C97.3322-68.3534 95.4132-48.8454 81.9192-32.9884C73.3527-23.0125 63.954-13.5471 61.3962 0.201666C51.3536 0.201666 41.3778 0.0740656 31.2743 0.0740656Z"/>
  </g>
  <g id="Thin-M" transform="matrix(1 0 0 1 805.46 1126)">
   <path class="multicolor-0:secondaryLabelColor SFSymbolsPreview8A8A8E" d="M59.1841 17.8482L29.858 17.8482C28.3268 17.8482 27.0508 16.5722 27.0508 15.041L27.0508 11.0783C27.0508 9.54712 28.3268 8.27112 29.858 8.27112L59.1841 8.27112C60.7153 8.27112 61.9913 9.54712 61.9913 11.0783L61.9913 15.041C61.9913 16.5722 60.7153 17.8482 59.1841 17.8482ZM61.9913 3.51618L61.9913 0.0806401C61.9913-1.32296 60.8429-2.34375 59.5669-2.34375L29.492-2.34375C28.0884-2.34375 27.0676-1.19536 27.0676 0.0806401L27.0676 3.51618C27.0676 4.91978 28.216 5.94058 29.492 5.94058L59.4562 5.94058C60.8429 5.95742 61.9913 4.91978 61.9913 3.51618ZM44.5126 29.7559C49.3181 29.7559 53.435 26.5154 54.6171 21.9988C54.8723 21.0888 54.1067 20.068 53.1966 20.068L35.8455 20.068C34.8247 20.068 34.153 20.978 34.4251 21.9988C35.5903 26.5154 39.6133 29.7559 44.5126 29.7559Z"/>
   <path class="multicolor-1:tertiaryLabelColor clearBehindLayer SFSymbolsPreviewBDBDBD" d="M30.0193-2.34375C28.7264-15.1615 20.0424-23.8286 12.1578-32.751C3.34624-42.7278-1.42556-53.853 0.377744-67.3256C2.83584-85.8419 16.1807-100.08 35.0631-104.086C54.2174-108.092 74.1542-99.8249 83.7314-84.1494C93.4357-67.9804 91.6157-49.3196 78.6708-34.0607C70.4033-24.4835 61.3533-15.4167 58.8953-2.21615C49.3012-2.21615 39.724-2.34375 30.0193-2.34375Z"/>
  </g>
  <g id="Ultralight-M" transform="matrix(1 0 0 1 509.706 1126)">
   <path class="multicolor-0:secondaryLabelColor SFSymbolsPreview8A8A8E" d="M57.8522 16.1757L29.2662 16.1757C27.735 16.1757 26.459 14.8997 26.459 13.3685L26.459 9.60998C26.459 8.07878 27.735 6.80274 29.2662 6.80274L57.8522 6.80274C59.3834 6.80274 60.6594 8.07878 60.6594 9.60998L60.6594 13.3685C60.6594 14.8997 59.3834 16.1757 57.8522 16.1757ZM60.6594 2.09889L60.6594-1.15796C60.6594-2.56155 59.511-3.58235 58.235-3.58235L28.8748-3.58235C27.4712-3.58235 26.4504-2.43395 26.4504-1.15796L26.4504 2.09889C26.4504 3.50249 27.5988 4.52329 28.8748 4.52329L58.0987 4.52329C59.511 4.51461 60.6594 3.50249 60.6594 2.09889ZM43.5635 27.8281C48.2414 27.8281 52.3072 24.6642 53.4382 20.2242C53.6934 19.3397 52.9278 18.3189 52.0433 18.3189L35.0751 18.3189C34.0543 18.3189 33.4337 19.2034 33.6802 20.2242C34.8199 24.6642 38.7408 27.8281 43.5635 27.8281Z"/>
   <path class="multicolor-1:tertiaryLabelColor clearBehindLayer SFSymbolsPreviewBDBDBD" d="M29.3765-3.58235C28.1092-16.1193 19.6294-24.6077 11.8979-33.3514C3.29052-43.0985-1.40468-53.994 0.37312-67.1602C2.78012-85.2682 15.8188-99.2 34.3182-103.129C53.0641-107.059 72.567-98.9448 81.94-83.6267C91.4408-67.7895 89.6718-49.5627 77.0069-34.61C68.8926-25.237 60.0214-16.3745 57.6143-3.45475C48.25-3.45475 38.8771-3.58235 29.3765-3.58235Z"/>
  </g>
  <g id="Black-S" transform="matrix(1 0 0 1 2881.66 696)">
   <path class="multicolor-0:secondaryLabelColor SFSymbolsPreview8A8A8E" d="M60.8745 15.2626L29.7745 15.2626C28.5745 15.2626 27.5745 14.2626 27.5745 13.0626L27.5745 7.76263C27.5745 6.56266 28.5745 5.56266 29.7745 5.56266L60.8745 5.56266C62.0745 5.56266 63.0745 6.56266 63.0745 7.76263L63.0745 13.0626C63.0745 14.2626 62.0745 15.2626 60.8745 15.2626ZM63.0745 1.26266L63.0745-3.33735C63.0745-4.43734 62.1745-5.23734 61.1745-5.23734L29.5745-5.23734C28.4745-5.23734 27.6745-4.33734 27.6745-3.33735L27.6745 1.36266C27.6745 2.46266 28.5745 3.26266 29.5745 3.26266L61.1745 3.26266C62.1745 3.26266 63.0745 2.36266 63.0745 1.26266ZM45.2745 27.3626C50.1745 27.3626 54.2745 24.0626 55.5745 19.4626C55.8745 18.4626 55.0745 17.5626 54.0745 17.5626L36.4745 17.5626C35.4745 17.5626 34.7745 18.5626 34.9745 19.4626C36.2745 24.0626 40.3745 27.3626 45.2745 27.3626Z"/>
   <path class="multicolor-1:tertiaryLabelColor clearBehindLayer SFSymbolsPreviewBDBDBD" d="M30.5745-5.23734C29.2745-18.3374 20.3745-27.0374 12.3745-36.1374C3.37451-46.3374-1.42549-57.6374 0.374506-71.4374C2.87451-90.3374 16.4745-104.838 35.6745-108.838C55.1745-112.938 75.4745-104.538 85.1745-88.5374C95.075-72.1374 93.1745-53.0374 79.9745-37.5374C71.6745-27.7374 62.4745-18.5374 59.9745-5.23734C50.1745-5.13734 40.3745-5.23734 30.5745-5.23734Z"/>
  </g>
  <g id="Heavy-S" transform="matrix(1 0 0 1 2586.66 696)">
   <path class="multicolor-0:secondaryLabelColor SFSymbolsPreview8A8A8E" d="M58.5231 14.5168L28.7449 14.5168C27.5449 14.5168 26.5449 13.5168 26.5449 12.3168L26.5449 7.37078C26.5449 6.17083 27.5449 5.17083 28.7449 5.17083L58.5231 5.17083C59.7231 5.17083 60.7231 6.17083 60.7231 7.37078L60.7231 12.3168C60.7231 13.5168 59.7231 14.5168 58.5231 14.5168ZM60.7231 0.965236L60.7231-3.32794C60.7231-4.42794 59.8231-5.22794 58.8231-5.22794L28.5449-5.22794C27.4449-5.22794 26.6449-4.32794 26.6449-3.32794L26.6449 1.04163C26.6449 2.14163 27.5449 2.94163 28.5449 2.94163L58.8231 2.94163C59.8231 2.96524 60.7231 2.06524 60.7231 0.965236ZM43.584 26.1684C48.3188 26.1684 52.2536 22.9864 53.5064 18.5752C53.7828 17.6224 53.03 16.746 52.0772 16.746L35.1144 16.746C34.1616 16.746 33.4616 17.6988 33.6852 18.5752C34.9144 22.9864 38.8728 26.1684 43.584 26.1684Z"/>
   <path class="multicolor-1:tertiaryLabelColor clearBehindLayer SFSymbolsPreviewBDBDBD" d="M29.4268-5.22794C28.174-17.8323 19.6045-26.2254 11.9113-34.9714C3.2417-44.7938-1.36949-55.6689 0.359711-68.9497C2.7653-87.1416 15.8697-101.099 34.338-104.957C53.1064-108.892 72.6511-100.822 81.9971-85.4124C91.5194-69.6261 89.6902-51.2342 76.9859-36.3242C68.9927-26.9018 60.1467-18.0323 57.7411-5.20433C48.2952-5.12794 38.8728-5.22794 29.4268-5.22794Z"/>
  </g>
  <g id="Bold-S" transform="matrix(1 0 0 1 2291.86 696)">
   <path class="multicolor-0:secondaryLabelColor SFSymbolsPreview8A8A8E" d="M55.8932 13.6826L27.5932 13.6826C26.3932 13.6826 25.3932 12.6826 25.3932 11.4826L25.3932 6.93259C25.3932 5.73259 26.3932 4.73259 27.5932 4.73259L55.8932 4.73259C57.0932 4.73259 58.0932 5.73259 58.0932 6.93259L58.0932 11.4826C58.0932 12.6826 57.0932 13.6826 55.8932 13.6826ZM58.0932 0.63259L58.0932-3.31742C58.0932-4.41741 57.1932-5.21741 56.1932-5.21741L27.3932-5.21741C26.2932-5.21741 25.4932-4.31741 25.4932-3.31742L25.4932 0.68259C25.4932 1.78259 26.3932 2.58259 27.3932 2.58259L56.1932 2.58259C57.1932 2.63259 58.0932 1.73259 58.0932 0.63259ZM41.6932 24.8326C46.2432 24.8326 49.9932 21.7826 51.1932 17.5826C51.4432 16.6826 50.7432 15.8326 49.8432 15.8326L33.5932 15.8326C32.6932 15.8326 31.9932 16.7326 32.2432 17.5826C33.3932 21.7826 37.1932 24.8326 41.6932 24.8326Z"/>
   <path class="multicolor-1:tertiaryLabelColor clearBehindLayer SFSymbolsPreviewBDBDBD" d="M28.1432-5.21741C26.9432-17.2674 18.7432-25.3174 11.3932-33.6674C3.09316-43.0674-1.30684-53.4674 0.34316-66.1674C2.64316-83.5674 15.1932-96.9174 32.8432-100.617C50.7932-104.368 69.4932-96.6674 78.4432-81.9174C87.5432-66.8174 85.7932-49.2174 73.6432-34.9674C65.9932-25.9674 57.5432-17.4674 55.2432-5.16741C46.1932-5.11741 37.1932-5.21741 28.1432-5.21741Z"/>
  </g>
  <g id="Semibold-S" transform="matrix(1 0 0 1 1996.47 696)">
   <path class="multicolor-0:secondaryLabelColor SFSymbolsPreview8A8A8E" d="M54.08 13.1078L26.7992 13.1078C25.5992 13.1078 24.5992 12.1078 24.5992 10.9078L24.5992 6.6308C24.5992 5.4308 25.5992 4.4308 26.7992 4.4308L54.08 4.4308C55.28 4.4308 56.28 5.4308 56.28 6.6308L56.28 10.9078C56.28 12.1078 55.28 13.1078 54.08 13.1078ZM56.28 0.403596L56.28-3.3098C56.28-4.4098 55.38-5.2098 54.38-5.2098L26.5992-5.2098C25.4992-5.2098 24.6992-4.3098 24.6992-3.3098L24.6992 0.435396C24.6992 1.5354 25.5992 2.3354 26.5992 2.3354L54.38 2.3354C55.38 2.4036 56.28 1.5036 56.28 0.403596ZM40.3896 23.912C44.8122 23.912 48.4348 20.953 49.5984 16.8986C49.8302 16.035 49.1666 15.2032 48.303 15.2032L32.5444 15.2032C31.6808 15.2032 30.9808 16.0668 31.249 16.8986C32.3444 20.953 36.0352 23.912 40.3896 23.912Z"/>
   <path class="multicolor-1:tertiaryLabelColor clearBehindLayer SFSymbolsPreviewBDBDBD" d="M27.2582-5.2098C26.0946-16.8776 18.1494-24.691 11.036-32.768C2.99075-41.8768-1.26365-51.9492 0.33175-64.2488C2.55895-81.1028 14.7268-94.0342 31.8126-97.625C49.1984-101.248 67.316-93.8024 75.993-79.5074C84.8018-64.8806 83.1064-47.8266 71.3386-34.0316C63.9252-25.3228 55.7482-17.0776 53.521-5.1416C44.744-5.1098 36.0352-5.2098 27.2582-5.2098Z"/>
  </g>
  <g id="Medium-S" transform="matrix(1 0 0 1 1700.75 696)">
   <path class="multicolor-0:secondaryLabelColor SFSymbolsPreview8A8A8E" d="M52.7051 12.6718L26.1971 12.6718C24.9971 12.6718 23.9971 11.6718 23.9971 10.4718L23.9971 6.40177C23.9971 5.20177 24.9971 4.20177 26.1971 4.20177L52.7051 4.20177C53.9051 4.20177 54.9051 5.20177 54.9051 6.40177L54.9051 10.4718C54.9051 11.6718 53.9051 12.6718 52.7051 12.6718ZM54.9051 0.229774L54.9051-3.30423C54.9051-4.40423 54.0051-5.20423 53.0051-5.20423L25.9971-5.20423C24.8971-5.20423 24.0971-4.30423 24.0971-3.30423L24.0971 0.247774C24.0971 1.34777 24.9971 2.14777 25.9971 2.14777L53.0051 2.14777C54.0051 2.22977 54.9051 1.32977 54.9051 0.229774ZM39.4011 23.2138C43.7271 23.2138 47.2531 20.3238 48.3891 16.3798C48.6071 15.5438 47.9711 14.7258 47.1351 14.7258L31.7491 14.7258C30.9131 14.7258 30.2131 15.5618 30.4951 16.3798C31.5491 20.3238 35.1571 23.2138 39.4011 23.2138Z"/>
   <path class="multicolor-1:tertiaryLabelColor clearBehindLayer SFSymbolsPreviewBDBDBD" d="M26.5871-5.20423C25.4511-16.5822 17.6991-24.2162 10.7651-32.0862C2.9131-40.9742-1.2309-50.7982 0.323099-62.7942C2.4951-79.2342 14.3731-91.8482 31.0311-95.3562C47.9891-98.8822 65.6651-91.6302 74.1351-77.6802C82.7231-63.4122 81.0691-46.7722 69.5911-33.3222C62.3571-24.8342 54.3871-16.7822 52.2151-5.12223C43.6451-5.10423 35.1571-5.20423 26.5871-5.20423Z"/>
  </g>
  <g id="Regular-S" transform="matrix(1 0 0 1 1405.35 696)">
   <path class="multicolor-0:secondaryLabelColor SFSymbolsPreview8A8A8E" d="M50.9118 12.103L25.4118 12.103C24.2118 12.103 23.2118 11.103 23.2118 9.90302L23.2118 6.10304C23.2118 4.90304 24.2118 3.90304 25.4118 3.90304L50.9118 3.90304C52.1118 3.90304 53.1118 4.90304 53.1118 6.10304L53.1118 9.90302C53.1118 11.103 52.1118 12.103 50.9118 12.103ZM53.1118 0.00304247L53.1118-3.29696C53.1118-4.39696 52.2118-5.19696 51.2118-5.19696L25.2118-5.19696C24.1118-5.19696 23.3118-4.29696 23.3118-3.29696L23.3118 0.00304247C23.3118 1.10304 24.2118 1.90304 25.2118 1.90304L51.2118 1.90304C52.2118 2.00304 53.1118 1.10304 53.1118 0.00304247ZM38.1118 22.303C42.3118 22.303 45.7118 19.503 46.8118 15.703C47.0118 14.903 46.4118 14.103 45.6118 14.103L30.7118 14.103C29.9118 14.103 29.2118 14.903 29.5118 15.703C30.5118 19.503 34.0118 22.303 38.1118 22.303Z"/>
   <path class="multicolor-1:tertiaryLabelColor clearBehindLayer SFSymbolsPreviewBDBDBD" d="M25.7118-5.19696C24.6118-16.197 17.1118-23.597 10.4118-31.197C2.81181-39.797-1.18818-49.297 0.311815-60.897C2.41182-76.797 13.9118-88.997 30.0118-92.397C46.4118-95.797 63.5118-88.797 71.7118-75.297C80.0118-61.497 78.4118-45.397 67.3118-32.397C60.3118-24.197 52.6118-16.397 50.5118-5.09696C42.2118-5.09696 34.0118-5.19696 25.7118-5.19696Z"/>
  </g>
  <g id="Light-S" transform="matrix(1 0 0 1 1109.89 696)">
   <path class="multicolor-0:secondaryLabelColor SFSymbolsPreview8A8A8E" d="M49.1725 9.91937L24.6391 9.91937C23.4391 9.91937 22.4391 8.91937 22.4391 7.7194L22.4391 4.18607C22.4391 2.98607 23.4391 1.98607 24.6391 1.98607L49.1725 1.98607C50.3725 1.98607 51.3725 2.98607 51.3725 4.18607L51.3725 7.7194C51.3725 8.91937 50.3725 9.91937 49.1725 9.91937ZM51.3725-1.84727L51.3725-4.91393C51.3725-6.01393 50.4725-6.81393 49.4725-6.81393L24.4058-6.81393C23.3058-6.81393 22.5058-5.91393 22.5058-4.91393L22.5058-1.84727C22.5058-0.747264 23.4058 0.0527364 24.4058 0.0527364L49.4391 0.0527364C50.4725 0.119396 51.3725-0.747264 51.3725-1.84727ZM36.8725 19.7861C40.9058 19.7861 44.2391 17.0861 45.2725 13.3861C45.4725 12.6194 44.8725 11.8194 44.1058 11.8194L29.7058 11.8194C28.9058 11.8194 28.2725 12.5861 28.5391 13.3861C29.5058 17.0861 32.8725 19.7861 36.8725 19.7861Z"/>
   <path class="multicolor-1:tertiaryLabelColor clearBehindLayer SFSymbolsPreviewBDBDBD" d="M24.8725-6.81393C23.8058-17.4472 16.5725-24.6139 10.0725-31.9806C2.73906-40.2806-1.16092-49.4806 0.305748-60.6806C2.33906-76.0472 13.4391-87.8472 29.0391-91.1472C44.9058-94.4472 61.4391-87.6472 69.3725-74.6139C77.4058-61.2472 75.8725-45.7139 65.1391-33.1139C58.3391-25.1806 50.8725-17.6472 48.8391-6.71393C40.8391-6.71393 32.9058-6.81393 24.8725-6.81393Z"/>
  </g>
  <g id="Thin-S" transform="matrix(1 0 0 1 814.83 696)">
   <path class="multicolor-0:secondaryLabelColor SFSymbolsPreview8A8A8E" d="M46.8719 7.03138L23.6171 7.03138C22.4171 7.03138 21.4171 6.03138 21.4171 4.83138L21.4171 1.65073C21.4171 0.450733 22.4171-0.549267 23.6171-0.549267L46.8719-0.549267C48.0719-0.549267 49.0719 0.450733 49.0719 1.65073L49.0719 4.83138C49.0719 6.03138 48.0719 7.03138 46.8719 7.03138ZM49.0719-4.29443L49.0719-7.05249C49.0719-8.15249 48.1719-8.95249 47.1719-8.95249L23.3397-8.95249C22.2397-8.95249 21.4397-8.05249 21.4397-7.05249L21.4397-4.29443C21.4397-3.19443 22.3397-2.39442 23.3397-2.39442L47.0945-2.39442C48.1719-2.37184 49.0719-3.19443 49.0719-4.29443ZM35.2332 16.4572C39.0461 16.4572 42.2913 13.8895 43.2364 10.3217C43.4364 9.59908 42.8364 8.79908 42.1139 8.79908L28.3752 8.79908C27.5752 8.79908 27.03 9.52168 27.2526 10.3217C28.1752 13.8895 31.3655 16.4572 35.2332 16.4572Z"/>
   <path class="multicolor-1:tertiaryLabelColor clearBehindLayer SFSymbolsPreviewBDBDBD" d="M23.7623-8.95249C22.7397-19.1009 15.859-25.9589 9.6235-33.017C2.6429-40.9202-1.12485-49.7234 0.297728-60.3944C2.2429-75.0557 12.8139-86.3267 27.7526-89.4944C42.9139-92.6621 58.6977-86.1267 66.2784-73.7105C73.959-60.917 72.5139-46.1331 62.2655-34.0621C55.73-26.4815 48.5719-19.3009 46.6268-8.85249C39.0235-8.85249 31.4429-8.95249 23.7623-8.95249Z"/>
  </g>
  <g id="Ultralight-S" transform="matrix(1 0 0 1 518.966 696)">
   <path class="multicolor-0:secondaryLabelColor SFSymbolsPreview8A8A8E" d="M45.6936 5.5521L23.0936 5.5521C21.8936 5.5521 20.8936 4.5521 20.8936 3.3521L20.8936 0.352104C20.8936-0.847896 21.8936-1.84789 23.0936-1.84789L45.6936-1.84789C46.8936-1.84789 47.8936-0.847896 47.8936 0.352104L47.8936 3.3521C47.8936 4.5521 46.8936 5.5521 45.6936 5.5521ZM47.8936-5.5479L47.8936-8.1479C47.8936-9.2479 46.9936-10.0479 45.9936-10.0479L22.7936-10.0479C21.6936-10.0479 20.8936-9.1479 20.8936-8.1479L20.8936-5.5479C20.8936-4.4479 21.7936-3.6479 22.7936-3.6479L45.8936-3.6479C46.9936-3.6479 47.8936-4.4479 47.8936-5.5479ZM34.3936 14.7522C38.0936 14.7522 41.2936 12.2522 42.1936 8.75215C42.3936 8.05215 41.7936 7.2521 41.0936 7.2521L27.6936 7.2521C26.8936 7.2521 26.3936 7.95215 26.5936 8.75215C27.4936 12.2522 30.5936 14.7522 34.3936 14.7522Z"/>
   <path class="multicolor-1:tertiaryLabelColor clearBehindLayer SFSymbolsPreviewBDBDBD" d="M23.1936-10.0479C22.1936-19.9478 15.4936-26.6478 9.3936-33.5478C2.5936-41.2478-1.10637-49.8478 0.293629-60.2478C2.1936-74.5478 12.4936-85.5478 27.0936-88.6478C41.8936-91.7478 57.2936-85.3478 64.6936-73.2478C72.1936-60.7478 70.7936-46.3478 60.7936-34.5478C54.3936-27.1478 47.3936-20.1478 45.4936-9.9479C38.0936-9.9479 30.6936-10.0479 23.1936-10.0479Z"/>
  </g>
 </g>
</svg>
